<?xml version="1.0" encoding="utf-8" standalone="no"?>
<!-- Generated by Therion 6.0.6 (2022-03-12) -->
<!DOCTYPE svg PUBLIC "-//W3C//DTD SVG 1.1//EN" "http://www.w3.org/Graphics/SVG/1.1/DTD/svg11.dtd">
<svg width="15.441cm" height="8.068cm" viewBox="-89.747 -63.175 437.693 228.693" xmlns="http://www.w3.org/2000/svg" xmlns:xlink="http://www.w3.org/1999/xlink">
<defs>
<g id="F_aaaaaaa_data/211/GrotteMarion/outputs/GrotteMarion-coupe.svg">
<g>
<clipPath id="clip_10_data/211/GrotteMarion/outputs/GrotteMarion-coupe.svg">
  <path d="M69.390 78.860C76.383 76.050 83.377 73.240 90.370 70.430C91.307 70.490 92.243 70.550 93.180 70.610C99.360 68.737 105.540 66.863 111.720 64.990C111.720 64.990 123.710 61.250 125.950 60.870C128.200 60.500 137.570 58.630 138.320 58.250C139.070 57.880 149.930 56.380 149.930 56.380C153.863 55.693 157.797 55.007 161.730 54.320C161.730 54.320 175.590 50.570 178.770 50.200C181.960 49.820 192.820 46.830 193.570 46.080C194.320 45.330 206.690 37.650 208.560 36.520C210.430 35.400 218.670 31.280 219.610 30.720C220.540 30.160 228.430 23.790 229.370 23.040C230.310 22.290 236.900 17.980 236.900 17.980C238.390 17.230 239.880 16.480 241.370 15.730C241.370 15.730 241.370 15.730 241.370 15.730C241.167 15.210 240.963 14.690 240.760 14.170C240.760 14.170 235.980 16.790 235.390 17.060C234.810 17.330 226.590 20.820 225.480 21.800C224.360 22.790 214.070 29.760 211.230 31.190C208.370 32.620 199.190 35.300 198.560 35.930C197.930 36.550 193.790 39.860 192.450 40.580C191.110 41.290 186.910 43.350 186.910 43.350C185.223 40.950 183.537 38.550 181.850 36.150C181.850 36.150 190.570 29.780 191.320 29.030C192.060 28.280 203.300 21.170 204.800 20.040C206.290 18.920 214.350 14.230 216.970 12.550C219.600 10.860 227.120 8.240 228.810 7.310C230.510 6.380 236.730 5.100 236.730 5.100C238.237 2.823 239.743 0.547 241.250 -1.730C241.717 -2.473 242.183 -3.217 242.650 -3.960C243.033 -6.440 243.417 -8.920 243.800 -11.400C243.800 -11.400 246.210 -8.610 247.860 -6.930C249.510 -5.250 250.770 -5.430 250.420 -4.310C250.060 -3.200 249.900 -0.770 249.900 -0.770C249.900 -0.770 251.530 -0.030 250.830 1.090C250.130 2.200 248.420 5.160 248.420 5.160C248.133 6.070 247.847 6.980 247.560 7.890C247.560 7.890 247.560 7.890 247.560 7.890C247.560 7.890 257.110 5.890 258.630 5.460C260.150 5.030 266.160 4.070 266.930 4.160C267.700 4.240 274.790 4.470 275.300 4.560C275.820 4.640 282.320 5.560 283.030 5.550C283.730 5.550 291.460 4.570 295.140 4.140C298.830 3.700 302.950 3.080 302.950 3.080C304.560 3.053 306.170 3.027 307.780 3.000C307.780 3.000 308.390 7.470 307.950 8.520C307.520 9.580 305.760 12.650 305.760 12.650C305.197 13.303 304.633 13.957 304.070 14.610C304.070 14.610 304.070 14.610 304.070 14.610C300.873 15.600 297.677 16.590 294.480 17.580C292.107 17.507 289.733 17.433 287.360 17.360C284.817 16.857 282.273 16.353 279.730 15.850C275.327 15.980 270.923 16.110 266.520 16.240C266.520 16.240 252.860 20.940 251.920 21.510C250.990 22.070 239.010 31.820 239.010 31.820C233.390 36.197 227.770 40.573 222.150 44.950C215.640 49.070 209.130 53.190 202.620 57.310C196.683 59.497 190.747 61.683 184.810 63.870C178.057 64.620 171.303 65.370 164.550 66.120C162.173 66.243 159.797 66.367 157.420 66.490C157.047 67.740 156.673 68.990 156.300 70.240C155.550 69.990 154.800 69.740 154.050 69.490C153.800 68.803 153.550 68.117 153.300 67.430C150.927 68.240 148.553 69.050 146.180 69.860C142.373 71.173 138.567 72.487 134.760 73.800C132.200 74.360 129.640 74.920 127.080 75.480C121.023 77.353 114.967 79.227 108.910 81.100C106.227 81.850 103.543 82.600 100.860 83.350C98.860 84.287 96.860 85.223 94.860 86.160C93.050 86.223 91.240 86.287 89.430 86.350C86.433 87.410 83.437 88.470 80.440 89.530C79.190 90.343 77.940 91.157 76.690 91.970C74.007 92.530 71.323 93.090 68.640 93.650C64.583 94.773 60.527 95.897 56.470 97.020C53.033 97.457 49.597 97.893 46.160 98.330C42.853 99.330 39.547 100.330 36.240 101.330C34.430 102.143 32.620 102.957 30.810 103.770C27.063 104.517 23.317 105.263 19.570 106.010C16.883 106.573 14.197 107.137 11.510 107.700C8.763 108.013 6.017 108.327 3.270 108.640C2.023 109.450 0.777 110.260 -0.470 111.070C-0.783 107.323 -1.097 103.577 -1.410 99.830C1.640 99.260 4.690 98.690 7.740 98.120C7.740 98.120 7.740 98.120 7.740 98.120C5.510 96.753 3.280 95.387 1.050 94.020C-0.533 93.087 -2.117 92.153 -3.700 91.220C-4.203 90.283 -4.707 89.347 -5.210 88.410C-3.843 87.620 -2.477 86.830 -1.110 86.040C-1.110 86.040 0.400 89.490 2.130 91.000C3.850 92.510 12.050 96.610 12.050 96.610C12.627 96.970 13.203 97.330 13.780 97.690C13.780 97.690 15.290 97.480 15.720 94.240C16.150 91.000 15.510 84.310 15.510 84.310C15.510 84.310 15.510 84.310 15.510 84.310C15.510 84.310 18.160 80.560 20.040 79.350C22.580 77.710 25.800 77.500 28.670 76.540C32.860 75.140 37.050 73.740 41.190 72.220C43.440 71.400 45.570 70.260 47.880 69.630C50.060 69.040 52.320 68.370 54.570 68.550C55.870 68.660 57.040 69.410 58.290 69.800C59.250 70.090 60.260 71.010 61.190 70.630C62.460 70.110 63.200 67.040 63.200 67.040C63.707 68.687 64.213 70.333 64.720 71.980C64.720 71.980 64.050 72.410 62.870 73.130C61.220 74.150 62.900 77.950 63.210 78.670C63.770 79.980 64.330 80.730 65.640 80.170C66.950 79.600 69.390 78.860 69.390 78.860C69.390 78.860 69.390 78.860 69.390 78.860M45.980 74.550C45.980 74.550 45.980 74.550 45.980 74.550C45.980 75.300 46.730 82.410 46.730 83.160C46.730 83.910 45.040 88.030 45.040 88.030C45.040 88.030 45.040 88.030 45.040 88.030C43.830 88.300 42.620 88.570 41.410 88.840C41.410 88.840 36.870 89.490 33.640 90.350C30.400 91.220 25.430 92.730 25.430 92.730C25.430 92.730 25.430 92.730 25.430 92.730C25.360 91.867 25.290 91.003 25.220 90.140C25.290 88.483 25.360 86.827 25.430 85.170C25.430 85.170 25.430 85.170 25.430 85.170C25.430 85.170 28.670 83.660 31.050 81.940C33.420 80.210 34.720 78.920 37.740 78.050C40.760 77.190 45.980 74.550 45.980 74.550" />
</clipPath>
<g clip-path="url(#clip_10_data/211/GrotteMarion/outputs/GrotteMarion-coupe.svg)">
<path fill="#ffffff" stroke="none" d="M163.410 54.920C163.410 54.920 163.840 56.210 163.600 56.740C163.360 57.260 161.730 58.460 161.730 58.460L158.240 59.560C158.240 59.560 156.220 58.510 156.180 58.320C156.130 58.130 155.740 56.640 155.740 56.640C155.740 56.640 159.720 55.160 160.100 55.110C160.490 55.060 163.410 54.920 163.410 54.920Z" />
<path fill="none" stroke="#4c4c4c" stroke-width="0.500" d="M163.410 54.920C163.410 54.920 163.840 56.210 163.600 56.740C163.360 57.260 161.730 58.460 161.730 58.460L158.240 59.560C158.240 59.560 156.220 58.510 156.180 58.320C156.130 58.130 155.740 56.640 155.740 56.640C155.740 56.640 159.720 55.160 160.100 55.110C160.490 55.060 163.410 54.920 163.410 54.920Z" />
<path fill="#ffffff" stroke="none" d="M155.700 58.700C155.700 58.700 154.980 60.090 154.790 60.140C154.590 60.190 153.590 60.190 153.450 59.800C153.300 59.420 153.110 58.320 153.210 57.980C153.300 57.650 153.300 56.590 153.730 56.740C154.160 56.880 155.120 56.880 155.120 56.880Z" />
<path fill="none" stroke="#4c4c4c" stroke-width="0.500" d="M155.700 58.700C155.700 58.700 154.980 60.090 154.790 60.140C154.590 60.190 153.590 60.190 153.450 59.800C153.300 59.420 153.110 58.320 153.210 57.980C153.300 57.650 153.300 56.590 153.730 56.740C154.160 56.880 155.120 56.880 155.120 56.880Z" />
<path fill="#ffffff" stroke="none" d="M152.630 57.170L152.390 59.280L151.390 60.950L149.760 61.530C149.760 61.530 148.030 59.900 147.980 59.610C147.940 59.320 147.700 58.460 147.790 58.130C147.890 57.790 151.380 56.830 151.380 56.830Z" />
<path fill="none" stroke="#4c4c4c" stroke-width="0.500" d="M152.630 57.170L152.390 59.280L151.390 60.950L149.760 61.530C149.760 61.530 148.030 59.900 147.980 59.610C147.940 59.320 147.700 58.460 147.790 58.130C147.890 57.790 151.380 56.830 151.380 56.830Z" />
<path fill="#ffffff" stroke="none" d="M160.060 60.090L161.880 58.990C161.880 58.990 162.640 59.900 162.740 60.230C162.840 60.570 162.790 61.100 162.550 61.620C162.310 62.150 161.400 62.870 161.400 62.870C161.400 62.870 159.390 62.770 159.150 62.490C158.910 62.200 157.570 60.900 157.570 60.900L158.330 59.950Z" />
<path fill="none" stroke="#4c4c4c" stroke-width="0.500" d="M160.060 60.090L161.880 58.990C161.880 58.990 162.640 59.900 162.740 60.230C162.840 60.570 162.790 61.100 162.550 61.620C162.310 62.150 161.400 62.870 161.400 62.870C161.400 62.870 159.390 62.770 159.150 62.490C158.910 62.200 157.570 60.900 157.570 60.900L158.330 59.950Z" />
<path fill="#ffffff" stroke="none" d="M156.370 59.560L157.470 60.190C157.470 60.190 157.230 61.620 156.800 62.390C156.370 63.160 155.890 64.110 155.890 64.110C155.890 64.110 154.790 64.070 154.600 63.780C154.400 63.490 153.830 62.340 153.880 62.010C153.920 61.670 154.120 60.950 154.120 60.950L155.550 59.900L155.740 59.560Z" />
<path fill="none" stroke="#4c4c4c" stroke-width="0.500" d="M156.370 59.560L157.470 60.190C157.470 60.190 157.230 61.620 156.800 62.390C156.370 63.160 155.890 64.110 155.890 64.110C155.890 64.110 154.790 64.070 154.600 63.780C154.400 63.490 153.830 62.340 153.880 62.010C153.920 61.670 154.120 60.950 154.120 60.950L155.550 59.900L155.740 59.560Z" />
<path fill="#ffffff" stroke="none" d="M152.680 60.900C152.680 60.900 153.400 61.620 153.490 61.960C153.590 62.290 153.300 64.350 153.300 64.350C153.300 64.350 153.400 64.930 152.680 65.020C151.960 65.120 151.000 64.830 150.760 64.500C150.520 64.160 149.560 63.490 149.560 63.300C149.560 63.110 149.760 62.340 149.760 62.340Z" />
<path fill="none" stroke="#4c4c4c" stroke-width="0.500" d="M152.680 60.900C152.680 60.900 153.400 61.620 153.490 61.960C153.590 62.290 153.300 64.350 153.300 64.350C153.300 64.350 153.400 64.930 152.680 65.020C151.960 65.120 151.000 64.830 150.760 64.500C150.520 64.160 149.560 63.490 149.560 63.300C149.560 63.110 149.760 62.340 149.760 62.340Z" />
<path fill="#ffffff" stroke="none" d="M157.810 62.530C157.810 62.530 158.620 63.250 158.960 63.250C159.290 63.250 159.910 62.870 159.670 63.680C159.440 64.500 159.530 64.930 159.390 65.120C159.250 65.310 157.520 66.220 157.520 66.220C157.520 66.220 156.470 65.740 156.420 65.550C156.370 65.360 156.230 64.640 156.230 64.640Z" />
<path fill="none" stroke="#4c4c4c" stroke-width="0.500" d="M157.810 62.530C157.810 62.530 158.620 63.250 158.960 63.250C159.290 63.250 159.910 62.870 159.670 63.680C159.440 64.500 159.530 64.930 159.390 65.120C159.250 65.310 157.520 66.220 157.520 66.220C157.520 66.220 156.470 65.740 156.420 65.550C156.370 65.360 156.230 64.640 156.230 64.640Z" />
<path fill="#ffffff" stroke="none" d="M154.020 64.550L155.270 65.120L156.080 66.270L155.940 66.940L154.840 67.520L153.730 67.080L152.300 66.410L151.870 65.740L152.870 65.260Z" />
<path fill="none" stroke="#4c4c4c" stroke-width="0.500" d="M154.020 64.550L155.270 65.120L156.080 66.270L155.940 66.940L154.840 67.520L153.730 67.080L152.300 66.410L151.870 65.740L152.870 65.260Z" />
<path fill="none" stroke="#4c4c4c" stroke-width="0.350" d="M64.160 80.690C64.160 80.690 64.450 86.020 64.590 87.320C64.730 88.620 64.300 94.960 64.300 94.960" />
<path fill="none" stroke="#4c4c4c" stroke-width="0.350" d="M45.040 88.030L45.260 92.800L44.830 95.250L44.980 98.710" />
<path fill="none" stroke="#4c4c4c" stroke-width="0.350" d="M15.270 96.260C15.270 96.260 15.990 99.720 15.840 100.300C15.700 100.880 15.560 101.450 15.120 102.320C14.690 103.180 14.260 107.080 14.260 107.080" />
<path fill="none" stroke="#4c4c4c" stroke-width="0.350" d="M2.290 108.950C2.290 108.950 3.150 107.660 2.860 106.500C2.580 105.350 2.430 104.480 2.430 103.760C2.430 103.040 1.860 99.150 1.860 99.150" />
<path fill="none" stroke="#4c4c4c" stroke-width="0.350" d="M25.220 93.670C25.220 93.670 26.660 95.830 26.660 96.410C26.660 96.980 25.940 98.280 25.790 98.860C25.650 99.440 25.070 101.600 25.070 101.600L25.510 104.770" />
<path fill="#ffffff" stroke="none" d="M120.910 63.390C121.140 63.480 122.600 64.890 122.550 65.460C122.500 66.020 121.470 67.100 121.470 67.100C121.470 67.100 120.010 67.430 119.730 67.150C119.450 66.870 118.790 66.440 118.560 66.070C118.320 65.690 118.320 64.890 118.370 64.660C118.420 64.420 119.360 63.620 119.360 63.620L120.580 63.340Z" />
<path fill="none" stroke="#4c4c4c" stroke-width="0.500" d="M120.910 63.390C121.140 63.480 122.600 64.890 122.550 65.460C122.500 66.020 121.470 67.100 121.470 67.100C121.470 67.100 120.010 67.430 119.730 67.150C119.450 66.870 118.790 66.440 118.560 66.070C118.320 65.690 118.320 64.890 118.370 64.660C118.420 64.420 119.360 63.620 119.360 63.620L120.580 63.340Z" />
<path fill="#ffffff" stroke="none" d="M115.360 65.790L117.380 67.380L117.150 68.840C117.150 68.840 116.870 69.590 116.120 69.540C115.360 69.500 113.630 69.310 113.390 68.980C113.160 68.650 111.750 67.010 111.790 66.820C111.840 66.630 112.970 65.640 112.970 65.640L114.750 65.320Z" />
<path fill="none" stroke="#4c4c4c" stroke-width="0.500" d="M115.360 65.790L117.380 67.380L117.150 68.840C117.150 68.840 116.870 69.590 116.120 69.540C115.360 69.500 113.630 69.310 113.390 68.980C113.160 68.650 111.750 67.010 111.790 66.820C111.840 66.630 112.970 65.640 112.970 65.640L114.750 65.320Z" />
<path fill="#ffffff" stroke="none" d="M110.010 67.150C110.010 67.150 110.290 69.260 110.100 69.870C109.910 70.480 108.930 71.520 108.690 71.710C108.460 71.890 106.810 72.740 106.810 72.550C106.810 72.360 106.580 70.720 106.630 69.920C106.670 69.120 106.390 67.950 106.630 67.620C106.860 67.290 109.680 66.400 109.680 66.400Z" />
<path fill="none" stroke="#4c4c4c" stroke-width="0.500" d="M110.010 67.150C110.010 67.150 110.290 69.260 110.100 69.870C109.910 70.480 108.930 71.520 108.690 71.710C108.460 71.890 106.810 72.740 106.810 72.550C106.810 72.360 106.580 70.720 106.630 69.920C106.670 69.120 106.390 67.950 106.630 67.620C106.860 67.290 109.680 66.400 109.680 66.400Z" />
<path fill="#ffffff" stroke="none" d="M105.220 68.560C105.220 68.560 105.640 71.890 105.730 72.220C105.830 72.550 105.730 73.210 104.700 73.680C103.670 74.150 103.010 74.380 103.010 74.380L100.710 74.850L100.420 73.870C100.420 73.870 101.410 72.500 101.460 72.270C101.500 72.030 101.460 71.610 101.270 71.280C101.080 70.950 100.560 70.300 100.560 70.110C100.560 69.920 100.990 69.540 101.970 69.070C102.960 68.600 105.220 68.560 105.220 68.560Z" />
<path fill="none" stroke="#4c4c4c" stroke-width="0.500" d="M105.220 68.560C105.220 68.560 105.640 71.890 105.730 72.220C105.830 72.550 105.730 73.210 104.700 73.680C103.670 74.150 103.010 74.380 103.010 74.380L100.710 74.850L100.420 73.870C100.420 73.870 101.410 72.500 101.460 72.270C101.500 72.030 101.460 71.610 101.270 71.280C101.080 70.950 100.560 70.300 100.560 70.110C100.560 69.920 100.990 69.540 101.970 69.070C102.960 68.600 105.220 68.560 105.220 68.560Z" />
<path fill="#ffffff" stroke="none" d="M98.780 70.620C99.200 70.530 100.420 71.000 100.560 71.520C100.710 72.030 100.710 73.070 100.470 73.490C100.240 73.910 99.770 74.710 99.390 74.950C99.010 75.180 97.230 75.890 97.040 75.890C96.850 75.890 94.460 75.510 94.600 75.280C94.740 75.040 95.630 73.350 95.630 73.350L94.270 71.560L95.490 70.770Z" />
<path fill="none" stroke="#4c4c4c" stroke-width="0.500" d="M98.780 70.620C99.200 70.530 100.420 71.000 100.560 71.520C100.710 72.030 100.710 73.070 100.470 73.490C100.240 73.910 99.770 74.710 99.390 74.950C99.010 75.180 97.230 75.890 97.040 75.890C96.850 75.890 94.460 75.510 94.600 75.280C94.740 75.040 95.630 73.350 95.630 73.350L94.270 71.560L95.490 70.770Z" />
<path fill="#ffffff" stroke="none" d="M93.000 72.220C93.380 72.320 94.640 73.680 94.640 73.680C94.640 73.680 94.080 75.560 94.030 75.750C93.990 75.930 92.200 77.480 92.200 77.480C92.200 77.480 90.840 78.140 90.560 78.090C90.280 78.050 86.520 77.770 85.860 77.530C85.200 77.300 84.540 76.590 84.450 76.310C84.360 76.030 85.670 74.240 86.000 73.910C86.330 73.580 91.310 71.890 91.310 71.890Z" />
<path fill="none" stroke="#4c4c4c" stroke-width="0.500" d="M93.000 72.220C93.380 72.320 94.640 73.680 94.640 73.680C94.640 73.680 94.080 75.560 94.030 75.750C93.990 75.930 92.200 77.480 92.200 77.480C92.200 77.480 90.840 78.140 90.560 78.090C90.280 78.050 86.520 77.770 85.860 77.530C85.200 77.300 84.540 76.590 84.450 76.310C84.360 76.030 85.670 74.240 86.000 73.910C86.330 73.580 91.310 71.890 91.310 71.890Z" />
<path fill="#ffffff" stroke="none" d="M195.230 46.770C195.750 47.050 196.710 47.480 196.710 48.290C196.710 49.100 196.850 50.010 196.330 51.060C195.810 52.110 194.610 53.440 194.610 53.440C194.610 53.440 193.130 53.580 192.850 53.350C192.560 53.110 191.030 49.870 190.990 49.670C190.940 49.480 192.320 47.620 192.320 47.620Z" />
<path fill="none" stroke="#4c4c4c" stroke-width="0.500" d="M195.230 46.770C195.750 47.050 196.710 47.480 196.710 48.290C196.710 49.100 196.850 50.010 196.330 51.060C195.810 52.110 194.610 53.440 194.610 53.440C194.610 53.440 193.130 53.580 192.850 53.350C192.560 53.110 191.030 49.870 190.990 49.670C190.940 49.480 192.320 47.620 192.320 47.620Z" />
<path fill="#ffffff" stroke="none" d="M191.510 52.340C191.610 52.630 194.040 55.300 194.090 55.540C194.140 55.780 194.140 56.350 194.140 56.350C194.140 56.350 192.370 55.680 191.940 55.440C191.510 55.200 188.890 54.540 188.650 54.490C188.410 54.440 188.080 53.390 188.030 52.920C187.980 52.440 187.980 51.720 187.980 51.720L189.940 52.110Z" />
<path fill="none" stroke="#4c4c4c" stroke-width="0.500" d="M191.510 52.340C191.610 52.630 194.040 55.300 194.090 55.540C194.140 55.780 194.140 56.350 194.140 56.350C194.140 56.350 192.370 55.680 191.940 55.440C191.510 55.200 188.890 54.540 188.650 54.490C188.410 54.440 188.080 53.390 188.030 52.920C187.980 52.440 187.980 51.720 187.980 51.720L189.940 52.110Z" />
<path fill="#ffffff" stroke="none" d="M190.230 55.350C190.230 55.350 190.230 56.210 189.900 56.440C189.560 56.680 186.990 57.680 186.710 57.680C186.420 57.680 185.180 57.540 185.270 57.210C185.370 56.870 185.750 55.680 185.790 55.250C185.840 54.820 185.880 53.390 185.880 53.390L187.510 53.010L188.220 54.820L189.230 55.200L189.940 55.350Z" />
<path fill="none" stroke="#4c4c4c" stroke-width="0.500" d="M190.230 55.350C190.230 55.350 190.230 56.210 189.900 56.440C189.560 56.680 186.990 57.680 186.710 57.680C186.420 57.680 185.180 57.540 185.270 57.210C185.370 56.870 185.750 55.680 185.790 55.250C185.840 54.820 185.880 53.390 185.880 53.390L187.510 53.010L188.220 54.820L189.230 55.200L189.940 55.350Z" />
<path fill="#ffffff" stroke="none" d="M184.600 53.390C184.600 53.390 185.410 55.010 185.360 55.350C185.320 55.680 184.890 56.830 184.800 57.060C184.700 57.300 184.030 57.970 183.840 58.070C183.650 58.160 182.030 58.400 182.030 58.210C182.030 58.020 181.740 56.020 181.980 55.440C182.210 54.870 183.020 53.060 183.020 53.060Z" />
<path fill="none" stroke="#4c4c4c" stroke-width="0.500" d="M184.600 53.390C184.600 53.390 185.410 55.010 185.360 55.350C185.320 55.680 184.890 56.830 184.800 57.060C184.700 57.300 184.030 57.970 183.840 58.070C183.650 58.160 182.030 58.400 182.030 58.210C182.030 58.020 181.740 56.020 181.980 55.440C182.210 54.870 183.020 53.060 183.020 53.060Z" />
<path fill="#ffffff" stroke="none" d="M185.320 58.260C185.320 58.260 186.620 59.210 186.520 59.540C186.430 59.880 185.620 61.120 185.530 61.310C185.440 61.500 184.440 61.930 184.440 61.930C184.440 61.930 182.620 60.970 182.330 60.590C182.040 60.210 181.800 59.210 181.800 59.210L184.270 58.210Z" />
<path fill="none" stroke="#4c4c4c" stroke-width="0.500" d="M185.320 58.260C185.320 58.260 186.620 59.210 186.520 59.540C186.430 59.880 185.620 61.120 185.530 61.310C185.440 61.500 184.440 61.930 184.440 61.930C184.440 61.930 182.620 60.970 182.330 60.590C182.040 60.210 181.800 59.210 181.800 59.210L184.270 58.210Z" />
<path fill="#ffffff" stroke="none" d="M190.180 57.020C190.180 57.020 191.470 57.680 191.330 58.400C191.190 59.110 190.720 60.120 190.720 60.120L189.010 60.590C189.010 60.590 188.060 60.880 187.720 60.400C187.380 59.920 186.660 58.400 186.660 58.400C186.660 58.400 186.990 57.970 187.330 57.830C187.660 57.680 190.180 57.020 190.180 57.020Z" />
<path fill="none" stroke="#4c4c4c" stroke-width="0.500" d="M190.180 57.020C190.180 57.020 191.470 57.680 191.330 58.400C191.190 59.110 190.720 60.120 190.720 60.120L189.010 60.590C189.010 60.590 188.060 60.880 187.720 60.400C187.380 59.920 186.660 58.400 186.660 58.400C186.660 58.400 186.990 57.970 187.330 57.830C187.660 57.680 190.180 57.020 190.180 57.020Z" />
<path fill="#ffffff" stroke="none" d="M192.330 56.250C192.760 56.350 194.100 57.060 193.960 57.490C193.810 57.920 193.670 58.350 193.340 58.400C193.000 58.450 191.910 58.260 191.910 58.260L190.900 56.730L191.280 56.350Z" />
<path fill="none" stroke="#4c4c4c" stroke-width="0.500" d="M192.330 56.250C192.760 56.350 194.100 57.060 193.960 57.490C193.810 57.920 193.670 58.350 193.340 58.400C193.000 58.450 191.910 58.260 191.910 58.260L190.900 56.730L191.280 56.350Z" />
<path fill="#ffffff" stroke="none" d="M205.380 41.240C205.380 41.240 208.290 43.000 208.300 43.290C208.300 43.570 208.060 44.340 207.870 44.810C207.680 45.290 205.630 46.390 205.630 46.390C205.630 46.390 203.810 46.100 204.000 45.770C204.190 45.430 204.480 43.670 204.330 43.330C204.190 43.000 203.670 42.000 203.670 42.000L204.760 41.240Z" />
<path fill="none" stroke="#4c4c4c" stroke-width="0.500" d="M205.380 41.240C205.380 41.240 208.290 43.000 208.300 43.290C208.300 43.570 208.060 44.340 207.870 44.810C207.680 45.290 205.630 46.390 205.630 46.390C205.630 46.390 203.810 46.100 204.000 45.770C204.190 45.430 204.480 43.670 204.330 43.330C204.190 43.000 203.670 42.000 203.670 42.000L204.760 41.240Z" />
<path fill="#ffffff" stroke="none" d="M208.770 37.570C208.770 37.570 210.720 38.660 210.770 39.040C210.820 39.420 210.530 41.330 210.530 41.330C210.530 41.330 208.870 42.140 208.580 42.140C208.290 42.140 206.050 40.760 206.050 40.760C206.050 40.760 205.530 40.660 205.670 39.950C205.810 39.230 207.150 37.760 207.150 37.760Z" />
<path fill="none" stroke="#4c4c4c" stroke-width="0.500" d="M208.770 37.570C208.770 37.570 210.720 38.660 210.770 39.040C210.820 39.420 210.530 41.330 210.530 41.330C210.530 41.330 208.870 42.140 208.580 42.140C208.290 42.140 206.050 40.760 206.050 40.760C206.050 40.760 205.530 40.660 205.670 39.950C205.810 39.230 207.150 37.760 207.150 37.760Z" />
<path fill="#ffffff" stroke="none" d="M201.570 43.240C201.570 43.240 203.430 44.190 203.430 44.570C203.430 44.950 203.240 46.290 203.100 46.670C202.960 47.050 201.580 48.770 201.580 48.770L200.100 48.960C200.100 48.960 199.520 48.150 199.620 47.770C199.710 47.390 199.810 46.390 199.610 46.100C199.420 45.810 198.280 44.950 198.280 44.950C198.280 44.950 199.810 43.670 200.140 43.430C200.470 43.190 201.570 43.240 201.570 43.240Z" />
<path fill="none" stroke="#4c4c4c" stroke-width="0.500" d="M201.570 43.240C201.570 43.240 203.430 44.190 203.430 44.570C203.430 44.950 203.240 46.290 203.100 46.670C202.960 47.050 201.580 48.770 201.580 48.770L200.100 48.960C200.100 48.960 199.520 48.150 199.620 47.770C199.710 47.390 199.810 46.390 199.610 46.100C199.420 45.810 198.280 44.950 198.280 44.950C198.280 44.950 199.810 43.670 200.140 43.430C200.470 43.190 201.570 43.240 201.570 43.240Z" />
<path fill="#ffffff" stroke="none" d="M203.910 47.100C203.910 47.100 205.260 47.530 205.310 47.860C205.360 48.200 205.270 49.150 205.120 49.440C204.980 49.720 203.840 50.910 203.840 50.910L201.540 51.300C201.540 51.300 200.630 50.820 200.630 50.340C200.630 49.870 201.530 49.150 201.530 49.150Z" />
<path fill="none" stroke="#4c4c4c" stroke-width="0.500" d="M203.910 47.100C203.910 47.100 205.260 47.530 205.310 47.860C205.360 48.200 205.270 49.150 205.120 49.440C204.980 49.720 203.840 50.910 203.840 50.910L201.540 51.300C201.540 51.300 200.630 50.820 200.630 50.340C200.630 49.870 201.530 49.150 201.530 49.150Z" />
<path fill="#ffffff" stroke="none" d="M197.760 45.530C197.760 45.530 199.140 46.430 199.230 46.810C199.330 47.200 199.430 48.340 199.430 48.530C199.430 48.720 199.140 49.580 198.910 49.960C198.670 50.340 196.810 50.910 196.810 50.910C196.810 50.910 196.950 49.390 196.990 49.200C197.040 49.010 196.470 47.340 196.470 47.340L195.940 46.390Z" />
<path fill="none" stroke="#4c4c4c" stroke-width="0.500" d="M197.760 45.530C197.760 45.530 199.140 46.430 199.230 46.810C199.330 47.200 199.430 48.340 199.430 48.530C199.430 48.720 199.140 49.580 198.910 49.960C198.670 50.340 196.810 50.910 196.810 50.910C196.810 50.910 196.950 49.390 196.990 49.200C197.040 49.010 196.470 47.340 196.470 47.340L195.940 46.390Z" />
<path fill="#ffffff" stroke="none" d="M200.750 23.910C200.750 23.910 203.430 27.160 202.590 28.000C201.750 28.840 198.980 29.570 198.980 29.570C198.980 29.570 197.640 28.000 197.390 27.520C197.150 27.040 196.900 26.190 196.900 26.190Z" />
<path fill="none" stroke="#4c4c4c" stroke-width="0.500" d="M200.750 23.910C200.750 23.910 203.430 27.160 202.590 28.000C201.750 28.840 198.980 29.570 198.980 29.570C198.980 29.570 197.640 28.000 197.390 27.520C197.150 27.040 196.900 26.190 196.900 26.190Z" />
<path fill="#ffffff" stroke="none" d="M195.450 26.800C195.450 26.800 197.270 27.400 197.400 27.880C197.520 28.360 197.530 29.930 197.050 30.890C196.570 31.850 191.630 33.300 191.630 33.300L189.550 31.130L193.640 27.640Z" />
<path fill="none" stroke="#4c4c4c" stroke-width="0.500" d="M195.450 26.800C195.450 26.800 197.270 27.400 197.400 27.880C197.520 28.360 197.530 29.930 197.050 30.890C196.570 31.850 191.630 33.300 191.630 33.300L189.550 31.130L193.640 27.640Z" />
<path fill="#ffffff" stroke="none" d="M189.110 32.330C189.270 32.540 190.580 32.330 190.530 33.110C190.490 33.890 190.490 34.040 190.130 34.560C189.760 35.080 189.350 35.970 189.190 35.500C189.030 35.030 188.340 33.940 188.340 33.940L187.960 32.380Z" />
<path fill="none" stroke="#4c4c4c" stroke-width="0.500" d="M189.110 32.330C189.270 32.540 190.580 32.330 190.530 33.110C190.490 33.890 190.490 34.040 190.130 34.560C189.760 35.080 189.350 35.970 189.190 35.500C189.030 35.030 188.340 33.940 188.340 33.940L187.960 32.380Z" />
<path fill="#ffffff" stroke="none" d="M187.610 33.940C187.610 33.940 188.090 35.190 188.200 35.600C188.310 36.020 188.780 37.270 188.100 38.000C187.420 38.720 185.720 39.610 185.720 39.610C185.720 39.610 184.690 39.660 184.550 38.570C184.410 37.470 183.660 35.400 183.820 35.190C183.980 34.980 186.720 33.840 186.720 33.840Z" />
<path fill="none" stroke="#4c4c4c" stroke-width="0.500" d="M187.610 33.940C187.610 33.940 188.090 35.190 188.200 35.600C188.310 36.020 188.780 37.270 188.100 38.000C187.420 38.720 185.720 39.610 185.720 39.610C185.720 39.610 184.690 39.660 184.550 38.570C184.410 37.470 183.660 35.400 183.820 35.190C183.980 34.980 186.720 33.840 186.720 33.840Z" />
<path fill="#ffffff" stroke="none" d="M188.180 41.900C187.590 41.900 186.370 40.960 186.440 40.650C186.500 40.340 186.570 39.560 186.840 39.400C187.100 39.240 187.420 39.090 188.000 39.140C188.570 39.190 189.140 40.020 189.140 40.020C189.140 40.020 189.600 40.750 189.550 40.960C189.490 41.170 188.180 41.900 188.180 41.900Z" />
<path fill="none" stroke="#4c4c4c" stroke-width="0.500" d="M188.180 41.900C187.590 41.900 186.370 40.960 186.440 40.650C186.500 40.340 186.570 39.560 186.840 39.400C187.100 39.240 187.420 39.090 188.000 39.140C188.570 39.190 189.140 40.020 189.140 40.020C189.140 40.020 189.600 40.750 189.550 40.960C189.490 41.170 188.180 41.900 188.180 41.900Z" />
<path fill="#ffffff" stroke="none" d="M190.910 38.000C190.910 38.000 188.780 37.110 188.930 36.900C189.090 36.700 189.250 36.280 189.400 36.070C189.560 35.860 191.640 34.100 191.640 34.100C191.640 34.100 192.260 34.770 192.470 35.030C192.680 35.290 193.250 35.810 193.040 36.230C192.840 36.640 190.910 38.000 190.910 38.000Z" />
<path fill="none" stroke="#4c4c4c" stroke-width="0.500" d="M190.910 38.000C190.910 38.000 188.780 37.110 188.930 36.900C189.090 36.700 189.250 36.280 189.400 36.070C189.560 35.860 191.640 34.100 191.640 34.100C191.640 34.100 192.260 34.770 192.470 35.030C192.680 35.290 193.250 35.810 193.040 36.230C192.840 36.640 190.910 38.000 190.910 38.000Z" />
<path fill="#ffffff" stroke="none" d="M280.560 5.990C280.560 5.990 280.560 7.000 280.410 7.260C280.260 7.510 279.850 8.180 279.290 7.980C278.730 7.780 276.870 6.310 276.870 6.310L277.260 5.850C277.260 5.850 278.370 5.590 278.680 5.480C278.980 5.380 280.560 5.990 280.560 5.990Z" />
<path fill="none" stroke="#4c4c4c" stroke-width="0.500" d="M280.560 5.990C280.560 5.990 280.560 7.000 280.410 7.260C280.260 7.510 279.850 8.180 279.290 7.980C278.730 7.780 276.870 6.310 276.870 6.310L277.260 5.850C277.260 5.850 278.370 5.590 278.680 5.480C278.980 5.380 280.560 5.990 280.560 5.990Z" />
<path fill="#ffffff" stroke="none" d="M275.050 5.000C275.050 5.000 276.960 5.600 276.560 6.210C276.170 6.820 273.840 7.640 273.840 7.640C273.840 7.640 270.800 7.740 270.600 7.640C270.400 7.540 269.470 6.380 269.470 6.380C269.470 6.380 268.510 5.480 269.700 5.120C270.890 4.760 273.390 4.650 273.390 4.650Z" />
<path fill="none" stroke="#4c4c4c" stroke-width="0.500" d="M275.050 5.000C275.050 5.000 276.960 5.600 276.560 6.210C276.170 6.820 273.840 7.640 273.840 7.640C273.840 7.640 270.800 7.740 270.600 7.640C270.400 7.540 269.470 6.380 269.470 6.380C269.470 6.380 268.510 5.480 269.700 5.120C270.890 4.760 273.390 4.650 273.390 4.650Z" />
<path fill="#ffffff" stroke="none" d="M268.450 7.140L266.210 7.390C266.210 7.390 263.930 7.940 263.710 7.240C263.500 6.540 263.120 5.580 263.120 5.580L266.690 4.470C266.690 4.470 267.700 4.920 267.950 5.170C268.200 5.430 268.450 7.140 268.450 7.140Z" />
<path fill="none" stroke="#4c4c4c" stroke-width="0.500" d="M268.450 7.140L266.210 7.390C266.210 7.390 263.930 7.940 263.710 7.240C263.500 6.540 263.120 5.580 263.120 5.580L266.690 4.470C266.690 4.470 267.700 4.920 267.950 5.170C268.200 5.430 268.450 7.140 268.450 7.140Z" />
<path fill="#ffffff" stroke="none" d="M276.530 7.430C276.530 7.430 278.240 7.980 277.940 8.240C277.650 8.490 275.690 8.940 275.690 8.940L273.660 8.440L274.450 7.990Z" />
<path fill="none" stroke="#4c4c4c" stroke-width="0.500" d="M276.530 7.430C276.530 7.430 278.240 7.980 277.940 8.240C277.650 8.490 275.690 8.940 275.690 8.940L273.660 8.440L274.450 7.990Z" />
<path fill="#ffffff" stroke="none" d="M272.710 8.490C272.710 8.490 273.930 9.720 274.040 10.020C274.150 10.330 274.070 11.300 273.770 11.650C273.460 12.010 272.490 12.770 272.080 12.780C271.670 12.780 269.700 12.120 269.530 11.720C269.370 11.310 269.840 9.670 270.030 9.400C270.210 9.140 269.370 8.890 269.970 8.640C270.560 8.390 271.810 8.440 271.810 8.440Z" />
<path fill="none" stroke="#4c4c4c" stroke-width="0.500" d="M272.710 8.490C272.710 8.490 273.930 9.720 274.040 10.020C274.150 10.330 274.070 11.300 273.770 11.650C273.460 12.010 272.490 12.770 272.080 12.780C271.670 12.780 269.700 12.120 269.530 11.720C269.370 11.310 269.840 9.670 270.030 9.400C270.210 9.140 269.370 8.890 269.970 8.640C270.560 8.390 271.810 8.440 271.810 8.440Z" />
<path fill="#ffffff" stroke="none" d="M267.470 8.240L269.150 9.190C269.150 9.190 269.150 10.180 269.100 10.440C269.050 10.690 268.800 11.410 268.540 11.360C268.280 11.310 266.410 10.660 266.070 10.280C265.750 9.930 264.720 9.290 264.720 9.040C264.730 8.790 264.720 8.090 264.920 7.990C265.120 7.890 266.870 7.840 266.870 7.840Z" />
<path fill="none" stroke="#4c4c4c" stroke-width="0.500" d="M267.470 8.240L269.150 9.190C269.150 9.190 269.150 10.180 269.100 10.440C269.050 10.690 268.800 11.410 268.540 11.360C268.280 11.310 266.410 10.660 266.070 10.280C265.750 9.930 264.720 9.290 264.720 9.040C264.730 8.790 264.720 8.090 264.920 7.990C265.120 7.890 266.870 7.840 266.870 7.840Z" />
<path fill="#ffffff" stroke="none" d="M261.540 5.790C261.840 5.990 262.860 6.840 262.860 6.840L263.630 8.940L261.910 10.590L257.840 11.310C257.840 11.310 256.320 9.980 256.080 9.640C255.810 9.270 254.690 7.790 254.740 7.490C254.790 7.190 256.810 6.290 257.010 6.240C257.210 6.190 260.680 5.490 260.680 5.490Z" />
<path fill="none" stroke="#4c4c4c" stroke-width="0.500" d="M261.540 5.790C261.840 5.990 262.860 6.840 262.860 6.840L263.630 8.940L261.910 10.590L257.840 11.310C257.840 11.310 256.320 9.980 256.080 9.640C255.810 9.270 254.690 7.790 254.740 7.490C254.790 7.190 256.810 6.290 257.010 6.240C257.210 6.190 260.680 5.490 260.680 5.490Z" />
<path fill="#ffffff" stroke="none" d="M60.750 72.040C60.750 72.040 60.000 73.690 59.870 73.710C59.740 73.730 58.610 73.820 58.530 73.670C58.440 73.520 57.780 72.810 57.910 72.190C58.030 71.570 58.060 71.170 58.250 71.190C58.440 71.210 60.660 71.320 60.690 71.400C60.710 71.490 60.750 72.040 60.750 72.040Z" />
<path fill="none" stroke="#4c4c4c" stroke-width="0.500" d="M60.750 72.040C60.750 72.040 60.000 73.690 59.870 73.710C59.740 73.730 58.610 73.820 58.530 73.670C58.440 73.520 57.780 72.810 57.910 72.190C58.030 71.570 58.060 71.170 58.250 71.190C58.440 71.210 60.660 71.320 60.690 71.400C60.710 71.490 60.750 72.040 60.750 72.040Z" />
<path fill="#ffffff" stroke="none" d="M56.840 71.080C56.840 71.080 57.220 72.860 57.180 73.110C57.140 73.370 57.240 73.750 56.900 73.770C56.560 73.800 55.210 73.690 55.150 73.600C55.090 73.520 53.890 72.770 53.780 72.640C53.670 72.510 54.020 71.080 54.230 70.380C54.440 69.670 55.260 69.950 55.600 70.010C55.940 70.080 56.940 70.570 56.940 70.570Z" />
<path fill="none" stroke="#4c4c4c" stroke-width="0.500" d="M56.840 71.080C56.840 71.080 57.220 72.860 57.180 73.110C57.140 73.370 57.240 73.750 56.900 73.770C56.560 73.800 55.210 73.690 55.150 73.600C55.090 73.520 53.890 72.770 53.780 72.640C53.670 72.510 54.020 71.080 54.230 70.380C54.440 69.670 55.260 69.950 55.600 70.010C55.940 70.080 56.940 70.570 56.940 70.570Z" />
<path fill="#ffffff" stroke="none" d="M52.800 72.510C52.800 72.510 51.410 73.200 51.280 73.200C51.150 73.200 50.660 71.940 50.700 71.470C50.750 71.000 50.730 70.120 50.920 70.030C51.110 69.950 52.690 69.540 52.800 69.760C52.910 69.970 53.250 70.740 53.140 71.040C53.030 71.340 52.670 72.450 52.670 72.450Z" />
<path fill="none" stroke="#4c4c4c" stroke-width="0.500" d="M52.800 72.510C52.800 72.510 51.410 73.200 51.280 73.200C51.150 73.200 50.660 71.940 50.700 71.470C50.750 71.000 50.730 70.120 50.920 70.030C51.110 69.950 52.690 69.540 52.800 69.760C52.910 69.970 53.250 70.740 53.140 71.040C53.030 71.340 52.670 72.450 52.670 72.450Z" />
<path fill="#ffffff" stroke="none" d="M50.360 73.220C50.190 73.180 47.500 73.920 47.410 73.920C47.330 73.920 46.410 73.800 46.340 73.500C46.280 73.200 46.240 71.640 46.240 71.640C46.240 71.640 47.930 70.330 48.100 70.310C48.270 70.290 49.020 70.890 49.100 70.910C49.190 70.930 49.700 71.870 49.740 71.960C49.790 72.040 50.360 73.220 50.360 73.220Z" />
<path fill="none" stroke="#4c4c4c" stroke-width="0.500" d="M50.360 73.220C50.190 73.180 47.500 73.920 47.410 73.920C47.330 73.920 46.410 73.800 46.340 73.500C46.280 73.200 46.240 71.640 46.240 71.640C46.240 71.640 47.930 70.330 48.100 70.310C48.270 70.290 49.020 70.890 49.100 70.910C49.190 70.930 49.700 71.870 49.740 71.960C49.790 72.040 50.360 73.220 50.360 73.220Z" />
<path fill="#ffffff" stroke="none" d="M24.010 85.400C24.100 85.590 24.200 87.990 24.140 88.200C24.070 88.420 22.430 89.330 22.430 89.330C22.430 89.330 22.150 89.760 21.980 88.760C21.810 87.750 21.720 86.530 21.770 86.300C21.810 86.060 22.190 85.420 22.580 85.340C22.960 85.250 24.010 85.400 24.010 85.400Z" />
<path fill="none" stroke="#4c4c4c" stroke-width="0.500" d="M24.010 85.400C24.100 85.590 24.200 87.990 24.140 88.200C24.070 88.420 22.430 89.330 22.430 89.330C22.430 89.330 22.150 89.760 21.980 88.760C21.810 87.750 21.720 86.530 21.770 86.300C21.810 86.060 22.190 85.420 22.580 85.340C22.960 85.250 24.010 85.400 24.010 85.400Z" />
<path fill="#ffffff" stroke="none" d="M20.610 84.630C20.700 85.170 21.000 86.940 21.000 87.410C21.000 87.880 21.190 89.950 20.630 90.100C20.080 90.250 19.290 90.510 18.860 90.340C18.430 90.170 17.560 88.840 17.620 88.500C17.680 88.160 19.180 85.470 19.330 85.340C19.480 85.210 20.610 84.630 20.610 84.630Z" />
<path fill="none" stroke="#4c4c4c" stroke-width="0.500" d="M20.610 84.630C20.700 85.170 21.000 86.940 21.000 87.410C21.000 87.880 21.190 89.950 20.630 90.100C20.080 90.250 19.290 90.510 18.860 90.340C18.430 90.170 17.560 88.840 17.620 88.500C17.680 88.160 19.180 85.470 19.330 85.340C19.480 85.210 20.610 84.630 20.610 84.630Z" />
<path fill="#ffffff" stroke="none" d="M18.050 84.700C18.130 84.760 18.650 85.640 18.620 85.760C18.600 85.890 17.680 87.030 17.680 87.030C17.680 87.030 16.980 87.300 16.830 87.150C16.680 87.000 16.080 85.830 16.040 85.550C16.000 85.270 16.320 84.630 16.320 84.630L17.280 84.420Z" />
<path fill="none" stroke="#4c4c4c" stroke-width="0.500" d="M18.050 84.700C18.130 84.760 18.650 85.640 18.620 85.760C18.600 85.890 17.680 87.030 17.680 87.030C17.680 87.030 16.980 87.300 16.830 87.150C16.680 87.000 16.080 85.830 16.040 85.550C16.000 85.270 16.320 84.630 16.320 84.630L17.280 84.420Z" />
<path fill="none" stroke="#4c4c4c" stroke-width="0.350" d="M127.710 60.790C127.710 60.790 130.100 67.320 129.850 68.190C129.590 69.070 129.590 71.210 129.590 71.210L129.970 73.840" />
<path fill="none" stroke="#4c4c4c" stroke-width="0.350" d="M181.820 50.870L180.060 57.270L179.210 64.050" />
<path fill="none" stroke="#4c4c4c" stroke-width="0.350" d="M193.120 53.880L196.540 59.660" />
<path fill="none" stroke="#4c4c4c" stroke-width="0.350" d="M241.720 15.840L245.350 19.360L246.640 21.110L247.820 23.850" />
<path fill="none" stroke="#4c4c4c" stroke-width="0.350" d="M240.060 0.640C240.060 0.640 239.000 5.100 239.260 5.600C239.510 6.090 239.980 9.190 239.980 9.190L240.420 13.560" />
<path fill="none" stroke="#b2b2b2" stroke-width="0.350" d="M0.400 102.170L30.520 94.120" />
<path fill="none" stroke="#b2b2b2" stroke-width="0.350" d="M30.520 94.120L83.790 74.730" />
<path fill="none" stroke="#b2b2b2" stroke-width="0.350" d="M30.520 94.120L0.400 102.170" />
<path fill="none" stroke="#b2b2b2" stroke-width="0.350" d="M83.790 74.730L144.030 58.570" />
<path fill="none" stroke="#b2b2b2" stroke-width="0.350" d="M83.790 74.730L30.520 94.120" />
<path fill="none" stroke="#b2b2b2" stroke-width="0.350" d="M144.030 58.570L190.370 50.410" />
<path fill="none" stroke="#b2b2b2" stroke-width="0.350" d="M144.030 58.570L83.790 74.730" />
<path fill="none" stroke="#b2b2b2" stroke-width="0.350" d="M190.370 50.410L250.470 12.820" />
<path fill="none" stroke="#b2b2b2" stroke-width="0.350" d="M190.370 50.410L144.030 58.570" />
<path fill="none" stroke="#b2b2b2" stroke-width="0.350" d="M250.470 12.820L279.660 8.740" />
<path fill="none" stroke="#b2b2b2" stroke-width="0.350" d="M250.470 12.820L190.370 50.410" />
<path fill="none" stroke="#b2b2b2" stroke-width="0.350" d="M279.660 8.740L241.680 8.740" />
<path fill="none" stroke="#b2b2b2" stroke-width="0.350" d="M279.660 8.740L304.510 6.590" />
<path fill="none" stroke="#b2b2b2" stroke-width="0.350" d="M279.660 8.740L250.470 12.820" />
<path fill="none" stroke="#b2b2b2" stroke-width="0.350" d="M304.510 6.590L279.660 8.740" />
<path fill="none" stroke="#b2b2b2" stroke-width="0.350" d="M241.680 8.740L190.120 38.500" />
<path fill="none" stroke="#b2b2b2" stroke-width="0.350" d="M241.680 8.740L279.660 8.740" />
<path fill="none" stroke="#b2b2b2" stroke-width="0.350" d="M190.120 38.500L241.680 8.740" />
</g>
</g>
</g>
<g id="G_aaaaaaa_data/211/GrotteMarion/outputs/GrotteMarion-coupe.svg">
</g>
<g id="B_aaaaaaa_data/211/GrotteMarion/outputs/GrotteMarion-coupe.svg">
<path fill="none" stroke="inherit" stroke-width="0.350" d="M75.390 90.860L96.370 82.430L99.180 82.610L117.720 76.990C117.720 76.990 129.710 73.250 131.950 72.870C134.200 72.500 143.570 70.630 144.320 70.250C145.070 69.880 155.930 68.380 155.930 68.380L167.730 66.320C167.730 66.320 181.590 62.570 184.770 62.200C187.960 61.820 198.820 58.830 199.570 58.080C200.320 57.330 212.690 49.650 214.560 48.520C216.430 47.400 224.670 43.280 225.610 42.720C226.540 42.160 234.430 35.790 235.370 35.040C236.310 34.290 242.900 29.980 242.900 29.980L247.370 27.730" />
<path fill="none" stroke="inherit" stroke-width="0.350" d="M247.370 27.730L246.760 26.170C246.760 26.170 241.980 28.790 241.390 29.060C240.810 29.330 232.590 32.820 231.480 33.800C230.360 34.790 220.070 41.760 217.230 43.190C214.370 44.620 205.190 47.300 204.560 47.930C203.930 48.550 199.790 51.860 198.450 52.580C197.110 53.290 192.910 55.350 192.910 55.350" />
<path fill="none" stroke="inherit" stroke-width="0.350" d="M187.850 48.150C187.850 48.150 196.570 41.780 197.320 41.030C198.060 40.280 209.300 33.170 210.800 32.040C212.290 30.920 220.350 26.230 222.970 24.550C225.600 22.860 233.120 20.240 234.810 19.310C236.510 18.380 242.730 17.100 242.730 17.100L247.250 10.270L248.650 8.040" />
<path fill="none" stroke="inherit" stroke-width="0.350" d="M249.800 0.600C249.800 0.600 252.210 3.390 253.860 5.070C255.510 6.750 256.770 6.570 256.420 7.690C256.060 8.800 255.900 11.230 255.900 11.230C255.900 11.230 257.530 11.970 256.830 13.090C256.130 14.200 254.420 17.160 254.420 17.160L253.560 19.890" />
<path fill="none" stroke="inherit" stroke-width="0.350" d="M253.560 19.890C253.560 19.890 263.110 17.890 264.630 17.460C266.150 17.030 272.160 16.070 272.930 16.160C273.700 16.240 280.790 16.470 281.300 16.560C281.820 16.640 288.320 17.560 289.030 17.550C289.730 17.550 297.460 16.570 301.140 16.140C304.830 15.700 308.950 15.080 308.950 15.080L313.780 15.000C313.780 15.000 314.390 19.470 313.950 20.520C313.520 21.580 311.760 24.650 311.760 24.650L310.070 26.610" />
<path fill="none" stroke="inherit" stroke-width="0.350" d="M310.070 26.610L300.480 29.580L293.360 29.360L285.730 27.850L272.520 28.240C272.520 28.240 258.860 32.940 257.920 33.510C256.990 34.070 245.010 43.820 245.010 43.820L228.150 56.950L208.620 69.310L190.810 75.870L170.550 78.120L163.420 78.490L162.300 82.240" />
<path fill="none" stroke="inherit" stroke-width="0.350" d="M160.050 81.490L159.300 79.430L152.180 81.860L140.760 85.800L133.080 87.480L114.910 93.100L106.860 95.350L100.860 98.160L95.430 98.350L86.440 101.530L82.690 103.970L74.640 105.650L62.470 109.020L52.160 110.330L42.240 113.330L36.810 115.770L25.570 118.010L17.510 119.700L9.270 120.640L5.530 123.070" />
<path fill="none" stroke="inherit" stroke-width="0.350" d="M4.590 111.830L13.740 110.120" />
<path fill="none" stroke="inherit" stroke-width="0.350" d="M13.740 110.120L7.050 106.020L2.300 103.220L0.790 100.410" />
<path fill="none" stroke="inherit" stroke-width="0.350" d="M4.890 98.040C4.890 98.040 6.400 101.490 8.130 103.000C9.850 104.510 18.050 108.610 18.050 108.610L19.780 109.690C19.780 109.690 21.290 109.480 21.720 106.240C22.150 103.000 21.510 96.310 21.510 96.310" />
<path fill="none" stroke="inherit" stroke-width="0.350" d="M21.510 96.310C21.510 96.310 24.160 92.560 26.040 91.350C28.580 89.710 31.800 89.500 34.670 88.540C38.860 87.140 43.050 85.740 47.190 84.220C49.440 83.400 51.570 82.260 53.880 81.630C56.060 81.040 58.320 80.370 60.570 80.550C61.870 80.660 63.040 81.410 64.290 81.800C65.250 82.090 66.260 83.010 67.190 82.630C68.460 82.110 69.200 79.040 69.200 79.040" />
<path fill="none" stroke="inherit" stroke-width="0.350" d="M70.720 83.980C70.720 83.980 70.050 84.410 68.870 85.130C67.220 86.150 68.900 89.950 69.210 90.670C69.770 91.980 70.330 92.730 71.640 92.170C72.950 91.600 75.390 90.860 75.390 90.860" />
<path fill="none" stroke="inherit" stroke-width="0.350" d="M51.980 86.550C51.980 86.550 46.760 89.190 43.740 90.050C40.720 90.920 39.420 92.210 37.050 93.940C34.670 95.660 31.430 97.170 31.430 97.170" />
<path fill="none" stroke="inherit" stroke-width="0.350" d="M31.430 97.170L31.220 102.140L31.430 104.730" />
<path fill="none" stroke="inherit" stroke-width="0.350" d="M31.430 104.730C31.430 104.730 36.400 103.220 39.640 102.350C42.870 101.490 47.410 100.840 47.410 100.840L51.040 100.030" />
<path fill="none" stroke="inherit" stroke-width="0.350" d="M51.040 100.030C51.040 100.030 52.730 95.910 52.730 95.160C52.730 94.410 51.980 87.300 51.980 86.550" />
</g>
<g id="I_aaaaaaa_data/211/GrotteMarion/outputs/GrotteMarion-coupe.svg">
<path fill="inherit" stroke="none" d="M75.390 90.860C82.383 88.050 89.377 85.240 96.370 82.430C97.307 82.490 98.243 82.550 99.180 82.610C105.360 80.737 111.540 78.863 117.720 76.990C117.720 76.990 129.710 73.250 131.950 72.870C134.200 72.500 143.570 70.630 144.320 70.250C145.070 69.880 155.930 68.380 155.930 68.380C159.863 67.693 163.797 67.007 167.730 66.320C167.730 66.320 181.590 62.570 184.770 62.200C187.960 61.820 198.820 58.830 199.570 58.080C200.320 57.330 212.690 49.650 214.560 48.520C216.430 47.400 224.670 43.280 225.610 42.720C226.540 42.160 234.430 35.790 235.370 35.040C236.310 34.290 242.900 29.980 242.900 29.980C244.390 29.230 245.880 28.480 247.370 27.730C247.370 27.730 247.370 27.730 247.370 27.730C247.167 27.210 246.963 26.690 246.760 26.170C246.760 26.170 241.980 28.790 241.390 29.060C240.810 29.330 232.590 32.820 231.480 33.800C230.360 34.790 220.070 41.760 217.230 43.190C214.370 44.620 205.190 47.300 204.560 47.930C203.930 48.550 199.790 51.860 198.450 52.580C197.110 53.290 192.910 55.350 192.910 55.350C191.223 52.950 189.537 50.550 187.850 48.150C187.850 48.150 196.570 41.780 197.320 41.030C198.060 40.280 209.300 33.170 210.800 32.040C212.290 30.920 220.350 26.230 222.970 24.550C225.600 22.860 233.120 20.240 234.810 19.310C236.510 18.380 242.730 17.100 242.730 17.100C244.237 14.823 245.743 12.547 247.250 10.270C247.717 9.527 248.183 8.783 248.650 8.040C249.033 5.560 249.417 3.080 249.800 0.600C249.800 0.600 252.210 3.390 253.860 5.070C255.510 6.750 256.770 6.570 256.420 7.690C256.060 8.800 255.900 11.230 255.900 11.230C255.900 11.230 257.530 11.970 256.830 13.090C256.130 14.200 254.420 17.160 254.420 17.160C254.133 18.070 253.847 18.980 253.560 19.890C253.560 19.890 253.560 19.890 253.560 19.890C253.560 19.890 263.110 17.890 264.630 17.460C266.150 17.030 272.160 16.070 272.930 16.160C273.700 16.240 280.790 16.470 281.300 16.560C281.820 16.640 288.320 17.560 289.030 17.550C289.730 17.550 297.460 16.570 301.140 16.140C304.830 15.700 308.950 15.080 308.950 15.080C310.560 15.053 312.170 15.027 313.780 15.000C313.780 15.000 314.390 19.470 313.950 20.520C313.520 21.580 311.760 24.650 311.760 24.650C311.197 25.303 310.633 25.957 310.070 26.610C310.070 26.610 310.070 26.610 310.070 26.610C306.873 27.600 303.677 28.590 300.480 29.580C298.107 29.507 295.733 29.433 293.360 29.360C290.817 28.857 288.273 28.353 285.730 27.850C281.327 27.980 276.923 28.110 272.520 28.240C272.520 28.240 258.860 32.940 257.920 33.510C256.990 34.070 245.010 43.820 245.010 43.820C239.390 48.197 233.770 52.573 228.150 56.950C221.640 61.070 215.130 65.190 208.620 69.310C202.683 71.497 196.747 73.683 190.810 75.870C184.057 76.620 177.303 77.370 170.550 78.120C168.173 78.243 165.797 78.367 163.420 78.490C163.047 79.740 162.673 80.990 162.300 82.240C161.550 81.990 160.800 81.740 160.050 81.490C159.800 80.803 159.550 80.117 159.300 79.430C156.927 80.240 154.553 81.050 152.180 81.860C148.373 83.173 144.567 84.487 140.760 85.800C138.200 86.360 135.640 86.920 133.080 87.480C127.023 89.353 120.967 91.227 114.910 93.100C112.227 93.850 109.543 94.600 106.860 95.350C104.860 96.287 102.860 97.223 100.860 98.160C99.050 98.223 97.240 98.287 95.430 98.350C92.433 99.410 89.437 100.470 86.440 101.530C85.190 102.343 83.940 103.157 82.690 103.970C80.007 104.530 77.323 105.090 74.640 105.650C70.583 106.773 66.527 107.897 62.470 109.020C59.033 109.457 55.597 109.893 52.160 110.330C48.853 111.330 45.547 112.330 42.240 113.330C40.430 114.143 38.620 114.957 36.810 115.770C33.063 116.517 29.317 117.263 25.570 118.010C22.883 118.573 20.197 119.137 17.510 119.700C14.763 120.013 12.017 120.327 9.270 120.640C8.023 121.450 6.777 122.260 5.530 123.070C5.217 119.323 4.903 115.577 4.590 111.830C7.640 111.260 10.690 110.690 13.740 110.120C13.740 110.120 13.740 110.120 13.740 110.120C11.510 108.753 9.280 107.387 7.050 106.020C5.467 105.087 3.883 104.153 2.300 103.220C1.797 102.283 1.293 101.347 0.790 100.410C2.157 99.620 3.523 98.830 4.890 98.040C4.890 98.040 6.400 101.490 8.130 103.000C9.850 104.510 18.050 108.610 18.050 108.610C18.627 108.970 19.203 109.330 19.780 109.690C19.780 109.690 21.290 109.480 21.720 106.240C22.150 103.000 21.510 96.310 21.510 96.310C21.510 96.310 21.510 96.310 21.510 96.310C21.510 96.310 24.160 92.560 26.040 91.350C28.580 89.710 31.800 89.500 34.670 88.540C38.860 87.140 43.050 85.740 47.190 84.220C49.440 83.400 51.570 82.260 53.880 81.630C56.060 81.040 58.320 80.370 60.570 80.550C61.870 80.660 63.040 81.410 64.290 81.800C65.250 82.090 66.260 83.010 67.190 82.630C68.460 82.110 69.200 79.040 69.200 79.040C69.707 80.687 70.213 82.333 70.720 83.980C70.720 83.980 70.050 84.410 68.870 85.130C67.220 86.150 68.900 89.950 69.210 90.670C69.770 91.980 70.330 92.730 71.640 92.170C72.950 91.600 75.390 90.860 75.390 90.860C75.390 90.860 75.390 90.860 75.390 90.860M51.980 86.550C51.980 86.550 51.980 86.550 51.980 86.550C51.980 87.300 52.730 94.410 52.730 95.160C52.730 95.910 51.040 100.030 51.040 100.030C51.040 100.030 51.040 100.030 51.040 100.030C49.830 100.300 48.620 100.570 47.410 100.840C47.410 100.840 42.870 101.490 39.640 102.350C36.400 103.220 31.430 104.730 31.430 104.730C31.430 104.730 31.430 104.730 31.430 104.730C31.360 103.867 31.290 103.003 31.220 102.140C31.290 100.483 31.360 98.827 31.430 97.170C31.430 97.170 31.430 97.170 31.430 97.170C31.430 97.170 34.670 95.660 37.050 93.940C39.420 92.210 40.720 90.920 43.740 90.050C46.760 89.190 51.980 86.550 51.980 86.550Z" />
</g>
<g id="E_aaaaaaa_data/211/GrotteMarion/outputs/GrotteMarion-coupe.svg">
<path fill="none" stroke="#000000" stroke-width="1.000" d="M26.900 150.610C26.900 150.610 23.900 146.300 22.960 144.800C22.030 143.300 20.530 140.490 20.340 138.990C20.150 137.500 20.150 137.870 20.340 135.810C20.530 133.750 19.960 130.380 20.150 129.630C20.340 128.880 21.280 127.010 21.280 127.010L20.530 126.070" />
<path fill="none" stroke="#000000" stroke-width="1.000" d="M4.610 109.210L9.100 111.840L17.900 114.460L19.590 114.830" />
<path fill="none" stroke="#000000" stroke-width="1.000" d="M325.070 29.610L315.480 32.580L308.360 32.360L300.730 30.850L287.520 31.240C287.520 31.240 273.860 35.940 272.920 36.510C271.990 37.070 260.010 46.820 260.010 46.820L243.150 59.950L223.620 72.310L205.810 78.870L185.550 81.120L178.420 81.490L177.300 85.240" />
<path fill="none" stroke="#000000" stroke-width="1.000" d="M175.050 84.490L174.300 82.430L167.180 84.860L155.760 88.800L148.080 90.480L129.910 96.100L121.860 98.350L115.860 101.160L110.430 101.350L101.440 104.530L97.690 106.970L89.640 108.650L77.470 112.020L67.160 113.330L57.240 116.330L51.810 118.770L40.570 121.010L32.510 122.700L24.270 123.640L20.530 126.070" />
<path fill="none" stroke="#000000" stroke-width="1.000" d="M66.040 103.030C66.040 103.030 67.730 98.910 67.730 98.160C67.730 97.410 66.980 90.300 66.980 89.550" />
<path fill="none" stroke="#000000" stroke-width="1.000" d="M85.720 86.980C85.720 86.980 85.050 87.410 83.870 88.130C82.220 89.150 83.900 92.950 84.210 93.670C84.770 94.980 85.330 95.730 86.640 95.170C87.950 94.600 90.390 93.860 90.390 93.860" />
<path fill="none" stroke="#4c4c4c" stroke-width="0.350" d="M90.390 93.860L90.578 93.348L92.148 92.717L93.215 92.725L93.152 93.640L90.935 94.539Z" />
<path fill="none" stroke="#4c4c4c" stroke-width="0.350" d="M93.215 92.725L93.681 92.024L95.004 91.493L96.040 91.590L95.621 92.783L94.715 93.149Z" />
<path fill="none" stroke="#4c4c4c" stroke-width="0.350" d="M96.040 91.590L96.811 90.798L98.141 90.264L98.865 90.455L97.897 91.810L97.261 92.054Z" />
<path fill="none" stroke="#4c4c4c" stroke-width="0.350" d="M98.865 90.455L99.338 89.793L100.768 89.218L101.690 89.320L101.434 90.365L100.403 90.779Z" />
<path fill="none" stroke="#4c4c4c" stroke-width="0.350" d="M101.690 89.320L102.046 88.735L103.763 88.045L104.515 88.185L103.964 89.288L102.439 89.901Z" />
<path fill="none" stroke="#4c4c4c" stroke-width="0.350" d="M104.515 88.185L104.840 87.662L107.133 86.742L107.340 87.049L107.448 87.787L105.299 88.652Z" />
<path fill="none" stroke="#4c4c4c" stroke-width="0.350" d="M107.340 87.049L107.459 86.508L109.642 85.631L110.165 85.914L109.648 87.106L109.256 87.266Z" />
<path fill="none" stroke="#4c4c4c" stroke-width="0.350" d="M110.165 85.914L110.358 85.394L112.764 85.109L113.112 85.542L112.418 86.317L111.125 86.412Z" />
<path fill="none" stroke="#4c4c4c" stroke-width="0.350" d="M113.112 85.542L112.869 84.958L115.565 84.592L116.069 85.037L115.299 86.454L113.575 86.718Z" />
<path fill="none" stroke="#4c4c4c" stroke-width="0.350" d="M116.069 85.037L116.089 84.449L118.395 83.751L118.983 84.154L119.361 85.205L116.757 85.994Z" />
<path fill="none" stroke="#4c4c4c" stroke-width="0.350" d="M118.983 84.154L119.468 83.372L120.955 82.917L121.897 83.271L122.389 84.400L119.496 85.277Z" />
<path fill="none" stroke="#4c4c4c" stroke-width="0.350" d="M121.897 83.271L121.697 82.525L124.123 81.801L124.810 82.388L124.870 83.976L122.692 84.642Z" />
<path fill="none" stroke="#4c4c4c" stroke-width="0.350" d="M124.810 82.388L125.371 81.613L126.313 81.326L127.724 81.505L128.296 82.543L125.462 83.402Z" />
<path fill="none" stroke="#4c4c4c" stroke-width="0.350" d="M127.724 81.505L128.121 80.693L129.313 80.324L130.638 80.621L131.384 81.783L128.699 82.599Z" />
<path fill="none" stroke="#4c4c4c" stroke-width="0.350" d="M130.638 80.621L131.129 79.872L133.141 79.250L133.549 79.733L133.927 80.833L131.419 81.604Z" />
<path fill="none" stroke="#4c4c4c" stroke-width="0.350" d="M133.549 79.733L133.930 79.102L135.230 78.695L136.460 78.839L135.987 80.016L134.619 80.432Z" />
<path fill="none" stroke="#4c4c4c" stroke-width="0.350" d="M136.460 78.839L136.950 78.201L139.274 77.498L139.374 77.959L139.832 78.808L137.328 79.562Z" />
<path fill="none" stroke="#4c4c4c" stroke-width="0.350" d="M139.374 77.959L139.349 77.386L141.702 76.691L142.295 77.098L142.294 78.251L139.828 78.980Z" />
<path fill="none" stroke="#4c4c4c" stroke-width="0.350" d="M142.295 77.098L142.459 76.621L144.303 76.095L145.227 76.278L144.625 77.300L142.840 77.805Z" />
<path fill="none" stroke="#4c4c4c" stroke-width="0.350" d="M145.227 76.278L145.873 75.565L147.952 75.153L148.203 75.647L147.134 76.920L146.131 77.142Z" />
<path fill="none" stroke="#4c4c4c" stroke-width="0.350" d="M148.203 75.647L148.337 75.209L150.821 74.730L151.193 75.071L151.185 75.902L148.920 76.339Z" />
<path fill="none" stroke="#4c4c4c" stroke-width="0.350" d="M151.193 75.071L151.790 74.450L154.007 73.997L154.176 74.464L154.049 75.497L152.592 75.791Z" />
<path fill="none" stroke="#4c4c4c" stroke-width="0.350" d="M154.176 74.464L154.202 73.942L157.167 73.299L157.152 73.821L157.296 74.824L155.307 75.260Z" />
<path fill="none" stroke="#4c4c4c" stroke-width="0.350" d="M157.152 73.821L157.389 73.080L158.886 72.702L160.094 73.051L160.092 74.415L158.815 74.801Z" />
<path fill="none" stroke="#4c4c4c" stroke-width="0.350" d="M160.094 73.051L160.666 72.580L162.641 72.245L163.094 72.532L162.337 73.367L161.186 73.569Z" />
<path fill="none" stroke="#4c4c4c" stroke-width="0.350" d="M163.094 72.532L164.281 72.019L166.196 71.732L166.104 72.072L165.901 72.758L164.075 73.034Z" />
<path fill="none" stroke="#4c4c4c" stroke-width="0.350" d="M166.104 72.072L166.235 71.639L168.648 71.289L169.117 71.635L169.076 72.466L165.939 72.920Z" />
<path fill="none" stroke="#4c4c4c" stroke-width="0.350" d="M169.117 71.635L170.174 71.084L171.296 70.911L172.125 71.171L171.342 72.125L169.730 72.362Z" />
<path fill="none" stroke="#4c4c4c" stroke-width="0.350" d="M172.125 71.171L172.445 70.524L174.314 70.198L175.124 70.648L175.197 71.818L173.178 72.170Z" />
<path fill="none" stroke="#4c4c4c" stroke-width="0.350" d="M175.124 70.648L175.780 69.700L177.485 69.417L178.124 70.124L177.417 71.905L176.298 72.103Z" />
<path fill="none" stroke="#4c4c4c" stroke-width="0.350" d="M178.124 70.124L178.754 69.566L180.428 69.273L181.123 69.601L181.304 70.467L179.306 70.815Z" />
<path fill="none" stroke="#4c4c4c" stroke-width="0.350" d="M181.123 69.601L181.739 69.182L183.194 68.878L184.095 68.954L183.492 69.742L182.026 70.066Z" />
<path fill="none" stroke="#4c4c4c" stroke-width="0.350" d="M184.095 68.954L184.700 68.507L186.193 68.113L187.038 68.178L187.379 68.661L185.013 69.283Z" />
<path fill="none" stroke="#4c4c4c" stroke-width="0.350" d="M187.038 68.178L187.645 67.591L189.331 67.155L189.986 67.417L189.584 68.378L187.224 68.962Z" />
<path fill="none" stroke="#4c4c4c" stroke-width="0.350" d="M189.986 67.417L190.759 66.726L191.777 66.468L192.940 66.676L192.246 67.846L190.651 68.237Z" />
<path fill="none" stroke="#4c4c4c" stroke-width="0.350" d="M192.940 66.676L193.099 65.972L195.236 65.460L195.901 65.969L195.569 67.369L193.817 67.784Z" />
<path fill="none" stroke="#4c4c4c" stroke-width="0.350" d="M195.901 65.969L196.496 65.322L198.265 64.945L198.879 65.338L198.400 66.446L196.582 66.835Z" />
<path fill="none" stroke="#4c4c4c" stroke-width="0.350" d="M198.879 65.338L199.004 64.851L201.205 64.494L201.879 64.824L201.258 65.888L200.610 66.007Z" />
<path fill="none" stroke="#4c4c4c" stroke-width="0.350" d="M201.879 64.824L202.473 64.056L204.601 63.553L204.844 64.133L205.473 65.259L202.660 65.926Z" />
<path fill="none" stroke="#4c4c4c" stroke-width="0.350" d="M204.844 64.133L204.800 63.655L207.246 63.017L207.788 63.361L207.882 64.318L205.799 64.868Z" />
<path fill="none" stroke="#4c4c4c" stroke-width="0.350" d="M207.788 63.361L208.523 62.660L209.982 62.236L210.714 62.518L210.839 63.482L208.501 64.159Z" />
<path fill="none" stroke="#4c4c4c" stroke-width="0.350" d="M210.714 62.518L211.272 61.860L213.060 61.266L213.602 61.556L213.380 62.628L211.478 63.255Z" />
<path fill="none" stroke="#4c4c4c" stroke-width="0.350" d="M213.602 61.556L213.789 60.644L215.191 59.671L216.172 59.950L216.483 61.608L214.218 62.964Z" />
<path fill="none" stroke="#4c4c4c" stroke-width="0.350" d="M216.172 59.950L216.658 59.017L217.995 58.156L218.726 58.294L218.832 59.436L217.226 60.472Z" />
<path fill="none" stroke="#4c4c4c" stroke-width="0.350" d="M218.726 58.294L219.090 57.597L220.593 56.645L221.296 56.662L221.610 57.389L219.291 58.861Z" />
<path fill="none" stroke="#4c4c4c" stroke-width="0.350" d="M221.296 56.662L221.263 56.327L223.467 54.941L223.875 55.043L224.404 55.428L222.112 56.860Z" />
<path fill="none" stroke="#4c4c4c" stroke-width="0.350" d="M223.875 55.043L224.100 54.390L226.469 52.914L226.458 53.432L225.904 54.801L224.721 55.539Z" />
<path fill="none" stroke="#4c4c4c" stroke-width="0.350" d="M226.458 53.432L226.766 52.672L228.921 51.345L229.048 51.832L229.178 52.885L227.785 53.735Z" />
<path fill="none" stroke="#4c4c4c" stroke-width="0.350" d="M229.048 51.832L229.519 50.893L231.240 49.954L231.705 50.346L231.846 51.548L230.430 52.321Z" />
<path fill="none" stroke="#4c4c4c" stroke-width="0.350" d="M231.705 50.346L232.317 49.486L234.110 48.560L234.405 48.940L234.942 49.731L232.666 50.917Z" />
<path fill="none" stroke="#4c4c4c" stroke-width="0.350" d="M234.405 48.940L234.780 48.086L236.719 47.090L237.112 47.548L237.240 48.802L235.656 49.616Z" />
<path fill="none" stroke="#4c4c4c" stroke-width="0.350" d="M237.112 47.548L237.113 47.187L239.013 46.205L239.817 46.150L240.507 46.514L237.544 48.050Z" />
<path fill="none" stroke="#4c4c4c" stroke-width="0.350" d="M239.817 46.150L240.349 45.207L241.267 44.535L242.328 44.441L242.738 45.577L241.071 46.783Z" />
<path fill="none" stroke="#4c4c4c" stroke-width="0.350" d="M242.328 44.441L242.176 43.847L243.829 42.551L244.721 42.559L244.785 43.944L243.752 44.753Z" />
<path fill="none" stroke="#4c4c4c" stroke-width="0.350" d="M244.721 42.559L244.763 42.175L246.716 40.620L247.102 40.661L246.940 41.496L246.002 42.244Z" />
<path fill="none" stroke="#4c4c4c" stroke-width="0.350" d="M247.102 40.661L246.161 40.713L248.474 38.860L249.477 38.757L249.792 39.916L248.103 41.271Z" />
<path fill="none" stroke="#4c4c4c" stroke-width="0.350" d="M249.477 38.757L249.097 38.345L251.239 36.737L251.923 36.947L252.116 38.166L250.999 38.969Z" />
<path fill="none" stroke="#4c4c4c" stroke-width="0.350" d="M251.923 36.947L251.970 36.287L253.503 35.257L254.452 35.252L254.549 36.437L253.578 37.083Z" />
<path fill="none" stroke="#4c4c4c" stroke-width="0.350" d="M254.452 35.252L254.338 34.882L256.234 33.633L256.993 33.575L256.863 34.551L255.109 35.708Z" />
<path fill="none" stroke="#4c4c4c" stroke-width="0.350" d="M256.993 33.575L257.366 32.781L259.364 31.730L259.651 32.099L259.993 32.950L257.888 34.079Z" />
<path fill="none" stroke="#4c4c4c" stroke-width="0.350" d="M259.651 32.099L259.614 31.431L261.517 30.475L262.370 30.730L262.731 31.919L261.004 32.788Z" />
<path fill="none" stroke="#4c4c4c" stroke-width="0.350" d="M202.850 51.150L203.032 50.427L204.515 49.339L205.348 49.316L206.060 49.970L204.006 51.484Z" />
<path fill="none" stroke="#4c4c4c" stroke-width="0.350" d="M205.348 49.316L205.522 48.584L207.501 47.120L207.839 47.474L207.503 48.922L206.898 49.378Z" />
<path fill="none" stroke="#4c4c4c" stroke-width="0.350" d="M207.839 47.474L208.167 46.710L209.736 45.532L210.319 45.615L210.608 46.444L209.177 47.511Z" />
<path fill="none" stroke="#4c4c4c" stroke-width="0.350" d="M210.319 45.615L209.847 45.272L211.823 43.730L212.747 43.692L212.522 45.318L211.733 45.937Z" />
<path fill="none" stroke="#4c4c4c" stroke-width="0.350" d="M212.747 43.692L213.106 42.996L215.323 41.508L215.308 41.949L215.522 42.675L213.824 43.815Z" />
<path fill="none" stroke="#4c4c4c" stroke-width="0.350" d="M215.308 41.949L215.930 41.167L216.718 40.650L217.899 40.248L218.379 40.671L216.532 41.885Z" />
<path fill="none" stroke="#4c4c4c" stroke-width="0.350" d="M217.899 40.248L218.245 39.446L218.961 38.979L220.496 38.558L220.617 39.632L219.395 40.420Z" />
<path fill="none" stroke="#4c4c4c" stroke-width="0.350" d="M220.496 38.558L220.285 38.186L222.466 36.766L223.091 36.865L222.457 38.298L221.754 38.742Z" />
<path fill="none" stroke="#4c4c4c" stroke-width="0.350" d="M223.091 36.865L223.271 35.959L224.918 34.856L225.665 35.139L226.103 36.438L224.064 37.808Z" />
<path fill="none" stroke="#4c4c4c" stroke-width="0.350" d="M225.665 35.139L225.315 34.656L227.035 33.510L228.261 33.449L227.914 35.070L226.503 35.994Z" />
<path fill="none" stroke="#4c4c4c" stroke-width="0.350" d="M228.261 33.449L228.482 32.830L229.934 31.946L230.908 31.839L231.131 32.665L229.005 33.954Z" />
<path fill="none" stroke="#4c4c4c" stroke-width="0.350" d="M230.908 31.839L231.780 30.854L232.453 30.449L233.563 30.241L233.733 31.049L232.900 31.558Z" />
<path fill="none" stroke="#4c4c4c" stroke-width="0.350" d="M233.563 30.241L233.521 29.598L235.458 28.428L236.216 28.639L235.972 30.106L234.937 30.752Z" />
<path fill="none" stroke="#4c4c4c" stroke-width="0.350" d="M236.216 28.639L237.074 27.631L237.903 27.107L238.865 27.034L238.283 28.325L237.267 28.958Z" />
<path fill="none" stroke="#4c4c4c" stroke-width="0.350" d="M238.865 27.034L239.579 26.099L240.264 25.778L241.670 25.717L242.514 26.475L239.926 27.647Z" />
<path fill="none" stroke="#4c4c4c" stroke-width="0.350" d="M241.670 25.717L242.076 24.875L243.545 24.264L244.531 24.528L243.838 26.129L243.240 26.386Z" />
<path fill="none" stroke="#4c4c4c" stroke-width="0.350" d="M244.531 24.528L244.134 24.406L246.794 23.331L247.405 23.370L246.970 24.119L244.678 25.041Z" />
<path fill="none" stroke="#4c4c4c" stroke-width="0.350" d="M247.405 23.370L247.554 22.610L249.349 21.821L250.234 22.108L250.413 23.458L249.070 24.074Z" />
<path fill="none" stroke="#4c4c4c" stroke-width="0.350" d="M250.234 22.108L250.597 21.417L252.205 20.908L253.184 21.170L253.328 22.193L251.390 22.771Z" />
<path fill="none" stroke="#4c4c4c" stroke-width="0.350" d="M253.184 21.170L253.754 20.584L255.646 20.133L256.194 20.435L255.389 21.482L254.510 21.702Z" />
<path fill="none" stroke="#4c4c4c" stroke-width="0.350" d="M256.194 20.435L257.060 19.806L257.910 19.055L258.573 18.827L258.831 19.979L257.424 21.038Z" />
<path fill="none" stroke="#4c4c4c" stroke-width="0.350" d="M258.573 18.827L258.567 18.209L259.569 16.696L260.283 16.242L260.324 17.421L259.812 18.206Z" />
<path fill="none" stroke="#4c4c4c" stroke-width="0.350" d="M260.283 16.242L260.604 14.936L261.097 14.190L261.993 13.658L262.068 15.178L261.325 16.313Z" />
<path fill="none" stroke="#4c4c4c" stroke-width="0.350" d="M261.993 13.658L261.659 13.474L263.074 11.242L263.650 11.040L264.255 11.502L263.117 13.318Z" />
<path fill="none" stroke="#000000" stroke-width="1.000" d="M264.800 3.600C264.800 3.600 267.210 6.390 268.860 8.070C270.510 9.750 271.770 9.570 271.420 10.690C271.060 11.800 270.900 14.230 270.900 14.230C270.900 14.230 272.530 14.970 271.830 16.090C271.130 17.200 269.420 20.160 269.420 20.160L268.560 22.890" />
<path fill="none" stroke="#000000" stroke-width="1.000" d="M262.370 30.730L261.760 29.170C261.760 29.170 256.980 31.790 256.390 32.060C255.810 32.330 247.590 35.820 246.480 36.800C245.360 37.790 235.070 44.760 232.230 46.190C229.370 47.620 220.190 50.300 219.560 50.930C218.930 51.550 214.790 54.860 213.450 55.580C212.110 56.290 207.910 58.350 207.910 58.350" />
<path fill="none" stroke="#4c4c4c" stroke-width="0.350" d="M268.560 22.890L268.810 22.281L270.579 21.908L271.562 22.256L270.981 23.493L269.736 23.757Z" />
<path fill="none" stroke="#4c4c4c" stroke-width="0.350" d="M271.562 22.256L272.495 21.394L274.742 20.916L274.562 21.613L274.623 22.921L272.588 23.364Z" />
<path fill="none" stroke="#4c4c4c" stroke-width="0.350" d="M274.562 21.613L274.281 21.161L276.279 20.724L277.559 20.954L277.772 21.937L275.755 22.380Z" />
<path fill="none" stroke="#4c4c4c" stroke-width="0.350" d="M277.559 20.954L277.696 20.314L279.855 19.789L280.544 20.244L280.951 21.374L278.136 22.040Z" />
<path fill="none" stroke="#4c4c4c" stroke-width="0.350" d="M280.544 20.244L281.470 19.708L283.083 19.422L283.563 19.695L282.421 20.588L281.042 20.847Z" />
<path fill="none" stroke="#4c4c4c" stroke-width="0.350" d="M283.563 19.695L283.796 19.199L286.076 18.864L286.599 19.255L286.312 20.200L285.269 20.348Z" />
<path fill="none" stroke="#4c4c4c" stroke-width="0.350" d="M286.599 19.255L287.455 18.571L288.688 18.607L289.660 19.251L288.576 20.402L286.781 20.438Z" />
<path fill="none" stroke="#4c4c4c" stroke-width="0.350" d="M289.660 19.251L290.550 18.745L292.798 18.849L292.726 19.377L293.200 20.477L290.298 20.367Z" />
<path fill="none" stroke="#4c4c4c" stroke-width="0.350" d="M292.726 19.377L293.114 18.918L294.976 18.996L295.791 19.518L295.442 20.455L293.372 20.359Z" />
<path fill="none" stroke="#4c4c4c" stroke-width="0.350" d="M295.791 19.518L296.652 18.997L298.078 19.200L298.833 19.917L297.911 21.016L296.325 20.793Z" />
<path fill="none" stroke="#4c4c4c" stroke-width="0.350" d="M298.833 19.917L298.909 19.442L301.168 19.745L301.875 20.322L301.649 21.261L299.425 20.972Z" />
<path fill="none" stroke="#4c4c4c" stroke-width="0.350" d="M301.875 20.322L302.101 19.651L303.935 19.856L304.927 20.474L304.707 21.887L302.800 21.828Z" />
<path fill="none" stroke="#4c4c4c" stroke-width="0.350" d="M304.927 20.474L305.665 19.593L307.362 19.395L307.975 20.125L308.079 21.717L305.154 22.054Z" />
<path fill="none" stroke="#4c4c4c" stroke-width="0.350" d="M307.975 20.125L308.855 19.537L310.545 19.330L311.022 19.757L310.478 20.793L308.864 20.987Z" />
<path fill="none" stroke="#4c4c4c" stroke-width="0.350" d="M311.022 19.757L311.607 19.372L313.312 19.165L314.068 19.387L313.065 20.139L312.502 20.207Z" />
<path fill="none" stroke="#4c4c4c" stroke-width="0.350" d="M314.068 19.387L314.686 18.925L315.965 18.774L317.114 19.021L316.511 19.866L314.778 20.077Z" />
<path fill="none" stroke="#4c4c4c" stroke-width="0.350" d="M317.114 19.021L318.099 18.286L319.148 18.147L320.156 18.622L319.718 19.908L318.131 20.115Z" />
<path fill="none" stroke="#4c4c4c" stroke-width="0.350" d="M320.156 18.622L321.109 18.088L322.467 17.894L323.195 18.192L323.231 18.992L320.539 19.367Z" />
<path fill="none" stroke="#4c4c4c" stroke-width="0.350" d="M323.195 18.192L323.393 17.828L325.464 17.724L326.255 18.042L326.167 18.705L323.498 18.816Z" />
<path fill="none" stroke="#4c4c4c" stroke-width="0.350" d="M326.255 18.042L326.421 17.480L329.384 18.323L328.848 18.538L327.700 18.351L327.364 19.140Z" />
<path fill="none" stroke="#4c4c4c" stroke-width="0.350" d="M328.848 18.538L329.380 18.727L329.528 20.238L329.101 21.596L328.012 20.356L327.918 19.294Z" />
<path fill="none" stroke="#4c4c4c" stroke-width="0.350" d="M329.101 21.596L329.646 21.884L329.076 24.522L328.465 24.538L327.818 23.452L328.031 22.260Z" />
<path fill="none" stroke="#4c4c4c" stroke-width="0.350" d="M328.465 24.538L328.094 25.854L327.544 26.852L326.997 27.232L326.328 27.238L327.828 24.510Z" />
<path fill="none" stroke="#4c4c4c" stroke-width="0.350" d="M326.997 27.232L326.700 28.456L325.573 29.764L325.070 29.610L324.724 28.538L325.871 27.204Z" />
<path fill="none" stroke="#000000" stroke-width="0.500" d="M254.620 5.280C254.620 6.613 256.620 6.613 256.620 5.280C256.620 4.349 255.620 3.711 255.620 2.780" />
<path fill="none" stroke="#000000" stroke-width="1.200" d="M255.620 1.280h0.001" />
<path fill="none" stroke="#0032b2" stroke-width="0.350" d="M266.776 15.648L265.460 15.169L266.631 13.999Z" />
<path fill="#0032b2" stroke="none" d="M266.776 15.648L265.460 15.169L266.631 13.999Z" />
<path fill="none" stroke="#0032b2" stroke-width="0.350" d="M266.528 15.452C266.079 15.066 265.392 15.438 265.468 16.024C265.528 16.481 266.203 16.798 265.972 17.271C265.739 17.749 264.928 17.398 264.690 17.869C264.436 18.373 265.178 18.678 265.288 19.151C265.400 19.633 264.952 20.058 264.476 19.919" />
<path fill="none" stroke="#d86000" stroke-width="0.500" d="M123.500 104.875L130.600 104.875" />
<path fill="none" stroke="#d86000" stroke-width="0.350" d="M124.210 104.875L124.210 103.455" />
<path fill="none" stroke="#d86000" stroke-width="0.350" d="M126.198 104.875L126.198 101.680" />
<path fill="none" stroke="#d86000" stroke-width="0.350" d="M127.192 104.875L127.192 102.745" />
<path fill="none" stroke="#d86000" stroke-width="0.350" d="M128.683 104.875L128.683 102.106" />
<path fill="none" stroke="#d86000" stroke-width="0.350" d="M129.535 104.875L129.535 102.390" />
<path fill="none" stroke="#d86000" stroke-width="0.500" d="M265.240 46.820L272.340 46.820" />
<path fill="none" stroke="#d86000" stroke-width="0.350" d="M266.660 46.820L266.660 48.950" />
<path fill="none" stroke="#d86000" stroke-width="0.350" d="M268.790 46.820L268.790 48.950" />
<path fill="none" stroke="#d86000" stroke-width="0.350" d="M270.920 46.820L270.920 48.950" />
<path fill="#d86000" stroke="none" d="M267.370 48.950C267.370 49.138 267.295 49.319 267.162 49.452C267.029 49.585 266.848 49.660 266.660 49.660C266.472 49.660 266.291 49.585 266.158 49.452C266.025 49.319 265.950 49.138 265.950 48.950C265.950 48.762 266.025 48.581 266.158 48.448C266.291 48.315 266.472 48.240 266.660 48.240C266.848 48.240 267.029 48.315 267.162 48.448C267.295 48.581 267.370 48.762 267.370 48.950Z" />
<path fill="#d86000" stroke="none" d="M269.500 48.950C269.500 49.138 269.425 49.319 269.292 49.452C269.159 49.585 268.978 49.660 268.790 49.660C268.602 49.660 268.421 49.585 268.288 49.452C268.155 49.319 268.080 49.138 268.080 48.950C268.080 48.762 268.155 48.581 268.288 48.448C268.421 48.315 268.602 48.240 268.790 48.240C268.978 48.240 269.159 48.315 269.292 48.448C269.425 48.581 269.500 48.762 269.500 48.950Z" />
<path fill="#d86000" stroke="none" d="M271.630 48.950C271.630 49.138 271.555 49.319 271.422 49.452C271.289 49.585 271.108 49.660 270.920 49.660C270.732 49.660 270.551 49.585 270.418 49.452C270.285 49.319 270.210 49.138 270.210 48.950C270.210 48.762 270.285 48.581 270.418 48.448C270.551 48.315 270.732 48.240 270.920 48.240C271.108 48.240 271.289 48.315 271.422 48.448C271.555 48.581 271.630 48.762 271.630 48.950Z" />
<path fill="#000000" stroke="none" d="M2.310 130.732L9.970 124.000L0.310 127.268Z" />
<path fill="none" stroke="#4c4c4c" stroke-width="0.350" d="M46.430 107.730L47.050 107.029L49.063 106.431L49.654 106.768L50.078 107.665L46.887 108.618Z" />
<path fill="none" stroke="#4c4c4c" stroke-width="0.350" d="M49.654 106.768L49.917 106.301L52.159 105.653L52.886 105.834L51.915 106.893L50.939 107.174Z" />
<path fill="none" stroke="#4c4c4c" stroke-width="0.350" d="M52.886 105.834L53.113 105.055L54.966 104.553L56.141 104.983L56.054 106.416L54.110 106.925Z" />
<path fill="none" stroke="#4c4c4c" stroke-width="0.350" d="M56.141 104.983L56.293 104.384L58.907 103.856L59.440 104.325L59.479 105.448L57.268 105.874Z" />
<path fill="none" stroke="#4c4c4c" stroke-width="0.350" d="M59.440 104.325L59.908 103.704L61.597 103.427L62.756 103.763L63.009 104.794L60.476 105.222Z" />
<path fill="none" stroke="#4c4c4c" stroke-width="0.350" d="M62.756 103.763L63.808 103.053L64.444 102.910L66.040 103.030L66.245 103.937L63.653 104.508Z" />
<path fill="none" stroke="#000000" stroke-width="1.000" d="M28.740 113.120L22.050 109.020L17.300 106.220L15.790 103.410" />
<path fill="none" stroke="#000000" stroke-width="1.000" d="M19.890 101.040C19.890 101.040 21.400 104.490 23.130 106.000C24.850 107.510 33.050 111.610 33.050 111.610L34.780 112.690C34.780 112.690 36.290 112.480 36.720 109.240C37.150 106.000 36.510 99.310 36.510 99.310" />
<path fill="none" stroke="#000000" stroke-width="1.000" d="M46.430 100.170L46.220 105.140L46.430 107.730" />
<path fill="none" stroke="#000000" stroke-width="1.000" stroke-dasharray="6.000,6.000" stroke-dashoffset="0.000" d="M36.510 99.310C36.510 99.310 39.160 95.560 41.040 94.350C43.580 92.710 46.800 92.500 49.670 91.540C53.860 90.140 58.050 88.740 62.190 87.220C64.440 86.400 66.570 85.260 68.880 84.630C71.060 84.040 73.320 83.370 75.570 83.550C76.870 83.660 78.040 84.410 79.290 84.800C80.250 85.090 81.260 86.010 82.190 85.630C83.460 85.110 84.200 82.040 84.200 82.040" />
<path fill="none" stroke="#000000" stroke-width="1.000" stroke-dasharray="6.000,6.000" stroke-dashoffset="0.000" d="M66.980 89.550C66.980 89.550 61.760 92.190 58.740 93.050C55.720 93.920 54.420 95.210 52.050 96.940C49.670 98.660 46.430 100.170 46.430 100.170" />
<path fill="none" stroke="#0032b2" stroke-width="0.350" d="M71.950 104.280L70.550 104.280L71.250 102.780Z" />
<path fill="#0032b2" stroke="none" d="M71.950 104.280L70.550 104.280L71.250 102.780Z" />
<path fill="none" stroke="#0032b2" stroke-width="0.350" d="M71.650 104.180C71.097 103.971 70.578 104.555 70.850 105.080C71.062 105.489 71.805 105.556 71.750 106.080C71.695 106.608 70.812 106.556 70.750 107.080C70.683 107.641 71.485 107.673 71.750 108.080C72.021 108.495 71.744 109.048 71.250 109.080" />
<path fill="none" stroke="#0032b2" stroke-width="0.350" d="M44.690 114.280L43.290 114.280L43.990 112.780Z" />
<path fill="#0032b2" stroke="none" d="M44.690 114.280L43.290 114.280L43.990 112.780Z" />
<path fill="none" stroke="#0032b2" stroke-width="0.350" d="M44.390 114.180C43.837 113.971 43.318 114.555 43.590 115.080C43.802 115.489 44.545 115.556 44.490 116.080C44.435 116.608 43.552 116.556 43.490 117.080C43.423 117.641 44.225 117.673 44.490 118.080C44.761 118.495 44.484 119.048 43.990 119.080" />
<path fill="none" stroke="#0032b2" stroke-width="0.350" d="M89.315 82.076L88.415 81.004L90.014 80.576Z" />
<path fill="#0032b2" stroke="none" d="M89.315 82.076L88.415 81.004L90.014 80.576Z" />
<path fill="none" stroke="#0032b2" stroke-width="0.350" d="M89.199 81.782C89.003 81.224 88.222 81.202 87.995 81.748C87.818 82.173 88.244 82.786 87.808 83.080C87.367 83.377 86.840 82.668 86.399 82.957C85.926 83.266 86.416 83.901 86.275 84.366C86.132 84.840 85.530 84.984 85.188 84.626" />
<path fill="none" stroke="#4c4c4c" stroke-width="0.350" d="M19.590 114.830L20.195 114.266L21.220 114.074L22.640 114.260L22.517 115.183L20.368 115.587Z" />
<path fill="none" stroke="#4c4c4c" stroke-width="0.350" d="M22.640 114.260L22.557 113.770L25.009 113.314L25.690 113.690L25.226 114.792L23.502 115.113Z" />
<path fill="none" stroke="#4c4c4c" stroke-width="0.350" d="M25.690 113.690L26.558 113.058L27.286 112.923L28.740 113.120L28.260 114.145L26.850 114.412Z" />
<path fill="#ffffff" stroke="none" d="M206.310 56.220C206.310 56.220 203.960 57.620 203.130 57.520C202.300 57.420 201.400 56.690 201.320 56.430C201.240 56.170 201.030 54.300 201.380 54.140C201.720 53.980 203.480 53.520 203.480 53.520C203.480 53.520 205.110 53.930 205.270 54.190C205.420 54.450 206.310 56.220 206.310 56.220Z" />
<path fill="none" stroke="#4c4c4c" stroke-width="0.500" d="M206.310 56.220C206.310 56.220 203.960 57.620 203.130 57.520C202.300 57.420 201.400 56.690 201.320 56.430C201.240 56.170 201.030 54.300 201.380 54.140C201.720 53.980 203.480 53.520 203.480 53.520C203.480 53.520 205.110 53.930 205.270 54.190C205.420 54.450 206.310 56.220 206.310 56.220Z" />
<path fill="#ffffff" stroke="none" d="M204.150 53.000C204.150 53.000 202.320 53.260 202.330 53.050C202.340 52.840 202.210 51.590 202.210 51.590L203.740 51.230L204.440 51.850Z" />
<path fill="none" stroke="#4c4c4c" stroke-width="0.500" d="M204.150 53.000C204.150 53.000 202.320 53.260 202.330 53.050C202.340 52.840 202.210 51.590 202.210 51.590L203.740 51.230L204.440 51.850Z" />
<path fill="#ffffff" stroke="none" d="M210.620 53.000C210.344 53.276 210.344 53.724 210.620 54.000C210.896 54.276 211.344 54.276 211.620 54.000C211.896 53.724 211.896 53.276 211.620 53.000C211.344 52.724 210.896 52.724 210.620 53.000Z" />
<path fill="none" stroke="#999999" stroke-width="0.350" d="M210.620 53.000C210.344 53.276 210.344 53.724 210.620 54.000C210.896 54.276 211.344 54.276 211.620 54.000C211.896 53.724 211.896 53.276 211.620 53.000C211.344 52.724 210.896 52.724 210.620 53.000Z" />
<path fill="#ffffff" stroke="none" d="M262.180 23.240C261.904 23.516 261.904 23.964 262.180 24.240C262.456 24.516 262.904 24.516 263.180 24.240C263.456 23.964 263.456 23.516 263.180 23.240C262.904 22.964 262.456 22.964 262.180 23.240Z" />
<path fill="none" stroke="#999999" stroke-width="0.350" d="M262.180 23.240C261.904 23.516 261.904 23.964 262.180 24.240C262.456 24.516 262.904 24.516 263.180 24.240C263.456 23.964 263.456 23.516 263.180 23.240C262.904 22.964 262.456 22.964 262.180 23.240Z" />
<path fill="#ffffff" stroke="none" d="M325.010 21.090C324.734 21.366 324.734 21.814 325.010 22.090C325.286 22.366 325.734 22.366 326.010 22.090C326.286 21.814 326.286 21.366 326.010 21.090C325.734 20.814 325.286 20.814 325.010 21.090Z" />
<path fill="none" stroke="#999999" stroke-width="0.350" d="M325.010 21.090C324.734 21.366 324.734 21.814 325.010 22.090C325.286 22.366 325.734 22.366 326.010 22.090C326.286 21.814 326.286 21.366 326.010 21.090C325.734 20.814 325.286 20.814 325.010 21.090Z" />
<path fill="#ffffff" stroke="none" d="M300.160 23.240C299.884 23.516 299.884 23.964 300.160 24.240C300.436 24.516 300.884 24.516 301.160 24.240C301.436 23.964 301.436 23.516 301.160 23.240C300.884 22.964 300.436 22.964 300.160 23.240Z" />
<path fill="none" stroke="#999999" stroke-width="0.350" d="M300.160 23.240C299.884 23.516 299.884 23.964 300.160 24.240C300.436 24.516 300.884 24.516 301.160 24.240C301.436 23.964 301.436 23.516 301.160 23.240C300.884 22.964 300.436 22.964 300.160 23.240Z" />
<path fill="#ffffff" stroke="none" d="M270.970 27.320C270.694 27.596 270.694 28.044 270.970 28.320C271.246 28.596 271.694 28.596 271.970 28.320C272.246 28.044 272.246 27.596 271.970 27.320C271.694 27.044 271.246 27.044 270.970 27.320Z" />
<path fill="none" stroke="#999999" stroke-width="0.350" d="M270.970 27.320C270.694 27.596 270.694 28.044 270.970 28.320C271.246 28.596 271.694 28.596 271.970 28.320C272.246 28.044 272.246 27.596 271.970 27.320C271.694 27.044 271.246 27.044 270.970 27.320Z" />
<path fill="#ffffff" stroke="none" d="M210.870 64.910C210.594 65.186 210.594 65.634 210.870 65.910C211.146 66.186 211.594 66.186 211.870 65.910C212.146 65.634 212.146 65.186 211.870 64.910C211.594 64.634 211.146 64.634 210.870 64.910Z" />
<path fill="none" stroke="#999999" stroke-width="0.350" d="M210.870 64.910C210.594 65.186 210.594 65.634 210.870 65.910C211.146 66.186 211.594 66.186 211.870 65.910C212.146 65.634 212.146 65.186 211.870 64.910C211.594 64.634 211.146 64.634 210.870 64.910Z" />
<path fill="#ffffff" stroke="none" d="M164.530 73.070C164.254 73.346 164.254 73.794 164.530 74.070C164.806 74.346 165.254 74.346 165.530 74.070C165.806 73.794 165.806 73.346 165.530 73.070C165.254 72.794 164.806 72.794 164.530 73.070Z" />
<path fill="none" stroke="#999999" stroke-width="0.350" d="M164.530 73.070C164.254 73.346 164.254 73.794 164.530 74.070C164.806 74.346 165.254 74.346 165.530 74.070C165.806 73.794 165.806 73.346 165.530 73.070C165.254 72.794 164.806 72.794 164.530 73.070Z" />
<path fill="#ffffff" stroke="none" d="M104.290 89.230C104.014 89.506 104.014 89.954 104.290 90.230C104.566 90.506 105.014 90.506 105.290 90.230C105.566 89.954 105.566 89.506 105.290 89.230C105.014 88.954 104.566 88.954 104.290 89.230Z" />
<path fill="none" stroke="#999999" stroke-width="0.350" d="M104.290 89.230C104.014 89.506 104.014 89.954 104.290 90.230C104.566 90.506 105.014 90.506 105.290 90.230C105.566 89.954 105.566 89.506 105.290 89.230C105.014 88.954 104.566 88.954 104.290 89.230Z" />
<path fill="#ffffff" stroke="none" d="M51.020 108.620C50.744 108.896 50.744 109.344 51.020 109.620C51.296 109.896 51.744 109.896 52.020 109.620C52.296 109.344 52.296 108.896 52.020 108.620C51.744 108.344 51.296 108.344 51.020 108.620Z" />
<path fill="none" stroke="#999999" stroke-width="0.350" d="M51.020 108.620C50.744 108.896 50.744 109.344 51.020 109.620C51.296 109.896 51.744 109.896 52.020 109.620C52.296 109.344 52.296 108.896 52.020 108.620C51.744 108.344 51.296 108.344 51.020 108.620Z" />
<path fill="#ffffff" stroke="none" d="M20.900 116.670C20.624 116.946 20.624 117.394 20.900 117.670C21.176 117.946 21.624 117.946 21.900 117.670C22.176 117.394 22.176 116.946 21.900 116.670C21.624 116.394 21.176 116.394 20.900 116.670Z" />
<path fill="none" stroke="#999999" stroke-width="0.350" d="M20.900 116.670C20.624 116.946 20.624 117.394 20.900 117.670C21.176 117.946 21.624 117.946 21.900 117.670C22.176 117.394 22.176 116.946 21.900 116.670C21.624 116.394 21.176 116.394 20.900 116.670Z" />
</g>
<g id="X_aaaaaaa_data/211/GrotteMarion/outputs/GrotteMarion-coupe.svg">
<text font-family="thss00" font-size="6.974" fill="#000000" stroke="none" transform="matrix(1.000 0.000 -0.000 -1.000 195.409 111.720)">&#x74;&#x72;&#xe9;&#x6d;&#x69;&#x65;</text>
<text font-family="thss00" font-size="6.974" fill="#000000" stroke="none" transform="matrix(1.000 0.000 -0.000 -1.000 216.755 111.720)">&#x6c;&#x61;&#x74;&#xe9;&#x72;&#x61;&#x6c;&#x65;</text>
<text font-family="thss00" font-size="7.970" fill="#000000" stroke="none" transform="matrix(1.000 0.000 -0.000 -1.000 255.300 104.280)">&#x6c;&#x27;&#x6f;&#x72;&#x66;&#xe8;&#x76;&#x72;&#x65;&#x72;&#x69;&#x65;</text>
<text font-family="thss00" font-size="6.974" fill="#000000" stroke="none" transform="matrix(1.000 0.000 -0.000 -1.000 295.170 81.980)">&#x62;&#x6c;&#x6f;&#x63;&#x73;</text>
<text font-family="thss00" font-size="6.974" fill="#000000" stroke="none" transform="matrix(1.000 0.000 -0.000 -1.000 313.407 81.980)">&#x63;&#x6f;&#x6e;&#x63;&#x72;&#xe9;&#x74;&#x69;&#x6f;&#x6e;&#x6e;&#xe9;&#x73;</text>
<text font-family="thss00" font-size="6.974" fill="#000000" stroke="none" transform="matrix(1.000 0.000 -0.000 -1.000 311.020 18.236)">&#x70;&#x65;&#x72;&#x74;&#x65;</text>
<text font-family="thss00" font-size="6.974" fill="#000000" stroke="none" transform="matrix(1.000 0.000 -0.000 -1.000 328.880 18.236)">&#xe9;&#x74;&#x72;&#x6f;&#x69;&#x74;&#x65;</text>
<text font-family="thss00" font-size="6.974" fill="#000000" stroke="none" transform="matrix(1.000 0.000 -0.000 -1.000 350.234 18.236)">&#x61;&#x63;&#x74;&#x69;&#x76;&#x65;</text>
<text font-family="thss00" font-size="6.974" fill="#000000" stroke="none" transform="matrix(1.000 0.000 -0.000 -1.000 311.020 9.868)">&#x70;&#xe9;&#x6e;&#xe9;&#x74;&#x72;&#x61;&#x62;&#x6c;&#x65;</text>
<text font-family="thss00" font-size="6.974" fill="#000000" stroke="none" transform="matrix(1.000 0.000 -0.000 -1.000 345.973 9.868)">&#x73;&#x61;&#x6e;&#x73;</text>
<text font-family="thss00" font-size="6.974" fill="#000000" stroke="none" transform="matrix(1.000 0.000 -0.000 -1.000 362.654 9.868)">&#x63;&#x6f;&#x72;&#x64;&#x65;</text>
<text font-family="thss00" font-size="6.974" fill="#000000" stroke="none" transform="matrix(1.000 0.000 -0.000 -1.000 311.020 1.499)">&#x65;&#x6e;</text>
<text font-family="thss00" font-size="6.974" fill="#000000" stroke="none" transform="matrix(1.000 0.000 -0.000 -1.000 320.728 1.499)">&#xe9;&#x74;&#x69;&#x61;&#x67;&#x65;</text>
<text font-family="thss00" font-size="6.974" fill="#000000" stroke="none" transform="matrix(1.000 0.000 -0.000 -1.000 178.467 71.058)">&#x63;&#x6f;&#x6c;&#x6d;&#x61;&#x74;&#x61;&#x67;&#x65;</text>
<text font-family="thss00" font-size="6.974" fill="#000000" stroke="none" transform="matrix(1.000 0.000 -0.000 -1.000 212.625 71.058)">&#xe9;&#x62;&#x6f;&#x75;&#x6c;&#x69;&#x73;</text>
<text font-family="thss00" font-size="6.974" fill="#000000" stroke="none" transform="matrix(1.000 0.000 -0.000 -1.000 127.015 92.518)">&#x62;&#x6c;&#x6f;&#x63;&#x73;</text>
<text font-family="thss00" font-size="6.974" fill="#000000" stroke="none" transform="matrix(1.000 0.000 -0.000 -1.000 145.251 92.518)">&#x63;&#x61;&#x6c;&#x63;&#x69;&#x74;&#xe9;&#x73;</text>
<text font-family="thss00" font-size="6.974" fill="#000000" stroke="none" transform="matrix(1.000 0.000 -0.000 -1.000 0.565 112.646)">&#x6d;&#xe9;&#x61;&#x6e;&#x64;&#x72;&#x65;</text>
<text font-family="thss00" font-size="6.974" fill="#000000" stroke="none" transform="matrix(1.000 0.000 -0.000 -1.000 30.071 112.646)">&#x62;&#x6f;&#x75;&#x63;&#x68;&#xe9;</text>
<text font-family="thbf00" font-size="6.974" fill="#000000" stroke="none" transform="matrix(1.000 0.000 -0.000 -1.000 109.777 94.033)">&#x70;&#x35;</text>
<text font-family="thbf00" font-size="6.974" fill="#000000" stroke="none" transform="matrix(1.000 0.000 -0.000 -1.000 74.597 107.413)">&#x70;&#x34;</text>
<text font-family="thss00" font-size="5.978" fill="#999999" stroke="none" transform="matrix(1.000 0.000 -0.000 -1.000 360.695 41.868)">&#x37;</text>
<text font-family="thss00" font-size="5.978" fill="#999999" stroke="none" transform="matrix(1.000 0.000 -0.000 -1.000 339.155 43.391)">&#x36;</text>
<text font-family="thss00" font-size="5.978" fill="#999999" stroke="none" transform="matrix(1.000 0.000 -0.000 -1.000 296.255 40.071)">&#x38;</text>
<text font-family="thss00" font-size="5.978" fill="#999999" stroke="none" transform="matrix(1.000 0.000 -0.000 -1.000 243.335 77.381)">&#x39;</text>
<text font-family="thss00" font-size="5.978" fill="#999999" stroke="none" transform="matrix(1.000 0.000 -0.000 -1.000 255.695 87.088)">&#x34;</text>
<text font-family="thss00" font-size="5.978" fill="#999999" stroke="none" transform="matrix(1.000 0.000 -0.000 -1.000 309.995 48.158)">&#x35;</text>
<text font-family="thss00" font-size="5.978" fill="#999999" stroke="none" transform="matrix(1.000 0.000 -0.000 -1.000 203.085 95.061)">&#x33;</text>
<text font-family="thss00" font-size="5.978" fill="#999999" stroke="none" transform="matrix(1.000 0.000 -0.000 -1.000 140.795 110.811)">&#x32;</text>
<text font-family="thss00" font-size="5.978" fill="#999999" stroke="none" transform="matrix(1.000 0.000 -0.000 -1.000 92.835 129.298)">&#x31;</text>
<text font-family="thss00" font-size="5.978" fill="#999999" stroke="none" transform="matrix(1.000 0.000 -0.000 -1.000 54.905 136.581)">&#x30;</text>
</g>
<clipPath id="clip_viewBox">
<path d="M-89.747 -165.517L347.946 -165.517L347.946 63.175L-89.747 63.175z" />
</clipPath>
</defs>
<g transform="scale(1,-1)" fill="#000000" stroke="#000000" stroke-linecap="round" stroke-linejoin="round" stroke-miterlimit="10" fill-rule="evenodd" clip-rule="evenodd" clip-path="url(#clip_viewBox)">
<rect x="-89.747" y="-165.517" width="437.693" height="228.693" stroke="none" fill="#d8d8d8" />
<g fill="#ffffff">
<use x="-6.400" y="-114.171" xlink:href="#I_aaaaaaa_data/211/GrotteMarion/outputs/GrotteMarion-coupe.svg" />
</g>
<use x="-0.400" y="-102.171" xlink:href="#F_aaaaaaa_data/211/GrotteMarion/outputs/GrotteMarion-coupe.svg" />
<use x="-21.400" y="-117.171" xlink:href="#E_aaaaaaa_data/211/GrotteMarion/outputs/GrotteMarion-coupe.svg" />
<use x="-61.400" y="-137.171" xlink:href="#X_aaaaaaa_data/211/GrotteMarion/outputs/GrotteMarion-coupe.svg" />
</g>
</svg>
