  0
SECTION
  2
HEADER
  9
$ACADVER
  1
AC1009
  9
$INSBASE
 10
0.0
 20
0.0
 30
0.0
  9
$EXTMIN
 10
0.0
 20
0.0
 30
0.0
  9
$EXTMAX
 10
100.0
 20
100.0
 30
0.0
  9
$UNITMODE
 70
0
  9
$AUNITS
 70
0
  9
$ANGBASE
 50
0.0
  9
$ANGDIR
 70
0
  0
ENDSEC
  0
SECTION
  2
TABLES
  0
TABLE
  2
LTYPE
 70
19
  0
LTYPE
  2
CONTINUOUS
 70
0
  3
Solid
 72
65
 73
0
 40
0.0
  0
LTYPE
  2
CENTER
 70
0
  3
Center ____ _ ____ _ ____ _ ____ _ ____ _ ____
 72
65
 73
4
 40
2.0
 49
1.25
 49
-0.25
 49
0.25
 49
-0.25
  0
LTYPE
  2
CENTERX2
 70
0
  3
Center (2x) ________  __  ________  __  ________
 72
65
 73
4
 40
3.5
 49
2.5
 49
-0.25
 49
0.5
 49
-0.25
  0
LTYPE
  2
CENTER2
 70
0
  3
Center (.5x) ____ _ ____ _ ____ _ ____ _ ____
 72
65
 73
4
 40
1.0
 49
0.625
 49
-0.125
 49
0.125
 49
-0.125
  0
LTYPE
  2
DASHED
 70
0
  3
Dashed __ __ __ __ __ __ __ __ __ __ __ __ __ _
 72
65
 73
2
 40
0.6
 49
0.5
 49
-0.1
  0
LTYPE
  2
DASHEDX2
 70
0
  3
Dashed (2x) ____  ____  ____  ____  ____  ____
 72
65
 73
2
 40
1.2
 49
1.0
 49
-0.2
  0
LTYPE
  2
DASHED2
 70
0
  3
Dashed (.5x) _ _ _ _ _ _ _ _ _ _ _ _ _ _
 72
65
 73
2
 40
0.3
 49
0.25
 49
-0.05
  0
LTYPE
  2
PHANTOM
 70
0
  3
Phantom ______  __  __  ______  __  __  ______
 72
65
 73
6
 40
2.5
 49
1.25
 49
-0.25
 49
0.25
 49
-0.25
 49
0.25
 49
-0.25
  0
LTYPE
  2
PHANTOMX2
 70
0
  3
Phantom (2x)____________    ____    ____    ____________
 72
65
 73
6
 40
4.25
 49
2.5
 49
-0.25
 49
0.5
 49
-0.25
 49
0.5
 49
-0.25
  0
LTYPE
  2
PHANTOM2
 70
0
  3
Phantom (.5x) ___ _ _ ___ _ _ ___ _ _ ___ _ _ ___
 72
65
 73
6
 40
1.25
 49
0.625
 49
-0.125
 49
0.125
 49
-0.125
 49
0.125
 49
-0.125
  0
LTYPE
  2
DASHDOT
 70
0
  3
Dash dot __ . __ . __ . __ . __ . __ . __ . __
 72
65
 73
4
 40
1.4
 49
1.0
 49
-0.2
 49
0.0
 49
-0.2
  0
LTYPE
  2
DASHDOTX2
 70
0
  3
Dash dot (2x) ____  .  ____  .  ____  .  ____
 72
65
 73
4
 40
2.4
 49
2.0
 49
-0.2
 49
0.0
 49
-0.2
  0
LTYPE
  2
DASHDOT2
 70
0
  3
Dash dot (.5x) _ . _ . _ . _ . _ . _ . _ . _
 72
65
 73
4
 40
0.7
 49
0.5
 49
-0.1
 49
0.0
 49
-0.1
  0
LTYPE
  2
DOT
 70
0
  3
Dot .  .  .  .  .  .  .  .  .  .  .  .  .  .  .  .
 72
65
 73
2
 40
0.2
 49
0.0
 49
-0.2
  0
LTYPE
  2
DOTX2
 70
0
  3
Dot (2x) .    .    .    .    .    .    .    . 
 72
65
 73
2
 40
0.4
 49
0.0
 49
-0.4
  0
LTYPE
  2
DOT2
 70
0
  3
Dot (.5) . . . . . . . . . . . . . . . . . . . 
 72
65
 73
2
 40
0.1
 49
0.0
 49
-0.1
  0
LTYPE
  2
DIVIDE
 70
0
  3
Divide __ . . __ . . __ . . __ . . __ . . __
 72
65
 73
6
 40
1.6
 49
1.0
 49
-0.2
 49
0.0
 49
-0.2
 49
0.0
 49
-0.2
  0
LTYPE
  2
DIVIDEX2
 70
0
  3
Divide (2x) ____  . .  ____  . .  ____  . .  ____
 72
65
 73
6
 40
2.6
 49
2.0
 49
-0.2
 49
0.0
 49
-0.2
 49
0.0
 49
-0.2
  0
LTYPE
  2
DIVIDE2
 70
0
  3
Divide(.5x) _ . _ . _ . _ . _ . _ . _ . _
 72
65
 73
6
 40
0.8
 49
0.5
 49
-0.1
 49
0.0
 49
-0.1
 49
0.0
 49
-0.1
  0
ENDTAB
  0
TABLE
  2
LAYER
 70
6
  0
LAYER
  2
DIMENSIONS
 70
0
 62
1
  6
CONTINUOUS
  0
LAYER
  2
TABLEBACKGROUND
 70
0
 62
1
  6
CONTINUOUS
  0
LAYER
  2
TABLECONTENT
 70
0
 62
1
  6
CONTINUOUS
  0
LAYER
  2
TABLEGRID
 70
0
 62
1
  6
CONTINUOUS
  0
LAYER
  2
VIEWPORTS
 70
0
 62
7
  6
CONTINUOUS
  0
LAYER
  2
new-chunk2
 70
0
 62
1
  6
CONTINUOUS
  0
ENDTAB
  0
TABLE
  2
STYLE
 70
12
  0
STYLE
  2
STANDARD
 70
0
 40
0.0
 41
1.0
 42
1.0
 50
0.0
 71
0
  3
arial.ttf
  4

  0
STYLE
  2
ARIAL
 70
0
 40
0.0
 41
1.0
 42
1.0
 50
0.0
 71
0
  3
arial.ttf
  4

  0
STYLE
  2
ARIAL_BOLD
 70
0
 40
0.0
 41
1.0
 42
1.0
 50
0.0
 71
0
  3
arialbd.ttf
  4

  0
STYLE
  2
ARIAL_ITALIC
 70
0
 40
0.0
 41
1.0
 42
1.0
 50
0.0
 71
0
  3
ariali.ttf
  4

  0
STYLE
  2
ARIAL_BOLD_ITALIC
 70
0
 40
0.0
 41
1.0
 42
1.0
 50
0.0
 71
0
  3
arialbi.ttf
  4

  0
STYLE
  2
ARIAL_BLACK
 70
0
 40
0.0
 41
1.0
 42
1.0
 50
0.0
 71
0
  3
ariblk.ttf
  4

  0
STYLE
  2
ISOCPEUR
 70
0
 40
0.0
 41
1.0
 42
1.0
 50
0.0
 71
0
  3
isocpeur.ttf
  4

  0
STYLE
  2
ISOCPEUR_ITALIC
 70
0
 40
0.0
 41
1.0
 42
1.0
 50
0.0
 71
0
  3
isocpeui.ttf
  4

  0
STYLE
  2
TIMES
 70
0
 40
0.0
 41
1.0
 42
1.0
 50
0.0
 71
0
  3
times.ttf
  4

  0
STYLE
  2
TIMES_BOLD
 70
0
 40
0.0
 41
1.0
 42
1.0
 50
0.0
 71
0
  3
timesbd.ttf
  4

  0
STYLE
  2
TIMES_ITALIC
 70
0
 40
0.0
 41
1.0
 42
1.0
 50
0.0
 71
0
  3
timesi.ttf
  4

  0
STYLE
  2
TIMES_BOLD_ITALIC
 70
0
 40
0.0
 41
1.0
 42
1.0
 50
0.0
 71
0
  3
timesbi.ttf
  4

  0
ENDTAB
  0
TABLE
  2
VIEW
 70
0
  0
ENDTAB
  0
TABLE
  2
APPID
 70
1
  0
APPID
  2
DXFWRITE
 70
0
  0
ENDTAB
  0
TABLE
  2
VPORT
 70
0
  0
ENDTAB
  0
TABLE
  2
UCS
 70
0
  0
ENDTAB
  0
ENDSEC
  0
SECTION
  2
BLOCKS
  0
ENDSEC
  0
SECTION
  2
ENTITIES
  0
VIEWPORT
  8
VIEWPORTS
 67
1
 10
0.0
 20
0.0
 30
0.0
 40
1.0
 41
1.0
 68
1
 69
1
1001
ACAD
1000
MVIEW
1002
{
1070
16
1010
0.0
1020
0.0
1030
0.0
1010
0.0
1020
0.0
1030
0.0
1040
0.0
1040
1.0
1040
0.0
1040
0.0
1040
50.0
1040
0.0
1040
0.0
1070
0
1070
100
1070
1
1070
3
1070
0
1070
0
1070
0
1070
0
1040
0.0
1040
0.0
1040
0.0
1040
0.1
1040
0.1
1040
0.1
1040
0.1
1070
0
1002
{
1002
}
1002
}
  0
POLYLINE
 62
7
  8
new-chunk2
 66
1
 10
0.0
 20
0.0
 30
0.0
 70
8
  0
VERTEX
  8
new-chunk2
 10
0.0
 20
531.4534301757812
 30
0.0
  0
VERTEX
  8
new-chunk2
 10
0.30670399433432616
 20
531.338623046875
 30
0.0
  0
VERTEX
  8
new-chunk2
 10
0.6134079886686523
 20
531.316650390625
 30
0.0
  0
VERTEX
  8
new-chunk2
 10
0.9201119830029785
 20
531.2611694335938
 30
0.0
  0
VERTEX
  8
new-chunk2
 10
1.2268159773373046
 20
531.0933837890625
 30
0.0
  0
VERTEX
  8
new-chunk2
 10
1.5335199716716308
 20
531.0679321289062
 30
0.0
  0
VERTEX
  8
new-chunk2
 10
1.840223966005957
 20
530.9908447265625
 30
0.0
  0
VERTEX
  8
new-chunk2
 10
2.146927960340283
 20
530.8948974609375
 30
0.0
  0
VERTEX
  8
new-chunk2
 10
2.4536319546746093
 20
530.7371826171875
 30
0.0
  0
VERTEX
  8
new-chunk2
 10
2.7603359490089354
 20
530.6187744140625
 30
0.0
  0
VERTEX
  8
new-chunk2
 10
3.0670399433432616
 20
530.5702514648438
 30
0.0
  0
VERTEX
  8
new-chunk2
 10
3.3737439376775877
 20
530.4982299804688
 30
0.0
  0
VERTEX
  8
new-chunk2
 10
3.680447932011914
 20
530.5258178710938
 30
0.0
  0
VERTEX
  8
new-chunk2
 10
3.98715192634624
 20
530.6007690429688
 30
0.0
  0
VERTEX
  8
new-chunk2
 10
4.293855920680566
 20
530.7127075195312
 30
0.0
  0
VERTEX
  8
new-chunk2
 10
4.600559915014893
 20
530.8119506835938
 30
0.0
  0
VERTEX
  8
new-chunk2
 10
4.9072639093492185
 20
530.9640502929688
 30
0.0
  0
VERTEX
  8
new-chunk2
 10
5.213967903683544
 20
530.9883422851562
 30
0.0
  0
VERTEX
  8
new-chunk2
 10
5.520671898017871
 20
530.919189453125
 30
0.0
  0
VERTEX
  8
new-chunk2
 10
5.827375892352197
 20
530.760009765625
 30
0.0
  0
VERTEX
  8
new-chunk2
 10
6.134079886686523
 20
530.5963134765625
 30
0.0
  0
VERTEX
  8
new-chunk2
 10
6.440783881020849
 20
530.477294921875
 30
0.0
  0
VERTEX
  8
new-chunk2
 10
6.7474878753551755
 20
530.3685302734375
 30
0.0
  0
VERTEX
  8
new-chunk2
 10
7.054191869689502
 20
530.2290649414062
 30
0.0
  0
VERTEX
  8
new-chunk2
 10
7.360895864023828
 20
529.8407592773438
 30
0.0
  0
VERTEX
  8
new-chunk2
 10
7.6675998583581535
 20
529.4991455078125
 30
0.0
  0
VERTEX
  8
new-chunk2
 10
7.97430385269248
 20
529.2546997070312
 30
0.0
  0
VERTEX
  8
new-chunk2
 10
8.281007847026807
 20
529.26318359375
 30
0.0
  0
VERTEX
  8
new-chunk2
 10
8.587711841361132
 20
529.3724365234375
 30
0.0
  0
VERTEX
  8
new-chunk2
 10
8.894415835695458
 20
529.6959838867188
 30
0.0
  0
VERTEX
  8
new-chunk2
 10
9.201119830029786
 20
529.97705078125
 30
0.0
  0
VERTEX
  8
new-chunk2
 10
9.507823824364111
 20
530.2284545898438
 30
0.0
  0
VERTEX
  8
new-chunk2
 10
9.814527818698437
 20
530.4439697265625
 30
0.0
  0
VERTEX
  8
new-chunk2
 10
10.121231813032763
 20
530.5914306640625
 30
0.0
  0
VERTEX
  8
new-chunk2
 10
10.427935807367088
 20
530.599609375
 30
0.0
  0
VERTEX
  8
new-chunk2
 10
10.734639801701416
 20
530.5421142578125
 30
0.0
  0
VERTEX
  8
new-chunk2
 10
11.041343796035742
 20
530.375
 30
0.0
  0
VERTEX
  8
new-chunk2
 10
11.348047790370067
 20
530.1622924804688
 30
0.0
  0
VERTEX
  8
new-chunk2
 10
11.654751784704395
 20
530.03271484375
 30
0.0
  0
VERTEX
  8
new-chunk2
 10
11.96145577903872
 20
529.8673706054688
 30
0.0
  0
VERTEX
  8
new-chunk2
 10
12.268159773373046
 20
529.8165893554688
 30
0.0
  0
VERTEX
  8
new-chunk2
 10
12.574863767707372
 20
530.2401733398438
 30
0.0
  0
VERTEX
  8
new-chunk2
 10
12.881567762041698
 20
530.307373046875
 30
0.0
  0
VERTEX
  8
new-chunk2
 10
13.188271756376025
 20
530.2841796875
 30
0.0
  0
VERTEX
  8
new-chunk2
 10
13.494975750710351
 20
530.2884521484375
 30
0.0
  0
VERTEX
  8
new-chunk2
 10
13.801679745044677
 20
530.2959594726562
 30
0.0
  0
VERTEX
  8
new-chunk2
 10
14.108383739379004
 20
530.2329711914062
 30
0.0
  0
VERTEX
  8
new-chunk2
 10
14.41508773371333
 20
530.139404296875
 30
0.0
  0
VERTEX
  8
new-chunk2
 10
14.721791728047656
 20
530.1024780273438
 30
0.0
  0
VERTEX
  8
new-chunk2
 10
15.028495722381981
 20
530.071044921875
 30
0.0
  0
VERTEX
  8
new-chunk2
 10
15.335199716716307
 20
530.0111694335938
 30
0.0
  0
VERTEX
  8
new-chunk2
 10
15.641903711050634
 20
529.9065551757812
 30
0.0
  0
VERTEX
  8
new-chunk2
 10
15.94860770538496
 20
529.7938842773438
 30
0.0
  0
VERTEX
  8
new-chunk2
 10
16.255311699719286
 20
529.6912231445312
 30
0.0
  0
VERTEX
  8
new-chunk2
 10
16.562015694053613
 20
529.6277465820312
 30
0.0
  0
VERTEX
  8
new-chunk2
 10
16.868719688387937
 20
529.5894775390625
 30
0.0
  0
VERTEX
  8
new-chunk2
 10
17.175423682722265
 20
529.416259765625
 30
0.0
  0
VERTEX
  8
new-chunk2
 10
17.482127677056592
 20
529.1878051757812
 30
0.0
  0
VERTEX
  8
new-chunk2
 10
17.788831671390916
 20
528.930419921875
 30
0.0
  0
VERTEX
  8
new-chunk2
 10
18.095535665725244
 20
528.7646484375
 30
0.0
  0
VERTEX
  8
new-chunk2
 10
18.40223966005957
 20
528.7276611328125
 30
0.0
  0
VERTEX
  8
new-chunk2
 10
18.708943654393895
 20
528.715576171875
 30
0.0
  0
VERTEX
  8
new-chunk2
 10
19.015647648728223
 20
528.6627197265625
 30
0.0
  0
VERTEX
  8
new-chunk2
 10
19.322351643062547
 20
528.5648193359375
 30
0.0
  0
VERTEX
  8
new-chunk2
 10
19.629055637396874
 20
528.40771484375
 30
0.0
  0
VERTEX
  8
new-chunk2
 10
19.9357596317312
 20
528.31396484375
 30
0.0
  0
VERTEX
  8
new-chunk2
 10
20.242463626065526
 20
528.1536865234375
 30
0.0
  0
VERTEX
  8
new-chunk2
 10
20.549167620399853
 20
528.0050659179688
 30
0.0
  0
VERTEX
  8
new-chunk2
 10
20.855871614734177
 20
527.9467163085938
 30
0.0
  0
VERTEX
  8
new-chunk2
 10
21.162575609068504
 20
527.9219360351562
 30
0.0
  0
VERTEX
  8
new-chunk2
 10
21.469279603402832
 20
527.6461791992188
 30
0.0
  0
VERTEX
  8
new-chunk2
 10
21.775983597737156
 20
527.238525390625
 30
0.0
  0
VERTEX
  8
new-chunk2
 10
22.082687592071483
 20
526.7224731445312
 30
0.0
  0
VERTEX
  8
new-chunk2
 10
22.38939158640581
 20
526.0396728515625
 30
0.0
  0
VERTEX
  8
new-chunk2
 10
22.696095580740135
 20
525.564697265625
 30
0.0
  0
VERTEX
  8
new-chunk2
 10
23.002799575074462
 20
525.2911987304688
 30
0.0
  0
VERTEX
  8
new-chunk2
 10
23.30950356940879
 20
524.98046875
 30
0.0
  0
VERTEX
  8
new-chunk2
 10
23.616207563743114
 20
524.9987182617188
 30
0.0
  0
VERTEX
  8
new-chunk2
 10
23.92291155807744
 20
525.192626953125
 30
0.0
  0
VERTEX
  8
new-chunk2
 10
24.229615552411765
 20
525.4741821289062
 30
0.0
  0
VERTEX
  8
new-chunk2
 10
24.536319546746093
 20
525.65771484375
 30
0.0
  0
VERTEX
  8
new-chunk2
 10
24.84302354108042
 20
525.9021606445312
 30
0.0
  0
VERTEX
  8
new-chunk2
 10
25.149727535414744
 20
526.094970703125
 30
0.0
  0
VERTEX
  8
new-chunk2
 10
25.45643152974907
 20
526.4705200195312
 30
0.0
  0
VERTEX
  8
new-chunk2
 10
25.763135524083395
 20
526.7110595703125
 30
0.0
  0
VERTEX
  8
new-chunk2
 10
26.069839518417723
 20
527.017822265625
 30
0.0
  0
VERTEX
  8
new-chunk2
 10
26.37654351275205
 20
527.2820434570312
 30
0.0
  0
VERTEX
  8
new-chunk2
 10
26.683247507086374
 20
527.4564819335938
 30
0.0
  0
VERTEX
  8
new-chunk2
 10
26.989951501420702
 20
527.5125732421875
 30
0.0
  0
VERTEX
  8
new-chunk2
 10
27.29665549575503
 20
527.6466674804688
 30
0.0
  0
VERTEX
  8
new-chunk2
 10
27.603359490089353
 20
527.78759765625
 30
0.0
  0
VERTEX
  8
new-chunk2
 10
27.91006348442368
 20
527.9667358398438
 30
0.0
  0
VERTEX
  8
new-chunk2
 10
28.21676747875801
 20
528.0925903320312
 30
0.0
  0
VERTEX
  8
new-chunk2
 10
28.523471473092332
 20
528.3214111328125
 30
0.0
  0
VERTEX
  8
new-chunk2
 10
28.83017546742666
 20
528.5430908203125
 30
0.0
  0
VERTEX
  8
new-chunk2
 10
29.136879461760984
 20
528.6953125
 30
0.0
  0
VERTEX
  8
new-chunk2
 10
29.44358345609531
 20
528.8056030273438
 30
0.0
  0
VERTEX
  8
new-chunk2
 10
29.75028745042964
 20
528.8829956054688
 30
0.0
  0
VERTEX
  8
new-chunk2
 10
30.056991444763963
 20
528.8922729492188
 30
0.0
  0
VERTEX
  8
new-chunk2
 10
30.36369543909829
 20
528.8781127929688
 30
0.0
  0
VERTEX
  8
new-chunk2
 10
30.670399433432614
 20
528.8955078125
 30
0.0
  0
VERTEX
  8
new-chunk2
 10
30.97710342776694
 20
528.911376953125
 30
0.0
  0
VERTEX
  8
new-chunk2
 10
31.28380742210127
 20
528.9036865234375
 30
0.0
  0
VERTEX
  8
new-chunk2
 10
31.590511416435593
 20
528.8766479492188
 30
0.0
  0
VERTEX
  8
new-chunk2
 10
31.89721541076992
 20
528.7529296875
 30
0.0
  0
VERTEX
  8
new-chunk2
 10
32.203919405104244
 20
528.6050415039062
 30
0.0
  0
VERTEX
  8
new-chunk2
 10
32.51062339943857
 20
528.4930419921875
 30
0.0
  0
VERTEX
  8
new-chunk2
 10
32.8173273937729
 20
528.3873901367188
 30
0.0
  0
VERTEX
  8
new-chunk2
 10
33.12403138810723
 20
528.2264404296875
 30
0.0
  0
VERTEX
  8
new-chunk2
 10
33.430735382441554
 20
527.9946899414062
 30
0.0
  0
VERTEX
  8
new-chunk2
 10
33.737439376775875
 20
527.635498046875
 30
0.0
  0
VERTEX
  8
new-chunk2
 10
34.0441433711102
 20
527.5587158203125
 30
0.0
  0
VERTEX
  8
new-chunk2
 10
34.35084736544453
 20
527.635009765625
 30
0.0
  0
VERTEX
  8
new-chunk2
 10
34.65755135977886
 20
527.7431640625
 30
0.0
  0
VERTEX
  8
new-chunk2
 10
34.964255354113185
 20
527.8999633789062
 30
0.0
  0
VERTEX
  8
new-chunk2
 10
35.270959348447505
 20
527.9826049804688
 30
0.0
  0
VERTEX
  8
new-chunk2
 10
35.57766334278183
 20
528.0214233398438
 30
0.0
  0
VERTEX
  8
new-chunk2
 10
35.88436733711616
 20
528.0382080078125
 30
0.0
  0
VERTEX
  8
new-chunk2
 10
36.19107133145049
 20
528.0380249023438
 30
0.0
  0
VERTEX
  8
new-chunk2
 10
36.497775325784815
 20
528.0025634765625
 30
0.0
  0
VERTEX
  8
new-chunk2
 10
36.80447932011914
 20
527.9376831054688
 30
0.0
  0
VERTEX
  8
new-chunk2
 10
37.11118331445346
 20
527.8396606445312
 30
0.0
  0
VERTEX
  8
new-chunk2
 10
37.41788730878779
 20
527.7208251953125
 30
0.0
  0
VERTEX
  8
new-chunk2
 10
37.72459130312212
 20
527.5988159179688
 30
0.0
  0
VERTEX
  8
new-chunk2
 10
38.031295297456445
 20
527.492919921875
 30
0.0
  0
VERTEX
  8
new-chunk2
 10
38.33799929179077
 20
527.4075317382812
 30
0.0
  0
VERTEX
  8
new-chunk2
 10
38.64470328612509
 20
527.3602905273438
 30
0.0
  0
VERTEX
  8
new-chunk2
 10
38.95140728045942
 20
527.2735595703125
 30
0.0
  0
VERTEX
  8
new-chunk2
 10
39.25811127479375
 20
527.2833862304688
 30
0.0
  0
VERTEX
  8
new-chunk2
 10
39.564815269128076
 20
527.3192138671875
 30
0.0
  0
VERTEX
  8
new-chunk2
 10
39.8715192634624
 20
527.3823852539062
 30
0.0
  0
VERTEX
  8
new-chunk2
 10
40.17822325779672
 20
527.458984375
 30
0.0
  0
VERTEX
  8
new-chunk2
 10
40.48492725213105
 20
527.5311889648438
 30
0.0
  0
VERTEX
  8
new-chunk2
 10
40.79163124646538
 20
527.5621948242188
 30
0.0
  0
VERTEX
  8
new-chunk2
 10
41.098335240799706
 20
527.554443359375
 30
0.0
  0
VERTEX
  8
new-chunk2
 10
41.40503923513403
 20
527.5564575195312
 30
0.0
  0
VERTEX
  8
new-chunk2
 10
41.711743229468354
 20
527.5756225585938
 30
0.0
  0
VERTEX
  8
new-chunk2
 10
42.01844722380268
 20
527.6478271484375
 30
0.0
  0
VERTEX
  8
new-chunk2
 10
42.32515121813701
 20
527.6978149414062
 30
0.0
  0
VERTEX
  8
new-chunk2
 10
42.631855212471336
 20
527.6685791015625
 30
0.0
  0
VERTEX
  8
new-chunk2
 10
42.938559206805664
 20
527.4520874023438
 30
0.0
  0
VERTEX
  8
new-chunk2
 10
43.24526320113999
 20
527.2307739257812
 30
0.0
  0
VERTEX
  8
new-chunk2
 10
43.55196719547431
 20
527.1361694335938
 30
0.0
  0
VERTEX
  8
new-chunk2
 10
43.85867118980864
 20
527.0855102539062
 30
0.0
  0
VERTEX
  8
new-chunk2
 10
44.16537518414297
 20
527.0095825195312
 30
0.0
  0
VERTEX
  8
new-chunk2
 10
44.472079178477294
 20
526.6638793945312
 30
0.0
  0
VERTEX
  8
new-chunk2
 10
44.77878317281162
 20
526.3203125
 30
0.0
  0
VERTEX
  8
new-chunk2
 10
45.08548716714594
 20
525.60693359375
 30
0.0
  0
VERTEX
  8
new-chunk2
 10
45.39219116148027
 20
525.0033569335938
 30
0.0
  0
VERTEX
  8
new-chunk2
 10
45.6988951558146
 20
525.1011352539062
 30
0.0
  0
VERTEX
  8
new-chunk2
 10
46.005599150148925
 20
525.3032836914062
 30
0.0
  0
VERTEX
  8
new-chunk2
 10
46.31230314448325
 20
525.4940795898438
 30
0.0
  0
VERTEX
  8
new-chunk2
 10
46.61900713881758
 20
525.6968383789062
 30
0.0
  0
VERTEX
  8
new-chunk2
 10
46.9257111331519
 20
525.8504028320312
 30
0.0
  0
VERTEX
  8
new-chunk2
 10
47.23241512748623
 20
526.127685546875
 30
0.0
  0
VERTEX
  8
new-chunk2
 10
47.539119121820555
 20
526.4225463867188
 30
0.0
  0
VERTEX
  8
new-chunk2
 10
47.84582311615488
 20
526.7103271484375
 30
0.0
  0
VERTEX
  8
new-chunk2
 10
48.15252711048921
 20
526.8491821289062
 30
0.0
  0
VERTEX
  8
new-chunk2
 10
48.45923110482353
 20
526.9766235351562
 30
0.0
  0
VERTEX
  8
new-chunk2
 10
48.76593509915786
 20
527.0469360351562
 30
0.0
  0
VERTEX
  8
new-chunk2
 10
49.072639093492185
 20
527.0612182617188
 30
0.0
  0
VERTEX
  8
new-chunk2
 10
49.37934308782651
 20
527.0665893554688
 30
0.0
  0
VERTEX
  8
new-chunk2
 10
49.68604708216084
 20
527.0750732421875
 30
0.0
  0
VERTEX
  8
new-chunk2
 10
49.99275107649516
 20
527.0869140625
 30
0.0
  0
VERTEX
  8
new-chunk2
 10
50.29945507082949
 20
527.09228515625
 30
0.0
  0
VERTEX
  8
new-chunk2
 10
50.606159065163816
 20
527.0542602539062
 30
0.0
  0
VERTEX
  8
new-chunk2
 10
50.91286305949814
 20
527.0050659179688
 30
0.0
  0
VERTEX
  8
new-chunk2
 10
51.21956705383247
 20
526.9224853515625
 30
0.0
  0
VERTEX
  8
new-chunk2
 10
51.52627104816679
 20
526.894287109375
 30
0.0
  0
VERTEX
  8
new-chunk2
 10
51.83297504250112
 20
526.9505004882812
 30
0.0
  0
VERTEX
  8
new-chunk2
 10
52.139679036835446
 20
526.9833374023438
 30
0.0
  0
VERTEX
  8
new-chunk2
 10
52.44638303116977
 20
526.8509521484375
 30
0.0
  0
VERTEX
  8
new-chunk2
 10
52.7530870255041
 20
526.550537109375
 30
0.0
  0
VERTEX
  8
new-chunk2
 10
53.05979101983843
 20
526.468994140625
 30
0.0
  0
VERTEX
  8
new-chunk2
 10
53.36649501417275
 20
526.3787841796875
 30
0.0
  0
VERTEX
  8
new-chunk2
 10
53.673199008507076
 20
526.2638549804688
 30
0.0
  0
VERTEX
  8
new-chunk2
 10
53.979903002841404
 20
526.106201171875
 30
0.0
  0
VERTEX
  8
new-chunk2
 10
54.28660699717573
 20
525.7769775390625
 30
0.0
  0
VERTEX
  8
new-chunk2
 10
54.59331099151006
 20
525.3621826171875
 30
0.0
  0
VERTEX
  8
new-chunk2
 10
54.90001498584438
 20
524.654296875
 30
0.0
  0
VERTEX
  8
new-chunk2
 10
55.20671898017871
 20
524.2415771484375
 30
0.0
  0
VERTEX
  8
new-chunk2
 10
55.513422974513034
 20
524.33984375
 30
0.0
  0
VERTEX
  8
new-chunk2
 10
55.82012696884736
 20
525.215087890625
 30
0.0
  0
VERTEX
  8
new-chunk2
 10
56.12683096318169
 20
525.7801513671875
 30
0.0
  0
VERTEX
  8
new-chunk2
 10
56.43353495751602
 20
525.9453735351562
 30
0.0
  0
VERTEX
  8
new-chunk2
 10
56.74023895185034
 20
526.27880859375
 30
0.0
  0
VERTEX
  8
new-chunk2
 10
57.046942946184664
 20
526.5223388671875
 30
0.0
  0
VERTEX
  8
new-chunk2
 10
57.35364694051899
 20
526.5349731445312
 30
0.0
  0
VERTEX
  8
new-chunk2
 10
57.66035093485332
 20
526.4898071289062
 30
0.0
  0
VERTEX
  8
new-chunk2
 10
57.96705492918765
 20
526.4279174804688
 30
0.0
  0
VERTEX
  8
new-chunk2
 10
58.27375892352197
 20
526.3455200195312
 30
0.0
  0
VERTEX
  8
new-chunk2
 10
58.580462917856295
 20
526.2546997070312
 30
0.0
  0
VERTEX
  8
new-chunk2
 10
58.88716691219062
 20
526.17626953125
 30
0.0
  0
VERTEX
  8
new-chunk2
 10
59.19387090652495
 20
526.0858154296875
 30
0.0
  0
VERTEX
  8
new-chunk2
 10
59.50057490085928
 20
525.8930053710938
 30
0.0
  0
VERTEX
  8
new-chunk2
 10
59.8072788951936
 20
525.6714477539062
 30
0.0
  0
VERTEX
  8
new-chunk2
 10
60.113982889527925
 20
525.5562744140625
 30
0.0
  0
VERTEX
  8
new-chunk2
 10
60.42068688386225
 20
525.4673461914062
 30
0.0
  0
VERTEX
  8
new-chunk2
 10
60.72739087819658
 20
525.402587890625
 30
0.0
  0
VERTEX
  8
new-chunk2
 10
61.03409487253091
 20
525.3595581054688
 30
0.0
  0
VERTEX
  8
new-chunk2
 10
61.34079886686523
 20
525.3206176757812
 30
0.0
  0
VERTEX
  8
new-chunk2
 10
61.647502861199555
 20
525.279296875
 30
0.0
  0
VERTEX
  8
new-chunk2
 10
61.95420685553388
 20
525.2544555664062
 30
0.0
  0
VERTEX
  8
new-chunk2
 10
62.26091084986821
 20
525.2491455078125
 30
0.0
  0
VERTEX
  8
new-chunk2
 10
62.56761484420254
 20
525.2600708007812
 30
0.0
  0
VERTEX
  8
new-chunk2
 10
62.874318838536865
 20
525.1499633789062
 30
0.0
  0
VERTEX
  8
new-chunk2
 10
63.181022832871186
 20
524.9765014648438
 30
0.0
  0
VERTEX
  8
new-chunk2
 10
63.48772682720551
 20
524.846435546875
 30
0.0
  0
VERTEX
  8
new-chunk2
 10
63.79443082153984
 20
524.7017211914062
 30
0.0
  0
VERTEX
  8
new-chunk2
 10
64.10113481587416
 20
524.6563720703125
 30
0.0
  0
VERTEX
  8
new-chunk2
 10
64.40783881020849
 20
524.6443481445312
 30
0.0
  0
VERTEX
  8
new-chunk2
 10
64.71454280454282
 20
524.6182861328125
 30
0.0
  0
VERTEX
  8
new-chunk2
 10
65.02124679887714
 20
524.6583862304688
 30
0.0
  0
VERTEX
  8
new-chunk2
 10
65.32795079321147
 20
524.7562255859375
 30
0.0
  0
VERTEX
  8
new-chunk2
 10
65.6346547875458
 20
524.8245239257812
 30
0.0
  0
VERTEX
  8
new-chunk2
 10
65.94135878188013
 20
524.8389892578125
 30
0.0
  0
VERTEX
  8
new-chunk2
 10
66.24806277621445
 20
524.7842407226562
 30
0.0
  0
VERTEX
  8
new-chunk2
 10
66.55476677054878
 20
524.69873046875
 30
0.0
  0
VERTEX
  8
new-chunk2
 10
66.86147076488311
 20
524.5481567382812
 30
0.0
  0
VERTEX
  8
new-chunk2
 10
67.16817475921742
 20
524.4526977539062
 30
0.0
  0
VERTEX
  8
new-chunk2
 10
67.47487875355175
 20
524.3875732421875
 30
0.0
  0
VERTEX
  8
new-chunk2
 10
67.78158274788608
 20
524.3543090820312
 30
0.0
  0
VERTEX
  8
new-chunk2
 10
68.0882867422204
 20
524.4512939453125
 30
0.0
  0
VERTEX
  8
new-chunk2
 10
68.39499073655473
 20
524.5216064453125
 30
0.0
  0
VERTEX
  8
new-chunk2
 10
68.70169473088906
 20
524.5951538085938
 30
0.0
  0
VERTEX
  8
new-chunk2
 10
69.00839872522339
 20
524.645751953125
 30
0.0
  0
VERTEX
  8
new-chunk2
 10
69.31510271955771
 20
524.6784057617188
 30
0.0
  0
VERTEX
  8
new-chunk2
 10
69.62180671389204
 20
524.687255859375
 30
0.0
  0
VERTEX
  8
new-chunk2
 10
69.92851070822637
 20
524.6040649414062
 30
0.0
  0
VERTEX
  8
new-chunk2
 10
70.2352147025607
 20
524.4932250976562
 30
0.0
  0
VERTEX
  8
new-chunk2
 10
70.54191869689501
 20
524.48828125
 30
0.0
  0
VERTEX
  8
new-chunk2
 10
70.84862269122934
 20
524.576416015625
 30
0.0
  0
VERTEX
  8
new-chunk2
 10
71.15532668556367
 20
524.6735229492188
 30
0.0
  0
VERTEX
  8
new-chunk2
 10
71.46203067989799
 20
524.7322387695312
 30
0.0
  0
VERTEX
  8
new-chunk2
 10
71.76873467423232
 20
524.7568359375
 30
0.0
  0
VERTEX
  8
new-chunk2
 10
72.07543866856665
 20
524.7724609375
 30
0.0
  0
VERTEX
  8
new-chunk2
 10
72.38214266290097
 20
524.7581176757812
 30
0.0
  0
VERTEX
  8
new-chunk2
 10
72.6888466572353
 20
524.7026977539062
 30
0.0
  0
VERTEX
  8
new-chunk2
 10
72.99555065156963
 20
524.63134765625
 30
0.0
  0
VERTEX
  8
new-chunk2
 10
73.30225464590396
 20
524.542236328125
 30
0.0
  0
VERTEX
  8
new-chunk2
 10
73.60895864023828
 20
524.4590454101562
 30
0.0
  0
VERTEX
  8
new-chunk2
 10
73.9156626345726
 20
524.368408203125
 30
0.0
  0
VERTEX
  8
new-chunk2
 10
74.22236662890693
 20
524.2982177734375
 30
0.0
  0
VERTEX
  8
new-chunk2
 10
74.52907062324125
 20
524.189697265625
 30
0.0
  0
VERTEX
  8
new-chunk2
 10
74.83577461757558
 20
524.2644653320312
 30
0.0
  0
VERTEX
  8
new-chunk2
 10
75.14247861190991
 20
524.3953247070312
 30
0.0
  0
VERTEX
  8
new-chunk2
 10
75.44918260624424
 20
524.3960571289062
 30
0.0
  0
VERTEX
  8
new-chunk2
 10
75.75588660057856
 20
524.47705078125
 30
0.0
  0
VERTEX
  8
new-chunk2
 10
76.06259059491289
 20
524.589111328125
 30
0.0
  0
VERTEX
  8
new-chunk2
 10
76.36929458924722
 20
524.5955200195312
 30
0.0
  0
VERTEX
  8
new-chunk2
 10
76.67599858358155
 20
524.4551391601562
 30
0.0
  0
VERTEX
  8
new-chunk2
 10
76.98270257791586
 20
524.3206176757812
 30
0.0
  0
VERTEX
  8
new-chunk2
 10
77.28940657225019
 20
524.3109741210938
 30
0.0
  0
VERTEX
  8
new-chunk2
 10
77.59611056658451
 20
524.3983154296875
 30
0.0
  0
VERTEX
  8
new-chunk2
 10
77.90281456091884
 20
524.496826171875
 30
0.0
  0
VERTEX
  8
new-chunk2
 10
78.20951855525317
 20
524.5733642578125
 30
0.0
  0
VERTEX
  8
new-chunk2
 10
78.5162225495875
 20
524.6056518554688
 30
0.0
  0
VERTEX
  8
new-chunk2
 10
78.82292654392182
 20
524.5884399414062
 30
0.0
  0
VERTEX
  8
new-chunk2
 10
79.12963053825615
 20
524.5217895507812
 30
0.0
  0
VERTEX
  8
new-chunk2
 10
79.43633453259048
 20
524.4462890625
 30
0.0
  0
VERTEX
  8
new-chunk2
 10
79.7430385269248
 20
524.4092407226562
 30
0.0
  0
VERTEX
  8
new-chunk2
 10
80.04974252125913
 20
524.3984985351562
 30
0.0
  0
VERTEX
  8
new-chunk2
 10
80.35644651559345
 20
524.4028930664062
 30
0.0
  0
VERTEX
  8
new-chunk2
 10
80.66315050992777
 20
524.412109375
 30
0.0
  0
VERTEX
  8
new-chunk2
 10
80.9698545042621
 20
524.4143676757812
 30
0.0
  0
VERTEX
  8
new-chunk2
 10
81.27655849859643
 20
524.3922119140625
 30
0.0
  0
VERTEX
  8
new-chunk2
 10
81.58326249293076
 20
524.344970703125
 30
0.0
  0
VERTEX
  8
new-chunk2
 10
81.88996648726508
 20
524.2950439453125
 30
0.0
  0
VERTEX
  8
new-chunk2
 10
82.19667048159941
 20
524.2256469726562
 30
0.0
  0
VERTEX
  8
new-chunk2
 10
82.50337447593374
 20
524.1754150390625
 30
0.0
  0
VERTEX
  8
new-chunk2
 10
82.81007847026807
 20
524.1318359375
 30
0.0
  0
VERTEX
  8
new-chunk2
 10
83.1167824646024
 20
524.0595092773438
 30
0.0
  0
VERTEX
  8
new-chunk2
 10
83.42348645893671
 20
523.9627685546875
 30
0.0
  0
VERTEX
  8
new-chunk2
 10
83.73019045327104
 20
523.8854370117188
 30
0.0
  0
VERTEX
  8
new-chunk2
 10
84.03689444760536
 20
523.8073120117188
 30
0.0
  0
VERTEX
  8
new-chunk2
 10
84.34359844193969
 20
523.73486328125
 30
0.0
  0
VERTEX
  8
new-chunk2
 10
84.65030243627402
 20
523.6566772460938
 30
0.0
  0
VERTEX
  8
new-chunk2
 10
84.95700643060835
 20
523.58935546875
 30
0.0
  0
VERTEX
  8
new-chunk2
 10
85.26371042494267
 20
523.4449462890625
 30
0.0
  0
VERTEX
  8
new-chunk2
 10
85.570414419277
 20
523.2765502929688
 30
0.0
  0
VERTEX
  8
new-chunk2
 10
85.87711841361133
 20
523.157470703125
 30
0.0
  0
VERTEX
  8
new-chunk2
 10
86.18382240794566
 20
523.083251953125
 30
0.0
  0
VERTEX
  8
new-chunk2
 10
86.49052640227998
 20
523.018798828125
 30
0.0
  0
VERTEX
  8
new-chunk2
 10
86.7972303966143
 20
522.8944702148438
 30
0.0
  0
VERTEX
  8
new-chunk2
 10
87.10393439094862
 20
522.7914428710938
 30
0.0
  0
VERTEX
  8
new-chunk2
 10
87.41063838528295
 20
522.6990966796875
 30
0.0
  0
VERTEX
  8
new-chunk2
 10
87.71734237961728
 20
522.5296630859375
 30
0.0
  0
VERTEX
  8
new-chunk2
 10
88.0240463739516
 20
522.3829345703125
 30
0.0
  0
VERTEX
  8
new-chunk2
 10
88.33075036828593
 20
522.253173828125
 30
0.0
  0
VERTEX
  8
new-chunk2
 10
88.63745436262026
 20
522.2634887695312
 30
0.0
  0
VERTEX
  8
new-chunk2
 10
88.94415835695459
 20
522.36962890625
 30
0.0
  0
VERTEX
  8
new-chunk2
 10
89.25086235128892
 20
522.4234008789062
 30
0.0
  0
VERTEX
  8
new-chunk2
 10
89.55756634562324
 20
522.4110717773438
 30
0.0
  0
VERTEX
  8
new-chunk2
 10
89.86427033995757
 20
522.379150390625
 30
0.0
  0
VERTEX
  8
new-chunk2
 10
90.17097433429188
 20
522.3184814453125
 30
0.0
  0
VERTEX
  8
new-chunk2
 10
90.47767832862621
 20
522.2490234375
 30
0.0
  0
VERTEX
  8
new-chunk2
 10
90.78438232296054
 20
522.1566162109375
 30
0.0
  0
VERTEX
  8
new-chunk2
 10
91.09108631729487
 20
522.078369140625
 30
0.0
  0
VERTEX
  8
new-chunk2
 10
91.3977903116292
 20
521.9213256835938
 30
0.0
  0
VERTEX
  8
new-chunk2
 10
91.70449430596352
 20
521.7086181640625
 30
0.0
  0
VERTEX
  8
new-chunk2
 10
92.01119830029785
 20
521.5011596679688
 30
0.0
  0
VERTEX
  8
new-chunk2
 10
92.31790229463218
 20
521.3151245117188
 30
0.0
  0
VERTEX
  8
new-chunk2
 10
92.6246062889665
 20
521.3681030273438
 30
0.0
  0
VERTEX
  8
new-chunk2
 10
92.93131028330083
 20
521.52783203125
 30
0.0
  0
VERTEX
  8
new-chunk2
 10
93.23801427763516
 20
521.7273559570312
 30
0.0
  0
VERTEX
  8
new-chunk2
 10
93.54471827196947
 20
521.9403686523438
 30
0.0
  0
VERTEX
  8
new-chunk2
 10
93.8514222663038
 20
522.119384765625
 30
0.0
  0
VERTEX
  8
new-chunk2
 10
94.15812626063813
 20
522.1632080078125
 30
0.0
  0
VERTEX
  8
new-chunk2
 10
94.46483025497245
 20
522.186767578125
 30
0.0
  0
VERTEX
  8
new-chunk2
 10
94.77153424930678
 20
522.19482421875
 30
0.0
  0
VERTEX
  8
new-chunk2
 10
95.07823824364111
 20
522.1859130859375
 30
0.0
  0
VERTEX
  8
new-chunk2
 10
95.38494223797544
 20
522.1967163085938
 30
0.0
  0
VERTEX
  8
new-chunk2
 10
95.69164623230976
 20
522.209228515625
 30
0.0
  0
VERTEX
  8
new-chunk2
 10
95.99835022664409
 20
522.1937866210938
 30
0.0
  0
VERTEX
  8
new-chunk2
 10
96.30505422097842
 20
522.170166015625
 30
0.0
  0
VERTEX
  8
new-chunk2
 10
96.61175821531273
 20
522.157470703125
 30
0.0
  0
VERTEX
  8
new-chunk2
 10
96.91846220964706
 20
521.9482421875
 30
0.0
  0
VERTEX
  8
new-chunk2
 10
97.22516620398139
 20
521.4700927734375
 30
0.0
  0
VERTEX
  8
new-chunk2
 10
97.53187019831572
 20
520.8193359375
 30
0.0
  0
VERTEX
  8
new-chunk2
 10
97.83857419265004
 20
520.350341796875
 30
0.0
  0
VERTEX
  8
new-chunk2
 10
98.14527818698437
 20
519.716796875
 30
0.0
  0
VERTEX
  8
new-chunk2
 10
98.4519821813187
 20
519.2212524414062
 30
0.0
  0
VERTEX
  8
new-chunk2
 10
98.75868617565303
 20
519.0474243164062
 30
0.0
  0
VERTEX
  8
new-chunk2
 10
99.06539016998735
 20
518.9389038085938
 30
0.0
  0
VERTEX
  8
new-chunk2
 10
99.37209416432168
 20
518.8673706054688
 30
0.0
  0
VERTEX
  8
new-chunk2
 10
99.67879815865601
 20
518.860595703125
 30
0.0
  0
VERTEX
  8
new-chunk2
 10
99.98550215299032
 20
518.9695434570312
 30
0.0
  0
VERTEX
  8
new-chunk2
 10
100.29220614732465
 20
519.0726928710938
 30
0.0
  0
VERTEX
  8
new-chunk2
 10
100.59891014165898
 20
519.4326782226562
 30
0.0
  0
VERTEX
  8
new-chunk2
 10
100.9056141359933
 20
520.218017578125
 30
0.0
  0
VERTEX
  8
new-chunk2
 10
101.21231813032763
 20
521.1318359375
 30
0.0
  0
VERTEX
  8
new-chunk2
 10
101.51902212466196
 20
521.6709594726562
 30
0.0
  0
VERTEX
  8
new-chunk2
 10
101.82572611899629
 20
522.0372924804688
 30
0.0
  0
VERTEX
  8
new-chunk2
 10
102.13243011333061
 20
521.550048828125
 30
0.0
  0
VERTEX
  8
new-chunk2
 10
102.43913410766494
 20
521.3646240234375
 30
0.0
  0
VERTEX
  8
new-chunk2
 10
102.74583810199927
 20
521.327880859375
 30
0.0
  0
VERTEX
  8
new-chunk2
 10
103.05254209633358
 20
521.2901611328125
 30
0.0
  0
VERTEX
  8
new-chunk2
 10
103.35924609066791
 20
521.26171875
 30
0.0
  0
VERTEX
  8
new-chunk2
 10
103.66595008500224
 20
521.2691650390625
 30
0.0
  0
VERTEX
  8
new-chunk2
 10
103.97265407933656
 20
521.3054809570312
 30
0.0
  0
VERTEX
  8
new-chunk2
 10
104.27935807367089
 20
521.3187866210938
 30
0.0
  0
VERTEX
  8
new-chunk2
 10
104.58606206800522
 20
521.1738891601562
 30
0.0
  0
VERTEX
  8
new-chunk2
 10
104.89276606233955
 20
521.0293579101562
 30
0.0
  0
VERTEX
  8
new-chunk2
 10
105.19947005667387
 20
520.8385620117188
 30
0.0
  0
VERTEX
  8
new-chunk2
 10
105.5061740510082
 20
520.6055297851562
 30
0.0
  0
VERTEX
  8
new-chunk2
 10
105.81287804534253
 20
520.3596801757812
 30
0.0
  0
VERTEX
  8
new-chunk2
 10
106.11958203967686
 20
520.1375122070312
 30
0.0
  0
VERTEX
  8
new-chunk2
 10
106.42628603401117
 20
519.8184814453125
 30
0.0
  0
VERTEX
  8
new-chunk2
 10
106.7329900283455
 20
519.5541381835938
 30
0.0
  0
VERTEX
  8
new-chunk2
 10
107.03969402267983
 20
519.2276000976562
 30
0.0
  0
VERTEX
  8
new-chunk2
 10
107.34639801701415
 20
518.9428100585938
 30
0.0
  0
VERTEX
  8
new-chunk2
 10
107.65310201134848
 20
518.8876953125
 30
0.0
  0
VERTEX
  8
new-chunk2
 10
107.95980600568281
 20
518.9479370117188
 30
0.0
  0
VERTEX
  8
new-chunk2
 10
108.26651000001713
 20
519.0335083007812
 30
0.0
  0
VERTEX
  8
new-chunk2
 10
108.57321399435146
 20
519.07763671875
 30
0.0
  0
VERTEX
  8
new-chunk2
 10
108.87991798868579
 20
519.1715087890625
 30
0.0
  0
VERTEX
  8
new-chunk2
 10
109.18662198302012
 20
519.2634887695312
 30
0.0
  0
VERTEX
  8
new-chunk2
 10
109.49332597735444
 20
519.3507690429688
 30
0.0
  0
VERTEX
  8
new-chunk2
 10
109.80002997168876
 20
519.3860473632812
 30
0.0
  0
VERTEX
  8
new-chunk2
 10
110.10673396602309
 20
519.4534912109375
 30
0.0
  0
VERTEX
  8
new-chunk2
 10
110.41343796035741
 20
519.5587158203125
 30
0.0
  0
VERTEX
  8
new-chunk2
 10
110.72014195469174
 20
519.6417236328125
 30
0.0
  0
VERTEX
  8
new-chunk2
 10
111.02684594902607
 20
519.8097534179688
 30
0.0
  0
VERTEX
  8
new-chunk2
 10
111.3335499433604
 20
519.9896240234375
 30
0.0
  0
VERTEX
  8
new-chunk2
 10
111.64025393769472
 20
520.1693725585938
 30
0.0
  0
VERTEX
  8
new-chunk2
 10
111.94695793202905
 20
520.2889404296875
 30
0.0
  0
VERTEX
  8
new-chunk2
 10
112.25366192636338
 20
520.2842407226562
 30
0.0
  0
VERTEX
  8
new-chunk2
 10
112.5603659206977
 20
520.127197265625
 30
0.0
  0
VERTEX
  8
new-chunk2
 10
112.86706991503203
 20
519.9946899414062
 30
0.0
  0
VERTEX
  8
new-chunk2
 10
113.17377390936635
 20
519.9993286132812
 30
0.0
  0
VERTEX
  8
new-chunk2
 10
113.48047790370067
 20
520.0187377929688
 30
0.0
  0
VERTEX
  8
new-chunk2
 10
113.787181898035
 20
520.0308227539062
 30
0.0
  0
VERTEX
  8
new-chunk2
 10
114.09388589236933
 20
519.986572265625
 30
0.0
  0
VERTEX
  8
new-chunk2
 10
114.40058988670366
 20
519.8674926757812
 30
0.0
  0
VERTEX
  8
new-chunk2
 10
114.70729388103798
 20
519.6945190429688
 30
0.0
  0
VERTEX
  8
new-chunk2
 10
115.01399787537231
 20
519.4888305664062
 30
0.0
  0
VERTEX
  8
new-chunk2
 10
115.32070186970664
 20
519.2876586914062
 30
0.0
  0
VERTEX
  8
new-chunk2
 10
115.62740586404097
 20
519.2073974609375
 30
0.0
  0
VERTEX
  8
new-chunk2
 10
115.9341098583753
 20
519.2178955078125
 30
0.0
  0
VERTEX
  8
new-chunk2
 10
116.2408138527096
 20
519.2398071289062
 30
0.0
  0
VERTEX
  8
new-chunk2
 10
116.54751784704393
 20
519.2333374023438
 30
0.0
  0
VERTEX
  8
new-chunk2
 10
116.85422184137826
 20
519.1880493164062
 30
0.0
  0
VERTEX
  8
new-chunk2
 10
117.16092583571259
 20
519.1367797851562
 30
0.0
  0
VERTEX
  8
new-chunk2
 10
117.46762983004692
 20
519.0593872070312
 30
0.0
  0
VERTEX
  8
new-chunk2
 10
117.77433382438124
 20
518.9741821289062
 30
0.0
  0
VERTEX
  8
new-chunk2
 10
118.08103781871557
 20
518.8827514648438
 30
0.0
  0
VERTEX
  8
new-chunk2
 10
118.3877418130499
 20
518.7736206054688
 30
0.0
  0
VERTEX
  8
new-chunk2
 10
118.69444580738423
 20
518.6097412109375
 30
0.0
  0
VERTEX
  8
new-chunk2
 10
119.00114980171855
 20
518.4993896484375
 30
0.0
  0
VERTEX
  8
new-chunk2
 10
119.30785379605288
 20
518.3184814453125
 30
0.0
  0
VERTEX
  8
new-chunk2
 10
119.6145577903872
 20
518.1358032226562
 30
0.0
  0
VERTEX
  8
new-chunk2
 10
119.92126178472152
 20
517.9487915039062
 30
0.0
  0
VERTEX
  8
new-chunk2
 10
120.22796577905585
 20
517.75732421875
 30
0.0
  0
VERTEX
  8
new-chunk2
 10
120.53466977339018
 20
517.5134887695312
 30
0.0
  0
VERTEX
  8
new-chunk2
 10
120.8413737677245
 20
517.347900390625
 30
0.0
  0
VERTEX
  8
new-chunk2
 10
121.14807776205883
 20
517.2692260742188
 30
0.0
  0
VERTEX
  8
new-chunk2
 10
121.45478175639316
 20
517.25244140625
 30
0.0
  0
VERTEX
  8
new-chunk2
 10
121.76148575072749
 20
517.236328125
 30
0.0
  0
VERTEX
  8
new-chunk2
 10
122.06818974506182
 20
517.2108764648438
 30
0.0
  0
VERTEX
  8
new-chunk2
 10
122.37489373939614
 20
517.1900634765625
 30
0.0
  0
VERTEX
  8
new-chunk2
 10
122.68159773373046
 20
517.184814453125
 30
0.0
  0
VERTEX
  8
new-chunk2
 10
122.98830172806478
 20
517.1097412109375
 30
0.0
  0
VERTEX
  8
new-chunk2
 10
123.29500572239911
 20
516.881103515625
 30
0.0
  0
VERTEX
  8
new-chunk2
 10
123.60170971673344
 20
516.6044311523438
 30
0.0
  0
VERTEX
  8
new-chunk2
 10
123.90841371106777
 20
516.4013671875
 30
0.0
  0
VERTEX
  8
new-chunk2
 10
124.2151177054021
 20
516.2020874023438
 30
0.0
  0
VERTEX
  8
new-chunk2
 10
124.52182169973642
 20
516.3359375
 30
0.0
  0
VERTEX
  8
new-chunk2
 10
124.82852569407075
 20
516.5809326171875
 30
0.0
  0
VERTEX
  8
new-chunk2
 10
125.13522968840508
 20
516.7254028320312
 30
0.0
  0
VERTEX
  8
new-chunk2
 10
125.4419336827394
 20
516.9555053710938
 30
0.0
  0
VERTEX
  8
new-chunk2
 10
125.74863767707373
 20
517.0888671875
 30
0.0
  0
VERTEX
  8
new-chunk2
 10
126.05534167140804
 20
517.1724853515625
 30
0.0
  0
VERTEX
  8
new-chunk2
 10
126.36204566574237
 20
517.1366577148438
 30
0.0
  0
VERTEX
  8
new-chunk2
 10
126.6687496600767
 20
516.6473388671875
 30
0.0
  0
VERTEX
  8
new-chunk2
 10
126.97545365441103
 20
515.5703125
 30
0.0
  0
VERTEX
  8
new-chunk2
 10
127.28215764874535
 20
513.3977661132812
 30
0.0
  0
VERTEX
  8
new-chunk2
 10
127.58886164307968
 20
512.7989501953125
 30
0.0
  0
VERTEX
  8
new-chunk2
 10
127.89556563741401
 20
512.6216430664062
 30
0.0
  0
VERTEX
  8
new-chunk2
 10
128.20226963174832
 20
512.7050170898438
 30
0.0
  0
VERTEX
  8
new-chunk2
 10
128.50897362608265
 20
512.7061767578125
 30
0.0
  0
VERTEX
  8
new-chunk2
 10
128.81567762041698
 20
512.452880859375
 30
0.0
  0
VERTEX
  8
new-chunk2
 10
129.1223816147513
 20
512.2155151367188
 30
0.0
  0
VERTEX
  8
new-chunk2
 10
129.42908560908563
 20
512.130615234375
 30
0.0
  0
VERTEX
  8
new-chunk2
 10
129.73578960341996
 20
512.2615966796875
 30
0.0
  0
VERTEX
  8
new-chunk2
 10
130.0424935977543
 20
512.5020751953125
 30
0.0
  0
VERTEX
  8
new-chunk2
 10
130.34919759208861
 20
512.6825561523438
 30
0.0
  0
VERTEX
  8
new-chunk2
 10
130.65590158642294
 20
512.829833984375
 30
0.0
  0
VERTEX
  8
new-chunk2
 10
130.96260558075727
 20
513.0617065429688
 30
0.0
  0
VERTEX
  8
new-chunk2
 10
131.2693095750916
 20
513.4386596679688
 30
0.0
  0
VERTEX
  8
new-chunk2
 10
131.57601356942592
 20
513.8792724609375
 30
0.0
  0
VERTEX
  8
new-chunk2
 10
131.88271756376025
 20
514.3623046875
 30
0.0
  0
VERTEX
  8
new-chunk2
 10
132.18942155809458
 20
514.7310180664062
 30
0.0
  0
VERTEX
  8
new-chunk2
 10
132.4961255524289
 20
515.0906982421875
 30
0.0
  0
VERTEX
  8
new-chunk2
 10
132.80282954676323
 20
515.2310180664062
 30
0.0
  0
VERTEX
  8
new-chunk2
 10
133.10953354109756
 20
515.2631225585938
 30
0.0
  0
VERTEX
  8
new-chunk2
 10
133.4162375354319
 20
514.953857421875
 30
0.0
  0
VERTEX
  8
new-chunk2
 10
133.72294152976622
 20
512.6931762695312
 30
0.0
  0
VERTEX
  8
new-chunk2
 10
134.02964552410054
 20
512.9711303710938
 30
0.0
  0
VERTEX
  8
new-chunk2
 10
134.33634951843484
 20
513.1306762695312
 30
0.0
  0
VERTEX
  8
new-chunk2
 10
134.64305351276917
 20
513.357177734375
 30
0.0
  0
VERTEX
  8
new-chunk2
 10
134.9497575071035
 20
513.5057983398438
 30
0.0
  0
VERTEX
  8
new-chunk2
 10
135.25646150143783
 20
513.6431884765625
 30
0.0
  0
VERTEX
  8
new-chunk2
 10
135.56316549577215
 20
513.7446899414062
 30
0.0
  0
VERTEX
  8
new-chunk2
 10
135.86986949010648
 20
513.8773803710938
 30
0.0
  0
VERTEX
  8
new-chunk2
 10
136.1765734844408
 20
514.0088500976562
 30
0.0
  0
VERTEX
  8
new-chunk2
 10
136.48327747877514
 20
514.1478271484375
 30
0.0
  0
VERTEX
  8
new-chunk2
 10
136.78998147310946
 20
514.2459106445312
 30
0.0
  0
VERTEX
  8
new-chunk2
 10
137.0966854674438
 20
514.3908081054688
 30
0.0
  0
VERTEX
  8
new-chunk2
 10
137.40338946177812
 20
514.52783203125
 30
0.0
  0
VERTEX
  8
new-chunk2
 10
137.71009345611245
 20
514.6405029296875
 30
0.0
  0
VERTEX
  8
new-chunk2
 10
138.01679745044677
 20
514.7225341796875
 30
0.0
  0
VERTEX
  8
new-chunk2
 10
138.3235014447811
 20
514.8350830078125
 30
0.0
  0
VERTEX
  8
new-chunk2
 10
138.63020543911543
 20
514.9284057617188
 30
0.0
  0
VERTEX
  8
new-chunk2
 10
138.93690943344976
 20
515.022705078125
 30
0.0
  0
VERTEX
  8
new-chunk2
 10
139.24361342778408
 20
515.112548828125
 30
0.0
  0
VERTEX
  8
new-chunk2
 10
139.5503174221184
 20
515.2721557617188
 30
0.0
  0
VERTEX
  8
new-chunk2
 10
139.85702141645274
 20
515.4442138671875
 30
0.0
  0
VERTEX
  8
new-chunk2
 10
140.16372541078707
 20
515.591552734375
 30
0.0
  0
VERTEX
  8
new-chunk2
 10
140.4704294051214
 20
515.3876953125
 30
0.0
  0
VERTEX
  8
new-chunk2
 10
140.7771333994557
 20
515.0790405273438
 30
0.0
  0
VERTEX
  8
new-chunk2
 10
141.08383739379002
 20
510.174072265625
 30
0.0
  0
VERTEX
  8
new-chunk2
 10
141.39054138812435
 20
510.0605163574219
 30
0.0
  0
VERTEX
  8
new-chunk2
 10
141.69724538245868
 20
510.142822265625
 30
0.0
  0
VERTEX
  8
new-chunk2
 10
142.003949376793
 20
510.19732666015625
 30
0.0
  0
VERTEX
  8
new-chunk2
 10
142.31065337112733
 20
509.76629638671875
 30
0.0
  0
VERTEX
  8
new-chunk2
 10
142.61735736546166
 20
509.38397216796875
 30
0.0
  0
VERTEX
  8
new-chunk2
 10
142.92406135979599
 20
508.75994873046875
 30
0.0
  0
VERTEX
  8
new-chunk2
 10
143.2307653541303
 20
507.7577209472656
 30
0.0
  0
VERTEX
  8
new-chunk2
 10
143.53746934846464
 20
507.13494873046875
 30
0.0
  0
VERTEX
  8
new-chunk2
 10
143.84417334279897
 20
507.2021484375
 30
0.0
  0
VERTEX
  8
new-chunk2
 10
144.1508773371333
 20
507.3884582519531
 30
0.0
  0
VERTEX
  8
new-chunk2
 10
144.45758133146762
 20
507.531494140625
 30
0.0
  0
VERTEX
  8
new-chunk2
 10
144.76428532580195
 20
507.2644348144531
 30
0.0
  0
VERTEX
  8
new-chunk2
 10
145.07098932013628
 20
506.89508056640625
 30
0.0
  0
VERTEX
  8
new-chunk2
 10
145.3776933144706
 20
506.4609375
 30
0.0
  0
VERTEX
  8
new-chunk2
 10
145.68439730880493
 20
506.6007995605469
 30
0.0
  0
VERTEX
  8
new-chunk2
 10
145.99110130313926
 20
506.6324157714844
 30
0.0
  0
VERTEX
  8
new-chunk2
 10
146.2978052974736
 20
492.82037353515625
 30
0.0
  0
VERTEX
  8
new-chunk2
 10
146.60450929180791
 20
492.1318664550781
 30
0.0
  0
VERTEX
  8
new-chunk2
 10
146.91121328614224
 20
492.2431945800781
 30
0.0
  0
VERTEX
  8
new-chunk2
 10
147.21791728047657
 20
492.362060546875
 30
0.0
  0
VERTEX
  8
new-chunk2
 10
147.52462127481087
 20
492.4273986816406
 30
0.0
  0
VERTEX
  8
new-chunk2
 10
147.8313252691452
 20
492.4346923828125
 30
0.0
  0
VERTEX
  8
new-chunk2
 10
148.13802926347952
 20
492.4428405761719
 30
0.0
  0
VERTEX
  8
new-chunk2
 10
148.44473325781385
 20
492.818115234375
 30
0.0
  0
VERTEX
  8
new-chunk2
 10
148.75143725214818
 20
492.9931640625
 30
0.0
  0
VERTEX
  8
new-chunk2
 10
149.0581412464825
 20
493.1138610839844
 30
0.0
  0
VERTEX
  8
new-chunk2
 10
149.36484524081683
 20
494.1139221191406
 30
0.0
  0
VERTEX
  8
new-chunk2
 10
149.67154923515116
 20
494.9926452636719
 30
0.0
  0
VERTEX
  8
new-chunk2
 10
149.9782532294855
 20
495.7428283691406
 30
0.0
  0
VERTEX
  8
new-chunk2
 10
150.28495722381982
 20
495.9482421875
 30
0.0
  0
VERTEX
  8
new-chunk2
 10
150.59166121815414
 20
496.30401611328125
 30
0.0
  0
VERTEX
  8
new-chunk2
 10
150.89836521248847
 20
496.71624755859375
 30
0.0
  0
VERTEX
  8
new-chunk2
 10
151.2050692068228
 20
497.00177001953125
 30
0.0
  0
VERTEX
  8
new-chunk2
 10
151.51177320115713
 20
497.2718505859375
 30
0.0
  0
VERTEX
  8
new-chunk2
 10
151.81847719549145
 20
497.5310974121094
 30
0.0
  0
VERTEX
  8
new-chunk2
 10
152.12518118982578
 20
497.9144287109375
 30
0.0
  0
VERTEX
  8
new-chunk2
 10
152.4318851841601
 20
498.37603759765625
 30
0.0
  0
VERTEX
  8
new-chunk2
 10
152.73858917849444
 20
498.8245544433594
 30
0.0
  0
VERTEX
  8
new-chunk2
 10
153.04529317282876
 20
498.9488220214844
 30
0.0
  0
VERTEX
  8
new-chunk2
 10
153.3519971671631
 20
499.1193542480469
 30
0.0
  0
VERTEX
  8
new-chunk2
 10
153.65870116149742
 20
499.2024230957031
 30
0.0
  0
VERTEX
  8
new-chunk2
 10
153.96540515583172
 20
499.28424072265625
 30
0.0
  0
VERTEX
  8
new-chunk2
 10
154.27210915016605
 20
499.5160827636719
 30
0.0
  0
VERTEX
  8
new-chunk2
 10
154.57881314450037
 20
499.7685241699219
 30
0.0
  0
VERTEX
  8
new-chunk2
 10
154.8855171388347
 20
499.934326171875
 30
0.0
  0
VERTEX
  8
new-chunk2
 10
155.19222113316903
 20
500.0754089355469
 30
0.0
  0
VERTEX
  8
new-chunk2
 10
155.49892512750336
 20
500.23516845703125
 30
0.0
  0
VERTEX
  8
new-chunk2
 10
155.80562912183768
 20
500.51373291015625
 30
0.0
  0
VERTEX
  8
new-chunk2
 10
156.112333116172
 20
500.808349609375
 30
0.0
  0
VERTEX
  8
new-chunk2
 10
156.41903711050634
 20
501.3517761230469
 30
0.0
  0
VERTEX
  8
new-chunk2
 10
156.72574110484067
 20
501.8373718261719
 30
0.0
  0
VERTEX
  8
new-chunk2
 10
157.032445099175
 20
502.21990966796875
 30
0.0
  0
VERTEX
  8
new-chunk2
 10
157.33914909350932
 20
502.36163330078125
 30
0.0
  0
VERTEX
  8
new-chunk2
 10
157.64585308784365
 20
502.36297607421875
 30
0.0
  0
VERTEX
  8
new-chunk2
 10
157.95255708217798
 20
502.458251953125
 30
0.0
  0
VERTEX
  8
new-chunk2
 10
158.2592610765123
 20
502.5116882324219
 30
0.0
  0
VERTEX
  8
new-chunk2
 10
158.56596507084663
 20
502.5856628417969
 30
0.0
  0
VERTEX
  8
new-chunk2
 10
158.87266906518096
 20
502.64947509765625
 30
0.0
  0
VERTEX
  8
new-chunk2
 10
159.17937305951529
 20
502.70513916015625
 30
0.0
  0
VERTEX
  8
new-chunk2
 10
159.4860770538496
 20
502.76019287109375
 30
0.0
  0
VERTEX
  8
new-chunk2
 10
159.79278104818394
 20
502.8055114746094
 30
0.0
  0
VERTEX
  8
new-chunk2
 10
160.09948504251827
 20
502.8768310546875
 30
0.0
  0
VERTEX
  8
new-chunk2
 10
160.40618903685257
 20
503.06829833984375
 30
0.0
  0
VERTEX
  8
new-chunk2
 10
160.7128930311869
 20
503.285888671875
 30
0.0
  0
VERTEX
  8
new-chunk2
 10
161.01959702552122
 20
503.4759826660156
 30
0.0
  0
VERTEX
  8
new-chunk2
 10
161.32630101985555
 20
503.6651611328125
 30
0.0
  0
VERTEX
  8
new-chunk2
 10
161.63300501418988
 20
503.94915771484375
 30
0.0
  0
VERTEX
  8
new-chunk2
 10
161.9397090085242
 20
504.2435302734375
 30
0.0
  0
VERTEX
  8
new-chunk2
 10
162.24641300285853
 20
504.396240234375
 30
0.0
  0
VERTEX
  8
new-chunk2
 10
162.55311699719286
 20
504.615966796875
 30
0.0
  0
VERTEX
  8
new-chunk2
 10
162.8598209915272
 20
504.820556640625
 30
0.0
  0
VERTEX
  8
new-chunk2
 10
163.1665249858615
 20
504.8963317871094
 30
0.0
  0
VERTEX
  8
new-chunk2
 10
163.47322898019584
 20
504.99578857421875
 30
0.0
  0
VERTEX
  8
new-chunk2
 10
163.77993297453017
 20
505.08465576171875
 30
0.0
  0
VERTEX
  8
new-chunk2
 10
164.0866369688645
 20
505.17425537109375
 30
0.0
  0
VERTEX
  8
new-chunk2
 10
164.39334096319882
 20
505.1263732910156
 30
0.0
  0
VERTEX
  8
new-chunk2
 10
164.70004495753315
 20
505.2273864746094
 30
0.0
  0
VERTEX
  8
new-chunk2
 10
165.00674895186748
 20
505.7056579589844
 30
0.0
  0
VERTEX
  8
new-chunk2
 10
165.3134529462018
 20
506.24591064453125
 30
0.0
  0
VERTEX
  8
new-chunk2
 10
165.62015694053613
 20
506.85400390625
 30
0.0
  0
VERTEX
  8
new-chunk2
 10
165.92686093487046
 20
507.1954345703125
 30
0.0
  0
VERTEX
  8
new-chunk2
 10
166.2335649292048
 20
507.440185546875
 30
0.0
  0
VERTEX
  8
new-chunk2
 10
166.54026892353912
 20
507.59027099609375
 30
0.0
  0
VERTEX
  8
new-chunk2
 10
166.84697291787342
 20
507.8892822265625
 30
0.0
  0
VERTEX
  8
new-chunk2
 10
167.15367691220774
 20
507.98138427734375
 30
0.0
  0
VERTEX
  8
new-chunk2
 10
167.46038090654207
 20
508.33367919921875
 30
0.0
  0
VERTEX
  8
new-chunk2
 10
167.7670849008764
 20
508.4897766113281
 30
0.0
  0
VERTEX
  8
new-chunk2
 10
168.07378889521073
 20
508.5960388183594
 30
0.0
  0
VERTEX
  8
new-chunk2
 10
168.38049288954505
 20
508.5987548828125
 30
0.0
  0
VERTEX
  8
new-chunk2
 10
168.68719688387938
 20
510.966552734375
 30
0.0
  0
VERTEX
  8
new-chunk2
 10
168.9939008782137
 20
514.138427734375
 30
0.0
  0
VERTEX
  8
new-chunk2
 10
169.30060487254804
 20
515.9144287109375
 30
0.0
  0
VERTEX
  8
new-chunk2
 10
169.60730886688236
 20
518.3821411132812
 30
0.0
  0
VERTEX
  8
new-chunk2
 10
169.9140128612167
 20
518.9345703125
 30
0.0
  0
VERTEX
  8
new-chunk2
 10
170.22071685555102
 20
519.3963012695312
 30
0.0
  0
VERTEX
  8
new-chunk2
 10
170.52742084988535
 20
519.8990478515625
 30
0.0
  0
VERTEX
  8
new-chunk2
 10
170.83412484421967
 20
520.9024658203125
 30
0.0
  0
VERTEX
  8
new-chunk2
 10
171.140828838554
 20
522.282958984375
 30
0.0
  0
VERTEX
  8
new-chunk2
 10
171.44753283288833
 20
523.6115112304688
 30
0.0
  0
VERTEX
  8
new-chunk2
 10
171.75423682722266
 20
526.436279296875
 30
0.0
  0
VERTEX
  8
new-chunk2
 10
172.06094082155698
 20
528.301025390625
 30
0.0
  0
VERTEX
  8
new-chunk2
 10
172.3676448158913
 20
529.4503173828125
 30
0.0
  0
VERTEX
  8
new-chunk2
 10
172.67434881022564
 20
530.72509765625
 30
0.0
  0
VERTEX
  8
new-chunk2
 10
172.98105280455997
 20
531.5367431640625
 30
0.0
  0
VERTEX
  8
new-chunk2
 10
173.2877567988943
 20
532.4976806640625
 30
0.0
  0
VERTEX
  8
new-chunk2
 10
173.5944607932286
 20
533.4514770507812
 30
0.0
  0
VERTEX
  8
new-chunk2
 10
173.90116478756292
 20
534.4923706054688
 30
0.0
  0
VERTEX
  8
new-chunk2
 10
174.20786878189725
 20
535.7862548828125
 30
0.0
  0
VERTEX
  8
new-chunk2
 10
174.51457277623157
 20
536.8311767578125
 30
0.0
  0
VERTEX
  8
new-chunk2
 10
174.8212767705659
 20
538.7197875976562
 30
0.0
  0
VERTEX
  8
new-chunk2
 10
175.12798076490023
 20
543.2696533203125
 30
0.0
  0
VERTEX
  8
new-chunk2
 10
175.43468475923456
 20
544.4091796875
 30
0.0
  0
VERTEX
  8
new-chunk2
 10
175.74138875356888
 20
545.4191284179688
 30
0.0
  0
VERTEX
  8
new-chunk2
 10
176.0480927479032
 20
545.9785766601562
 30
0.0
  0
VERTEX
  8
new-chunk2
 10
176.35479674223754
 20
546.4987182617188
 30
0.0
  0
VERTEX
  8
new-chunk2
 10
176.66150073657187
 20
547.1422729492188
 30
0.0
  0
VERTEX
  8
new-chunk2
 10
176.9682047309062
 20
547.5390014648438
 30
0.0
  0
VERTEX
  8
new-chunk2
 10
177.27490872524052
 20
547.8262329101562
 30
0.0
  0
VERTEX
  8
new-chunk2
 10
177.58161271957485
 20
547.9193725585938
 30
0.0
  0
VERTEX
  8
new-chunk2
 10
177.88831671390918
 20
547.8938598632812
 30
0.0
  0
VERTEX
  8
new-chunk2
 10
178.1950207082435
 20
548.0660400390625
 30
0.0
  0
VERTEX
  8
new-chunk2
 10
178.50172470257783
 20
548.1680297851562
 30
0.0
  0
VERTEX
  8
new-chunk2
 10
178.80842869691216
 20
548.398193359375
 30
0.0
  0
VERTEX
  8
new-chunk2
 10
179.1151326912465
 20
548.6146850585938
 30
0.0
  0
VERTEX
  8
new-chunk2
 10
179.42183668558081
 20
548.7450561523438
 30
0.0
  0
VERTEX
  8
new-chunk2
 10
179.72854067991514
 20
548.8914794921875
 30
0.0
  0
VERTEX
  8
new-chunk2
 10
180.03524467424944
 20
549.0137329101562
 30
0.0
  0
VERTEX
  8
new-chunk2
 10
180.34194866858377
 20
549.0419921875
 30
0.0
  0
VERTEX
  8
new-chunk2
 10
180.6486526629181
 20
549.10302734375
 30
0.0
  0
VERTEX
  8
new-chunk2
 10
180.95535665725242
 20
549.1336059570312
 30
0.0
  0
VERTEX
  8
new-chunk2
 10
181.26206065158675
 20
549.099365234375
 30
0.0
  0
VERTEX
  8
new-chunk2
 10
181.56876464592108
 20
549.112060546875
 30
0.0
  0
VERTEX
  8
new-chunk2
 10
181.8754686402554
 20
549.2635498046875
 30
0.0
  0
VERTEX
  8
new-chunk2
 10
182.18217263458973
 20
549.3975219726562
 30
0.0
  0
VERTEX
  8
new-chunk2
 10
182.48887662892406
 20
549.7083129882812
 30
0.0
  0
VERTEX
  8
new-chunk2
 10
182.7955806232584
 20
550.0631103515625
 30
0.0
  0
VERTEX
  8
new-chunk2
 10
183.10228461759272
 20
550.2447509765625
 30
0.0
  0
VERTEX
  8
new-chunk2
 10
183.40898861192704
 20
550.291259765625
 30
0.0
  0
VERTEX
  8
new-chunk2
 10
183.71569260626137
 20
550.2945556640625
 30
0.0
  0
VERTEX
  8
new-chunk2
 10
184.0223966005957
 20
550.3807373046875
 30
0.0
  0
VERTEX
  8
new-chunk2
 10
184.32910059493003
 20
551.300048828125
 30
0.0
  0
VERTEX
  8
new-chunk2
 10
184.63580458926435
 20
552.3858032226562
 30
0.0
  0
VERTEX
  8
new-chunk2
 10
184.94250858359868
 20
553.2930297851562
 30
0.0
  0
VERTEX
  8
new-chunk2
 10
185.249212577933
 20
553.7007446289062
 30
0.0
  0
VERTEX
  8
new-chunk2
 10
185.55591657226734
 20
554.0696411132812
 30
0.0
  0
VERTEX
  8
new-chunk2
 10
185.86262056660166
 20
554.4568481445312
 30
0.0
  0
VERTEX
  8
new-chunk2
 10
186.169324560936
 20
554.8118286132812
 30
0.0
  0
VERTEX
  8
new-chunk2
 10
186.47602855527032
 20
555.1417846679688
 30
0.0
  0
VERTEX
  8
new-chunk2
 10
186.78273254960462
 20
555.5506591796875
 30
0.0
  0
VERTEX
  8
new-chunk2
 10
187.08943654393894
 20
555.7715454101562
 30
0.0
  0
VERTEX
  8
new-chunk2
 10
187.39614053827327
 20
555.8902587890625
 30
0.0
  0
VERTEX
  8
new-chunk2
 10
187.7028445326076
 20
555.85498046875
 30
0.0
  0
VERTEX
  8
new-chunk2
 10
188.00954852694193
 20
555.8461303710938
 30
0.0
  0
VERTEX
  8
new-chunk2
 10
188.31625252127625
 20
555.8610229492188
 30
0.0
  0
VERTEX
  8
new-chunk2
 10
188.62295651561058
 20
555.8822021484375
 30
0.0
  0
VERTEX
  8
new-chunk2
 10
188.9296605099449
 20
555.7900390625
 30
0.0
  0
VERTEX
  8
new-chunk2
 10
189.23636450427924
 20
555.7598876953125
 30
0.0
  0
VERTEX
  8
new-chunk2
 10
189.54306849861356
 20
555.7498168945312
 30
0.0
  0
VERTEX
  8
new-chunk2
 10
189.8497724929479
 20
555.8734741210938
 30
0.0
  0
VERTEX
  8
new-chunk2
 10
190.15647648728222
 20
555.9429321289062
 30
0.0
  0
VERTEX
  8
new-chunk2
 10
190.46318048161655
 20
555.890625
 30
0.0
  0
VERTEX
  8
new-chunk2
 10
190.76988447595087
 20
555.71142578125
 30
0.0
  0
VERTEX
  8
new-chunk2
 10
191.0765884702852
 20
555.617431640625
 30
0.0
  0
VERTEX
  8
new-chunk2
 10
191.38329246461953
 20
555.5731201171875
 30
0.0
  0
VERTEX
  8
new-chunk2
 10
191.68999645895386
 20
555.5606689453125
 30
0.0
  0
VERTEX
  8
new-chunk2
 10
191.99670045328818
 20
555.5631103515625
 30
0.0
  0
VERTEX
  8
new-chunk2
 10
192.3034044476225
 20
555.6565551757812
 30
0.0
  0
VERTEX
  8
new-chunk2
 10
192.61010844195684
 20
555.9214477539062
 30
0.0
  0
VERTEX
  8
new-chunk2
 10
192.91681243629117
 20
556.1552734375
 30
0.0
  0
VERTEX
  8
new-chunk2
 10
193.22351643062547
 20
556.1842041015625
 30
0.0
  0
VERTEX
  8
new-chunk2
 10
193.5302204249598
 20
556.1232299804688
 30
0.0
  0
VERTEX
  8
new-chunk2
 10
193.83692441929412
 20
555.9733276367188
 30
0.0
  0
VERTEX
  8
new-chunk2
 10
194.14362841362845
 20
555.8159790039062
 30
0.0
  0
VERTEX
  8
new-chunk2
 10
194.45033240796278
 20
555.8733520507812
 30
0.0
  0
VERTEX
  8
new-chunk2
 10
194.7570364022971
 20
556.01953125
 30
0.0
  0
VERTEX
  8
new-chunk2
 10
195.06374039663143
 20
556.0997314453125
 30
0.0
  0
VERTEX
  8
new-chunk2
 10
195.37044439096576
 20
556.2179565429688
 30
0.0
  0
VERTEX
  8
new-chunk2
 10
195.6771483853001
 20
556.41015625
 30
0.0
  0
VERTEX
  8
new-chunk2
 10
195.9838523796344
 20
556.5670166015625
 30
0.0
  0
VERTEX
  8
new-chunk2
 10
196.29055637396874
 20
556.6367797851562
 30
0.0
  0
VERTEX
  8
new-chunk2
 10
196.59726036830307
 20
556.7646484375
 30
0.0
  0
VERTEX
  8
new-chunk2
 10
196.9039643626374
 20
556.9108276367188
 30
0.0
  0
VERTEX
  8
new-chunk2
 10
197.21066835697172
 20
557.1019897460938
 30
0.0
  0
VERTEX
  8
new-chunk2
 10
197.51737235130605
 20
557.3761596679688
 30
0.0
  0
VERTEX
  8
new-chunk2
 10
197.82407634564038
 20
557.5946655273438
 30
0.0
  0
VERTEX
  8
new-chunk2
 10
198.1307803399747
 20
557.6658325195312
 30
0.0
  0
VERTEX
  8
new-chunk2
 10
198.43748433430903
 20
558.0169677734375
 30
0.0
  0
VERTEX
  8
new-chunk2
 10
198.74418832864336
 20
565.3546142578125
 30
0.0
  0
VERTEX
  8
new-chunk2
 10
199.0508923229777
 20
566.73388671875
 30
0.0
  0
VERTEX
  8
new-chunk2
 10
199.35759631731202
 20
567.75634765625
 30
0.0
  0
VERTEX
  8
new-chunk2
 10
199.66430031164631
 20
568.4535522460938
 30
0.0
  0
VERTEX
  8
new-chunk2
 10
199.97100430598064
 20
568.8855590820312
 30
0.0
  0
VERTEX
  8
new-chunk2
 10
200.27770830031497
 20
569.4391479492188
 30
0.0
  0
VERTEX
  8
new-chunk2
 10
200.5844122946493
 20
569.9077758789062
 30
0.0
  0
VERTEX
  8
new-chunk2
 10
200.89111628898362
 20
570.628173828125
 30
0.0
  0
VERTEX
  8
new-chunk2
 10
201.19782028331795
 20
571.1923217773438
 30
0.0
  0
VERTEX
  8
new-chunk2
 10
201.50452427765228
 20
571.5531616210938
 30
0.0
  0
VERTEX
  8
new-chunk2
 10
201.8112282719866
 20
571.9362182617188
 30
0.0
  0
VERTEX
  8
new-chunk2
 10
202.11793226632093
 20
572.3679809570312
 30
0.0
  0
VERTEX
  8
new-chunk2
 10
202.42463626065526
 20
573.4318237304688
 30
0.0
  0
VERTEX
  8
new-chunk2
 10
202.7313402549896
 20
574.1519775390625
 30
0.0
  0
VERTEX
  8
new-chunk2
 10
203.03804424932392
 20
574.44677734375
 30
0.0
  0
VERTEX
  8
new-chunk2
 10
203.34474824365824
 20
574.7551879882812
 30
0.0
  0
VERTEX
  8
new-chunk2
 10
203.65145223799257
 20
575.5364990234375
 30
0.0
  0
VERTEX
  8
new-chunk2
 10
203.9581562323269
 20
575.7962036132812
 30
0.0
  0
VERTEX
  8
new-chunk2
 10
204.26486022666123
 20
576.0054321289062
 30
0.0
  0
VERTEX
  8
new-chunk2
 10
204.57156422099555
 20
576.2678833007812
 30
0.0
  0
VERTEX
  8
new-chunk2
 10
204.87826821532988
 20
576.7755126953125
 30
0.0
  0
VERTEX
  8
new-chunk2
 10
205.1849722096642
 20
577.1295776367188
 30
0.0
  0
VERTEX
  8
new-chunk2
 10
205.49167620399854
 20
577.593505859375
 30
0.0
  0
VERTEX
  8
new-chunk2
 10
205.79838019833286
 20
578.21728515625
 30
0.0
  0
VERTEX
  8
new-chunk2
 10
206.10508419266716
 20
578.6311645507812
 30
0.0
  0
VERTEX
  8
new-chunk2
 10
206.4117881870015
 20
578.8359375
 30
0.0
  0
VERTEX
  8
new-chunk2
 10
206.71849218133582
 20
579.0272827148438
 30
0.0
  0
VERTEX
  8
new-chunk2
 10
207.02519617567015
 20
579.1825561523438
 30
0.0
  0
VERTEX
  8
new-chunk2
 10
207.33190017000447
 20
579.5214233398438
 30
0.0
  0
VERTEX
  8
new-chunk2
 10
207.6386041643388
 20
579.7100830078125
 30
0.0
  0
VERTEX
  8
new-chunk2
 10
207.94530815867313
 20
579.8385009765625
 30
0.0
  0
VERTEX
  8
new-chunk2
 10
208.25201215300746
 20
580.0431518554688
 30
0.0
  0
VERTEX
  8
new-chunk2
 10
208.55871614734178
 20
580.4429321289062
 30
0.0
  0
VERTEX
  8
new-chunk2
 10
208.8654201416761
 20
581.053955078125
 30
0.0
  0
VERTEX
  8
new-chunk2
 10
209.17212413601044
 20
581.3861694335938
 30
0.0
  0
VERTEX
  8
new-chunk2
 10
209.47882813034477
 20
581.389404296875
 30
0.0
  0
VERTEX
  8
new-chunk2
 10
209.7855321246791
 20
581.4052734375
 30
0.0
  0
VERTEX
  8
new-chunk2
 10
210.09223611901342
 20
581.4661865234375
 30
0.0
  0
VERTEX
  8
new-chunk2
 10
210.39894011334775
 20
581.652099609375
 30
0.0
  0
VERTEX
  8
new-chunk2
 10
210.70564410768208
 20
581.86083984375
 30
0.0
  0
VERTEX
  8
new-chunk2
 10
211.0123481020164
 20
581.9767456054688
 30
0.0
  0
VERTEX
  8
new-chunk2
 10
211.31905209635073
 20
582.0272216796875
 30
0.0
  0
VERTEX
  8
new-chunk2
 10
211.62575609068506
 20
582.0076904296875
 30
0.0
  0
VERTEX
  8
new-chunk2
 10
211.9324600850194
 20
582.0258178710938
 30
0.0
  0
VERTEX
  8
new-chunk2
 10
212.2391640793537
 20
582.08984375
 30
0.0
  0
VERTEX
  8
new-chunk2
 10
212.54586807368804
 20
582.1439208984375
 30
0.0
  0
VERTEX
  8
new-chunk2
 10
212.85257206802234
 20
582.1451416015625
 30
0.0
  0
VERTEX
  8
new-chunk2
 10
213.15927606235667
 20
582.1367797851562
 30
0.0
  0
VERTEX
  8
new-chunk2
 10
213.465980056691
 20
582.1135864257812
 30
0.0
  0
VERTEX
  8
new-chunk2
 10
213.77268405102532
 20
582.0253295898438
 30
0.0
  0
VERTEX
  8
new-chunk2
 10
214.07938804535965
 20
582.0153198242188
 30
0.0
  0
VERTEX
  8
new-chunk2
 10
214.38609203969398
 20
581.9766845703125
 30
0.0
  0
VERTEX
  8
new-chunk2
 10
214.6927960340283
 20
582.05615234375
 30
0.0
  0
VERTEX
  8
new-chunk2
 10
214.99950002836263
 20
582.1410522460938
 30
0.0
  0
VERTEX
  8
new-chunk2
 10
215.30620402269696
 20
582.2247924804688
 30
0.0
  0
VERTEX
  8
new-chunk2
 10
215.6129080170313
 20
582.3343505859375
 30
0.0
  0
VERTEX
  8
new-chunk2
 10
215.91961201136561
 20
582.3126831054688
 30
0.0
  0
VERTEX
  8
new-chunk2
 10
216.22631600569994
 20
582.33642578125
 30
0.0
  0
VERTEX
  8
new-chunk2
 10
216.53302000003427
 20
582.413818359375
 30
0.0
  0
VERTEX
  8
new-chunk2
 10
216.8397239943686
 20
582.495361328125
 30
0.0
  0
VERTEX
  8
new-chunk2
 10
217.14642798870292
 20
582.472412109375
 30
0.0
  0
VERTEX
  8
new-chunk2
 10
217.45313198303725
 20
582.532470703125
 30
0.0
  0
VERTEX
  8
new-chunk2
 10
217.75983597737158
 20
582.6720581054688
 30
0.0
  0
VERTEX
  8
new-chunk2
 10
218.0665399717059
 20
582.8208618164062
 30
0.0
  0
VERTEX
  8
new-chunk2
 10
218.37324396604023
 20
582.8396606445312
 30
0.0
  0
VERTEX
  8
new-chunk2
 10
218.67994796037456
 20
582.9307250976562
 30
0.0
  0
VERTEX
  8
new-chunk2
 10
218.9866519547089
 20
583.0303344726562
 30
0.0
  0
VERTEX
  8
new-chunk2
 10
219.2933559490432
 20
583.05908203125
 30
0.0
  0
VERTEX
  8
new-chunk2
 10
219.60005994337752
 20
582.8455810546875
 30
0.0
  0
VERTEX
  8
new-chunk2
 10
219.90676393771184
 20
582.9088745117188
 30
0.0
  0
VERTEX
  8
new-chunk2
 10
220.21346793204617
 20
582.9641723632812
 30
0.0
  0
VERTEX
  8
new-chunk2
 10
220.5201719263805
 20
582.9998779296875
 30
0.0
  0
VERTEX
  8
new-chunk2
 10
220.82687592071483
 20
582.9973754882812
 30
0.0
  0
VERTEX
  8
new-chunk2
 10
221.13357991504915
 20
582.9832763671875
 30
0.0
  0
VERTEX
  8
new-chunk2
 10
221.44028390938348
 20
583.0182495117188
 30
0.0
  0
VERTEX
  8
new-chunk2
 10
221.7469879037178
 20
583.211181640625
 30
0.0
  0
VERTEX
  8
new-chunk2
 10
222.05369189805214
 20
583.2603759765625
 30
0.0
  0
VERTEX
  8
new-chunk2
 10
222.36039589238646
 20
583.5048217773438
 30
0.0
  0
VERTEX
  8
new-chunk2
 10
222.6670998867208
 20
583.7518310546875
 30
0.0
  0
VERTEX
  8
new-chunk2
 10
222.97380388105512
 20
583.780029296875
 30
0.0
  0
VERTEX
  8
new-chunk2
 10
223.28050787538945
 20
583.8040771484375
 30
0.0
  0
VERTEX
  8
new-chunk2
 10
223.58721186972377
 20
583.870849609375
 30
0.0
  0
VERTEX
  8
new-chunk2
 10
223.8939158640581
 20
583.9174194335938
 30
0.0
  0
VERTEX
  8
new-chunk2
 10
224.20061985839243
 20
584.1038818359375
 30
0.0
  0
VERTEX
  8
new-chunk2
 10
224.50732385272676
 20
584.435302734375
 30
0.0
  0
VERTEX
  8
new-chunk2
 10
224.81402784706108
 20
584.8313598632812
 30
0.0
  0
VERTEX
  8
new-chunk2
 10
225.1207318413954
 20
585.2421264648438
 30
0.0
  0
VERTEX
  8
new-chunk2
 10
225.42743583572974
 20
585.2925415039062
 30
0.0
  0
VERTEX
  8
new-chunk2
 10
225.73413983006407
 20
585.557861328125
 30
0.0
  0
VERTEX
  8
new-chunk2
 10
226.04084382439837
 20
585.6812744140625
 30
0.0
  0
VERTEX
  8
new-chunk2
 10
226.3475478187327
 20
585.9299926757812
 30
0.0
  0
VERTEX
  8
new-chunk2
 10
226.65425181306702
 20
585.6304931640625
 30
0.0
  0
VERTEX
  8
new-chunk2
 10
226.96095580740135
 20
585.7006225585938
 30
0.0
  0
VERTEX
  8
new-chunk2
 10
227.26765980173568
 20
585.8717041015625
 30
0.0
  0
VERTEX
  8
new-chunk2
 10
227.57436379607
 20
585.9436645507812
 30
0.0
  0
VERTEX
  8
new-chunk2
 10
227.88106779040433
 20
585.9108276367188
 30
0.0
  0
VERTEX
  8
new-chunk2
 10
228.18777178473866
 20
586.0684204101562
 30
0.0
  0
VERTEX
  8
new-chunk2
 10
228.49447577907299
 20
586.2969970703125
 30
0.0
  0
VERTEX
  8
new-chunk2
 10
228.8011797734073
 20
586.8819580078125
 30
0.0
  0
VERTEX
  8
new-chunk2
 10
229.10788376774164
 20
586.7930297851562
 30
0.0
  0
VERTEX
  8
new-chunk2
 10
229.41458776207597
 20
586.9920043945312
 30
0.0
  0
VERTEX
  8
new-chunk2
 10
229.7212917564103
 20
587.1942138671875
 30
0.0
  0
VERTEX
  8
new-chunk2
 10
230.02799575074462
 20
587.3770141601562
 30
0.0
  0
VERTEX
  8
new-chunk2
 10
230.33469974507895
 20
587.4052124023438
 30
0.0
  0
VERTEX
  8
new-chunk2
 10
230.64140373941328
 20
587.534423828125
 30
0.0
  0
VERTEX
  8
new-chunk2
 10
230.9481077337476
 20
587.663818359375
 30
0.0
  0
VERTEX
  8
new-chunk2
 10
231.25481172808193
 20
587.4924926757812
 30
0.0
  0
VERTEX
  8
new-chunk2
 10
231.56151572241626
 20
587.5923461914062
 30
0.0
  0
VERTEX
  8
new-chunk2
 10
231.8682197167506
 20
587.6834106445312
 30
0.0
  0
VERTEX
  8
new-chunk2
 10
232.17492371108492
 20
587.88671875
 30
0.0
  0
VERTEX
  8
new-chunk2
 10
232.4816277054192
 20
587.7450561523438
 30
0.0
  0
VERTEX
  8
new-chunk2
 10
232.78833169975354
 20
587.8776245117188
 30
0.0
  0
VERTEX
  8
new-chunk2
 10
233.09503569408787
 20
588.1093139648438
 30
0.0
  0
VERTEX
  8
new-chunk2
 10
233.4017396884222
 20
588.590087890625
 30
0.0
  0
VERTEX
  8
new-chunk2
 10
233.70844368275652
 20
588.5877685546875
 30
0.0
  0
VERTEX
  8
new-chunk2
 10
234.01514767709085
 20
588.727294921875
 30
0.0
  0
VERTEX
  8
new-chunk2
 10
234.32185167142518
 20
588.9639282226562
 30
0.0
  0
VERTEX
  8
new-chunk2
 10
234.6285556657595
 20
589.3037719726562
 30
0.0
  0
VERTEX
  8
new-chunk2
 10
234.93525966009383
 20
589.2977294921875
 30
0.0
  0
VERTEX
  8
new-chunk2
 10
235.24196365442816
 20
589.8043212890625
 30
0.0
  0
VERTEX
  8
new-chunk2
 10
235.5486676487625
 20
590.4752807617188
 30
0.0
  0
VERTEX
  8
new-chunk2
 10
235.85537164309682
 20
591.12548828125
 30
0.0
  0
VERTEX
  8
new-chunk2
 10
236.16207563743114
 20
591.3745727539062
 30
0.0
  0
VERTEX
  8
new-chunk2
 10
236.46877963176547
 20
591.677001953125
 30
0.0
  0
VERTEX
  8
new-chunk2
 10
236.7754836260998
 20
592.2418823242188
 30
0.0
  0
VERTEX
  8
new-chunk2
 10
237.08218762043413
 20
592.9954223632812
 30
0.0
  0
VERTEX
  8
new-chunk2
 10
237.38889161476845
 20
593.360595703125
 30
0.0
  0
VERTEX
  8
new-chunk2
 10
237.69559560910278
 20
594.2288818359375
 30
0.0
  0
VERTEX
  8
new-chunk2
 10
238.0022996034371
 20
594.94482421875
 30
0.0
  0
VERTEX
  8
new-chunk2
 10
238.30900359777144
 20
595.0308227539062
 30
0.0
  0
VERTEX
  8
new-chunk2
 10
238.61570759210576
 20
594.9999389648438
 30
0.0
  0
VERTEX
  8
new-chunk2
 10
238.92241158644006
 20
595.075927734375
 30
0.0
  0
VERTEX
  8
new-chunk2
 10
239.2291155807744
 20
595.0264892578125
 30
0.0
  0
VERTEX
  8
new-chunk2
 10
239.53581957510872
 20
594.8895263671875
 30
0.0
  0
VERTEX
  8
new-chunk2
 10
239.84252356944305
 20
594.7740478515625
 30
0.0
  0
VERTEX
  8
new-chunk2
 10
240.14922756377737
 20
594.732666015625
 30
0.0
  0
VERTEX
  8
new-chunk2
 10
240.4559315581117
 20
594.9736938476562
 30
0.0
  0
VERTEX
  8
new-chunk2
 10
240.76263555244603
 20
595.04052734375
 30
0.0
  0
VERTEX
  8
new-chunk2
 10
241.06933954678036
 20
595.4061889648438
 30
0.0
  0
VERTEX
  8
new-chunk2
 10
241.37604354111468
 20
595.7407836914062
 30
0.0
  0
VERTEX
  8
new-chunk2
 10
241.682747535449
 20
596.0455322265625
 30
0.0
  0
VERTEX
  8
new-chunk2
 10
241.98945152978334
 20
596.0612182617188
 30
0.0
  0
VERTEX
  8
new-chunk2
 10
242.29615552411767
 20
596.3231811523438
 30
0.0
  0
VERTEX
  8
new-chunk2
 10
242.602859518452
 20
596.66162109375
 30
0.0
  0
VERTEX
  8
new-chunk2
 10
242.90956351278632
 20
596.8914794921875
 30
0.0
  0
VERTEX
  8
new-chunk2
 10
243.21626750712065
 20
596.8012084960938
 30
0.0
  0
VERTEX
  8
new-chunk2
 10
243.52297150145498
 20
596.8633422851562
 30
0.0
  0
VERTEX
  8
new-chunk2
 10
243.8296754957893
 20
596.8338012695312
 30
0.0
  0
VERTEX
  8
new-chunk2
 10
244.13637949012363
 20
596.77880859375
 30
0.0
  0
VERTEX
  8
new-chunk2
 10
244.44308348445796
 20
596.4991455078125
 30
0.0
  0
VERTEX
  8
new-chunk2
 10
244.74978747879229
 20
596.5552368164062
 30
0.0
  0
VERTEX
  8
new-chunk2
 10
245.0564914731266
 20
596.7666625976562
 30
0.0
  0
VERTEX
  8
new-chunk2
 10
245.3631954674609
 20
596.9457397460938
 30
0.0
  0
VERTEX
  8
new-chunk2
 10
245.66989946179524
 20
596.8678588867188
 30
0.0
  0
VERTEX
  8
new-chunk2
 10
245.97660345612957
 20
597.2662963867188
 30
0.0
  0
VERTEX
  8
new-chunk2
 10
246.2833074504639
 20
597.072021484375
 30
0.0
  0
VERTEX
  8
new-chunk2
 10
246.59001144479822
 20
596.9364013671875
 30
0.0
  0
VERTEX
  8
new-chunk2
 10
246.89671543913255
 20
597.3038330078125
 30
0.0
  0
VERTEX
  8
new-chunk2
 10
247.20341943346688
 20
597.4354248046875
 30
0.0
  0
VERTEX
  8
new-chunk2
 10
247.5101234278012
 20
597.6738891601562
 30
0.0
  0
VERTEX
  8
new-chunk2
 10
247.81682742213553
 20
597.7421875
 30
0.0
  0
VERTEX
  8
new-chunk2
 10
248.12353141646986
 20
597.7452392578125
 30
0.0
  0
VERTEX
  8
new-chunk2
 10
248.4302354108042
 20
597.9033203125
 30
0.0
  0
VERTEX
  8
new-chunk2
 10
248.73693940513851
 20
598.110595703125
 30
0.0
  0
VERTEX
  8
new-chunk2
 10
249.04364339947284
 20
598.2071533203125
 30
0.0
  0
VERTEX
  8
new-chunk2
 10
249.35034739380717
 20
598.460693359375
 30
0.0
  0
VERTEX
  8
new-chunk2
 10
249.6570513881415
 20
598.4837036132812
 30
0.0
  0
VERTEX
  8
new-chunk2
 10
249.96375538247582
 20
598.4441528320312
 30
0.0
  0
VERTEX
  8
new-chunk2
 10
250.27045937681015
 20
598.306396484375
 30
0.0
  0
VERTEX
  8
new-chunk2
 10
250.57716337114448
 20
598.2166137695312
 30
0.0
  0
VERTEX
  8
new-chunk2
 10
250.8838673654788
 20
598.4000854492188
 30
0.0
  0
VERTEX
  8
new-chunk2
 10
251.19057135981313
 20
598.5570068359375
 30
0.0
  0
VERTEX
  8
new-chunk2
 10
251.49727535414746
 20
598.5883178710938
 30
0.0
  0
VERTEX
  8
new-chunk2
 10
251.8039793484818
 20
598.830810546875
 30
0.0
  0
VERTEX
  8
new-chunk2
 10
252.1106833428161
 20
599.1253662109375
 30
0.0
  0
VERTEX
  8
new-chunk2
 10
252.41738733715042
 20
599.6407470703125
 30
0.0
  0
VERTEX
  8
new-chunk2
 10
252.72409133148474
 20
600.0611572265625
 30
0.0
  0
VERTEX
  8
new-chunk2
 10
253.03079532581907
 20
601.0513305664062
 30
0.0
  0
VERTEX
  8
new-chunk2
 10
253.3374993201534
 20
601.6376342773438
 30
0.0
  0
VERTEX
  8
new-chunk2
 10
253.64420331448773
 20
602.1199951171875
 30
0.0
  0
VERTEX
  8
new-chunk2
 10
253.95090730882205
 20
602.095947265625
 30
0.0
  0
VERTEX
  8
new-chunk2
 10
254.25761130315638
 20
604.08251953125
 30
0.0
  0
VERTEX
  8
new-chunk2
 10
254.5643152974907
 20
605.2467651367188
 30
0.0
  0
VERTEX
  8
new-chunk2
 10
254.87101929182504
 20
605.758056640625
 30
0.0
  0
VERTEX
  8
new-chunk2
 10
255.17772328615936
 20
605.9899291992188
 30
0.0
  0
VERTEX
  8
new-chunk2
 10
255.4844272804937
 20
606.01171875
 30
0.0
  0
VERTEX
  8
new-chunk2
 10
255.79113127482802
 20
605.8984375
 30
0.0
  0
VERTEX
  8
new-chunk2
 10
256.0978352691623
 20
605.8758544921875
 30
0.0
  0
VERTEX
  8
new-chunk2
 10
256.40453926349664
 20
608.6695556640625
 30
0.0
  0
VERTEX
  8
new-chunk2
 10
256.711243257831
 20
613.4961547851562
 30
0.0
  0
VERTEX
  8
new-chunk2
 10
257.0179472521653
 20
615.859375
 30
0.0
  0
VERTEX
  8
new-chunk2
 10
257.3246512464996
 20
616.1834716796875
 30
0.0
  0
VERTEX
  8
new-chunk2
 10
257.63135524083395
 20
616.3347778320312
 30
0.0
  0
VERTEX
  8
new-chunk2
 10
257.9380592351683
 20
617.1790771484375
 30
0.0
  0
VERTEX
  8
new-chunk2
 10
258.2447632295026
 20
617.245849609375
 30
0.0
  0
VERTEX
  8
new-chunk2
 10
258.55146722383694
 20
617.5198974609375
 30
0.0
  0
VERTEX
  8
new-chunk2
 10
258.85817121817126
 20
617.5366821289062
 30
0.0
  0
VERTEX
  8
new-chunk2
 10
259.1648752125056
 20
617.7735595703125
 30
0.0
  0
VERTEX
  8
new-chunk2
 10
259.4715792068399
 20
618.2847900390625
 30
0.0
  0
VERTEX
  8
new-chunk2
 10
259.77828320117425
 20
618.5694580078125
 30
0.0
  0
VERTEX
  8
new-chunk2
 10
260.0849871955086
 20
618.73388671875
 30
0.0
  0
VERTEX
  8
new-chunk2
 10
260.3916911898429
 20
618.9402465820312
 30
0.0
  0
VERTEX
  8
new-chunk2
 10
260.69839518417723
 20
618.7361450195312
 30
0.0
  0
VERTEX
  8
new-chunk2
 10
261.00509917851156
 20
618.7459716796875
 30
0.0
  0
VERTEX
  8
new-chunk2
 10
261.3118031728459
 20
618.78662109375
 30
0.0
  0
VERTEX
  8
new-chunk2
 10
261.6185071671802
 20
619.2046508789062
 30
0.0
  0
VERTEX
  8
new-chunk2
 10
261.92521116151454
 20
619.5015258789062
 30
0.0
  0
VERTEX
  8
new-chunk2
 10
262.23191515584887
 20
620.43994140625
 30
0.0
  0
VERTEX
  8
new-chunk2
 10
262.5386191501832
 20
621.9657592773438
 30
0.0
  0
VERTEX
  8
new-chunk2
 10
262.8453231445175
 20
623.1397094726562
 30
0.0
  0
VERTEX
  8
new-chunk2
 10
263.15202713885185
 20
623.3696899414062
 30
0.0
  0
VERTEX
  8
new-chunk2
 10
263.4587311331862
 20
623.4717407226562
 30
0.0
  0
VERTEX
  8
new-chunk2
 10
263.7654351275205
 20
623.2652587890625
 30
0.0
  0
VERTEX
  8
new-chunk2
 10
264.07213912185483
 20
623.0333251953125
 30
0.0
  0
VERTEX
  8
new-chunk2
 10
264.37884311618916
 20
622.8994140625
 30
0.0
  0
VERTEX
  8
new-chunk2
 10
264.6855471105235
 20
622.7725219726562
 30
0.0
  0
VERTEX
  8
new-chunk2
 10
264.9922511048578
 20
622.578369140625
 30
0.0
  0
VERTEX
  8
new-chunk2
 10
265.29895509919214
 20
622.5546264648438
 30
0.0
  0
VERTEX
  8
new-chunk2
 10
265.60565909352647
 20
622.494873046875
 30
0.0
  0
VERTEX
  8
new-chunk2
 10
265.9123630878608
 20
622.5161743164062
 30
0.0
  0
VERTEX
  8
new-chunk2
 10
266.2190670821951
 20
622.6826782226562
 30
0.0
  0
VERTEX
  8
new-chunk2
 10
266.52577107652945
 20
622.6231079101562
 30
0.0
  0
VERTEX
  8
new-chunk2
 10
266.8324750708638
 20
622.7241821289062
 30
0.0
  0
VERTEX
  8
new-chunk2
 10
267.1391790651981
 20
622.6256713867188
 30
0.0
  0
VERTEX
  8
new-chunk2
 10
267.44588305953243
 20
622.6737670898438
 30
0.0
  0
VERTEX
  8
new-chunk2
 10
267.75258705386676
 20
622.725341796875
 30
0.0
  0
VERTEX
  8
new-chunk2
 10
268.0592910482011
 20
622.932861328125
 30
0.0
  0
VERTEX
  8
new-chunk2
 10
268.36599504253536
 20
623.6490478515625
 30
0.0
  0
VERTEX
  8
new-chunk2
 10
268.6726990368697
 20
624.3040771484375
 30
0.0
  0
VERTEX
  8
new-chunk2
 10
268.979403031204
 20
624.8441772460938
 30
0.0
  0
VERTEX
  8
new-chunk2
 10
269.28610702553834
 20
624.7848510742188
 30
0.0
  0
VERTEX
  8
new-chunk2
 10
269.59281101987267
 20
625.0406494140625
 30
0.0
  0
VERTEX
  8
new-chunk2
 10
269.899515014207
 20
625.318359375
 30
0.0
  0
VERTEX
  8
new-chunk2
 10
270.2062190085413
 20
625.7816772460938
 30
0.0
  0
VERTEX
  8
new-chunk2
 10
270.51292300287565
 20
626.1669921875
 30
0.0
  0
VERTEX
  8
new-chunk2
 10
270.81962699721
 20
627.1033325195312
 30
0.0
  0
VERTEX
  8
new-chunk2
 10
271.1263309915443
 20
627.7825317382812
 30
0.0
  0
VERTEX
  8
new-chunk2
 10
271.43303498587863
 20
628.0736694335938
 30
0.0
  0
VERTEX
  8
new-chunk2
 10
271.73973898021296
 20
628.248291015625
 30
0.0
  0
SEQEND
  0
ENDSEC
  0
EOF
