  0
SECTION
  2
HEADER
  9
$ACADVER
  1
AC1014
  9
$ACADMAINTVER
 70
     0
  9
$DWGCODEPAGE
  3
ANSI_1252
  9
$INSBASE
 10
0.0
 20
0.0
 30
0.0
  9
$EXTMIN
 10
0.000
 20
0.000
 30
0.0
  9
$EXTMAX
 10
0.000
 20
0.000
 30
0.0
  9
$ORTHOMODE
 70
     1
  9
$REGENMODE
 70
     1
  9
$FILLMODE
 70
     1
  9
$QTEXTMODE
 70
     0
  9
$MIRRTEXT
 70
     1
  9
$DRAGMODE
 70
     2
  9
$LTSCALE
 40
1.0
  9
$OSMODE
 70
     0
  9
$ATTMODE
 70
     1
  9
$TEXTSIZE
 40
2.5
  9
$TRACEWID
 40
1.0
  9
$TEXTSTYLE
  7
STANDARD
  9
$CLAYER
  8
0
  9
$CELTYPE
  6
BYLAYER
  9
$CECOLOR
 62
   256
  9
$CELTSCALE
 40
1.0
  9
$DELOBJ
 70
     1
  9
$DISPSILH
 70
     0
  9
$DIMSCALE
 40
1.0
  9
$DIMASZ
 40
2.5
  9
$DIMEXO
 40
0.625
  9
$DIMDLI
 40
3.75
  9
$DIMRND
 40
0.0
  9
$DIMDLE
 40
0.0
  9
$DIMEXE
 40
1.25
  9
$DIMTP
 40
0.0
  9
$DIMTM
 40
0.0
  9
$DIMTXT
 40
2.5
  9
$DIMCEN
 40
2.5
  9
$DIMTSZ
 40
0.0
  9
$DIMTOL
 70
     0
  9
$DIMLIM
 70
     0
  9
$DIMTIH
 70
     0
  9
$DIMTOH
 70
     0
  9
$DIMSE1
 70
     0
  9
$DIMSE2
 70
     0
  9
$DIMTAD
 70
     1
  9
$DIMZIN
 70
     8
  9
$DIMBLK
  1

  9
$DIMASO
 70
     1
  9
$DIMSHO
 70
     1
  9
$DIMPOST
  1

  9
$DIMAPOST
  1

  9
$DIMALT
 70
     0
  9
$DIMALTD
 70
     4
  9
$DIMALTF
 40
0.0394
  9
$DIMLFAC
 40
1.0
  9
$DIMTOFL
 70
     1
  9
$DIMTVP
 40
0.0
  9
$DIMTIX
 70
     0
  9
$DIMSOXD
 70
     0
  9
$DIMSAH
 70
     0
  9
$DIMBLK1
  1

  9
$DIMBLK2
  1

  9
$DIMSTYLE
  2
STANDARD
  9
$DIMCLRD
 70
     0
  9
$DIMCLRE
 70
     0
  9
$DIMCLRT
 70
     0
  9
$DIMTFAC
 40
1.0
  9
$DIMGAP
 40
0.625
  9
$DIMJUST
 70
     0
  9
$DIMSD1
 70
     0
  9
$DIMSD2
 70
     0
  9
$DIMTOLJ
 70
     1
  9
$DIMTZIN
 70
     0
  9
$DIMALTZ
 70
     0
  9
$DIMALTTZ
 70
     0
  9
$DIMFIT
 70
     3
  9
$DIMUPT
 70
     0
  9
$DIMUNIT
 70
     8
  9
$DIMDEC
 70
     4
  9
$DIMTDEC
 70
     4
  9
$DIMALTU
 70
     8
  9
$DIMALTTD
 70
     4
  9
$DIMTXSTY
  7
STANDARD
  9
$DIMAUNIT
 70
     0
  9
$LUNITS
 70
     2
  9
$LUPREC
 70
     4
  9
$SKETCHINC
 40
1.0
  9
$FILLETRAD
 40
10.0
  9
$AUNITS
 70
     0
  9
$AUPREC
 70
     0
  9
$MENU
  1
.
  9
$ELEVATION
 40
0.0
  9
$PELEVATION
 40
0.0
  9
$THICKNESS
 40
0.0
  9
$LIMCHECK
 70
     0
  9
$BLIPMODE
 70
     0
  9
$CHAMFERA
 40
10.0
  9
$CHAMFERB
 40
10.0
  9
$CHAMFERC
 40
20.0
  9
$CHAMFERD
 40
0.0
  9
$SKPOLY
 70
     0
  9
$TDCREATE
 40
2454180.933710197
  9
$TDUPDATE
 40
2454180.933710197
  9
$TDINDWG
 40
0.0000000000
  9
$TDUSRTIMER
 40
0.0000000000
  9
$USRTIMER
 70
     1
  9
$ANGBASE
 50
0.0
  9
$ANGDIR
 70
     0
  9
$PDMODE
 70
     0
  9
$PDSIZE
 40
0.0
  9
$PLINEWID
 40
0.0
  9
$COORDS
 70
     1
  9
$SPLFRAME
 70
     0
  9
$SPLINETYPE
 70
     6
  9
$SPLINESEGS
 70
     8
  9
$ATTDIA
 70
     0
  9
$ATTREQ
 70
     1
  9
$HANDLING
 70
     1
  9
$HANDSEED
  5
3A
  9
$SURFTAB1
 70
     6
  9
$SURFTAB2
 70
     6
  9
$SURFTYPE
 70
     6
  9
$SURFU
 70
     6
  9
$SURFV
 70
     6
  9
$UCSNAME
  2

  9
$UCSORG
 10
0.0
 20
0.0
 30
0.0
  9
$UCSXDIR
 10
1.0
 20
0.0
 30
0.0
  9
$UCSYDIR
 10
0.0
 20
1.0
 30
0.0
  9
$PUCSNAME
  2

  9
$PUCSORG
 10
0.0
 20
0.0
 30
0.0
  9
$PUCSXDIR
 10
1.0
 20
0.0
 30
0.0
  9
$PUCSYDIR
 10
0.0
 20
1.0
 30
0.0
  9
$USERI1
 70
     0
  9
$USERI2
 70
     0
  9
$USERI3
 70
     0
  9
$USERI4
 70
     0
  9
$USERI5
 70
     0
  9
$USERR1
 40
0.0
  9
$USERR2
 40
0.0
  9
$USERR3
 40
0.0
  9
$USERR4
 40
0.0
  9
$USERR5
 40
0.0
  9
$WORLDVIEW
 70
     1
  9
$SHADEDGE
 70
     3
  9
$SHADEDIF
 70
    70
  9
$TILEMODE
 70
     1
  9
$MAXACTVP
 70
    48
  9
$PINSBASE
 10
0.0
 20
0.0
 30
0.0
  9
$PLIMCHECK
 70
     0
  9
$PEXTMIN
 10
1.000000E+20
 20
1.000000E+20
 30
1.000000E+20
  9
$PEXTMAX
 10
-1.000000E+20
 20
-1.000000E+20
 30
-1.000000E+20
  9
$PLIMMIN
 10
0.0
 20
0.0
  9
$PLIMMAX
 10
420.0
 20
297.0
  9
$UNITMODE
 70
     0
  9
$VISRETAIN
 70
     1
  9
$PLINEGEN
 70
     0
  9
$PSLTSCALE
 70
     1
  9
$TREEDEPTH
 70
  3020
  9
$PICKSTYLE
 70
     1
  9
$CMLSTYLE
  2
STANDARD
  9
$CMLJUST
 70
     0
  9
$CMLSCALE
 40
20.0
  9
$PROXYGRAPHICS
 70
     1
  9
$MEASUREMENT
 70
     1
  0
ENDSEC
  0
SECTION
  2
CLASSES
  0
CLASS
  1
LWPOLYLINE
  2
AcDbPolyline
  3
"AutoCAD"
 90
        0
280
     0
281
     1
  0
CLASS
  1
DICTIONARYVAR
  2
AcDbDictionaryVar
  3
"AutoCAD"
 90
        0
280
     0
281
     0
  0
CLASS
  1
HATCH
  2
AcDbHatch
  3
"ACAD_SEDONA"
 90
        0
280
     0
281
     1
  0
ENDSEC
  0
SECTION
  2
TABLES
  0
TABLE
  2
VPORT
  5
8
100
AcDbSymbolTable
 70
     5
  0
VPORT
  5
39
100
AcDbSymbolTableRecord
100
AcDbViewportTableRecord
  2
*ACTIVE
 70
     0
 10
0.0
 20
0.0
 11
1.0
 21
1.0
 12
298.941176
 22
148.5
 13
0.0
 23
0.0
 14
10.0
 24
10.0
 15
10.0
 25
10.0
 16
0.0
 26
0.0
 36
1.0
 17
0.0
 27
0.0
 37
0.0
 40
297.0
 41
2.013072
 42
50.0
 43
0.0
 44
0.0
 50
0.0
 51
0.0
 71
     0
 72
   100
 73
     1
 74
     1
 75
     0
 76
     0
 77
     0
 78
     0
  0
ENDTAB
  0
TABLE
  2
LTYPE
  5
5
100
AcDbSymbolTable
 70
     1
  0
LTYPE
  5
12
100
AcDbSymbolTableRecord
100
AcDbLinetypeTableRecord
  2
BYBLOCK
 70
     0
  3

 72
    65
 73
     0
 40
0.0
  0
LTYPE
  5
13
100
AcDbSymbolTableRecord
100
AcDbLinetypeTableRecord
  2
BYLAYER
 70
     0
  3

 72
    65
 73
     0
 40
0.0
  0
LTYPE
  5
14
100
AcDbSymbolTableRecord
100
AcDbLinetypeTableRecord
  2
CONTINUOUS
 70
     0
  3
Solid line
 72
    65
 73
     0
 40
0.0
  0
ENDTAB
  0
TABLE
  2
LAYER
  5
2
100
AcDbSymbolTable
 70
     1
  0
LAYER
  5
E
100
AcDbSymbolTableRecord
100
AcDbLayerTableRecord
  2
0
 70
     0
 62
     7
  6
CONTINUOUS
  0
ENDTAB
  0
TABLE
  2
STYLE
  5
3
100
AcDbSymbolTable
 70
     1
  0
STYLE
  5
F
100
AcDbSymbolTableRecord
100
AcDbTextStyleTableRecord
  2
STANDARD
 70
     0
 40
0.0
 41
1.0
 50
0.0
 71
     0
 42
2.5
  3
txt
  4

  0
ENDTAB
  0
TABLE
  2
VIEW
  5
6
100
AcDbSymbolTable
 70
     0
  0
ENDTAB
  0
TABLE
  2
UCS
  5
7
100
AcDbSymbolTable
 70
     0
  0
ENDTAB
  0
TABLE
  2
APPID
  5
9
100
AcDbSymbolTable
 70
     1
  0
APPID
  5
10
100
AcDbSymbolTableRecord
100
AcDbRegAppTableRecord
  2
ACAD
 70
     0
  0
ENDTAB
  0
TABLE
  2
DIMSTYLE
  5
A
100
AcDbSymbolTable
 70
     1
  0
DIMSTYLE
105
1D
100
AcDbSymbolTableRecord
100
AcDbDimStyleTableRecord
  2
STANDARD
 70
     0
  3

  4

  5

  6

  7

 40
1.0
 41
0.18
 42
0.0625
 43
0.38
 44
0.18
 45
0.0
 46
0.0
 47
0.0
 48
0.0
140
0.18
141
0.09
142
0.0
143
25.4
144
1.0
145
0.0
146
1.0
147
0.09
 71
     0
 72
     0
 73
     1
 74
     1
 75
     0
 76
     0
 77
     0
 78
     0
170
     0
171
     2
172
     0
173
     0
174
     0
175
     0
176
     0
177
     0
178
     0
270
     2
271
     4
272
     4
273
     2
274
     2
340
F
275
     0
280
     0
281
     0
282
     0
283
     1
284
     0
285
     0
286
     0
287
     3
288
     0
  0
ENDTAB
  0
TABLE
  2
BLOCK_RECORD
  5
1
100
AcDbSymbolTable
 70
     0
  0
BLOCK_RECORD
  5
18
100
AcDbSymbolTableRecord
100
AcDbBlockTableRecord
  2
*MODEL_SPACE
  0
BLOCK_RECORD
  5
15
100
AcDbSymbolTableRecord
100
AcDbBlockTableRecord
  2
*PAPER_SPACE
  0
ENDTAB
  0
ENDSEC
  0
SECTION
  2
BLOCKS
  0
BLOCK
  5
19
100
AcDbEntity
  8
0
100
AcDbBlockBegin
  2
*MODEL_SPACE
 70
     0
 10
0.0
 20
0.0
 30
0.0
  3
*MODEL_SPACE
  1

  0
ENDBLK
  5
1A
100
AcDbEntity
  8
0
100
AcDbBlockEnd
  0
BLOCK
  5
16
100
AcDbEntity
 67
     1
  8
0
100
AcDbBlockBegin
  2
*PAPER_SPACE
 70
     0
 10
0.0
 20
0.0
 30
0.0
  3
*PAPER_SPACE
  1

  0
ENDBLK
  5
17
100
AcDbEntity
 67
     1
  8
0
100
AcDbBlockEnd
  0
ENDSEC
  0
SECTION
  2
ENTITIES
 0
HATCH
 100
AcDbEntity
 8
0
 100
AcDbHatch
 10
0.0
 20
0.0
 30
0.0
 210
0.0
 220
0.0
 230
1.0
 2
SOLID
 70
1
 71
0
 91
2
 92
0
 93
2679
 72
1
 10
75.722
 20
-22.582
 11
75.728
 21
-22.665
 72
1
 10
75.728
 20
-22.665
 11
75.739
 21
-22.798
 72
1
 10
75.739
 20
-22.798
 11
75.752
 21
-22.977
 72
1
 10
75.752
 20
-22.977
 11
75.760
 21
-23.079
 72
1
 10
75.760
 20
-23.079
 11
75.768
 21
-23.188
 72
1
 10
75.768
 20
-23.188
 11
75.776
 21
-23.301
 72
1
 10
75.776
 20
-23.301
 11
75.784
 21
-23.418
 72
1
 10
75.784
 20
-23.418
 11
75.792
 21
-23.535
 72
1
 10
75.792
 20
-23.535
 11
75.799
 21
-23.651
 72
1
 10
75.799
 20
-23.651
 11
75.806
 21
-23.766
 72
1
 10
75.806
 20
-23.766
 11
75.813
 21
-23.876
 72
1
 10
75.813
 20
-23.876
 11
75.818
 21
-23.980
 72
1
 10
75.818
 20
-23.980
 11
75.826
 21
-24.164
 72
1
 10
75.826
 20
-24.164
 11
75.829
 21
-24.304
 72
1
 10
75.829
 20
-24.304
 11
75.824
 21
-24.419
 72
1
 10
75.824
 20
-24.419
 11
75.812
 21
-24.538
 72
1
 10
75.812
 20
-24.538
 11
75.799
 21
-24.662
 72
1
 10
75.799
 20
-24.662
 11
75.792
 21
-24.792
 72
1
 10
75.792
 20
-24.792
 11
75.796
 21
-24.929
 72
1
 10
75.796
 20
-24.929
 11
75.818
 21
-25.075
 72
1
 10
75.818
 20
-25.075
 11
75.864
 21
-25.229
 72
1
 10
75.864
 20
-25.229
 11
75.940
 21
-25.394
 72
1
 10
75.940
 20
-25.394
 11
75.991
 21
-25.480
 72
1
 10
75.991
 20
-25.480
 11
76.052
 21
-25.569
 72
1
 10
76.052
 20
-25.569
 11
76.123
 21
-25.661
 72
1
 10
76.123
 20
-25.661
 11
76.206
 21
-25.757
 72
1
 10
76.206
 20
-25.757
 11
76.291
 21
-25.846
 72
1
 10
76.291
 20
-25.846
 11
76.368
 21
-25.920
 72
1
 10
76.368
 20
-25.920
 11
76.501
 21
-26.027
 72
1
 10
76.501
 20
-26.027
 11
76.607
 21
-26.088
 72
1
 10
76.607
 20
-26.088
 11
76.722
 21
-26.112
 72
1
 10
76.722
 20
-26.112
 11
76.811
 21
-26.066
 72
1
 10
76.811
 20
-26.066
 11
76.852
 21
-25.972
 72
1
 10
76.852
 20
-25.972
 11
77.444
 21
-25.649
 72
1
 10
77.444
 20
-25.649
 11
77.536
 21
-25.590
 72
1
 10
77.536
 20
-25.590
 11
77.683
 21
-25.495
 72
1
 10
77.683
 20
-25.495
 11
77.775
 21
-25.436
 72
1
 10
77.775
 20
-25.436
 11
77.878
 21
-25.369
 72
1
 10
77.878
 20
-25.369
 11
77.988
 21
-25.298
 72
1
 10
77.988
 20
-25.298
 11
78.104
 21
-25.223
 72
1
 10
78.104
 20
-25.223
 11
78.224
 21
-25.145
 72
1
 10
78.224
 20
-25.145
 11
78.346
 21
-25.066
 72
1
 10
78.346
 20
-25.066
 11
78.467
 21
-24.987
 72
1
 10
78.467
 20
-24.987
 11
78.585
 21
-24.909
 72
1
 10
78.585
 20
-24.909
 11
78.699
 21
-24.834
 72
1
 10
78.699
 20
-24.834
 11
78.806
 21
-24.764
 72
1
 10
78.806
 20
-24.764
 11
78.904
 21
-24.699
 72
1
 10
78.904
 20
-24.699
 11
79.065
 21
-24.590
 72
1
 10
79.065
 20
-24.590
 11
79.166
 21
-24.519
 72
1
 10
79.166
 20
-24.519
 11
79.199
 21
-24.494
 72
1
 10
79.199
 20
-24.494
 11
79.307
 21
-24.405
 72
1
 10
79.307
 20
-24.405
 11
79.386
 21
-24.336
 72
1
 10
79.386
 20
-24.336
 11
79.469
 21
-24.262
 72
1
 10
79.469
 20
-24.262
 11
79.556
 21
-24.183
 72
1
 10
79.556
 20
-24.183
 11
79.646
 21
-24.101
 72
1
 10
79.646
 20
-24.101
 11
79.739
 21
-24.017
 72
1
 10
79.739
 20
-24.017
 11
79.834
 21
-23.932
 72
1
 10
79.834
 20
-23.932
 11
79.930
 21
-23.848
 72
1
 10
79.930
 20
-23.848
 11
80.027
 21
-23.766
 72
1
 10
80.027
 20
-23.766
 11
80.120
 21
-23.690
 72
1
 10
80.120
 20
-23.690
 11
80.206
 21
-23.622
 72
1
 10
80.206
 20
-23.622
 11
80.291
 21
-23.561
 72
1
 10
80.291
 20
-23.561
 11
80.378
 21
-23.507
 72
1
 10
80.378
 20
-23.507
 11
80.471
 21
-23.456
 72
1
 10
80.471
 20
-23.456
 11
80.573
 21
-23.409
 72
1
 10
80.573
 20
-23.409
 11
80.689
 21
-23.364
 72
1
 10
80.689
 20
-23.364
 11
80.822
 21
-23.320
 72
1
 10
80.822
 20
-23.320
 11
80.977
 21
-23.275
 72
1
 10
80.977
 20
-23.275
 11
81.157
 21
-23.228
 72
1
 10
81.157
 20
-23.228
 11
81.180
 21
-23.222
 72
1
 10
81.180
 20
-23.222
 11
81.292
 21
-23.202
 72
1
 10
81.292
 20
-23.202
 11
81.396
 21
-23.184
 72
1
 10
81.396
 20
-23.184
 11
81.513
 21
-23.162
 72
1
 10
81.513
 20
-23.162
 11
81.639
 21
-23.133
 72
1
 10
81.639
 20
-23.133
 11
81.772
 21
-23.094
 72
1
 10
81.772
 20
-23.094
 11
81.907
 21
-23.044
 72
1
 10
81.907
 20
-23.044
 11
81.953
 21
-23.024
 72
1
 10
81.953
 20
-23.024
 11
82.043
 21
-22.979
 72
1
 10
82.043
 20
-22.979
 11
82.133
 21
-22.931
 72
1
 10
82.133
 20
-22.931
 11
82.223
 21
-22.880
 72
1
 10
82.223
 20
-22.880
 11
82.312
 21
-22.829
 72
1
 10
82.312
 20
-22.829
 11
82.400
 21
-22.777
 72
1
 10
82.400
 20
-22.777
 11
82.531
 21
-22.705
 72
1
 10
82.531
 20
-22.705
 11
82.659
 21
-22.642
 72
1
 10
82.659
 20
-22.642
 11
82.785
 21
-22.594
 72
1
 10
82.785
 20
-22.594
 11
82.888
 21
-22.564
 72
1
 10
82.888
 20
-22.564
 11
83.084
 21
-22.512
 72
1
 10
83.084
 20
-22.512
 11
83.266
 21
-22.470
 72
1
 10
83.266
 20
-22.470
 11
83.434
 21
-22.438
 72
1
 10
83.434
 20
-22.438
 11
83.588
 21
-22.412
 72
1
 10
83.588
 20
-22.412
 11
83.729
 21
-22.392
 72
1
 10
83.729
 20
-22.392
 11
83.856
 21
-22.376
 72
1
 10
83.856
 20
-22.376
 11
83.969
 21
-22.362
 72
1
 10
83.969
 20
-22.362
 11
84.069
 21
-22.348
 72
1
 10
84.069
 20
-22.348
 11
84.192
 21
-22.325
 72
1
 10
84.192
 20
-22.325
 11
84.264
 21
-22.309
 72
1
 10
84.264
 20
-22.309
 11
84.448
 21
-22.277
 72
1
 10
84.448
 20
-22.277
 11
84.556
 21
-22.262
 72
1
 10
84.556
 20
-22.262
 11
84.673
 21
-22.248
 72
1
 10
84.673
 20
-22.248
 11
84.795
 21
-22.233
 72
1
 10
84.795
 20
-22.233
 11
84.922
 21
-22.220
 72
1
 10
84.922
 20
-22.220
 11
85.051
 21
-22.207
 72
1
 10
85.051
 20
-22.207
 11
85.181
 21
-22.195
 72
1
 10
85.181
 20
-22.195
 11
85.310
 21
-22.183
 72
1
 10
85.310
 20
-22.183
 11
85.435
 21
-22.172
 72
1
 10
85.435
 20
-22.172
 11
85.555
 21
-22.163
 72
1
 10
85.555
 20
-22.163
 11
85.668
 21
-22.154
 72
1
 10
85.668
 20
-22.154
 11
85.773
 21
-22.146
 72
1
 10
85.773
 20
-22.146
 11
85.947
 21
-22.133
 72
1
 10
85.947
 20
-22.133
 11
86.104
 21
-22.122
 72
1
 10
86.104
 20
-22.122
 11
87.776
 21
-21.774
 72
1
 10
87.776
 20
-21.774
 11
88.960
 21
-22.420
 72
1
 10
88.960
 20
-22.420
 11
88.969
 21
-22.442
 72
1
 10
88.969
 20
-22.442
 11
89.010
 21
-22.542
 72
1
 10
89.010
 20
-22.542
 11
89.051
 21
-22.644
 72
1
 10
89.051
 20
-22.644
 11
89.097
 21
-22.765
 72
1
 10
89.097
 20
-22.765
 11
89.145
 21
-22.898
 72
1
 10
89.145
 20
-22.898
 11
89.192
 21
-23.035
 72
1
 10
89.192
 20
-23.035
 11
89.232
 21
-23.169
 72
1
 10
89.232
 20
-23.169
 11
89.263
 21
-23.293
 72
1
 10
89.263
 20
-23.293
 11
89.283
 21
-23.443
 72
1
 10
89.283
 20
-23.443
 11
89.306
 21
-23.514
 72
1
 10
89.306
 20
-23.514
 11
89.412
 21
-23.591
 72
1
 10
89.412
 20
-23.591
 11
89.519
 21
-23.627
 72
1
 10
89.519
 20
-23.627
 11
89.646
 21
-23.654
 72
1
 10
89.646
 20
-23.654
 11
89.782
 21
-23.674
 72
1
 10
89.782
 20
-23.674
 11
89.922
 21
-23.691
 72
1
 10
89.922
 20
-23.691
 11
90.055
 21
-23.708
 72
1
 10
90.055
 20
-23.708
 11
90.173
 21
-23.726
 72
1
 10
90.173
 20
-23.726
 11
90.305
 21
-23.766
 72
1
 10
90.305
 20
-23.766
 11
90.377
 21
-23.808
 72
1
 10
90.377
 20
-23.808
 11
90.463
 21
-23.869
 72
1
 10
90.463
 20
-23.869
 11
90.560
 21
-23.942
 72
1
 10
90.560
 20
-23.942
 11
90.665
 21
-24.024
 72
1
 10
90.665
 20
-24.024
 11
90.776
 21
-24.109
 72
1
 10
90.776
 20
-24.109
 11
90.890
 21
-24.192
 72
1
 10
90.890
 20
-24.192
 11
91.005
 21
-24.268
 72
1
 10
91.005
 20
-24.268
 11
91.118
 21
-24.334
 72
1
 10
91.118
 20
-24.334
 11
91.226
 21
-24.383
 72
1
 10
91.226
 20
-24.383
 11
91.328
 21
-24.411
 72
1
 10
91.328
 20
-24.411
 11
91.378
 21
-24.419
 72
1
 10
91.378
 20
-24.419
 11
91.488
 21
-24.429
 72
1
 10
91.488
 20
-24.429
 11
91.607
 21
-24.434
 72
1
 10
91.607
 20
-24.434
 11
91.729
 21
-24.435
 72
1
 10
91.729
 20
-24.435
 11
91.849
 21
-24.433
 72
1
 10
91.849
 20
-24.433
 11
91.961
 21
-24.429
 72
1
 10
91.961
 20
-24.429
 11
92.106
 21
-24.421
 72
1
 10
92.106
 20
-24.421
 11
92.243
 21
-24.411
 72
1
 10
92.243
 20
-24.411
 11
92.266
 21
-24.455
 72
1
 10
92.266
 20
-24.455
 11
92.328
 21
-24.570
 72
1
 10
92.328
 20
-24.570
 11
92.385
 21
-24.675
 72
1
 10
92.385
 20
-24.675
 11
92.451
 21
-24.795
 72
1
 10
92.451
 20
-24.795
 11
92.521
 21
-24.923
 72
1
 10
92.521
 20
-24.923
 11
92.593
 21
-25.052
 72
1
 10
92.593
 20
-25.052
 11
92.663
 21
-25.176
 72
1
 10
92.663
 20
-25.176
 11
92.726
 21
-25.287
 72
1
 10
92.726
 20
-25.287
 11
92.781
 21
-25.380
 72
1
 10
92.781
 20
-25.380
 11
92.839
 21
-25.450
 72
1
 10
92.839
 20
-25.450
 11
92.958
 21
-25.519
 72
1
 10
92.958
 20
-25.519
 11
93.097
 21
-25.553
 72
1
 10
93.097
 20
-25.553
 11
93.237
 21
-25.563
 72
1
 10
93.237
 20
-25.563
 11
93.360
 21
-25.557
 72
1
 10
93.360
 20
-25.557
 11
93.480
 21
-25.541
 72
1
 10
93.480
 20
-25.541
 11
93.532
 21
-25.633
 72
1
 10
93.532
 20
-25.633
 11
93.589
 21
-25.733
 72
1
 10
93.589
 20
-25.733
 11
93.661
 21
-25.858
 72
1
 10
93.661
 20
-25.858
 11
93.743
 21
-25.999
 72
1
 10
93.743
 20
-25.999
 11
93.829
 21
-26.146
 72
1
 10
93.829
 20
-26.146
 11
93.915
 21
-26.290
 72
1
 10
93.915
 20
-26.290
 11
93.997
 21
-26.423
 72
1
 10
93.997
 20
-26.423
 11
94.069
 21
-26.535
 72
1
 10
94.069
 20
-26.535
 11
94.126
 21
-26.618
 72
1
 10
94.126
 20
-26.618
 11
94.195
 21
-26.691
 72
1
 10
94.195
 20
-26.691
 11
94.306
 21
-26.728
 72
1
 10
94.306
 20
-26.728
 11
94.395
 21
-26.671
 72
1
 10
94.395
 20
-26.671
 11
95.794
 21
-26.725
 72
1
 10
95.794
 20
-26.725
 11
96.548
 21
-27.102
 72
1
 10
96.548
 20
-27.102
 11
97.086
 21
-26.887
 72
1
 10
97.086
 20
-26.887
 11
98.270
 21
-25.972
 72
1
 10
98.270
 20
-25.972
 11
98.275
 21
-25.966
 72
1
 10
98.275
 20
-25.966
 11
98.344
 21
-25.880
 72
1
 10
98.344
 20
-25.880
 11
98.425
 21
-25.779
 72
1
 10
98.425
 20
-25.779
 11
98.526
 21
-25.652
 72
1
 10
98.526
 20
-25.652
 11
98.640
 21
-25.508
 72
1
 10
98.640
 20
-25.508
 11
98.758
 21
-25.356
 72
1
 10
98.758
 20
-25.356
 11
98.874
 21
-25.205
 72
1
 10
98.874
 20
-25.205
 11
98.979
 21
-25.063
 72
1
 10
98.979
 20
-25.063
 11
99.067
 21
-24.939
 72
1
 10
99.067
 20
-24.939
 11
99.131
 21
-24.842
 72
1
 10
99.131
 20
-24.842
 11
99.154
 21
-24.805
 72
1
 10
99.154
 20
-24.805
 11
99.230
 21
-24.722
 72
1
 10
99.230
 20
-24.722
 11
99.340
 21
-24.739
 72
1
 10
99.340
 20
-24.739
 11
99.449
 21
-24.804
 72
1
 10
99.449
 20
-24.804
 11
99.567
 21
-24.861
 72
1
 10
99.567
 20
-24.861
 11
99.669
 21
-24.896
 72
1
 10
99.669
 20
-24.896
 11
99.770
 21
-24.937
 72
1
 10
99.770
 20
-24.937
 11
99.882
 21
-25.030
 72
1
 10
99.882
 20
-25.030
 11
99.959
 21
-25.152
 72
1
 10
99.959
 20
-25.152
 11
99.999
 21
-25.245
 72
1
 10
99.999
 20
-25.245
 11
100.033
 21
-25.345
 72
1
 10
100.033
 20
-25.345
 11
100.067
 21
-25.449
 72
1
 10
100.067
 20
-25.449
 11
100.105
 21
-25.553
 72
1
 10
100.105
 20
-25.553
 11
100.150
 21
-25.657
 72
1
 10
100.150
 20
-25.657
 11
100.207
 21
-25.757
 72
1
 10
100.207
 20
-25.757
 11
100.282
 21
-25.847
 72
1
 10
100.282
 20
-25.847
 11
100.376
 21
-25.927
 72
1
 10
100.376
 20
-25.927
 11
100.485
 21
-25.996
 72
1
 10
100.485
 20
-25.996
 11
100.605
 21
-26.058
 72
1
 10
100.605
 20
-26.058
 11
100.732
 21
-26.113
 72
1
 10
100.732
 20
-26.113
 11
100.862
 21
-26.163
 72
1
 10
100.862
 20
-26.163
 11
100.991
 21
-26.211
 72
1
 10
100.991
 20
-26.211
 11
101.116
 21
-26.256
 72
1
 10
101.116
 20
-26.256
 11
101.233
 21
-26.302
 72
1
 10
101.233
 20
-26.302
 11
101.337
 21
-26.349
 72
1
 10
101.337
 20
-26.349
 11
101.431
 21
-26.380
 72
1
 10
101.431
 20
-26.380
 11
101.563
 21
-26.375
 72
1
 10
101.563
 20
-26.375
 11
101.687
 21
-26.324
 72
1
 10
101.687
 20
-26.324
 11
101.808
 21
-26.248
 72
1
 10
101.808
 20
-26.248
 11
101.931
 21
-26.168
 72
1
 10
101.931
 20
-26.168
 11
102.059
 21
-26.105
 72
1
 10
102.059
 20
-26.105
 11
102.198
 21
-26.080
 72
1
 10
102.198
 20
-26.080
 11
102.250
 21
-26.078
 72
1
 10
102.250
 20
-26.078
 11
102.375
 21
-26.070
 72
1
 10
102.375
 20
-26.070
 11
102.519
 21
-26.054
 72
1
 10
102.519
 20
-26.054
 11
102.675
 21
-26.034
 72
1
 10
102.675
 20
-26.034
 11
102.833
 21
-26.011
 72
1
 10
102.833
 20
-26.011
 11
102.986
 21
-25.987
 72
1
 10
102.986
 20
-25.987
 11
103.126
 21
-25.964
 72
1
 10
103.126
 20
-25.964
 11
103.242
 21
-25.943
 72
1
 10
103.242
 20
-25.943
 11
103.382
 21
-25.918
 72
1
 10
103.382
 20
-25.918
 11
105.696
 21
-25.111
 72
1
 10
105.696
 20
-25.111
 11
106.718
 21
-23.712
 72
1
 10
106.718
 20
-23.712
 11
106.748
 21
-23.613
 72
1
 10
106.748
 20
-23.613
 11
106.795
 21
-23.455
 72
1
 10
106.795
 20
-23.455
 11
106.824
 21
-23.356
 72
1
 10
106.824
 20
-23.356
 11
106.857
 21
-23.245
 72
1
 10
106.857
 20
-23.245
 11
106.892
 21
-23.126
 72
1
 10
106.892
 20
-23.126
 11
106.929
 21
-23.001
 72
1
 10
106.929
 20
-23.001
 11
106.967
 21
-22.871
 72
1
 10
106.967
 20
-22.871
 11
107.006
 21
-22.739
 72
1
 10
107.006
 20
-22.739
 11
107.044
 21
-22.608
 72
1
 10
107.044
 20
-22.608
 11
107.081
 21
-22.478
 72
1
 10
107.081
 20
-22.478
 11
107.117
 21
-22.354
 72
1
 10
107.117
 20
-22.354
 11
107.150
 21
-22.236
 72
1
 10
107.150
 20
-22.236
 11
107.180
 21
-22.128
 72
1
 10
107.180
 20
-22.128
 11
107.228
 21
-21.946
 72
1
 10
107.228
 20
-21.946
 11
107.257
 21
-21.828
 72
1
 10
107.257
 20
-21.828
 11
107.268
 21
-21.781
 72
1
 10
107.268
 20
-21.781
 11
107.307
 21
-21.649
 72
1
 10
107.307
 20
-21.649
 11
107.366
 21
-21.476
 72
1
 10
107.366
 20
-21.476
 11
107.401
 21
-21.378
 72
1
 10
107.401
 20
-21.378
 11
107.439
 21
-21.275
 72
1
 10
107.439
 20
-21.275
 11
107.480
 21
-21.168
 72
1
 10
107.480
 20
-21.168
 11
107.522
 21
-21.058
 72
1
 10
107.522
 20
-21.058
 11
107.566
 21
-20.947
 72
1
 10
107.566
 20
-20.947
 11
107.611
 21
-20.837
 72
1
 10
107.611
 20
-20.837
 11
107.656
 21
-20.728
 72
1
 10
107.656
 20
-20.728
 11
107.700
 21
-20.623
 72
1
 10
107.700
 20
-20.623
 11
107.744
 21
-20.522
 72
1
 10
107.744
 20
-20.522
 11
107.827
 21
-20.342
 72
1
 10
107.827
 20
-20.342
 11
107.899
 21
-20.200
 72
1
 10
107.899
 20
-20.200
 11
107.956
 21
-20.106
 72
1
 10
107.956
 20
-20.106
 11
107.979
 21
-20.074
 72
1
 10
107.979
 20
-20.074
 11
108.035
 21
-19.983
 72
1
 10
108.035
 20
-19.983
 11
108.083
 21
-19.867
 72
1
 10
108.083
 20
-19.867
 11
108.107
 21
-19.754
 72
1
 10
108.107
 20
-19.754
 11
108.116
 21
-19.638
 72
1
 10
108.116
 20
-19.638
 11
108.118
 21
-19.514
 72
1
 10
108.118
 20
-19.514
 11
108.104
 21
-19.385
 72
1
 10
108.104
 20
-19.385
 11
108.084
 21
-19.272
 72
1
 10
108.084
 20
-19.272
 11
108.057
 21
-19.146
 72
1
 10
108.057
 20
-19.146
 11
108.026
 21
-19.015
 72
1
 10
108.026
 20
-19.015
 11
107.994
 21
-18.886
 72
1
 10
107.994
 20
-18.886
 11
107.963
 21
-18.767
 72
1
 10
107.963
 20
-18.767
 11
107.936
 21
-18.667
 72
1
 10
107.936
 20
-18.667
 11
107.902
 21
-18.546
 72
1
 10
107.902
 20
-18.546
 11
108.279
 21
-18.169
 72
1
 10
108.279
 20
-18.169
 11
108.289
 21
-18.142
 72
1
 10
108.289
 20
-18.142
 11
108.331
 21
-18.036
 72
1
 10
108.331
 20
-18.036
 11
108.380
 21
-17.920
 72
1
 10
108.380
 20
-17.920
 11
108.439
 21
-17.786
 72
1
 10
108.439
 20
-17.786
 11
108.483
 21
-17.692
 72
1
 10
108.483
 20
-17.692
 11
108.530
 21
-17.599
 72
1
 10
108.530
 20
-17.599
 11
108.602
 21
-17.469
 72
1
 10
108.602
 20
-17.469
 11
108.644
 21
-17.379
 72
1
 10
108.644
 20
-17.379
 11
108.675
 21
-17.273
 72
1
 10
108.675
 20
-17.273
 11
108.696
 21
-17.152
 72
1
 10
108.696
 20
-17.152
 11
108.709
 21
-17.019
 72
1
 10
108.709
 20
-17.019
 11
108.716
 21
-16.877
 72
1
 10
108.716
 20
-16.877
 11
108.718
 21
-16.729
 72
1
 10
108.718
 20
-16.729
 11
108.717
 21
-16.577
 72
1
 10
108.717
 20
-16.577
 11
108.714
 21
-16.424
 72
1
 10
108.714
 20
-16.424
 11
108.711
 21
-16.272
 72
1
 10
108.711
 20
-16.272
 11
108.709
 21
-16.124
 72
1
 10
108.709
 20
-16.124
 11
108.708
 21
-16.053
 72
1
 10
108.708
 20
-16.053
 11
108.700
 21
-15.918
 72
1
 10
108.700
 20
-15.918
 11
108.684
 21
-15.794
 72
1
 10
108.684
 20
-15.794
 11
108.664
 21
-15.682
 72
1
 10
108.664
 20
-15.682
 11
108.629
 21
-15.539
 72
1
 10
108.629
 20
-15.539
 11
108.594
 21
-15.429
 72
1
 10
108.594
 20
-15.429
 11
108.548
 21
-15.317
 72
1
 10
108.548
 20
-15.317
 11
108.528
 21
-15.280
 72
1
 10
108.528
 20
-15.280
 11
108.474
 21
-15.180
 72
1
 10
108.474
 20
-15.180
 11
108.424
 21
-15.088
 72
1
 10
108.424
 20
-15.088
 11
108.366
 21
-14.981
 72
1
 10
108.366
 20
-14.981
 11
108.304
 21
-14.864
 72
1
 10
108.304
 20
-14.864
 11
108.240
 21
-14.742
 72
1
 10
108.240
 20
-14.742
 11
108.176
 21
-14.621
 72
1
 10
108.176
 20
-14.621
 11
108.117
 21
-14.506
 72
1
 10
108.117
 20
-14.506
 11
108.064
 21
-14.402
 72
1
 10
108.064
 20
-14.402
 11
108.006
 21
-14.287
 72
1
 10
108.006
 20
-14.287
 11
107.933
 21
-14.141
 72
1
 10
107.933
 20
-14.141
 11
107.847
 21
-13.972
 72
1
 10
107.847
 20
-13.972
 11
107.801
 21
-13.881
 72
1
 10
107.801
 20
-13.881
 11
107.753
 21
-13.787
 72
1
 10
107.753
 20
-13.787
 11
107.704
 21
-13.692
 72
1
 10
107.704
 20
-13.692
 11
107.653
 21
-13.595
 72
1
 10
107.653
 20
-13.595
 11
107.603
 21
-13.498
 72
1
 10
107.603
 20
-13.498
 11
107.552
 21
-13.402
 72
1
 10
107.552
 20
-13.402
 11
107.502
 21
-13.309
 72
1
 10
107.502
 20
-13.309
 11
107.453
 21
-13.218
 72
1
 10
107.453
 20
-13.218
 11
107.359
 21
-13.049
 72
1
 10
107.359
 20
-13.049
 11
107.275
 21
-12.903
 72
1
 10
107.275
 20
-12.903
 11
107.203
 21
-12.788
 72
1
 10
107.203
 20
-12.788
 11
107.152
 21
-12.695
 72
1
 10
107.152
 20
-12.695
 11
107.121
 21
-12.572
 72
1
 10
107.121
 20
-12.572
 11
107.132
 21
-12.464
 72
1
 10
107.132
 20
-12.464
 11
107.171
 21
-12.366
 72
1
 10
107.171
 20
-12.366
 11
107.223
 21
-12.273
 72
1
 10
107.223
 20
-12.273
 11
107.274
 21
-12.182
 72
1
 10
107.274
 20
-12.182
 11
107.310
 21
-12.088
 72
1
 10
107.310
 20
-12.088
 11
107.349
 21
-11.963
 72
1
 10
107.349
 20
-11.963
 11
107.384
 21
-11.868
 72
1
 10
107.384
 20
-11.868
 11
107.425
 21
-11.765
 72
1
 10
107.425
 20
-11.765
 11
107.469
 21
-11.648
 72
1
 10
107.469
 20
-11.648
 11
107.515
 21
-11.509
 72
1
 10
107.515
 20
-11.509
 11
107.547
 21
-11.402
 72
1
 10
107.547
 20
-11.402
 11
107.579
 21
-11.281
 72
1
 10
107.579
 20
-11.281
 11
107.606
 21
-11.153
 72
1
 10
107.606
 20
-11.153
 11
107.621
 21
-11.027
 72
1
 10
107.621
 20
-11.027
 11
107.627
 21
-10.902
 72
1
 10
107.627
 20
-10.902
 11
107.626
 21
-10.776
 72
1
 10
107.626
 20
-10.776
 11
107.620
 21
-10.649
 72
1
 10
107.620
 20
-10.649
 11
107.610
 21
-10.518
 72
1
 10
107.610
 20
-10.518
 11
107.600
 21
-10.382
 72
1
 10
107.600
 20
-10.382
 11
107.590
 21
-10.241
 72
1
 10
107.590
 20
-10.241
 11
107.582
 21
-10.092
 72
1
 10
107.582
 20
-10.092
 11
107.579
 21
-9.936
 72
1
 10
107.579
 20
-9.936
 11
107.567
 21
-9.779
 72
1
 10
107.567
 20
-9.779
 11
107.534
 21
-9.631
 72
1
 10
107.534
 20
-9.631
 11
107.483
 21
-9.490
 72
1
 10
107.483
 20
-9.490
 11
107.421
 21
-9.357
 72
1
 10
107.421
 20
-9.357
 11
107.351
 21
-9.229
 72
1
 10
107.351
 20
-9.229
 11
107.277
 21
-9.106
 72
1
 10
107.277
 20
-9.106
 11
107.205
 21
-8.987
 72
1
 10
107.205
 20
-8.987
 11
107.139
 21
-8.871
 72
1
 10
107.139
 20
-8.871
 11
107.082
 21
-8.757
 72
1
 10
107.082
 20
-8.757
 11
107.041
 21
-8.644
 72
1
 10
107.041
 20
-8.644
 11
107.025
 21
-8.589
 72
1
 10
107.025
 20
-8.589
 11
106.990
 21
-8.490
 72
1
 10
106.990
 20
-8.490
 11
106.934
 21
-8.359
 72
1
 10
106.934
 20
-8.359
 11
106.878
 21
-8.235
 72
1
 10
106.878
 20
-8.235
 11
106.824
 21
-8.105
 72
1
 10
106.824
 20
-8.105
 11
106.791
 21
-8.008
 72
1
 10
106.791
 20
-8.008
 11
106.762
 21
-7.898
 72
1
 10
106.762
 20
-7.898
 11
106.738
 21
-7.771
 72
1
 10
106.738
 20
-7.771
 11
106.718
 21
-7.622
 72
1
 10
106.718
 20
-7.622
 11
106.718
 21
-7.480
 72
1
 10
106.718
 20
-7.480
 11
106.766
 21
-7.333
 72
1
 10
106.766
 20
-7.333
 11
106.860
 21
-7.246
 72
1
 10
106.860
 20
-7.246
 11
106.984
 21
-7.198
 72
1
 10
106.984
 20
-7.198
 11
107.120
 21
-7.169
 72
1
 10
107.120
 20
-7.169
 11
107.252
 21
-7.138
 72
1
 10
107.252
 20
-7.138
 11
107.364
 21
-7.083
 72
1
 10
107.364
 20
-7.083
 11
107.430
 21
-7.021
 72
1
 10
107.430
 20
-7.021
 11
107.498
 21
-6.933
 72
1
 10
107.498
 20
-6.933
 11
107.567
 21
-6.822
 72
1
 10
107.567
 20
-6.822
 11
107.634
 21
-6.692
 72
1
 10
107.634
 20
-6.692
 11
107.700
 21
-6.545
 72
1
 10
107.700
 20
-6.545
 11
107.763
 21
-6.386
 72
1
 10
107.763
 20
-6.386
 11
107.821
 21
-6.217
 72
1
 10
107.821
 20
-6.217
 11
107.874
 21
-6.042
 72
1
 10
107.874
 20
-6.042
 11
107.919
 21
-5.863
 72
1
 10
107.919
 20
-5.863
 11
107.956
 21
-5.684
 72
1
 10
107.956
 20
-5.684
 11
107.969
 21
-5.588
 72
1
 10
107.969
 20
-5.588
 11
107.976
 21
-5.477
 72
1
 10
107.976
 20
-5.477
 11
107.978
 21
-5.354
 72
1
 10
107.978
 20
-5.354
 11
107.975
 21
-5.220
 72
1
 10
107.975
 20
-5.220
 11
107.968
 21
-5.078
 72
1
 10
107.968
 20
-5.078
 11
107.957
 21
-4.929
 72
1
 10
107.957
 20
-4.929
 11
107.943
 21
-4.776
 72
1
 10
107.943
 20
-4.776
 11
107.927
 21
-4.619
 72
1
 10
107.927
 20
-4.619
 11
107.908
 21
-4.462
 72
1
 10
107.908
 20
-4.462
 11
107.889
 21
-4.305
 72
1
 10
107.889
 20
-4.305
 11
107.868
 21
-4.152
 72
1
 10
107.868
 20
-4.152
 11
107.848
 21
-4.003
 72
1
 10
107.848
 20
-4.003
 11
107.827
 21
-3.860
 72
1
 10
107.827
 20
-3.860
 11
107.808
 21
-3.727
 72
1
 10
107.808
 20
-3.727
 11
107.790
 21
-3.603
 72
1
 10
107.790
 20
-3.603
 11
107.773
 21
-3.492
 72
1
 10
107.773
 20
-3.492
 11
107.750
 21
-3.314
 72
1
 10
107.750
 20
-3.314
 11
107.741
 21
-3.209
 72
1
 10
107.741
 20
-3.209
 11
109.570
 21
-2.563
 72
1
 10
109.570
 20
-2.563
 11
109.566
 21
-2.586
 72
1
 10
109.566
 20
-2.586
 11
109.545
 21
-2.693
 72
1
 10
109.545
 20
-2.693
 11
109.525
 21
-2.800
 72
1
 10
109.525
 20
-2.800
 11
109.502
 21
-2.926
 72
1
 10
109.502
 20
-2.926
 11
109.478
 21
-3.063
 72
1
 10
109.478
 20
-3.063
 11
109.454
 21
-3.202
 72
1
 10
109.454
 20
-3.202
 11
109.434
 21
-3.335
 72
1
 10
109.434
 20
-3.335
 11
109.419
 21
-3.453
 72
1
 10
109.419
 20
-3.453
 11
109.409
 21
-3.585
 72
1
 10
109.409
 20
-3.585
 11
109.417
 21
-3.675
 72
1
 10
109.417
 20
-3.675
 11
109.437
 21
-3.808
 72
1
 10
109.437
 20
-3.808
 11
109.467
 21
-3.971
 72
1
 10
109.467
 20
-3.971
 11
109.504
 21
-4.152
 72
1
 10
109.504
 20
-4.152
 11
109.544
 21
-4.339
 72
1
 10
109.544
 20
-4.339
 11
109.583
 21
-4.519
 72
1
 10
109.583
 20
-4.519
 11
109.620
 21
-4.681
 72
1
 10
109.620
 20
-4.681
 11
109.650
 21
-4.812
 72
1
 10
109.650
 20
-4.812
 11
109.678
 21
-4.931
 72
1
 10
109.678
 20
-4.931
 11
109.692
 21
-4.939
 72
1
 10
109.692
 20
-4.939
 11
109.788
 21
-4.993
 72
1
 10
109.788
 20
-4.993
 11
109.904
 21
-5.060
 72
1
 10
109.904
 20
-5.060
 11
109.992
 21
-5.112
 72
1
 10
109.992
 20
-5.112
 11
110.085
 21
-5.168
 72
1
 10
110.085
 20
-5.168
 11
110.178
 21
-5.226
 72
1
 10
110.178
 20
-5.226
 11
110.265
 21
-5.283
 72
1
 10
110.265
 20
-5.283
 11
110.378
 21
-5.361
 72
1
 10
110.378
 20
-5.361
 11
110.408
 21
-5.391
 72
1
 10
110.408
 20
-5.391
 11
110.454
 21
-5.480
 72
1
 10
110.454
 20
-5.480
 11
110.486
 21
-5.602
 72
1
 10
110.486
 20
-5.602
 11
110.506
 21
-5.748
 72
1
 10
110.506
 20
-5.748
 11
110.516
 21
-5.909
 72
1
 10
110.516
 20
-5.909
 11
110.520
 21
-6.079
 72
1
 10
110.520
 20
-6.079
 11
110.521
 21
-6.247
 72
1
 10
110.521
 20
-6.247
 11
110.521
 21
-6.406
 72
1
 10
110.521
 20
-6.406
 11
110.524
 21
-6.547
 72
1
 10
110.524
 20
-6.547
 11
110.539
 21
-6.707
 72
1
 10
110.539
 20
-6.707
 11
110.547
 21
-6.745
 72
1
 10
110.547
 20
-6.745
 11
110.578
 21
-6.866
 72
1
 10
110.578
 20
-6.866
 11
110.628
 21
-6.956
 72
1
 10
110.628
 20
-6.956
 11
110.724
 21
-7.038
 72
1
 10
110.724
 20
-7.038
 11
110.840
 21
-7.111
 72
1
 10
110.840
 20
-7.111
 11
110.946
 21
-7.172
 72
1
 10
110.946
 20
-7.172
 11
111.077
 21
-7.245
 72
1
 10
111.077
 20
-7.245
 11
111.195
 21
-7.315
 72
1
 10
111.195
 20
-7.315
 11
111.291
 21
-7.404
 72
1
 10
111.291
 20
-7.404
 11
111.217
 21
-7.473
 72
1
 10
111.217
 20
-7.473
 11
111.124
 21
-7.526
 72
1
 10
111.124
 20
-7.526
 11
111.077
 21
-7.622
 72
1
 10
111.077
 20
-7.622
 11
111.087
 21
-7.713
 72
1
 10
111.087
 20
-7.713
 11
111.113
 21
-7.853
 72
1
 10
111.113
 20
-7.853
 11
111.154
 21
-8.029
 72
1
 10
111.154
 20
-8.029
 11
111.180
 21
-8.127
 72
1
 10
111.180
 20
-8.127
 11
111.208
 21
-8.231
 72
1
 10
111.208
 20
-8.231
 11
111.239
 21
-8.339
 72
1
 10
111.239
 20
-8.339
 11
111.272
 21
-8.449
 72
1
 10
111.272
 20
-8.449
 11
111.308
 21
-8.560
 72
1
 10
111.308
 20
-8.560
 11
111.345
 21
-8.672
 72
1
 10
111.345
 20
-8.672
 11
111.383
 21
-8.781
 72
1
 10
111.383
 20
-8.781
 11
111.423
 21
-8.888
 72
1
 10
111.423
 20
-8.888
 11
111.463
 21
-8.991
 72
1
 10
111.463
 20
-8.991
 11
111.504
 21
-9.089
 72
1
 10
111.504
 20
-9.089
 11
111.587
 21
-9.262
 72
1
 10
111.587
 20
-9.262
 11
111.669
 21
-9.397
 72
1
 10
111.669
 20
-9.397
 11
111.744
 21
-9.500
 72
1
 10
111.744
 20
-9.500
 11
111.806
 21
-9.584
 72
1
 10
111.806
 20
-9.584
 11
111.882
 21
-9.684
 72
1
 10
111.882
 20
-9.684
 11
111.938
 21
-9.767
 72
1
 10
111.938
 20
-9.767
 11
111.992
 21
-9.875
 72
1
 10
111.992
 20
-9.875
 11
112.021
 21
-9.971
 72
1
 10
112.021
 20
-9.971
 11
112.046
 21
-10.097
 72
1
 10
112.046
 20
-10.097
 11
112.059
 21
-10.187
 72
1
 10
112.059
 20
-10.187
 11
112.072
 21
-10.301
 72
1
 10
112.072
 20
-10.301
 11
112.083
 21
-10.407
 72
1
 10
112.083
 20
-10.407
 11
112.100
 21
-10.520
 72
1
 10
112.100
 20
-10.520
 11
112.130
 21
-10.656
 72
1
 10
112.130
 20
-10.656
 11
112.161
 21
-10.769
 72
1
 10
112.161
 20
-10.769
 11
112.204
 21
-10.903
 72
1
 10
112.204
 20
-10.903
 11
112.261
 21
-11.066
 72
1
 10
112.261
 20
-11.066
 11
112.296
 21
-11.150
 72
1
 10
112.296
 20
-11.150
 11
112.377
 21
-11.297
 72
1
 10
112.377
 20
-11.297
 11
112.470
 21
-11.416
 72
1
 10
112.470
 20
-11.416
 11
112.569
 21
-11.510
 72
1
 10
112.569
 20
-11.510
 11
112.669
 21
-11.582
 72
1
 10
112.669
 20
-11.582
 11
112.766
 21
-11.635
 72
1
 10
112.766
 20
-11.635
 11
112.892
 21
-11.684
 72
1
 10
112.892
 20
-11.684
 11
113.014
 21
-11.711
 72
1
 10
113.014
 20
-11.711
 11
113.284
 21
-12.519
 72
1
 10
113.284
 20
-12.519
 11
113.660
 21
-12.895
 72
1
 10
113.660
 20
-12.895
 11
113.665
 21
-12.918
 72
1
 10
113.665
 20
-12.918
 11
113.688
 21
-13.025
 72
1
 10
113.688
 20
-13.025
 11
113.713
 21
-13.132
 72
1
 10
113.713
 20
-13.132
 11
113.744
 21
-13.258
 72
1
 10
113.744
 20
-13.258
 11
113.780
 21
-13.395
 72
1
 10
113.780
 20
-13.395
 11
113.821
 21
-13.534
 72
1
 10
113.821
 20
-13.534
 11
113.865
 21
-13.667
 72
1
 10
113.865
 20
-13.667
 11
113.911
 21
-13.786
 72
1
 10
113.911
 20
-13.786
 11
113.983
 21
-13.918
 72
1
 10
113.983
 20
-13.918
 11
114.007
 21
-13.954
 72
1
 10
114.007
 20
-13.954
 11
114.055
 21
-14.044
 72
1
 10
114.055
 20
-14.044
 11
114.102
 21
-14.156
 72
1
 10
114.102
 20
-14.156
 11
114.146
 21
-14.282
 72
1
 10
114.146
 20
-14.282
 11
114.186
 21
-14.419
 72
1
 10
114.186
 20
-14.419
 11
114.223
 21
-14.560
 72
1
 10
114.223
 20
-14.560
 11
114.254
 21
-14.700
 72
1
 10
114.254
 20
-14.700
 11
114.278
 21
-14.833
 72
1
 10
114.278
 20
-14.833
 11
114.296
 21
-14.955
 72
1
 10
114.296
 20
-14.955
 11
114.306
 21
-15.102
 72
1
 10
114.306
 20
-15.102
 11
114.289
 21
-15.239
 72
1
 10
114.289
 20
-15.239
 11
114.263
 21
-15.345
 72
1
 10
114.263
 20
-15.345
 11
114.228
 21
-15.460
 72
1
 10
114.228
 20
-15.460
 11
114.187
 21
-15.579
 72
1
 10
114.187
 20
-15.579
 11
114.142
 21
-15.700
 72
1
 10
114.142
 20
-15.700
 11
114.098
 21
-15.820
 72
1
 10
114.098
 20
-15.820
 11
114.056
 21
-15.934
 72
1
 10
114.056
 20
-15.934
 11
114.020
 21
-16.040
 72
1
 10
114.020
 20
-16.040
 11
113.983
 21
-16.178
 72
1
 10
113.983
 20
-16.178
 11
113.970
 21
-16.266
 72
1
 10
113.970
 20
-16.266
 11
113.962
 21
-16.369
 72
1
 10
113.962
 20
-16.369
 11
113.959
 21
-16.483
 72
1
 10
113.959
 20
-16.483
 11
113.960
 21
-16.606
 72
1
 10
113.960
 20
-16.606
 11
113.963
 21
-16.736
 72
1
 10
113.963
 20
-16.736
 11
113.968
 21
-16.871
 72
1
 10
113.968
 20
-16.871
 11
113.973
 21
-17.009
 72
1
 10
113.973
 20
-17.009
 11
113.978
 21
-17.147
 72
1
 10
113.978
 20
-17.147
 11
113.982
 21
-17.284
 72
1
 10
113.982
 20
-17.284
 11
113.983
 21
-17.416
 72
1
 10
113.983
 20
-17.416
 11
113.983
 21
-17.534
 72
1
 10
113.983
 20
-17.534
 11
113.985
 21
-17.635
 72
1
 10
113.985
 20
-17.635
 11
113.992
 21
-17.761
 72
1
 10
113.992
 20
-17.761
 11
114.010
 21
-17.873
 72
1
 10
114.010
 20
-17.873
 11
114.042
 21
-17.985
 72
1
 10
114.042
 20
-17.985
 11
114.093
 21
-18.111
 72
1
 10
114.093
 20
-18.111
 11
114.140
 21
-18.212
 72
1
 10
114.140
 20
-18.212
 11
114.198
 21
-18.330
 72
1
 10
114.198
 20
-18.330
 11
114.258
 21
-18.451
 72
1
 10
114.258
 20
-18.451
 11
114.309
 21
-18.555
 72
1
 10
114.309
 20
-18.555
 11
114.370
 21
-18.691
 72
1
 10
114.370
 20
-18.691
 11
114.414
 21
-18.815
 72
1
 10
114.414
 20
-18.815
 11
114.443
 21
-18.938
 72
1
 10
114.443
 20
-18.938
 11
114.460
 21
-19.074
 72
1
 10
114.460
 20
-19.074
 11
114.466
 21
-19.179
 72
1
 10
114.466
 20
-19.179
 11
114.467
 21
-19.299
 72
1
 10
114.467
 20
-19.299
 11
114.467
 21
-19.362
 72
1
 10
114.467
 20
-19.362
 11
114.468
 21
-19.479
 72
1
 10
114.468
 20
-19.479
 11
114.468
 21
-19.586
 72
1
 10
114.468
 20
-19.586
 11
114.471
 21
-19.730
 72
1
 10
114.471
 20
-19.730
 11
114.476
 21
-19.859
 72
1
 10
114.476
 20
-19.859
 11
114.486
 21
-19.979
 72
1
 10
114.486
 20
-19.979
 11
114.501
 21
-20.095
 72
1
 10
114.501
 20
-20.095
 11
114.521
 21
-20.214
 72
1
 10
114.521
 20
-20.214
 11
114.552
 21
-20.329
 72
1
 10
114.552
 20
-20.329
 11
114.591
 21
-20.440
 72
1
 10
114.591
 20
-20.440
 11
114.635
 21
-20.556
 72
1
 10
114.635
 20
-20.556
 11
114.676
 21
-20.687
 72
1
 10
114.676
 20
-20.687
 11
114.700
 21
-20.787
 72
1
 10
114.700
 20
-20.787
 11
114.719
 21
-20.901
 72
1
 10
114.719
 20
-20.901
 11
114.732
 21
-21.032
 72
1
 10
114.732
 20
-21.032
 11
114.737
 21
-21.182
 72
1
 10
114.737
 20
-21.182
 11
114.733
 21
-21.339
 72
1
 10
114.733
 20
-21.339
 11
114.725
 21
-21.486
 72
1
 10
114.725
 20
-21.486
 11
114.712
 21
-21.625
 72
1
 10
114.712
 20
-21.625
 11
114.695
 21
-21.754
 72
1
 10
114.695
 20
-21.754
 11
114.676
 21
-21.875
 72
1
 10
114.676
 20
-21.875
 11
114.655
 21
-21.988
 72
1
 10
114.655
 20
-21.988
 11
114.634
 21
-22.094
 72
1
 10
114.634
 20
-22.094
 11
114.602
 21
-22.238
 72
1
 10
114.602
 20
-22.238
 11
114.575
 21
-22.366
 72
1
 10
114.575
 20
-22.366
 11
114.566
 21
-22.417
 72
1
 10
114.566
 20
-22.417
 11
114.545
 21
-22.574
 72
1
 10
114.545
 20
-22.574
 11
114.533
 21
-22.678
 72
1
 10
114.533
 20
-22.678
 11
114.521
 21
-22.795
 72
1
 10
114.521
 20
-22.795
 11
114.509
 21
-22.925
 72
1
 10
114.509
 20
-22.925
 11
114.498
 21
-23.066
 72
1
 10
114.498
 20
-23.066
 11
114.486
 21
-23.216
 72
1
 10
114.486
 20
-23.216
 11
114.476
 21
-23.374
 72
1
 10
114.476
 20
-23.374
 11
114.467
 21
-23.537
 72
1
 10
114.467
 20
-23.537
 11
114.460
 21
-23.704
 72
1
 10
114.460
 20
-23.704
 11
114.455
 21
-23.874
 72
1
 10
114.455
 20
-23.874
 11
114.452
 21
-24.044
 72
1
 10
114.452
 20
-24.044
 11
114.452
 21
-24.213
 72
1
 10
114.452
 20
-24.213
 11
114.454
 21
-24.379
 72
1
 10
114.454
 20
-24.379
 11
114.460
 21
-24.541
 72
1
 10
114.460
 20
-24.541
 11
114.469
 21
-24.697
 72
1
 10
114.469
 20
-24.697
 11
114.482
 21
-24.845
 72
1
 10
114.482
 20
-24.845
 11
114.499
 21
-24.984
 72
1
 10
114.499
 20
-24.984
 11
114.521
 21
-25.111
 72
1
 10
114.521
 20
-25.111
 11
114.545
 21
-25.230
 72
1
 10
114.545
 20
-25.230
 11
114.567
 21
-25.346
 72
1
 10
114.567
 20
-25.346
 11
114.587
 21
-25.458
 72
1
 10
114.587
 20
-25.458
 11
114.607
 21
-25.568
 72
1
 10
114.607
 20
-25.568
 11
114.626
 21
-25.677
 72
1
 10
114.626
 20
-25.677
 11
114.643
 21
-25.784
 72
1
 10
114.643
 20
-25.784
 11
114.661
 21
-25.890
 72
1
 10
114.661
 20
-25.890
 11
114.677
 21
-25.995
 72
1
 10
114.677
 20
-25.995
 11
114.694
 21
-26.101
 72
1
 10
114.694
 20
-26.101
 11
114.710
 21
-26.207
 72
1
 10
114.710
 20
-26.207
 11
114.726
 21
-26.315
 72
1
 10
114.726
 20
-26.315
 11
114.742
 21
-26.424
 72
1
 10
114.742
 20
-26.424
 11
114.759
 21
-26.536
 72
1
 10
114.759
 20
-26.536
 11
114.776
 21
-26.650
 72
1
 10
114.776
 20
-26.650
 11
114.794
 21
-26.768
 72
1
 10
114.794
 20
-26.768
 11
114.812
 21
-26.890
 72
1
 10
114.812
 20
-26.890
 11
114.832
 21
-27.016
 72
1
 10
114.832
 20
-27.016
 11
114.853
 21
-27.146
 72
1
 10
114.853
 20
-27.146
 11
114.875
 21
-27.283
 72
1
 10
114.875
 20
-27.283
 11
114.898
 21
-27.425
 72
1
 10
114.898
 20
-27.425
 11
114.921
 21
-27.565
 72
1
 10
114.921
 20
-27.565
 11
114.942
 21
-27.694
 72
1
 10
114.942
 20
-27.694
 11
114.960
 21
-27.814
 72
1
 10
114.960
 20
-27.814
 11
114.977
 21
-27.925
 72
1
 10
114.977
 20
-27.925
 11
115.004
 21
-28.124
 72
1
 10
115.004
 20
-28.124
 11
115.025
 21
-28.298
 72
1
 10
115.025
 20
-28.298
 11
115.039
 21
-28.454
 72
1
 10
115.039
 20
-28.454
 11
115.049
 21
-28.599
 72
1
 10
115.049
 20
-28.599
 11
115.055
 21
-28.739
 72
1
 10
115.055
 20
-28.739
 11
115.058
 21
-28.882
 72
1
 10
115.058
 20
-28.882
 11
115.059
 21
-29.033
 72
1
 10
115.059
 20
-29.033
 11
115.060
 21
-29.201
 72
1
 10
115.060
 20
-29.201
 11
115.006
 21
-29.174
 72
1
 10
115.006
 20
-29.174
 11
114.947
 21
-29.181
 72
1
 10
114.947
 20
-29.181
 11
114.846
 21
-29.193
 72
1
 10
114.846
 20
-29.193
 11
114.716
 21
-29.209
 72
1
 10
114.716
 20
-29.209
 11
114.580
 21
-29.226
 72
1
 10
114.580
 20
-29.226
 11
114.456
 21
-29.241
 72
1
 10
114.456
 20
-29.241
 11
114.347
 21
-29.254
 72
1
 10
114.347
 20
-29.254
 11
114.234
 21
-29.269
 72
1
 10
114.234
 20
-29.269
 11
114.102
 21
-29.288
 72
1
 10
114.102
 20
-29.288
 11
113.938
 21
-29.310
 72
1
 10
113.938
 20
-29.310
 11
113.756
 21
-29.334
 72
1
 10
113.756
 20
-29.334
 11
113.568
 21
-29.360
 72
1
 10
113.568
 20
-29.360
 11
113.387
 21
-29.383
 72
1
 10
113.387
 20
-29.383
 11
113.225
 21
-29.404
 72
1
 10
113.225
 20
-29.404
 11
113.095
 21
-29.420
 72
1
 10
113.095
 20
-29.420
 11
112.988
 21
-29.429
 72
1
 10
112.988
 20
-29.429
 11
112.910
 21
-29.424
 72
1
 10
112.910
 20
-29.424
 11
112.777
 21
-29.411
 72
1
 10
112.777
 20
-29.411
 11
112.668
 21
-29.399
 72
1
 10
112.668
 20
-29.399
 11
112.550
 21
-29.386
 72
1
 10
112.550
 20
-29.386
 11
112.432
 21
-29.371
 72
1
 10
112.432
 20
-29.371
 11
112.318
 21
-29.357
 72
1
 10
112.318
 20
-29.357
 11
112.216
 21
-29.343
 72
1
 10
112.216
 20
-29.343
 11
112.073
 21
-29.322
 72
1
 10
112.073
 20
-29.322
 11
112.047
 21
-29.313
 72
1
 10
112.047
 20
-29.313
 11
111.938
 21
-29.242
 72
1
 10
111.938
 20
-29.242
 11
111.846
 21
-29.165
 72
1
 10
111.846
 20
-29.165
 11
111.743
 21
-29.073
 72
1
 10
111.743
 20
-29.073
 11
111.637
 21
-28.975
 72
1
 10
111.637
 20
-28.975
 11
111.533
 21
-28.878
 72
1
 10
111.533
 20
-28.878
 11
111.437
 21
-28.789
 72
1
 10
111.437
 20
-28.789
 11
111.354
 21
-28.716
 72
1
 10
111.354
 20
-28.716
 11
111.252
 21
-28.649
 72
1
 10
111.252
 20
-28.649
 11
111.211
 21
-28.650
 72
1
 10
111.211
 20
-28.650
 11
111.095
 21
-28.652
 72
1
 10
111.095
 20
-28.652
 11
110.994
 21
-28.654
 72
1
 10
110.994
 20
-28.654
 11
110.883
 21
-28.657
 72
1
 10
110.883
 20
-28.657
 11
110.768
 21
-28.661
 72
1
 10
110.768
 20
-28.661
 11
110.658
 21
-28.666
 72
1
 10
110.658
 20
-28.666
 11
110.518
 21
-28.675
 72
1
 10
110.518
 20
-28.675
 11
110.418
 21
-28.689
 72
1
 10
110.418
 20
-28.689
 11
110.359
 21
-28.707
 72
1
 10
110.359
 20
-28.707
 11
110.237
 21
-28.732
 72
1
 10
110.237
 20
-28.732
 11
110.127
 21
-28.753
 72
1
 10
110.127
 20
-28.753
 11
109.998
 21
-28.775
 72
1
 10
109.998
 20
-28.775
 11
109.853
 21
-28.799
 72
1
 10
109.853
 20
-28.799
 11
109.697
 21
-28.823
 72
1
 10
109.697
 20
-28.823
 11
109.533
 21
-28.847
 72
1
 10
109.533
 20
-28.847
 11
109.364
 21
-28.870
 72
1
 10
109.364
 20
-28.870
 11
109.194
 21
-28.891
 72
1
 10
109.194
 20
-28.891
 11
109.041
 21
-28.907
 72
1
 10
109.041
 20
-28.907
 11
108.916
 21
-28.914
 72
1
 10
108.916
 20
-28.914
 11
108.814
 21
-28.913
 72
1
 10
108.814
 20
-28.913
 11
108.691
 21
-28.900
 72
1
 10
108.691
 20
-28.900
 11
108.584
 21
-28.876
 72
1
 10
108.584
 20
-28.876
 11
108.473
 21
-28.844
 72
1
 10
108.473
 20
-28.844
 11
108.338
 21
-28.808
 72
1
 10
108.338
 20
-28.808
 11
108.225
 21
-28.784
 72
1
 10
108.225
 20
-28.784
 11
108.105
 21
-28.766
 72
1
 10
108.105
 20
-28.766
 11
107.994
 21
-28.762
 72
1
 10
107.994
 20
-28.762
 11
107.889
 21
-28.767
 72
1
 10
107.889
 20
-28.767
 11
107.740
 21
-28.791
 72
1
 10
107.740
 20
-28.791
 11
107.597
 21
-28.827
 72
1
 10
107.597
 20
-28.827
 11
107.500
 21
-28.855
 72
1
 10
107.500
 20
-28.855
 11
107.402
 21
-28.883
 72
1
 10
107.402
 20
-28.883
 11
107.299
 21
-28.909
 72
1
 10
107.299
 20
-28.909
 11
107.189
 21
-28.932
 72
1
 10
107.189
 20
-28.932
 11
107.118
 21
-28.945
 72
1
 10
107.118
 20
-28.945
 11
107.018
 21
-28.964
 72
1
 10
107.018
 20
-28.964
 11
106.893
 21
-28.989
 72
1
 10
106.893
 20
-28.989
 11
106.747
 21
-29.018
 72
1
 10
106.747
 20
-29.018
 11
106.582
 21
-29.050
 72
1
 10
106.582
 20
-29.050
 11
106.403
 21
-29.086
 72
1
 10
106.403
 20
-29.086
 11
106.212
 21
-29.125
 72
1
 10
106.212
 20
-29.125
 11
106.012
 21
-29.164
 72
1
 10
106.012
 20
-29.164
 11
105.808
 21
-29.205
 72
1
 10
105.808
 20
-29.205
 11
105.602
 21
-29.246
 72
1
 10
105.602
 20
-29.246
 11
105.397
 21
-29.287
 72
1
 10
105.397
 20
-29.287
 11
105.198
 21
-29.326
 72
1
 10
105.198
 20
-29.326
 11
105.006
 21
-29.363
 72
1
 10
105.006
 20
-29.363
 11
104.827
 21
-29.398
 72
1
 10
104.827
 20
-29.398
 11
104.662
 21
-29.429
 72
1
 10
104.662
 20
-29.429
 11
104.515
 21
-29.456
 72
1
 10
104.515
 20
-29.456
 11
104.390
 21
-29.479
 72
1
 10
104.390
 20
-29.479
 11
104.289
 21
-29.496
 72
1
 10
104.289
 20
-29.496
 11
104.176
 21
-29.510
 72
1
 10
104.176
 20
-29.510
 11
102.267
 21
-29.515
 72
1
 10
102.267
 20
-29.515
 11
100.022
 21
-29.610
 72
1
 10
100.022
 20
-29.610
 11
99.948
 21
-29.615
 72
1
 10
99.948
 20
-29.615
 11
99.846
 21
-29.626
 72
1
 10
99.846
 20
-29.626
 11
99.720
 21
-29.640
 72
1
 10
99.720
 20
-29.640
 11
99.575
 21
-29.659
 72
1
 10
99.575
 20
-29.659
 11
99.418
 21
-29.680
 72
1
 10
99.418
 20
-29.680
 11
99.252
 21
-29.703
 72
1
 10
99.252
 20
-29.703
 11
99.083
 21
-29.727
 72
1
 10
99.083
 20
-29.727
 11
98.917
 21
-29.752
 72
1
 10
98.917
 20
-29.752
 11
98.759
 21
-29.777
 72
1
 10
98.759
 20
-29.777
 11
98.614
 21
-29.800
 72
1
 10
98.614
 20
-29.800
 11
98.530
 21
-29.811
 72
1
 10
98.530
 20
-29.811
 11
98.418
 21
-29.820
 72
1
 10
98.418
 20
-29.820
 11
98.281
 21
-29.828
 72
1
 10
98.281
 20
-29.828
 11
98.124
 21
-29.834
 72
1
 10
98.124
 20
-29.834
 11
97.948
 21
-29.839
 72
1
 10
97.948
 20
-29.839
 11
97.759
 21
-29.842
 72
1
 10
97.759
 20
-29.842
 11
97.559
 21
-29.845
 72
1
 10
97.559
 20
-29.845
 11
97.352
 21
-29.847
 72
1
 10
97.352
 20
-29.847
 11
97.141
 21
-29.848
 72
1
 10
97.141
 20
-29.848
 11
96.930
 21
-29.848
 72
1
 10
96.930
 20
-29.848
 11
96.722
 21
-29.848
 72
1
 10
96.722
 20
-29.848
 11
96.522
 21
-29.847
 72
1
 10
96.522
 20
-29.847
 11
96.332
 21
-29.846
 72
1
 10
96.332
 20
-29.846
 11
96.156
 21
-29.845
 72
1
 10
96.156
 20
-29.845
 11
95.997
 21
-29.843
 72
1
 10
95.997
 20
-29.843
 11
95.859
 21
-29.842
 72
1
 10
95.859
 20
-29.842
 11
95.746
 21
-29.841
 72
1
 10
95.746
 20
-29.841
 11
95.589
 21
-29.838
 72
1
 10
95.589
 20
-29.838
 11
95.571
 21
-29.839
 72
1
 10
95.571
 20
-29.839
 11
95.441
 21
-29.843
 72
1
 10
95.441
 20
-29.843
 11
95.336
 21
-29.846
 72
1
 10
95.336
 20
-29.846
 11
95.208
 21
-29.850
 72
1
 10
95.208
 20
-29.850
 11
95.061
 21
-29.855
 72
1
 10
95.061
 20
-29.855
 11
94.900
 21
-29.860
 72
1
 10
94.900
 20
-29.860
 11
94.726
 21
-29.865
 72
1
 10
94.726
 20
-29.865
 11
94.544
 21
-29.871
 72
1
 10
94.544
 20
-29.871
 11
94.357
 21
-29.877
 72
1
 10
94.357
 20
-29.877
 11
94.168
 21
-29.882
 72
1
 10
94.168
 20
-29.882
 11
93.982
 21
-29.888
 72
1
 10
93.982
 20
-29.888
 11
93.801
 21
-29.893
 72
1
 10
93.801
 20
-29.893
 11
93.629
 21
-29.898
 72
1
 10
93.629
 20
-29.898
 11
93.469
 21
-29.903
 72
1
 10
93.469
 20
-29.903
 11
93.326
 21
-29.907
 72
1
 10
93.326
 20
-29.907
 11
93.202
 21
-29.910
 72
1
 10
93.202
 20
-29.910
 11
93.101
 21
-29.913
 72
1
 10
93.101
 20
-29.913
 11
92.982
 21
-29.915
 72
1
 10
92.982
 20
-29.915
 11
92.941
 21
-29.914
 72
1
 10
92.941
 20
-29.914
 11
92.788
 21
-29.910
 72
1
 10
92.788
 20
-29.910
 11
92.680
 21
-29.906
 72
1
 10
92.680
 20
-29.906
 11
92.554
 21
-29.902
 72
1
 10
92.554
 20
-29.902
 11
92.412
 21
-29.897
 72
1
 10
92.412
 20
-29.897
 11
92.255
 21
-29.892
 72
1
 10
92.255
 20
-29.892
 11
92.086
 21
-29.887
 72
1
 10
92.086
 20
-29.887
 11
91.907
 21
-29.882
 72
1
 10
91.907
 20
-29.882
 11
91.719
 21
-29.876
 72
1
 10
91.719
 20
-29.876
 11
91.525
 21
-29.871
 72
1
 10
91.525
 20
-29.871
 11
91.326
 21
-29.866
 72
1
 10
91.326
 20
-29.866
 11
91.124
 21
-29.862
 72
1
 10
91.124
 20
-29.862
 11
90.922
 21
-29.858
 72
1
 10
90.922
 20
-29.858
 11
90.721
 21
-29.855
 72
1
 10
90.721
 20
-29.855
 11
90.523
 21
-29.853
 72
1
 10
90.523
 20
-29.853
 11
90.331
 21
-29.853
 72
1
 10
90.331
 20
-29.853
 11
90.146
 21
-29.853
 72
1
 10
90.146
 20
-29.853
 11
89.969
 21
-29.855
 72
1
 10
89.969
 20
-29.855
 11
89.804
 21
-29.858
 72
1
 10
89.804
 20
-29.858
 11
89.687
 21
-29.861
 72
1
 10
89.687
 20
-29.861
 11
89.559
 21
-29.866
 72
1
 10
89.559
 20
-29.866
 11
89.424
 21
-29.873
 72
1
 10
89.424
 20
-29.873
 11
89.283
 21
-29.881
 72
1
 10
89.283
 20
-29.881
 11
89.137
 21
-29.889
 72
1
 10
89.137
 20
-29.889
 11
88.989
 21
-29.899
 72
1
 10
88.989
 20
-29.899
 11
88.839
 21
-29.909
 72
1
 10
88.839
 20
-29.909
 11
88.690
 21
-29.919
 72
1
 10
88.690
 20
-29.919
 11
88.544
 21
-29.930
 72
1
 10
88.544
 20
-29.930
 11
88.401
 21
-29.941
 72
1
 10
88.401
 20
-29.941
 11
88.264
 21
-29.951
 72
1
 10
88.264
 20
-29.951
 11
88.134
 21
-29.962
 72
1
 10
88.134
 20
-29.962
 11
88.013
 21
-29.971
 72
1
 10
88.013
 20
-29.971
 11
87.903
 21
-29.980
 72
1
 10
87.903
 20
-29.980
 11
87.721
 21
-29.996
 72
1
 10
87.721
 20
-29.996
 11
87.559
 21
-30.010
 72
1
 10
87.559
 20
-30.010
 11
87.597
 21
-29.991
 72
1
 10
87.597
 20
-29.991
 11
87.578
 21
-29.973
 72
1
 10
87.578
 20
-29.973
 11
87.487
 21
-29.891
 72
1
 10
87.487
 20
-29.891
 11
87.394
 21
-29.810
 72
1
 10
87.394
 20
-29.810
 11
87.284
 21
-29.715
 72
1
 10
87.284
 20
-29.715
 11
87.163
 21
-29.614
 72
1
 10
87.163
 20
-29.614
 11
87.038
 21
-29.514
 72
1
 10
87.038
 20
-29.514
 11
86.915
 21
-29.421
 72
1
 10
86.915
 20
-29.421
 11
86.802
 21
-29.343
 72
1
 10
86.802
 20
-29.343
 11
86.665
 21
-29.268
 72
1
 10
86.665
 20
-29.268
 11
86.589
 21
-29.244
 72
1
 10
86.589
 20
-29.244
 11
86.467
 21
-29.221
 72
1
 10
86.467
 20
-29.221
 11
86.339
 21
-29.212
 72
1
 10
86.339
 20
-29.212
 11
86.207
 21
-29.211
 72
1
 10
86.207
 20
-29.211
 11
86.073
 21
-29.213
 72
1
 10
86.073
 20
-29.213
 11
85.940
 21
-29.215
 72
1
 10
85.940
 20
-29.215
 11
85.809
 21
-29.211
 72
1
 10
85.809
 20
-29.211
 11
85.767
 21
-29.208
 72
1
 10
85.767
 20
-29.208
 11
85.643
 21
-29.201
 72
1
 10
85.643
 20
-29.201
 11
85.518
 21
-29.197
 72
1
 10
85.518
 20
-29.197
 11
85.381
 21
-29.194
 72
1
 10
85.381
 20
-29.194
 11
85.279
 21
-29.193
 72
1
 10
85.279
 20
-29.193
 11
85.165
 21
-29.192
 72
1
 10
85.165
 20
-29.192
 11
85.036
 21
-29.192
 72
1
 10
85.036
 20
-29.192
 11
84.891
 21
-29.192
 72
1
 10
84.891
 20
-29.192
 11
84.725
 21
-29.192
 72
1
 10
84.725
 20
-29.192
 11
84.560
 21
-29.194
 72
1
 10
84.560
 20
-29.194
 11
84.416
 21
-29.200
 72
1
 10
84.416
 20
-29.200
 11
84.287
 21
-29.209
 72
1
 10
84.287
 20
-29.209
 11
84.168
 21
-29.221
 72
1
 10
84.168
 20
-29.221
 11
84.054
 21
-29.235
 72
1
 10
84.054
 20
-29.235
 11
83.938
 21
-29.249
 72
1
 10
83.938
 20
-29.249
 11
83.816
 21
-29.264
 72
1
 10
83.816
 20
-29.264
 11
83.682
 21
-29.279
 72
1
 10
83.682
 20
-29.279
 11
83.530
 21
-29.293
 72
1
 10
83.530
 20
-29.293
 11
83.355
 21
-29.306
 72
1
 10
83.355
 20
-29.306
 11
83.159
 21
-29.312
 72
1
 10
83.159
 20
-29.312
 11
83.058
 21
-29.311
 72
1
 10
83.058
 20
-29.311
 11
82.954
 21
-29.309
 72
1
 10
82.954
 20
-29.309
 11
82.850
 21
-29.304
 72
1
 10
82.850
 20
-29.304
 11
82.745
 21
-29.298
 72
1
 10
82.745
 20
-29.298
 11
82.642
 21
-29.291
 72
1
 10
82.642
 20
-29.291
 11
82.539
 21
-29.282
 72
1
 10
82.539
 20
-29.282
 11
82.439
 21
-29.273
 72
1
 10
82.439
 20
-29.273
 11
82.248
 21
-29.253
 72
1
 10
82.248
 20
-29.253
 11
82.075
 21
-29.233
 72
1
 10
82.075
 20
-29.233
 11
81.926
 21
-29.215
 72
1
 10
81.926
 20
-29.215
 11
81.807
 21
-29.201
 72
1
 10
81.807
 20
-29.201
 11
81.699
 21
-29.192
 72
1
 10
81.699
 20
-29.192
 11
81.699
 21
-29.192
 72
1
 10
81.699
 20
-29.192
 11
78.180
 21
-29.325
 72
1
 10
78.180
 20
-29.325
 11
78.180
 21
-29.325
 72
1
 10
78.180
 20
-29.325
 11
78.074
 21
-29.343
 72
1
 10
78.074
 20
-29.343
 11
77.907
 21
-29.372
 72
1
 10
77.907
 20
-29.372
 11
77.801
 21
-29.391
 72
1
 10
77.801
 20
-29.391
 11
77.683
 21
-29.411
 72
1
 10
77.683
 20
-29.411
 11
77.556
 21
-29.432
 72
1
 10
77.556
 20
-29.432
 11
77.422
 21
-29.454
 72
1
 10
77.422
 20
-29.454
 11
77.283
 21
-29.477
 72
1
 10
77.283
 20
-29.477
 11
77.142
 21
-29.500
 72
1
 10
77.142
 20
-29.500
 11
77.000
 21
-29.522
 72
1
 10
77.000
 20
-29.522
 11
76.861
 21
-29.544
 72
1
 10
76.861
 20
-29.544
 11
76.726
 21
-29.564
 72
1
 10
76.726
 20
-29.564
 11
76.598
 21
-29.582
 72
1
 10
76.598
 20
-29.582
 11
76.480
 21
-29.598
 72
1
 10
76.480
 20
-29.598
 11
76.279
 21
-29.621
 72
1
 10
76.279
 20
-29.621
 11
76.144
 21
-29.629
 72
1
 10
76.144
 20
-29.629
 11
76.085
 21
-29.630
 72
1
 10
76.085
 20
-29.630
 11
75.909
 21
-29.639
 72
1
 10
75.909
 20
-29.639
 11
75.797
 21
-29.645
 72
1
 10
75.797
 20
-29.645
 11
75.673
 21
-29.654
 72
1
 10
75.673
 20
-29.654
 11
75.539
 21
-29.663
 72
1
 10
75.539
 20
-29.663
 11
75.397
 21
-29.674
 72
1
 10
75.397
 20
-29.674
 11
75.249
 21
-29.685
 72
1
 10
75.249
 20
-29.685
 11
75.099
 21
-29.697
 72
1
 10
75.099
 20
-29.697
 11
74.948
 21
-29.710
 72
1
 10
74.948
 20
-29.710
 11
74.798
 21
-29.723
 72
1
 10
74.798
 20
-29.723
 11
74.653
 21
-29.736
 72
1
 10
74.653
 20
-29.736
 11
74.515
 21
-29.749
 72
1
 10
74.515
 20
-29.749
 11
74.386
 21
-29.762
 72
1
 10
74.386
 20
-29.762
 11
74.268
 21
-29.774
 72
1
 10
74.268
 20
-29.774
 11
74.077
 21
-29.796
 72
1
 10
74.077
 20
-29.796
 11
73.937
 21
-29.820
 72
1
 10
73.937
 20
-29.820
 11
73.937
 21
-29.820
 72
1
 10
73.937
 20
-29.820
 11
71.635
 21
-29.800
 72
1
 10
71.635
 20
-29.800
 11
71.635
 21
-29.800
 72
1
 10
71.635
 20
-29.800
 11
71.633
 21
-29.801
 72
1
 10
71.633
 20
-29.801
 11
71.534
 21
-29.828
 72
1
 10
71.534
 20
-29.828
 11
71.429
 21
-29.854
 72
1
 10
71.429
 20
-29.854
 11
71.306
 21
-29.878
 72
1
 10
71.306
 20
-29.878
 11
71.178
 21
-29.896
 72
1
 10
71.178
 20
-29.896
 11
71.088
 21
-29.909
 72
1
 10
71.088
 20
-29.909
 11
70.951
 21
-29.935
 72
1
 10
70.951
 20
-29.935
 11
70.782
 21
-29.970
 72
1
 10
70.782
 20
-29.970
 11
70.592
 21
-30.011
 72
1
 10
70.592
 20
-30.011
 11
70.494
 21
-30.033
 72
1
 10
70.494
 20
-30.033
 11
70.396
 21
-30.055
 72
1
 10
70.396
 20
-30.055
 11
70.205
 21
-30.098
 72
1
 10
70.205
 20
-30.098
 11
70.035
 21
-30.138
 72
1
 10
70.035
 20
-30.138
 11
69.896
 21
-30.170
 72
1
 10
69.896
 20
-30.170
 11
69.770
 21
-30.200
 72
1
 10
69.770
 20
-30.200
 11
69.716
 21
-30.180
 72
1
 10
69.716
 20
-30.180
 11
68.470
 21
-30.319
 72
1
 10
68.470
 20
-30.319
 11
68.400
 21
-30.371
 72
1
 10
68.400
 20
-30.371
 11
68.300
 21
-30.401
 72
1
 10
68.300
 20
-30.401
 11
68.189
 21
-30.434
 72
1
 10
68.189
 20
-30.434
 11
68.049
 21
-30.475
 72
1
 10
68.049
 20
-30.475
 11
67.889
 21
-30.521
 72
1
 10
67.889
 20
-30.521
 11
67.718
 21
-30.569
 72
1
 10
67.718
 20
-30.569
 11
67.545
 21
-30.615
 72
1
 10
67.545
 20
-30.615
 11
67.380
 21
-30.656
 72
1
 10
67.380
 20
-30.656
 11
67.231
 21
-30.690
 72
1
 10
67.231
 20
-30.690
 11
67.107
 21
-30.714
 72
1
 10
67.107
 20
-30.714
 11
67.045
 21
-30.724
 72
1
 10
67.045
 20
-30.724
 11
66.882
 21
-30.758
 72
1
 10
66.882
 20
-30.758
 11
66.782
 21
-30.781
 72
1
 10
66.782
 20
-30.781
 11
66.671
 21
-30.806
 72
1
 10
66.671
 20
-30.806
 11
66.551
 21
-30.835
 72
1
 10
66.551
 20
-30.835
 11
66.421
 21
-30.866
 72
1
 10
66.421
 20
-30.866
 11
66.284
 21
-30.899
 72
1
 10
66.284
 20
-30.899
 11
66.141
 21
-30.934
 72
1
 10
66.141
 20
-30.934
 11
65.991
 21
-30.971
 72
1
 10
65.991
 20
-30.971
 11
65.837
 21
-31.008
 72
1
 10
65.837
 20
-31.008
 11
65.679
 21
-31.047
 72
1
 10
65.679
 20
-31.047
 11
65.519
 21
-31.085
 72
1
 10
65.519
 20
-31.085
 11
65.356
 21
-31.124
 72
1
 10
65.356
 20
-31.124
 11
65.194
 21
-31.163
 72
1
 10
65.194
 20
-31.163
 11
65.031
 21
-31.201
 72
1
 10
65.031
 20
-31.201
 11
64.870
 21
-31.239
 72
1
 10
64.870
 20
-31.239
 11
64.711
 21
-31.275
 72
1
 10
64.711
 20
-31.275
 11
64.556
 21
-31.309
 72
1
 10
64.556
 20
-31.309
 11
64.405
 21
-31.342
 72
1
 10
64.405
 20
-31.342
 11
64.261
 21
-31.374
 72
1
 10
64.261
 20
-31.374
 11
64.125
 21
-31.407
 72
1
 10
64.125
 20
-31.407
 11
63.996
 21
-31.442
 72
1
 10
63.996
 20
-31.442
 11
63.875
 21
-31.478
 72
1
 10
63.875
 20
-31.478
 11
63.761
 21
-31.515
 72
1
 10
63.761
 20
-31.515
 11
63.654
 21
-31.553
 72
1
 10
63.654
 20
-31.553
 11
63.552
 21
-31.590
 72
1
 10
63.552
 20
-31.590
 11
63.456
 21
-31.628
 72
1
 10
63.456
 20
-31.628
 11
63.280
 21
-31.703
 72
1
 10
63.280
 20
-31.703
 11
63.121
 21
-31.776
 72
1
 10
63.121
 20
-31.776
 11
62.977
 21
-31.844
 72
1
 10
62.977
 20
-31.844
 11
62.844
 21
-31.907
 72
1
 10
62.844
 20
-31.907
 11
62.718
 21
-31.962
 72
1
 10
62.718
 20
-31.962
 11
62.597
 21
-32.007
 72
1
 10
62.597
 20
-32.007
 11
62.807
 21
-31.893
 72
1
 10
62.807
 20
-31.893
 11
62.619
 21
-31.864
 72
1
 10
62.619
 20
-31.864
 11
62.399
 21
-31.842
 72
1
 10
62.399
 20
-31.842
 11
62.154
 21
-31.828
 72
1
 10
62.154
 20
-31.828
 11
61.886
 21
-31.821
 72
1
 10
61.886
 20
-31.821
 11
61.600
 21
-31.821
 72
1
 10
61.600
 20
-31.821
 11
61.301
 21
-31.826
 72
1
 10
61.301
 20
-31.826
 11
60.992
 21
-31.835
 72
1
 10
60.992
 20
-31.835
 11
60.679
 21
-31.848
 72
1
 10
60.679
 20
-31.848
 11
60.366
 21
-31.865
 72
1
 10
60.366
 20
-31.865
 11
60.057
 21
-31.884
 72
1
 10
60.057
 20
-31.884
 11
59.757
 21
-31.905
 72
1
 10
59.757
 20
-31.905
 11
59.470
 21
-31.926
 72
1
 10
59.470
 20
-31.926
 11
59.200
 21
-31.948
 72
1
 10
59.200
 20
-31.948
 11
58.951
 21
-31.970
 72
1
 10
58.951
 20
-31.970
 11
58.729
 21
-31.990
 72
1
 10
58.729
 20
-31.990
 11
58.538
 21
-32.008
 72
1
 10
58.538
 20
-32.008
 11
58.381
 21
-32.023
 72
1
 10
58.381
 20
-32.023
 11
58.164
 21
-32.046
 72
1
 10
58.164
 20
-32.046
 11
58.017
 21
-31.999
 72
1
 10
58.017
 20
-31.999
 11
57.927
 21
-31.999
 72
1
 10
57.927
 20
-31.999
 11
57.804
 21
-31.999
 72
1
 10
57.804
 20
-31.999
 11
57.701
 21
-31.999
 72
1
 10
57.701
 20
-31.999
 11
57.587
 21
-31.999
 72
1
 10
57.587
 20
-31.999
 11
57.466
 21
-31.999
 72
1
 10
57.466
 20
-31.999
 11
57.342
 21
-31.999
 72
1
 10
57.342
 20
-31.999
 11
57.220
 21
-31.999
 72
1
 10
57.220
 20
-31.999
 11
57.102
 21
-31.999
 72
1
 10
57.102
 20
-31.999
 11
56.984
 21
-32.004
 72
1
 10
56.984
 20
-32.004
 11
56.856
 21
-32.016
 72
1
 10
56.856
 20
-32.016
 11
56.717
 21
-32.035
 72
1
 10
56.717
 20
-32.035
 11
56.566
 21
-32.059
 72
1
 10
56.566
 20
-32.059
 11
56.403
 21
-32.087
 72
1
 10
56.403
 20
-32.087
 11
56.227
 21
-32.115
 72
1
 10
56.227
 20
-32.115
 11
56.037
 21
-32.144
 72
1
 10
56.037
 20
-32.144
 11
55.937
 21
-32.158
 72
1
 10
55.937
 20
-32.158
 11
55.833
 21
-32.171
 72
1
 10
55.833
 20
-32.171
 11
55.726
 21
-32.184
 72
1
 10
55.726
 20
-32.184
 11
55.615
 21
-32.195
 72
1
 10
55.615
 20
-32.195
 11
55.499
 21
-32.206
 72
1
 10
55.499
 20
-32.206
 11
55.380
 21
-32.214
 72
1
 10
55.380
 20
-32.214
 11
55.253
 21
-32.223
 72
1
 10
55.253
 20
-32.223
 11
55.115
 21
-32.232
 72
1
 10
55.115
 20
-32.232
 11
54.968
 21
-32.242
 72
1
 10
54.968
 20
-32.242
 11
54.813
 21
-32.252
 72
1
 10
54.813
 20
-32.252
 11
54.653
 21
-32.262
 72
1
 10
54.653
 20
-32.262
 11
54.490
 21
-32.273
 72
1
 10
54.490
 20
-32.273
 11
54.325
 21
-32.284
 72
1
 10
54.325
 20
-32.284
 11
54.160
 21
-32.294
 72
1
 10
54.160
 20
-32.294
 11
53.998
 21
-32.305
 72
1
 10
53.998
 20
-32.305
 11
53.840
 21
-32.315
 72
1
 10
53.840
 20
-32.315
 11
53.688
 21
-32.325
 72
1
 10
53.688
 20
-32.325
 11
53.544
 21
-32.335
 72
1
 10
53.544
 20
-32.335
 11
53.410
 21
-32.343
 72
1
 10
53.410
 20
-32.343
 11
53.287
 21
-32.351
 72
1
 10
53.287
 20
-32.351
 11
53.178
 21
-32.358
 72
1
 10
53.178
 20
-32.358
 11
53.009
 21
-32.369
 72
1
 10
53.009
 20
-32.369
 11
52.905
 21
-32.376
 72
1
 10
52.905
 20
-32.376
 11
52.367
 21
-32.107
 72
1
 10
52.367
 20
-32.107
 11
52.388
 21
-32.098
 72
1
 10
52.388
 20
-32.098
 11
52.488
 21
-32.056
 72
1
 10
52.488
 20
-32.056
 11
52.588
 21
-32.016
 72
1
 10
52.588
 20
-32.016
 11
52.707
 21
-31.970
 72
1
 10
52.707
 20
-31.970
 11
52.836
 21
-31.921
 72
1
 10
52.836
 20
-31.921
 11
52.967
 21
-31.875
 72
1
 10
52.967
 20
-31.875
 11
53.093
 21
-31.834
 72
1
 10
53.093
 20
-31.834
 11
53.207
 21
-31.804
 72
1
 10
53.207
 20
-31.804
 11
53.336
 21
-31.784
 72
1
 10
53.336
 20
-31.784
 11
53.405
 21
-31.744
 72
1
 10
53.405
 20
-31.744
 11
53.377
 21
-31.644
 72
1
 10
53.377
 20
-31.644
 11
53.310
 21
-31.550
 72
1
 10
53.310
 20
-31.550
 11
53.218
 21
-31.452
 72
1
 10
53.218
 20
-31.452
 11
53.115
 21
-31.364
 72
1
 10
53.115
 20
-31.364
 11
53.013
 21
-31.300
 72
1
 10
53.013
 20
-31.300
 11
53.013
 21
-31.138
 72
1
 10
53.013
 20
-31.138
 11
52.990
 21
-31.131
 72
1
 10
52.990
 20
-31.131
 11
52.882
 21
-31.096
 72
1
 10
52.882
 20
-31.096
 11
52.774
 21
-31.062
 72
1
 10
52.774
 20
-31.062
 11
52.645
 21
-31.024
 72
1
 10
52.645
 20
-31.024
 11
52.504
 21
-30.983
 72
1
 10
52.504
 20
-30.983
 11
52.359
 21
-30.945
 72
1
 10
52.359
 20
-30.945
 11
52.218
 21
-30.911
 72
1
 10
52.218
 20
-30.911
 11
52.089
 21
-30.885
 72
1
 10
52.089
 20
-30.885
 11
51.936
 21
-30.869
 72
1
 10
51.936
 20
-30.869
 11
51.797
 21
-30.872
 72
1
 10
51.797
 20
-30.872
 11
51.688
 21
-30.877
 72
1
 10
51.688
 20
-30.877
 11
51.574
 21
-30.884
 72
1
 10
51.574
 20
-30.884
 11
51.460
 21
-30.892
 72
1
 10
51.460
 20
-30.892
 11
51.351
 21
-30.900
 72
1
 10
51.351
 20
-30.900
 11
51.210
 21
-30.911
 72
1
 10
51.210
 20
-30.911
 11
51.075
 21
-30.923
 72
1
 10
51.075
 20
-30.923
 11
51.037
 21
-30.923
 72
1
 10
51.037
 20
-30.923
 11
50.934
 21
-30.923
 72
1
 10
50.934
 20
-30.923
 11
50.779
 21
-30.923
 72
1
 10
50.779
 20
-30.923
 11
50.588
 21
-30.923
 72
1
 10
50.588
 20
-30.923
 11
50.483
 21
-30.923
 72
1
 10
50.483
 20
-30.923
 11
50.376
 21
-30.923
 72
1
 10
50.376
 20
-30.923
 11
50.266
 21
-30.923
 72
1
 10
50.266
 20
-30.923
 11
50.157
 21
-30.923
 72
1
 10
50.157
 20
-30.923
 11
50.050
 21
-30.923
 72
1
 10
50.050
 20
-30.923
 11
49.849
 21
-30.923
 72
1
 10
49.849
 20
-30.923
 11
49.679
 21
-30.923
 72
1
 10
49.679
 20
-30.923
 11
49.515
 21
-30.923
 72
1
 10
49.515
 20
-30.923
 11
49.385
 21
-30.929
 72
1
 10
49.385
 20
-30.929
 11
49.269
 21
-30.940
 72
1
 10
49.269
 20
-30.940
 11
49.137
 21
-30.955
 72
1
 10
49.137
 20
-30.955
 11
48.995
 21
-30.973
 72
1
 10
48.995
 20
-30.973
 11
48.850
 21
-30.994
 72
1
 10
48.850
 20
-30.994
 11
48.708
 21
-31.015
 72
1
 10
48.708
 20
-31.015
 11
48.576
 21
-31.036
 72
1
 10
48.576
 20
-31.036
 11
48.460
 21
-31.057
 72
1
 10
48.460
 20
-31.057
 11
48.331
 21
-31.084
 72
1
 10
48.331
 20
-31.084
 11
48.199
 21
-31.118
 72
1
 10
48.199
 20
-31.118
 11
48.080
 21
-31.149
 72
1
 10
48.080
 20
-31.149
 11
47.947
 21
-31.184
 72
1
 10
47.947
 20
-31.184
 11
47.808
 21
-31.221
 72
1
 10
47.808
 20
-31.221
 11
47.671
 21
-31.257
 72
1
 10
47.671
 20
-31.257
 11
47.545
 21
-31.290
 72
1
 10
47.545
 20
-31.290
 11
47.438
 21
-31.319
 72
1
 10
47.438
 20
-31.319
 11
47.308
 21
-31.353
 72
1
 10
47.308
 20
-31.353
 11
47.254
 21
-31.461
 72
1
 10
47.254
 20
-31.461
 11
47.276
 21
-31.571
 72
1
 10
47.276
 20
-31.571
 11
47.370
 21
-31.661
 72
1
 10
47.370
 20
-31.661
 11
47.459
 21
-31.710
 72
1
 10
47.459
 20
-31.710
 11
47.557
 21
-31.750
 72
1
 10
47.557
 20
-31.750
 11
47.657
 21
-31.782
 72
1
 10
47.657
 20
-31.782
 11
47.792
 21
-31.816
 72
1
 10
47.792
 20
-31.816
 11
47.900
 21
-31.837
 72
1
 10
47.900
 20
-31.837
 11
47.996
 21
-31.874
 72
1
 10
47.996
 20
-31.874
 11
48.149
 21
-31.932
 72
1
 10
48.149
 20
-31.932
 11
48.246
 21
-31.968
 72
1
 10
48.246
 20
-31.968
 11
48.354
 21
-32.009
 72
1
 10
48.354
 20
-32.009
 11
48.470
 21
-32.053
 72
1
 10
48.470
 20
-32.053
 11
48.593
 21
-32.099
 72
1
 10
48.593
 20
-32.099
 11
48.721
 21
-32.147
 72
1
 10
48.721
 20
-32.147
 11
48.851
 21
-32.196
 72
1
 10
48.851
 20
-32.196
 11
48.981
 21
-32.244
 72
1
 10
48.981
 20
-32.244
 11
49.110
 21
-32.292
 72
1
 10
49.110
 20
-32.292
 11
49.234
 21
-32.339
 72
1
 10
49.234
 20
-32.339
 11
49.353
 21
-32.382
 72
1
 10
49.353
 20
-32.382
 11
49.464
 21
-32.423
 72
1
 10
49.464
 20
-32.423
 11
49.652
 21
-32.491
 72
1
 10
49.652
 20
-32.491
 11
49.784
 21
-32.537
 72
1
 10
49.784
 20
-32.537
 11
49.730
 21
-32.914
 72
1
 10
49.730
 20
-32.914
 11
48.976
 21
-32.806
 72
1
 10
48.976
 20
-32.806
 11
48.870
 21
-32.806
 72
1
 10
48.870
 20
-32.806
 11
48.747
 21
-32.806
 72
1
 10
48.747
 20
-32.806
 11
48.587
 21
-32.806
 72
1
 10
48.587
 20
-32.806
 11
48.398
 21
-32.806
 72
1
 10
48.398
 20
-32.806
 11
48.294
 21
-32.806
 72
1
 10
48.294
 20
-32.806
 11
48.186
 21
-32.806
 72
1
 10
48.186
 20
-32.806
 11
48.074
 21
-32.806
 72
1
 10
48.074
 20
-32.806
 11
47.959
 21
-32.806
 72
1
 10
47.959
 20
-32.806
 11
47.841
 21
-32.806
 72
1
 10
47.841
 20
-32.806
 11
47.723
 21
-32.806
 72
1
 10
47.723
 20
-32.806
 11
47.604
 21
-32.806
 72
1
 10
47.604
 20
-32.806
 11
47.486
 21
-32.806
 72
1
 10
47.486
 20
-32.806
 11
47.369
 21
-32.806
 72
1
 10
47.369
 20
-32.806
 11
47.255
 21
-32.806
 72
1
 10
47.255
 20
-32.806
 11
47.146
 21
-32.805
 72
1
 10
47.146
 20
-32.805
 11
46.954
 21
-32.796
 72
1
 10
46.954
 20
-32.796
 11
46.794
 21
-32.781
 72
1
 10
46.794
 20
-32.781
 11
46.663
 21
-32.761
 72
1
 10
46.663
 20
-32.761
 11
46.558
 21
-32.737
 72
1
 10
46.558
 20
-32.737
 11
46.445
 21
-32.701
 72
1
 10
46.445
 20
-32.701
 11
46.340
 21
-32.645
 72
1
 10
46.340
 20
-32.645
 11
46.332
 21
-32.645
 72
1
 10
46.332
 20
-32.645
 11
46.221
 21
-32.644
 72
1
 10
46.221
 20
-32.644
 11
46.085
 21
-32.643
 72
1
 10
46.085
 20
-32.643
 11
45.909
 21
-32.641
 72
1
 10
45.909
 20
-32.641
 11
45.809
 21
-32.640
 72
1
 10
45.809
 20
-32.640
 11
45.701
 21
-32.638
 72
1
 10
45.701
 20
-32.638
 11
45.587
 21
-32.636
 72
1
 10
45.587
 20
-32.636
 11
45.468
 21
-32.633
 72
1
 10
45.468
 20
-32.633
 11
45.345
 21
-32.630
 72
1
 10
45.345
 20
-32.630
 11
45.219
 21
-32.626
 72
1
 10
45.219
 20
-32.626
 11
45.091
 21
-32.622
 72
1
 10
45.091
 20
-32.622
 11
44.962
 21
-32.617
 72
1
 10
44.962
 20
-32.617
 11
44.833
 21
-32.612
 72
1
 10
44.833
 20
-32.612
 11
44.705
 21
-32.606
 72
1
 10
44.705
 20
-32.606
 11
44.579
 21
-32.599
 72
1
 10
44.579
 20
-32.599
 11
44.456
 21
-32.591
 72
1
 10
44.456
 20
-32.591
 11
44.250
 21
-32.576
 72
1
 10
44.250
 20
-32.576
 11
44.108
 21
-32.564
 72
1
 10
44.108
 20
-32.564
 11
43.980
 21
-32.547
 72
1
 10
43.980
 20
-32.547
 11
43.875
 21
-32.517
 72
1
 10
43.875
 20
-32.517
 11
43.759
 21
-32.482
 72
1
 10
43.759
 20
-32.482
 11
43.650
 21
-32.459
 72
1
 10
43.650
 20
-32.459
 11
43.488
 21
-32.430
 72
1
 10
43.488
 20
-32.430
 11
43.397
 21
-32.415
 72
1
 10
43.397
 20
-32.415
 11
43.253
 21
-32.395
 72
1
 10
43.253
 20
-32.395
 11
43.146
 21
-32.384
 72
1
 10
43.146
 20
-32.384
 11
43.005
 21
-32.386
 72
1
 10
43.005
 20
-32.386
 11
42.885
 21
-32.404
 72
1
 10
42.885
 20
-32.404
 11
42.758
 21
-32.419
 72
1
 10
42.758
 20
-32.419
 11
42.633
 21
-32.427
 72
1
 10
42.633
 20
-32.427
 11
42.465
 21
-32.430
 72
1
 10
42.465
 20
-32.430
 11
42.369
 21
-32.428
 72
1
 10
42.369
 20
-32.428
 11
42.177
 21
-32.413
 72
1
 10
42.177
 20
-32.413
 11
41.987
 21
-32.386
 72
1
 10
41.987
 20
-32.386
 11
41.795
 21
-32.349
 72
1
 10
41.795
 20
-32.349
 11
41.602
 21
-32.305
 72
1
 10
41.602
 20
-32.305
 11
41.503
 21
-32.282
 72
1
 10
41.503
 20
-32.282
 11
41.404
 21
-32.257
 72
1
 10
41.404
 20
-32.257
 11
41.303
 21
-32.232
 72
1
 10
41.303
 20
-32.232
 11
41.200
 21
-32.207
 72
1
 10
41.200
 20
-32.207
 11
41.096
 21
-32.182
 72
1
 10
41.096
 20
-32.182
 11
40.989
 21
-32.157
 72
1
 10
40.989
 20
-32.157
 11
40.881
 21
-32.133
 72
1
 10
40.881
 20
-32.133
 11
40.770
 21
-32.111
 72
1
 10
40.770
 20
-32.111
 11
40.656
 21
-32.090
 72
1
 10
40.656
 20
-32.090
 11
40.540
 21
-32.070
 72
1
 10
40.540
 20
-32.070
 11
40.420
 21
-32.053
 72
1
 10
40.420
 20
-32.053
 11
40.293
 21
-32.037
 72
1
 10
40.293
 20
-32.037
 11
40.155
 21
-32.022
 72
1
 10
40.155
 20
-32.022
 11
40.007
 21
-32.008
 72
1
 10
40.007
 20
-32.008
 11
39.853
 21
-31.995
 72
1
 10
39.853
 20
-31.995
 11
39.693
 21
-31.982
 72
1
 10
39.693
 20
-31.982
 11
39.529
 21
-31.971
 72
1
 10
39.529
 20
-31.971
 11
39.365
 21
-31.960
 72
1
 10
39.365
 20
-31.960
 11
39.200
 21
-31.950
 72
1
 10
39.200
 20
-31.950
 11
39.038
 21
-31.940
 72
1
 10
39.038
 20
-31.940
 11
38.880
 21
-31.932
 72
1
 10
38.880
 20
-31.932
 11
38.728
 21
-31.924
 72
1
 10
38.728
 20
-31.924
 11
38.584
 21
-31.917
 72
1
 10
38.584
 20
-31.917
 11
38.449
 21
-31.911
 72
1
 10
38.449
 20
-31.911
 11
38.327
 21
-31.906
 72
1
 10
38.327
 20
-31.906
 11
38.218
 21
-31.902
 72
1
 10
38.218
 20
-31.902
 11
38.049
 21
-31.895
 72
1
 10
38.049
 20
-31.895
 11
37.945
 21
-31.891
 72
1
 10
37.945
 20
-31.891
 11
37.353
 21
-30.815
 72
1
 10
37.353
 20
-30.815
 11
37.729
 21
-30.815
 72
1
 10
37.729
 20
-30.815
 11
37.734
 21
-30.815
 72
1
 10
37.734
 20
-30.815
 11
37.835
 21
-30.820
 72
1
 10
37.835
 20
-30.820
 11
37.977
 21
-30.820
 72
1
 10
37.977
 20
-30.820
 11
38.093
 21
-30.815
 72
1
 10
38.093
 20
-30.815
 11
38.218
 21
-30.804
 72
1
 10
38.218
 20
-30.804
 11
38.346
 21
-30.784
 72
1
 10
38.346
 20
-30.784
 11
38.473
 21
-30.753
 72
1
 10
38.473
 20
-30.753
 11
38.592
 21
-30.711
 72
1
 10
38.592
 20
-30.711
 11
38.698
 21
-30.654
 72
1
 10
38.698
 20
-30.654
 11
38.746
 21
-30.623
 72
1
 10
38.746
 20
-30.623
 11
38.842
 21
-30.571
 72
1
 10
38.842
 20
-30.571
 11
38.980
 21
-30.512
 72
1
 10
38.980
 20
-30.512
 11
39.105
 21
-30.474
 72
1
 10
39.105
 20
-30.474
 11
39.239
 21
-30.448
 72
1
 10
39.239
 20
-30.448
 11
39.344
 21
-30.438
 72
1
 10
39.344
 20
-30.438
 11
39.505
 21
-30.492
 72
1
 10
39.505
 20
-30.492
 11
38.160
 21
-30.169
 72
1
 10
38.160
 20
-30.169
 11
38.071
 21
-30.148
 72
1
 10
38.071
 20
-30.148
 11
37.966
 21
-30.123
 72
1
 10
37.966
 20
-30.123
 11
37.828
 21
-30.091
 72
1
 10
37.828
 20
-30.091
 11
37.660
 21
-30.051
 72
1
 10
37.660
 20
-30.051
 11
37.468
 21
-30.005
 72
1
 10
37.468
 20
-30.005
 11
37.256
 21
-29.955
 72
1
 10
37.256
 20
-29.955
 11
37.029
 21
-29.901
 72
1
 10
37.029
 20
-29.901
 11
36.790
 21
-29.844
 72
1
 10
36.790
 20
-29.844
 11
36.546
 21
-29.786
 72
1
 10
36.546
 20
-29.786
 11
36.299
 21
-29.727
 72
1
 10
36.299
 20
-29.727
 11
36.056
 21
-29.669
 72
1
 10
36.056
 20
-29.669
 11
35.820
 21
-29.613
 72
1
 10
35.820
 20
-29.613
 11
35.597
 21
-29.560
 72
1
 10
35.597
 20
-29.560
 11
35.390
 21
-29.511
 72
1
 10
35.390
 20
-29.511
 11
35.205
 21
-29.467
 72
1
 10
35.205
 20
-29.467
 11
35.046
 21
-29.429
 72
1
 10
35.046
 20
-29.429
 11
34.917
 21
-29.398
 72
1
 10
34.917
 20
-29.398
 11
34.770
 21
-29.362
 72
1
 10
34.770
 20
-29.362
 11
34.669
 21
-29.337
 72
1
 10
34.669
 20
-29.337
 11
34.506
 21
-29.296
 72
1
 10
34.506
 20
-29.296
 11
34.406
 21
-29.270
 72
1
 10
34.406
 20
-29.270
 11
34.297
 21
-29.242
 72
1
 10
34.297
 20
-29.242
 11
34.180
 21
-29.212
 72
1
 10
34.180
 20
-29.212
 11
34.057
 21
-29.180
 72
1
 10
34.057
 20
-29.180
 11
33.930
 21
-29.147
 72
1
 10
33.930
 20
-29.147
 11
33.801
 21
-29.113
 72
1
 10
33.801
 20
-29.113
 11
33.672
 21
-29.079
 72
1
 10
33.672
 20
-29.079
 11
33.545
 21
-29.044
 72
1
 10
33.545
 20
-29.044
 11
33.422
 21
-29.010
 72
1
 10
33.422
 20
-29.010
 11
33.305
 21
-28.977
 72
1
 10
33.305
 20
-28.977
 11
33.196
 21
-28.946
 72
1
 10
33.196
 20
-28.946
 11
33.096
 21
-28.916
 72
1
 10
33.096
 20
-28.916
 11
32.933
 21
-28.864
 72
1
 10
32.933
 20
-28.864
 11
32.832
 21
-28.824
 72
1
 10
32.832
 20
-28.824
 11
32.771
 21
-28.805
 72
1
 10
32.771
 20
-28.805
 11
32.655
 21
-28.780
 72
1
 10
32.655
 20
-28.780
 11
32.490
 21
-28.750
 72
1
 10
32.490
 20
-28.750
 11
32.281
 21
-28.715
 72
1
 10
32.281
 20
-28.715
 11
32.033
 21
-28.678
 72
1
 10
32.033
 20
-28.678
 11
31.751
 21
-28.637
 72
1
 10
31.751
 20
-28.637
 11
31.441
 21
-28.594
 72
1
 10
31.441
 20
-28.594
 11
31.107
 21
-28.550
 72
1
 10
31.107
 20
-28.550
 11
30.755
 21
-28.505
 72
1
 10
30.755
 20
-28.505
 11
30.391
 21
-28.461
 72
1
 10
30.391
 20
-28.461
 11
30.018
 21
-28.417
 72
1
 10
30.018
 20
-28.417
 11
29.644
 21
-28.375
 72
1
 10
29.644
 20
-28.375
 11
29.272
 21
-28.335
 72
1
 10
29.272
 20
-28.335
 11
28.908
 21
-28.297
 72
1
 10
28.908
 20
-28.297
 11
28.557
 21
-28.264
 72
1
 10
28.557
 20
-28.264
 11
28.224
 21
-28.235
 72
1
 10
28.224
 20
-28.235
 11
27.915
 21
-28.211
 72
1
 10
27.915
 20
-28.211
 11
27.635
 21
-28.194
 72
1
 10
27.635
 20
-28.194
 11
27.389
 21
-28.182
 72
1
 10
27.389
 20
-28.182
 11
27.182
 21
-28.178
 72
1
 10
27.182
 20
-28.178
 11
26.989
 21
-28.180
 72
1
 10
26.989
 20
-28.180
 11
26.783
 21
-28.184
 72
1
 10
26.783
 20
-28.184
 11
26.567
 21
-28.191
 72
1
 10
26.567
 20
-28.191
 11
26.343
 21
-28.201
 72
1
 10
26.343
 20
-28.201
 11
26.113
 21
-28.212
 72
1
 10
26.113
 20
-28.212
 11
25.881
 21
-28.225
 72
1
 10
25.881
 20
-28.225
 11
25.647
 21
-28.239
 72
1
 10
25.647
 20
-28.239
 11
25.416
 21
-28.254
 72
1
 10
25.416
 20
-28.254
 11
25.189
 21
-28.270
 72
1
 10
25.189
 20
-28.270
 11
24.969
 21
-28.286
 72
1
 10
24.969
 20
-28.286
 11
24.758
 21
-28.302
 72
1
 10
24.758
 20
-28.302
 11
24.559
 21
-28.318
 72
1
 10
24.559
 20
-28.318
 11
24.374
 21
-28.333
 72
1
 10
24.374
 20
-28.333
 11
24.206
 21
-28.347
 72
1
 10
24.206
 20
-28.347
 11
24.057
 21
-28.360
 72
1
 10
24.057
 20
-28.360
 11
23.929
 21
-28.371
 72
1
 10
23.929
 20
-28.371
 11
23.826
 21
-28.381
 72
1
 10
23.826
 20
-28.381
 11
23.684
 21
-28.394
 72
1
 10
23.684
 20
-28.394
 11
23.576
 21
-28.340
 72
1
 10
23.576
 20
-28.340
 11
24.276
 21
-28.932
 72
1
 10
24.276
 20
-28.932
 11
24.976
 21
-29.201
 72
1
 10
24.976
 20
-29.201
 11
25.890
 21
-29.739
 72
1
 10
25.890
 20
-29.739
 11
25.957
 21
-29.769
 72
1
 10
25.957
 20
-29.769
 11
26.065
 21
-29.816
 72
1
 10
26.065
 20
-29.816
 11
26.212
 21
-29.880
 72
1
 10
26.212
 20
-29.880
 11
26.387
 21
-29.955
 72
1
 10
26.387
 20
-29.955
 11
26.482
 21
-29.995
 72
1
 10
26.482
 20
-29.995
 11
26.581
 21
-30.035
 72
1
 10
26.581
 20
-30.035
 11
26.681
 21
-30.076
 72
1
 10
26.681
 20
-30.076
 11
26.782
 21
-30.116
 72
1
 10
26.782
 20
-30.116
 11
26.882
 21
-30.156
 72
1
 10
26.882
 20
-30.156
 11
26.980
 21
-30.193
 72
1
 10
26.980
 20
-30.193
 11
27.075
 21
-30.228
 72
1
 10
27.075
 20
-30.228
 11
27.250
 21
-30.288
 72
1
 10
27.250
 20
-30.288
 11
27.397
 21
-30.331
 72
1
 10
27.397
 20
-30.331
 11
27.462
 21
-30.347
 72
1
 10
27.462
 20
-30.347
 11
27.594
 21
-30.379
 72
1
 10
27.594
 20
-30.379
 11
27.726
 21
-30.412
 72
1
 10
27.726
 20
-30.412
 11
27.857
 21
-30.444
 72
1
 10
27.857
 20
-30.444
 11
27.987
 21
-30.476
 72
1
 10
27.987
 20
-30.476
 11
28.112
 21
-30.508
 72
1
 10
28.112
 20
-30.508
 11
28.231
 21
-30.541
 72
1
 10
28.231
 20
-30.541
 11
28.343
 21
-30.573
 72
1
 10
28.343
 20
-30.573
 11
28.446
 21
-30.605
 72
1
 10
28.446
 20
-30.605
 11
28.581
 21
-30.654
 72
1
 10
28.581
 20
-30.654
 11
28.680
 21
-30.693
 72
1
 10
28.680
 20
-30.693
 11
28.807
 21
-30.745
 72
1
 10
28.807
 20
-30.745
 11
28.955
 21
-30.806
 72
1
 10
28.955
 20
-30.806
 11
29.114
 21
-30.871
 72
1
 10
29.114
 20
-30.871
 11
29.274
 21
-30.936
 72
1
 10
29.274
 20
-30.936
 11
29.426
 21
-30.999
 72
1
 10
29.426
 20
-30.999
 11
29.560
 21
-31.054
 72
1
 10
29.560
 20
-31.054
 11
29.668
 21
-31.098
 72
1
 10
29.668
 20
-31.098
 11
29.765
 21
-31.138
 72
1
 10
29.765
 20
-31.138
 11
29.603
 21
-31.515
 72
1
 10
29.603
 20
-31.515
 11
28.151
 21
-31.622
 72
1
 10
28.151
 20
-31.622
 11
28.058
 21
-31.616
 72
1
 10
28.058
 20
-31.616
 11
27.956
 21
-31.609
 72
1
 10
27.956
 20
-31.609
 11
27.827
 21
-31.600
 72
1
 10
27.827
 20
-31.600
 11
27.680
 21
-31.589
 72
1
 10
27.680
 20
-31.589
 11
27.523
 21
-31.576
 72
1
 10
27.523
 20
-31.576
 11
27.365
 21
-31.562
 72
1
 10
27.365
 20
-31.562
 11
27.214
 21
-31.547
 72
1
 10
27.214
 20
-31.547
 11
27.078
 21
-31.531
 72
1
 10
27.078
 20
-31.531
 11
26.967
 21
-31.515
 72
1
 10
26.967
 20
-31.515
 11
26.852
 21
-31.508
 72
1
 10
26.852
 20
-31.508
 11
26.704
 21
-31.516
 72
1
 10
26.704
 20
-31.516
 11
26.531
 21
-31.536
 72
1
 10
26.531
 20
-31.536
 11
26.338
 21
-31.564
 72
1
 10
26.338
 20
-31.564
 11
26.237
 21
-31.579
 72
1
 10
26.237
 20
-31.579
 11
26.133
 21
-31.595
 72
1
 10
26.133
 20
-31.595
 11
26.027
 21
-31.612
 72
1
 10
26.027
 20
-31.612
 11
25.921
 21
-31.627
 72
1
 10
25.921
 20
-31.627
 11
25.814
 21
-31.642
 72
1
 10
25.814
 20
-31.642
 11
25.709
 21
-31.655
 72
1
 10
25.709
 20
-31.655
 11
25.605
 21
-31.666
 72
1
 10
25.605
 20
-31.666
 11
25.503
 21
-31.675
 72
1
 10
25.503
 20
-31.675
 11
25.310
 21
-31.683
 72
1
 10
25.310
 20
-31.683
 11
25.137
 21
-31.676
 72
1
 10
25.137
 20
-31.676
 11
24.979
 21
-31.652
 72
1
 10
24.979
 20
-31.652
 11
24.825
 21
-31.614
 72
1
 10
24.825
 20
-31.614
 11
24.676
 21
-31.562
 72
1
 10
24.676
 20
-31.562
 11
24.529
 21
-31.500
 72
1
 10
24.529
 20
-31.500
 11
24.384
 21
-31.427
 72
1
 10
24.384
 20
-31.427
 11
24.238
 21
-31.347
 72
1
 10
24.238
 20
-31.347
 11
24.091
 21
-31.260
 72
1
 10
24.091
 20
-31.260
 11
23.942
 21
-31.168
 72
1
 10
23.942
 20
-31.168
 11
23.789
 21
-31.073
 72
1
 10
23.789
 20
-31.073
 11
23.630
 21
-30.977
 72
1
 10
23.630
 20
-30.977
 11
23.536
 21
-30.926
 72
1
 10
23.536
 20
-30.926
 11
23.418
 21
-30.872
 72
1
 10
23.418
 20
-30.872
 11
23.277
 21
-30.815
 72
1
 10
23.277
 20
-30.815
 11
23.117
 21
-30.754
 72
1
 10
23.117
 20
-30.754
 11
22.940
 21
-30.691
 72
1
 10
22.940
 20
-30.691
 11
22.749
 21
-30.625
 72
1
 10
22.749
 20
-30.625
 11
22.547
 21
-30.557
 72
1
 10
22.547
 20
-30.557
 11
22.337
 21
-30.488
 72
1
 10
22.337
 20
-30.488
 11
22.121
 21
-30.417
 72
1
 10
22.121
 20
-30.417
 11
21.901
 21
-30.344
 72
1
 10
21.901
 20
-30.344
 11
21.682
 21
-30.271
 72
1
 10
21.682
 20
-30.271
 11
21.464
 21
-30.198
 72
1
 10
21.464
 20
-30.198
 11
21.252
 21
-30.124
 72
1
 10
21.252
 20
-30.124
 11
21.047
 21
-30.051
 72
1
 10
21.047
 20
-30.051
 11
20.853
 21
-29.978
 72
1
 10
20.853
 20
-29.978
 11
20.672
 21
-29.906
 72
1
 10
20.672
 20
-29.906
 11
20.506
 21
-29.834
 72
1
 10
20.506
 20
-29.834
 11
20.360
 21
-29.765
 72
1
 10
20.360
 20
-29.765
 11
20.234
 21
-29.697
 72
1
 10
20.234
 20
-29.697
 11
20.132
 21
-29.631
 72
1
 10
20.132
 20
-29.631
 11
20.046
 21
-29.569
 72
1
 10
20.046
 20
-29.569
 11
19.888
 21
-29.457
 72
1
 10
19.888
 20
-29.457
 11
19.746
 21
-29.360
 72
1
 10
19.746
 20
-29.360
 11
19.612
 21
-29.273
 72
1
 10
19.612
 20
-29.273
 11
19.484
 21
-29.192
 72
1
 10
19.484
 20
-29.192
 11
19.354
 21
-29.115
 72
1
 10
19.354
 20
-29.115
 11
19.219
 21
-29.038
 72
1
 10
19.219
 20
-29.038
 11
19.073
 21
-28.958
 72
1
 10
19.073
 20
-28.958
 11
18.911
 21
-28.870
 72
1
 10
18.911
 20
-28.870
 11
18.822
 21
-28.822
 72
1
 10
18.822
 20
-28.822
 11
18.727
 21
-28.771
 72
1
 10
18.727
 20
-28.771
 11
18.625
 21
-28.716
 72
1
 10
18.625
 20
-28.716
 11
18.523
 21
-28.665
 72
1
 10
18.523
 20
-28.665
 11
18.426
 21
-28.625
 72
1
 10
18.426
 20
-28.625
 11
18.240
 21
-28.569
 72
1
 10
18.240
 20
-28.569
 11
18.061
 21
-28.542
 72
1
 10
18.061
 20
-28.542
 11
17.881
 21
-28.533
 72
1
 10
17.881
 20
-28.533
 11
17.691
 21
-28.535
 72
1
 10
17.691
 20
-28.535
 11
17.589
 21
-28.537
 72
1
 10
17.589
 20
-28.537
 11
17.483
 21
-28.538
 72
1
 10
17.483
 20
-28.538
 11
17.369
 21
-28.538
 72
1
 10
17.369
 20
-28.538
 11
17.249
 21
-28.534
 72
1
 10
17.249
 20
-28.534
 11
17.120
 21
-28.527
 72
1
 10
17.120
 20
-28.527
 11
16.981
 21
-28.515
 72
1
 10
16.981
 20
-28.515
 11
16.832
 21
-28.497
 72
1
 10
16.832
 20
-28.497
 11
16.671
 21
-28.471
 72
1
 10
16.671
 20
-28.471
 11
16.498
 21
-28.437
 72
1
 10
16.498
 20
-28.437
 11
16.312
 21
-28.394
 72
1
 10
16.312
 20
-28.394
 11
16.114
 21
-28.340
 72
1
 10
16.114
 20
-28.340
 11
15.910
 21
-28.277
 72
1
 10
15.910
 20
-28.277
 11
15.701
 21
-28.206
 72
1
 10
15.701
 20
-28.206
 11
15.489
 21
-28.129
 72
1
 10
15.489
 20
-28.129
 11
15.276
 21
-28.045
 72
1
 10
15.276
 20
-28.045
 11
15.062
 21
-27.958
 72
1
 10
15.062
 20
-27.958
 11
14.850
 21
-27.867
 72
1
 10
14.850
 20
-27.867
 11
14.641
 21
-27.774
 72
1
 10
14.641
 20
-27.774
 11
14.437
 21
-27.680
 72
1
 10
14.437
 20
-27.680
 11
14.240
 21
-27.586
 72
1
 10
14.240
 20
-27.586
 11
14.050
 21
-27.495
 72
1
 10
14.050
 20
-27.495
 11
13.871
 21
-27.406
 72
1
 10
13.871
 20
-27.406
 11
13.702
 21
-27.321
 72
1
 10
13.702
 20
-27.321
 11
13.547
 21
-27.241
 72
1
 10
13.547
 20
-27.241
 11
13.406
 21
-27.168
 72
1
 10
13.406
 20
-27.168
 11
13.281
 21
-27.102
 72
1
 10
13.281
 20
-27.102
 11
13.086
 21
-26.999
 72
1
 10
13.086
 20
-26.999
 11
12.975
 21
-26.941
 72
1
 10
12.975
 20
-26.941
 11
12.892
 21
-26.901
 72
1
 10
12.892
 20
-26.901
 11
12.778
 21
-26.848
 72
1
 10
12.778
 20
-26.848
 11
12.640
 21
-26.784
 72
1
 10
12.640
 20
-26.784
 11
12.486
 21
-26.713
 72
1
 10
12.486
 20
-26.713
 11
12.323
 21
-26.638
 72
1
 10
12.323
 20
-26.638
 11
12.158
 21
-26.561
 72
1
 10
12.158
 20
-26.561
 11
11.998
 21
-26.485
 72
1
 10
11.998
 20
-26.485
 11
11.852
 21
-26.414
 72
1
 10
11.852
 20
-26.414
 11
11.727
 21
-26.349
 72
1
 10
11.727
 20
-26.349
 11
11.630
 21
-26.295
 72
1
 10
11.630
 20
-26.295
 11
11.582
 21
-26.271
 72
1
 10
11.582
 20
-26.271
 11
11.448
 21
-26.223
 72
1
 10
11.448
 20
-26.223
 11
11.268
 21
-26.176
 72
1
 10
11.268
 20
-26.176
 11
11.164
 21
-26.154
 72
1
 10
11.164
 20
-26.154
 11
11.051
 21
-26.132
 72
1
 10
11.051
 20
-26.132
 11
10.932
 21
-26.111
 72
1
 10
10.932
 20
-26.111
 11
10.806
 21
-26.092
 72
1
 10
10.806
 20
-26.092
 11
10.675
 21
-26.073
 72
1
 10
10.675
 20
-26.073
 11
10.540
 21
-26.055
 72
1
 10
10.540
 20
-26.055
 11
10.402
 21
-26.039
 72
1
 10
10.402
 20
-26.039
 11
10.262
 21
-26.024
 72
1
 10
10.262
 20
-26.024
 11
10.121
 21
-26.011
 72
1
 10
10.121
 20
-26.011
 11
9.980
 21
-26.000
 72
1
 10
9.980
 20
-26.000
 11
9.841
 21
-25.990
 72
1
 10
9.841
 20
-25.990
 11
9.703
 21
-25.982
 72
1
 10
9.703
 20
-25.982
 11
9.570
 21
-25.977
 72
1
 10
9.570
 20
-25.977
 11
9.440
 21
-25.973
 72
1
 10
9.440
 20
-25.973
 11
9.316
 21
-25.972
 72
1
 10
9.316
 20
-25.972
 11
9.199
 21
-25.972
 72
1
 10
9.199
 20
-25.972
 11
9.090
 21
-25.970
 72
1
 10
9.090
 20
-25.970
 11
8.894
 21
-25.966
 72
1
 10
8.894
 20
-25.966
 11
8.727
 21
-25.960
 72
1
 10
8.727
 20
-25.960
 11
8.588
 21
-25.953
 72
1
 10
8.588
 20
-25.953
 11
8.475
 21
-25.945
 72
1
 10
8.475
 20
-25.945
 11
8.350
 21
-25.933
 72
1
 10
8.350
 20
-25.933
 11
8.240
 21
-25.918
 72
1
 10
8.240
 20
-25.918
 11
7.809
 21
-26.080
 72
1
 10
7.809
 20
-26.080
 11
7.807
 21
-26.066
 72
1
 10
7.807
 20
-26.066
 11
7.790
 21
-25.967
 72
1
 10
7.790
 20
-25.967
 11
7.760
 21
-25.789
 72
1
 10
7.760
 20
-25.789
 11
7.741
 21
-25.676
 72
1
 10
7.741
 20
-25.676
 11
7.720
 21
-25.550
 72
1
 10
7.720
 20
-25.550
 11
7.699
 21
-25.415
 72
1
 10
7.699
 20
-25.415
 11
7.677
 21
-25.272
 72
1
 10
7.677
 20
-25.272
 11
7.654
 21
-25.124
 72
1
 10
7.654
 20
-25.124
 11
7.633
 21
-24.974
 72
1
 10
7.633
 20
-24.974
 11
7.612
 21
-24.824
 72
1
 10
7.612
 20
-24.824
 11
7.592
 21
-24.677
 72
1
 10
7.592
 20
-24.677
 11
7.574
 21
-24.534
 72
1
 10
7.574
 20
-24.534
 11
7.559
 21
-24.400
 72
1
 10
7.559
 20
-24.400
 11
7.547
 21
-24.275
 72
1
 10
7.547
 20
-24.275
 11
7.535
 21
-24.066
 72
1
 10
7.535
 20
-24.066
 11
7.540
 21
-23.927
 72
1
 10
7.540
 20
-23.927
 11
7.540
 21
-23.884
 72
1
 10
7.540
 20
-23.884
 11
7.445
 21
-23.809
 72
1
 10
7.445
 20
-23.809
 11
7.318
 21
-23.796
 72
1
 10
7.318
 20
-23.796
 11
7.154
 21
-23.806
 72
1
 10
7.154
 20
-23.806
 11
6.962
 21
-23.833
 72
1
 10
6.962
 20
-23.833
 11
6.859
 21
-23.850
 72
1
 10
6.859
 20
-23.850
 11
6.754
 21
-23.869
 72
1
 10
6.754
 20
-23.869
 11
6.647
 21
-23.889
 72
1
 10
6.647
 20
-23.889
 11
6.540
 21
-23.908
 72
1
 10
6.540
 20
-23.908
 11
6.435
 21
-23.927
 72
1
 10
6.435
 20
-23.927
 11
6.333
 21
-23.944
 72
1
 10
6.333
 20
-23.944
 11
6.142
 21
-23.971
 72
1
 10
6.142
 20
-23.971
 11
5.980
 21
-23.981
 72
1
 10
5.980
 20
-23.981
 11
5.908
 21
-23.979
 72
1
 10
5.908
 20
-23.979
 11
5.769
 21
-23.967
 72
1
 10
5.769
 20
-23.967
 11
5.638
 21
-23.943
 72
1
 10
5.638
 20
-23.943
 11
5.515
 21
-23.909
 72
1
 10
5.515
 20
-23.909
 11
5.401
 21
-23.865
 72
1
 10
5.401
 20
-23.865
 11
5.296
 21
-23.812
 72
1
 10
5.296
 20
-23.812
 11
5.201
 21
-23.752
 72
1
 10
5.201
 20
-23.752
 11
5.117
 21
-23.686
 72
1
 10
5.117
 20
-23.686
 11
5.044
 21
-23.613
 72
1
 10
5.044
 20
-23.613
 11
4.957
 21
-23.496
 72
1
 10
4.957
 20
-23.496
 11
4.932
 21
-23.445
 72
1
 10
4.932
 20
-23.445
 11
4.875
 21
-23.283
 72
1
 10
4.875
 20
-23.283
 11
4.845
 21
-23.177
 72
1
 10
4.845
 20
-23.177
 11
4.814
 21
-23.057
 72
1
 10
4.814
 20
-23.057
 11
4.783
 21
-22.925
 72
1
 10
4.783
 20
-22.925
 11
4.751
 21
-22.783
 72
1
 10
4.751
 20
-22.783
 11
4.720
 21
-22.633
 72
1
 10
4.720
 20
-22.633
 11
4.690
 21
-22.478
 72
1
 10
4.690
 20
-22.478
 11
4.661
 21
-22.319
 72
1
 10
4.661
 20
-22.319
 11
4.634
 21
-22.160
 72
1
 10
4.634
 20
-22.160
 11
4.608
 21
-22.001
 72
1
 10
4.608
 20
-22.001
 11
4.585
 21
-21.845
 72
1
 10
4.585
 20
-21.845
 11
4.565
 21
-21.695
 72
1
 10
4.565
 20
-21.695
 11
4.548
 21
-21.552
 72
1
 10
4.548
 20
-21.552
 11
4.535
 21
-21.418
 72
1
 10
4.535
 20
-21.418
 11
4.526
 21
-21.296
 72
1
 10
4.526
 20
-21.296
 11
4.521
 21
-21.188
 72
1
 10
4.521
 20
-21.188
 11
4.527
 21
-21.021
 72
1
 10
4.527
 20
-21.021
 11
4.535
 21
-20.952
 72
1
 10
4.535
 20
-20.952
 11
4.551
 21
-20.791
 72
1
 10
4.551
 20
-20.791
 11
4.570
 21
-20.602
 72
1
 10
4.570
 20
-20.602
 11
4.579
 21
-20.500
 72
1
 10
4.579
 20
-20.500
 11
4.590
 21
-20.393
 72
1
 10
4.590
 20
-20.393
 11
4.602
 21
-20.282
 72
1
 10
4.602
 20
-20.282
 11
4.614
 21
-20.169
 72
1
 10
4.614
 20
-20.169
 11
4.628
 21
-20.052
 72
1
 10
4.628
 20
-20.052
 11
4.642
 21
-19.935
 72
1
 10
4.642
 20
-19.935
 11
4.658
 21
-19.816
 72
1
 10
4.658
 20
-19.816
 11
4.676
 21
-19.697
 72
1
 10
4.676
 20
-19.697
 11
4.695
 21
-19.579
 72
1
 10
4.695
 20
-19.579
 11
4.716
 21
-19.462
 72
1
 10
4.716
 20
-19.462
 11
4.738
 21
-19.347
 72
1
 10
4.738
 20
-19.347
 11
4.763
 21
-19.235
 72
1
 10
4.763
 20
-19.235
 11
4.790
 21
-19.126
 72
1
 10
4.790
 20
-19.126
 11
4.818
 21
-19.022
 72
1
 10
4.818
 20
-19.022
 11
4.849
 21
-18.922
 72
1
 10
4.849
 20
-18.922
 11
4.879
 21
-18.826
 72
1
 10
4.879
 20
-18.826
 11
4.922
 21
-18.636
 72
1
 10
4.922
 20
-18.636
 11
4.947
 21
-18.452
 72
1
 10
4.947
 20
-18.452
 11
4.956
 21
-18.276
 72
1
 10
4.956
 20
-18.276
 11
4.950
 21
-18.108
 72
1
 10
4.950
 20
-18.108
 11
4.934
 21
-17.950
 72
1
 10
4.934
 20
-17.950
 11
4.910
 21
-17.805
 72
1
 10
4.910
 20
-17.805
 11
4.880
 21
-17.674
 72
1
 10
4.880
 20
-17.674
 11
4.846
 21
-17.558
 72
1
 10
4.846
 20
-17.558
 11
4.796
 21
-17.416
 72
1
 10
4.796
 20
-17.416
 11
4.779
 21
-17.370
 72
1
 10
4.779
 20
-17.370
 11
4.744
 21
-17.247
 72
1
 10
4.744
 20
-17.247
 11
4.708
 21
-17.089
 72
1
 10
4.708
 20
-17.089
 11
4.672
 21
-16.902
 72
1
 10
4.672
 20
-16.902
 11
4.654
 21
-16.800
 72
1
 10
4.654
 20
-16.800
 11
4.637
 21
-16.693
 72
1
 10
4.637
 20
-16.693
 11
4.621
 21
-16.582
 72
1
 10
4.621
 20
-16.582
 11
4.605
 21
-16.467
 72
1
 10
4.605
 20
-16.467
 11
4.590
 21
-16.350
 72
1
 10
4.590
 20
-16.350
 11
4.577
 21
-16.232
 72
1
 10
4.577
 20
-16.232
 11
4.564
 21
-16.112
 72
1
 10
4.564
 20
-16.112
 11
4.553
 21
-15.993
 72
1
 10
4.553
 20
-15.993
 11
4.544
 21
-15.874
 72
1
 10
4.544
 20
-15.874
 11
4.537
 21
-15.757
 72
1
 10
4.537
 20
-15.757
 11
4.531
 21
-15.643
 72
1
 10
4.531
 20
-15.643
 11
4.528
 21
-15.532
 72
1
 10
4.528
 20
-15.532
 11
4.527
 21
-15.425
 72
1
 10
4.527
 20
-15.425
 11
4.527
 21
-15.223
 72
1
 10
4.527
 20
-15.223
 11
4.528
 21
-15.036
 72
1
 10
4.528
 20
-15.036
 11
4.531
 21
-14.863
 72
1
 10
4.531
 20
-14.863
 11
4.537
 21
-14.704
 72
1
 10
4.537
 20
-14.704
 11
4.547
 21
-14.557
 72
1
 10
4.547
 20
-14.557
 11
4.561
 21
-14.421
 72
1
 10
4.561
 20
-14.421
 11
4.582
 21
-14.296
 72
1
 10
4.582
 20
-14.296
 11
4.609
 21
-14.179
 72
1
 10
4.609
 20
-14.179
 11
4.644
 21
-14.072
 72
1
 10
4.644
 20
-14.072
 11
4.688
 21
-13.972
 72
1
 10
4.688
 20
-13.972
 11
4.723
 21
-13.868
 72
1
 10
4.723
 20
-13.868
 11
4.733
 21
-13.754
 72
1
 10
4.733
 20
-13.754
 11
4.723
 21
-13.629
 72
1
 10
4.723
 20
-13.629
 11
4.697
 21
-13.495
 72
1
 10
4.697
 20
-13.495
 11
4.661
 21
-13.353
 72
1
 10
4.661
 20
-13.353
 11
4.618
 21
-13.204
 72
1
 10
4.618
 20
-13.204
 11
4.574
 21
-13.051
 72
1
 10
4.574
 20
-13.051
 11
4.531
 21
-12.894
 72
1
 10
4.531
 20
-12.894
 11
4.496
 21
-12.734
 72
1
 10
4.496
 20
-12.734
 11
4.473
 21
-12.572
 72
1
 10
4.473
 20
-12.572
 11
4.462
 21
-12.492
 72
1
 10
4.462
 20
-12.492
 11
4.423
 21
-12.331
 72
1
 10
4.423
 20
-12.331
 11
4.367
 21
-12.174
 72
1
 10
4.367
 20
-12.174
 11
4.300
 21
-12.021
 72
1
 10
4.300
 20
-12.021
 11
4.227
 21
-11.875
 72
1
 10
4.227
 20
-11.875
 11
4.154
 21
-11.738
 72
1
 10
4.154
 20
-11.738
 11
4.088
 21
-11.612
 72
1
 10
4.088
 20
-11.612
 11
4.034
 21
-11.498
 72
1
 10
4.034
 20
-11.498
 11
3.997
 21
-11.398
 72
1
 10
3.997
 20
-11.398
 11
3.988
 21
-11.281
 72
1
 10
3.988
 20
-11.281
 11
4.008
 21
-11.198
 72
1
 10
4.008
 20
-11.198
 11
4.032
 21
-11.082
 72
1
 10
4.032
 20
-11.082
 11
4.062
 21
-10.939
 72
1
 10
4.062
 20
-10.939
 11
4.094
 21
-10.775
 72
1
 10
4.094
 20
-10.775
 11
4.130
 21
-10.595
 72
1
 10
4.130
 20
-10.595
 11
4.167
 21
-10.405
 72
1
 10
4.167
 20
-10.405
 11
4.204
 21
-10.212
 72
1
 10
4.204
 20
-10.212
 11
4.242
 21
-10.020
 72
1
 10
4.242
 20
-10.020
 11
4.278
 21
-9.837
 72
1
 10
4.278
 20
-9.837
 11
4.311
 21
-9.666
 72
1
 10
4.311
 20
-9.666
 11
4.340
 21
-9.487
 72
1
 10
4.340
 20
-9.487
 11
4.353
 21
-9.386
 72
1
 10
4.353
 20
-9.386
 11
4.364
 21
-9.279
 72
1
 10
4.364
 20
-9.279
 11
4.374
 21
-9.167
 72
1
 10
4.374
 20
-9.167
 11
4.382
 21
-9.051
 72
1
 10
4.382
 20
-9.051
 11
4.389
 21
-8.933
 72
1
 10
4.389
 20
-8.933
 11
4.396
 21
-8.814
 72
1
 10
4.396
 20
-8.814
 11
4.401
 21
-8.695
 72
1
 10
4.401
 20
-8.695
 11
4.405
 21
-8.577
 72
1
 10
4.405
 20
-8.577
 11
4.409
 21
-8.461
 72
1
 10
4.409
 20
-8.461
 11
4.412
 21
-8.349
 72
1
 10
4.412
 20
-8.349
 11
4.414
 21
-8.242
 72
1
 10
4.414
 20
-8.242
 11
4.417
 21
-8.047
 72
1
 10
4.417
 20
-8.047
 11
4.419
 21
-7.886
 72
1
 10
4.419
 20
-7.886
 11
4.419
 21
-7.729
 72
1
 10
4.419
 20
-7.729
 11
4.416
 21
-7.636
 72
1
 10
4.416
 20
-7.636
 11
4.407
 21
-7.491
 72
1
 10
4.407
 20
-7.491
 11
4.394
 21
-7.306
 72
1
 10
4.394
 20
-7.306
 11
4.386
 21
-7.201
 72
1
 10
4.386
 20
-7.201
 11
4.378
 21
-7.090
 72
1
 10
4.378
 20
-7.090
 11
4.368
 21
-6.974
 72
1
 10
4.368
 20
-6.974
 11
4.358
 21
-6.855
 72
1
 10
4.358
 20
-6.855
 11
4.348
 21
-6.733
 72
1
 10
4.348
 20
-6.733
 11
4.338
 21
-6.609
 72
1
 10
4.338
 20
-6.609
 11
4.327
 21
-6.486
 72
1
 10
4.327
 20
-6.486
 11
4.316
 21
-6.365
 72
1
 10
4.316
 20
-6.365
 11
4.305
 21
-6.246
 72
1
 10
4.305
 20
-6.246
 11
4.295
 21
-6.131
 72
1
 10
4.295
 20
-6.131
 11
4.285
 21
-6.022
 72
1
 10
4.285
 20
-6.022
 11
4.275
 21
-5.919
 72
1
 10
4.275
 20
-5.919
 11
4.257
 21
-5.738
 72
1
 10
4.257
 20
-5.738
 11
4.231
 21
-5.568
 72
1
 10
4.231
 20
-5.568
 11
4.184
 21
-5.382
 72
1
 10
4.184
 20
-5.382
 11
4.155
 21
-5.284
 72
1
 10
4.155
 20
-5.284
 11
4.122
 21
-5.184
 72
1
 10
4.122
 20
-5.184
 11
4.086
 21
-5.082
 72
1
 10
4.086
 20
-5.082
 11
4.047
 21
-4.979
 72
1
 10
4.047
 20
-4.979
 11
4.005
 21
-4.874
 72
1
 10
4.005
 20
-4.874
 11
3.962
 21
-4.769
 72
1
 10
3.962
 20
-4.769
 11
3.916
 21
-4.665
 72
1
 10
3.916
 20
-4.665
 11
3.870
 21
-4.560
 72
1
 10
3.870
 20
-4.560
 11
3.823
 21
-4.457
 72
1
 10
3.823
 20
-4.457
 11
3.775
 21
-4.355
 72
1
 10
3.775
 20
-4.355
 11
3.728
 21
-4.255
 72
1
 10
3.728
 20
-4.255
 11
3.681
 21
-4.157
 72
1
 10
3.681
 20
-4.157
 11
3.634
 21
-4.063
 72
1
 10
3.634
 20
-4.063
 11
3.589
 21
-3.971
 72
1
 10
3.589
 20
-3.971
 11
3.504
 21
-3.801
 72
1
 10
3.504
 20
-3.801
 11
3.463
 21
-3.721
 72
1
 10
3.463
 20
-3.721
 11
3.373
 21
-3.570
 72
1
 10
3.373
 20
-3.570
 11
3.278
 21
-3.429
 72
1
 10
3.278
 20
-3.429
 11
3.178
 21
-3.300
 72
1
 10
3.178
 20
-3.300
 11
3.077
 21
-3.182
 72
1
 10
3.077
 20
-3.182
 11
2.976
 21
-3.077
 72
1
 10
2.976
 20
-3.077
 11
2.878
 21
-2.986
 72
1
 10
2.878
 20
-2.986
 11
2.785
 21
-2.908
 72
1
 10
2.785
 20
-2.908
 11
2.699
 21
-2.845
 72
1
 10
2.699
 20
-2.845
 11
2.589
 21
-2.778
 72
1
 10
2.589
 20
-2.778
 11
2.525
 21
-2.741
 72
1
 10
2.525
 20
-2.741
 11
2.428
 21
-2.672
 72
1
 10
2.428
 20
-2.672
 11
2.331
 21
-2.592
 72
1
 10
2.331
 20
-2.592
 11
2.234
 21
-2.508
 72
1
 10
2.234
 20
-2.508
 11
2.137
 21
-2.426
 72
1
 10
2.137
 20
-2.426
 11
2.040
 21
-2.352
 72
1
 10
2.040
 20
-2.352
 11
1.943
 21
-2.294
 72
1
 10
1.943
 20
-2.294
 11
1.882
 21
-2.263
 72
1
 10
1.882
 20
-2.263
 11
1.772
 21
-2.203
 72
1
 10
1.772
 20
-2.203
 11
1.668
 21
-2.133
 72
1
 10
1.668
 20
-2.133
 11
1.586
 21
-2.064
 72
1
 10
1.586
 20
-2.064
 11
1.496
 21
-1.974
 72
1
 10
1.496
 20
-1.974
 11
1.428
 21
-1.899
 72
1
 10
1.428
 20
-1.899
 11
1.351
 21
-1.810
 72
1
 10
1.351
 20
-1.810
 11
1.308
 21
-1.759
 72
1
 10
1.308
 20
-1.759
 11
1.201
 21
-1.649
 72
1
 10
1.201
 20
-1.649
 11
1.075
 21
-1.530
 72
1
 10
1.075
 20
-1.530
 11
0.935
 21
-1.409
 72
1
 10
0.935
 20
-1.409
 11
0.787
 21
-1.289
 72
1
 10
0.787
 20
-1.289
 11
0.638
 21
-1.176
 72
1
 10
0.638
 20
-1.176
 11
0.494
 21
-1.075
 72
1
 10
0.494
 20
-1.075
 11
0.360
 21
-0.992
 72
1
 10
0.360
 20
-0.992
 11
0.244
 21
-0.932
 72
1
 10
0.244
 20
-0.932
 11
0.114
 21
-0.895
 72
1
 10
0.114
 20
-0.895
 11
0.039
 21
-0.893
 72
1
 10
0.039
 20
-0.893
 11
-0.103
 21
-0.886
 72
1
 10
-0.103
 20
-0.886
 11
-0.209
 21
-0.880
 72
1
 10
-0.209
 20
-0.880
 11
-0.317
 21
-0.872
 72
1
 10
-0.317
 20
-0.872
 11
-0.422
 21
-0.864
 72
1
 10
-0.422
 20
-0.864
 11
-0.560
 21
-0.853
 72
1
 10
-0.560
 20
-0.853
 11
-0.693
 21
-0.841
 72
1
 10
-0.693
 20
-0.841
 11
-0.732
 21
-0.826
 72
1
 10
-0.732
 20
-0.826
 11
-0.836
 21
-0.783
 72
1
 10
-0.836
 20
-0.783
 11
-0.994
 21
-0.717
 72
1
 10
-0.994
 20
-0.717
 11
-1.089
 21
-0.678
 72
1
 10
-1.089
 20
-0.678
 11
-1.191
 21
-0.634
 72
1
 10
-1.191
 20
-0.634
 11
-1.300
 21
-0.588
 72
1
 10
-1.300
 20
-0.588
 11
-1.413
 21
-0.538
 72
1
 10
-1.413
 20
-0.538
 11
-1.529
 21
-0.487
 72
1
 10
-1.529
 20
-0.487
 11
-1.647
 21
-0.434
 72
1
 10
-1.647
 20
-0.434
 11
-1.763
 21
-0.381
 72
1
 10
-1.763
 20
-0.381
 11
-1.877
 21
-0.327
 72
1
 10
-1.877
 20
-0.327
 11
-1.988
 21
-0.273
 72
1
 10
-1.988
 20
-0.273
 11
-2.092
 21
-0.221
 72
1
 10
-2.092
 20
-0.221
 11
-2.276
 21
-0.122
 72
1
 10
-2.276
 20
-0.122
 11
-2.416
 21
-0.034
 72
1
 10
-2.416
 20
-0.034
 11
-2.524
 21
0.074
 72
1
 10
-2.524
 20
0.074
 11
-2.623
 21
0.231
 72
1
 10
-2.623
 20
0.231
 11
-2.669
 21
0.324
 72
1
 10
-2.669
 20
0.324
 11
-2.714
 21
0.426
 72
1
 10
-2.714
 20
0.426
 11
-2.756
 21
0.536
 72
1
 10
-2.756
 20
0.536
 11
-2.797
 21
0.651
 72
1
 10
-2.797
 20
0.651
 11
-2.836
 21
0.771
 72
1
 10
-2.836
 20
0.771
 11
-2.873
 21
0.895
 72
1
 10
-2.873
 20
0.895
 11
-2.908
 21
1.021
 72
1
 10
-2.908
 20
1.021
 11
-2.942
 21
1.148
 72
1
 10
-2.942
 20
1.148
 11
-2.975
 21
1.275
 72
1
 10
-2.975
 20
1.275
 11
-3.006
 21
1.401
 72
1
 10
-3.006
 20
1.401
 11
-3.036
 21
1.525
 72
1
 10
-3.036
 20
1.525
 11
-3.065
 21
1.645
 72
1
 10
-3.065
 20
1.645
 11
-3.092
 21
1.760
 72
1
 10
-3.092
 20
1.760
 11
-3.119
 21
1.870
 72
1
 10
-3.119
 20
1.870
 11
-3.169
 21
2.065
 72
1
 10
-3.169
 20
2.065
 11
-3.197
 21
2.149
 72
1
 10
-3.197
 20
2.149
 11
-3.278
 21
2.291
 72
1
 10
-3.278
 20
2.291
 11
-3.383
 21
2.401
 72
1
 10
-3.383
 20
2.401
 11
-3.508
 21
2.484
 72
1
 10
-3.508
 20
2.484
 11
-3.643
 21
2.545
 72
1
 10
-3.643
 20
2.545
 11
-3.784
 21
2.590
 72
1
 10
-3.784
 20
2.590
 11
-3.924
 21
2.623
 72
1
 10
-3.924
 20
2.623
 11
-4.054
 21
2.648
 72
1
 10
-4.054
 20
2.648
 11
-4.170
 21
2.671
 72
1
 10
-4.170
 20
2.671
 11
-4.299
 21
2.711
 72
1
 10
-4.299
 20
2.711
 11
4.096
 21
5.832
 72
1
 10
4.096
 20
5.832
 11
4.086
 21
5.782
 72
1
 10
4.086
 20
5.782
 11
4.063
 21
5.673
 72
1
 10
4.063
 20
5.673
 11
4.038
 21
5.553
 72
1
 10
4.038
 20
5.553
 11
4.017
 21
5.455
 72
1
 10
4.017
 20
5.455
 11
3.993
 21
5.343
 72
1
 10
3.993
 20
5.343
 11
3.965
 21
5.217
 72
1
 10
3.965
 20
5.217
 11
3.935
 21
5.079
 72
1
 10
3.935
 20
5.079
 11
3.922
 21
4.950
 72
1
 10
3.922
 20
4.950
 11
3.965
 21
4.815
 72
1
 10
3.965
 20
4.815
 11
4.059
 21
4.737
 72
1
 10
4.059
 20
4.737
 11
4.177
 21
4.700
 72
1
 10
4.177
 20
4.700
 11
4.294
 21
4.692
 72
1
 10
4.294
 20
4.692
 11
4.419
 21
4.702
 72
1
 10
4.419
 20
4.702
 11
4.419
 21
4.684
 72
1
 10
4.419
 20
4.684
 11
4.426
 21
4.580
 72
1
 10
4.426
 20
4.580
 11
4.437
 21
4.476
 72
1
 10
4.437
 20
4.476
 11
4.456
 21
4.343
 72
1
 10
4.456
 20
4.343
 11
4.474
 21
4.240
 72
1
 10
4.474
 20
4.240
 11
4.497
 21
4.126
 72
1
 10
4.497
 20
4.126
 11
4.527
 21
4.002
 72
1
 10
4.527
 20
4.002
 11
4.568
 21
3.878
 72
1
 10
4.568
 20
3.878
 11
4.626
 21
3.762
 72
1
 10
4.626
 20
3.762
 11
4.696
 21
3.654
 72
1
 10
4.696
 20
3.654
 11
4.776
 21
3.553
 72
1
 10
4.776
 20
3.553
 11
4.863
 21
3.457
 72
1
 10
4.863
 20
3.457
 11
4.953
 21
3.367
 72
1
 10
4.953
 20
3.367
 11
5.043
 21
3.280
 72
1
 10
5.043
 20
3.280
 11
5.129
 21
3.196
 72
1
 10
5.129
 20
3.196
 11
5.209
 21
3.114
 72
1
 10
5.209
 20
3.114
 11
5.280
 21
3.034
 72
1
 10
5.280
 20
3.034
 11
5.342
 21
2.954
 72
1
 10
5.342
 20
2.954
 11
5.428
 21
2.837
 72
1
 10
5.428
 20
2.837
 11
5.514
 21
2.716
 72
1
 10
5.514
 20
2.716
 11
5.576
 21
2.630
 72
1
 10
5.576
 20
2.630
 11
5.644
 21
2.538
 72
1
 10
5.644
 20
2.538
 11
5.721
 21
2.437
 72
1
 10
5.721
 20
2.437
 11
5.810
 21
2.326
 72
1
 10
5.810
 20
2.326
 11
5.913
 21
2.202
 72
1
 10
5.913
 20
2.202
 11
6.033
 21
2.065
 72
1
 10
6.033
 20
2.065
 11
6.102
 21
1.993
 72
1
 10
6.102
 20
1.993
 11
6.177
 21
1.923
 72
1
 10
6.177
 20
1.923
 11
6.258
 21
1.855
 72
1
 10
6.258
 20
1.855
 11
6.344
 21
1.789
 72
1
 10
6.344
 20
1.789
 11
6.434
 21
1.726
 72
1
 10
6.434
 20
1.726
 11
6.525
 21
1.665
 72
1
 10
6.525
 20
1.665
 11
6.619
 21
1.607
 72
1
 10
6.619
 20
1.607
 11
6.712
 21
1.553
 72
1
 10
6.712
 20
1.553
 11
6.804
 21
1.501
 72
1
 10
6.804
 20
1.501
 11
6.894
 21
1.453
 72
1
 10
6.894
 20
1.453
 11
7.064
 21
1.368
 72
1
 10
7.064
 20
1.368
 11
7.212
 21
1.298
 72
1
 10
7.212
 20
1.298
 11
7.328
 21
1.247
 72
1
 10
7.328
 20
1.247
 11
7.433
 21
1.204
 72
1
 10
7.433
 20
1.204
 11
7.461
 21
1.174
 72
1
 10
7.461
 20
1.174
 11
7.540
 21
1.090
 72
1
 10
7.540
 20
1.090
 11
7.656
 21
0.966
 72
1
 10
7.656
 20
0.966
 11
7.725
 21
0.891
 72
1
 10
7.725
 20
0.891
 11
7.799
 21
0.811
 72
1
 10
7.799
 20
0.811
 11
7.877
 21
0.727
 72
1
 10
7.877
 20
0.727
 11
7.957
 21
0.639
 72
1
 10
7.957
 20
0.639
 11
8.038
 21
0.550
 72
1
 10
8.038
 20
0.550
 11
8.118
 21
0.460
 72
1
 10
8.118
 20
0.460
 11
8.196
 21
0.372
 72
1
 10
8.196
 20
0.372
 11
8.271
 21
0.286
 72
1
 10
8.271
 20
0.286
 11
8.404
 21
0.129
 72
1
 10
8.404
 20
0.129
 11
8.505
 21
0.001
 72
1
 10
8.505
 20
0.001
 11
8.563
 21
-0.088
 72
1
 10
8.563
 20
-0.088
 11
8.602
 21
-0.167
 72
1
 10
8.602
 20
-0.167
 11
8.655
 21
-0.274
 72
1
 10
8.655
 20
-0.274
 11
8.718
 21
-0.402
 72
1
 10
8.718
 20
-0.402
 11
8.786
 21
-0.546
 72
1
 10
8.786
 20
-0.546
 11
8.859
 21
-0.700
 72
1
 10
8.859
 20
-0.700
 11
8.931
 21
-0.859
 72
1
 10
8.931
 20
-0.859
 11
9.000
 21
-1.017
 72
1
 10
9.000
 20
-1.017
 11
9.062
 21
-1.169
 72
1
 10
9.062
 20
-1.169
 11
9.115
 21
-1.310
 72
1
 10
9.115
 20
-1.310
 11
9.155
 21
-1.433
 72
1
 10
9.155
 20
-1.433
 11
9.190
 21
-1.558
 72
1
 10
9.190
 20
-1.558
 11
9.229
 21
-1.704
 72
1
 10
9.229
 20
-1.704
 11
9.272
 21
-1.866
 72
1
 10
9.272
 20
-1.866
 11
9.315
 21
-2.040
 72
1
 10
9.315
 20
-2.040
 11
9.356
 21
-2.220
 72
1
 10
9.356
 20
-2.220
 11
9.395
 21
-2.402
 72
1
 10
9.395
 20
-2.402
 11
9.428
 21
-2.580
 72
1
 10
9.428
 20
-2.580
 11
9.454
 21
-2.750
 72
1
 10
9.454
 20
-2.750
 11
9.471
 21
-2.908
 72
1
 10
9.471
 20
-2.908
 11
9.477
 21
-3.047
 72
1
 10
9.477
 20
-3.047
 11
9.475
 21
-3.129
 72
1
 10
9.475
 20
-3.129
 11
9.467
 21
-3.243
 72
1
 10
9.467
 20
-3.243
 11
9.455
 21
-3.384
 72
1
 10
9.455
 20
-3.384
 11
9.438
 21
-3.551
 72
1
 10
9.438
 20
-3.551
 11
9.419
 21
-3.738
 72
1
 10
9.419
 20
-3.738
 11
9.396
 21
-3.942
 72
1
 10
9.396
 20
-3.942
 11
9.371
 21
-4.160
 72
1
 10
9.371
 20
-4.160
 11
9.345
 21
-4.387
 72
1
 10
9.345
 20
-4.387
 11
9.317
 21
-4.621
 72
1
 10
9.317
 20
-4.621
 11
9.289
 21
-4.857
 72
1
 10
9.289
 20
-4.857
 11
9.261
 21
-5.092
 72
1
 10
9.261
 20
-5.092
 11
9.233
 21
-5.322
 72
1
 10
9.233
 20
-5.322
 11
9.207
 21
-5.543
 72
1
 10
9.207
 20
-5.543
 11
9.182
 21
-5.752
 72
1
 10
9.182
 20
-5.752
 11
9.160
 21
-5.946
 72
1
 10
9.160
 20
-5.946
 11
9.140
 21
-6.119
 72
1
 10
9.140
 20
-6.119
 11
9.124
 21
-6.270
 72
1
 10
9.124
 20
-6.270
 11
9.111
 21
-6.394
 72
1
 10
9.111
 20
-6.394
 11
9.101
 21
-6.545
 72
1
 10
9.101
 20
-6.545
 11
9.104
 21
-6.646
 72
1
 10
9.104
 20
-6.646
 11
9.113
 21
-6.780
 72
1
 10
9.113
 20
-6.780
 11
9.127
 21
-6.941
 72
1
 10
9.127
 20
-6.941
 11
9.145
 21
-7.121
 72
1
 10
9.145
 20
-7.121
 11
9.168
 21
-7.312
 72
1
 10
9.168
 20
-7.312
 11
9.194
 21
-7.506
 72
1
 10
9.194
 20
-7.506
 11
9.222
 21
-7.696
 72
1
 10
9.222
 20
-7.696
 11
9.252
 21
-7.873
 72
1
 10
9.252
 20
-7.873
 11
9.284
 21
-8.030
 72
1
 10
9.284
 20
-8.030
 11
9.316
 21
-8.160
 72
1
 10
9.316
 20
-8.160
 11
9.348
 21
-8.280
 72
1
 10
9.348
 20
-8.280
 11
9.379
 21
-8.415
 72
1
 10
9.379
 20
-8.415
 11
9.408
 21
-8.560
 72
1
 10
9.408
 20
-8.560
 11
9.435
 21
-8.713
 72
1
 10
9.435
 20
-8.713
 11
9.457
 21
-8.873
 72
1
 10
9.457
 20
-8.873
 11
9.475
 21
-9.035
 72
1
 10
9.475
 20
-9.035
 11
9.487
 21
-9.199
 72
1
 10
9.487
 20
-9.199
 11
9.492
 21
-9.360
 72
1
 10
9.492
 20
-9.360
 11
9.489
 21
-9.517
 72
1
 10
9.489
 20
-9.517
 11
9.477
 21
-9.666
 72
1
 10
9.477
 20
-9.666
 11
9.470
 21
-9.736
 72
1
 10
9.470
 20
-9.736
 11
9.460
 21
-9.861
 72
1
 10
9.460
 20
-9.861
 11
9.452
 21
-10.014
 72
1
 10
9.452
 20
-10.014
 11
9.451
 21
-10.136
 72
1
 10
9.451
 20
-10.136
 11
9.450
 21
-10.236
 72
1
 10
9.450
 20
-10.236
 11
9.445
 21
-10.354
 72
1
 10
9.445
 20
-10.354
 11
9.424
 21
-10.474
 72
1
 10
9.424
 20
-10.474
 11
9.406
 21
-10.620
 72
1
 10
9.406
 20
-10.620
 11
9.397
 21
-10.749
 72
1
 10
9.397
 20
-10.749
 11
9.389
 21
-10.910
 72
1
 10
9.389
 20
-10.910
 11
9.381
 21
-11.099
 72
1
 10
9.381
 20
-11.099
 11
9.374
 21
-11.312
 72
1
 10
9.374
 20
-11.312
 11
9.368
 21
-11.546
 72
1
 10
9.368
 20
-11.546
 11
9.364
 21
-11.796
 72
1
 10
9.364
 20
-11.796
 11
9.362
 21
-12.059
 72
1
 10
9.362
 20
-12.059
 11
9.363
 21
-12.330
 72
1
 10
9.363
 20
-12.330
 11
9.367
 21
-12.606
 72
1
 10
9.367
 20
-12.606
 11
9.373
 21
-12.884
 72
1
 10
9.373
 20
-12.884
 11
9.383
 21
-13.158
 72
1
 10
9.383
 20
-13.158
 11
9.398
 21
-13.425
 72
1
 10
9.398
 20
-13.425
 11
9.416
 21
-13.682
 72
1
 10
9.416
 20
-13.682
 11
9.439
 21
-13.925
 72
1
 10
9.439
 20
-13.925
 11
9.467
 21
-14.149
 72
1
 10
9.467
 20
-14.149
 11
9.501
 21
-14.350
 72
1
 10
9.501
 20
-14.350
 11
9.540
 21
-14.526
 72
1
 10
9.540
 20
-14.526
 11
9.585
 21
-14.671
 72
1
 10
9.585
 20
-14.671
 11
9.635
 21
-14.806
 72
1
 10
9.635
 20
-14.806
 11
9.688
 21
-14.953
 72
1
 10
9.688
 20
-14.953
 11
9.742
 21
-15.110
 72
1
 10
9.742
 20
-15.110
 11
9.798
 21
-15.276
 72
1
 10
9.798
 20
-15.276
 11
9.855
 21
-15.449
 72
1
 10
9.855
 20
-15.449
 11
9.912
 21
-15.628
 72
1
 10
9.912
 20
-15.628
 11
9.969
 21
-15.811
 72
1
 10
9.969
 20
-15.811
 11
10.024
 21
-15.997
 72
1
 10
10.024
 20
-15.997
 11
10.078
 21
-16.185
 72
1
 10
10.078
 20
-16.185
 11
10.130
 21
-16.373
 72
1
 10
10.130
 20
-16.373
 11
10.179
 21
-16.560
 72
1
 10
10.179
 20
-16.560
 11
10.224
 21
-16.744
 72
1
 10
10.224
 20
-16.744
 11
10.266
 21
-16.924
 72
1
 10
10.266
 20
-16.924
 11
10.303
 21
-17.099
 72
1
 10
10.303
 20
-17.099
 11
10.334
 21
-17.267
 72
1
 10
10.334
 20
-17.267
 11
10.360
 21
-17.426
 72
1
 10
10.360
 20
-17.426
 11
10.379
 21
-17.576
 72
1
 10
10.379
 20
-17.576
 11
10.391
 21
-17.715
 72
1
 10
10.391
 20
-17.715
 11
10.396
 21
-17.841
 72
1
 10
10.396
 20
-17.841
 11
10.392
 21
-17.954
 72
1
 10
10.392
 20
-17.954
 11
10.420
 21
-18.145
 72
1
 10
10.420
 20
-18.145
 11
10.524
 21
-18.301
 72
1
 10
10.524
 20
-18.301
 11
10.600
 21
-18.367
 72
1
 10
10.600
 20
-18.367
 11
10.688
 21
-18.426
 72
1
 10
10.688
 20
-18.426
 11
10.787
 21
-18.479
 72
1
 10
10.787
 20
-18.479
 11
10.894
 21
-18.525
 72
1
 10
10.894
 20
-18.525
 11
11.008
 21
-18.565
 72
1
 10
11.008
 20
-18.565
 11
11.125
 21
-18.600
 72
1
 10
11.125
 20
-18.600
 11
11.245
 21
-18.630
 72
1
 10
11.245
 20
-18.630
 11
11.365
 21
-18.655
 72
1
 10
11.365
 20
-18.655
 11
11.482
 21
-18.677
 72
1
 10
11.482
 20
-18.677
 11
11.595
 21
-18.695
 72
1
 10
11.595
 20
-18.695
 11
11.799
 21
-18.724
 72
1
 10
11.799
 20
-18.724
 11
11.960
 21
-18.744
 72
1
 10
11.960
 20
-18.744
 11
12.060
 21
-18.761
 72
1
 10
12.060
 20
-18.761
 11
12.152
 21
-18.789
 72
1
 10
12.152
 20
-18.789
 11
12.292
 21
-18.838
 72
1
 10
12.292
 20
-18.838
 11
12.469
 21
-18.901
 72
1
 10
12.469
 20
-18.901
 11
12.569
 21
-18.937
 72
1
 10
12.569
 20
-18.937
 11
12.673
 21
-18.974
 72
1
 10
12.673
 20
-18.974
 11
12.783
 21
-19.012
 72
1
 10
12.783
 20
-19.012
 11
12.895
 21
-19.050
 72
1
 10
12.895
 20
-19.050
 11
13.008
 21
-19.088
 72
1
 10
13.008
 20
-19.088
 11
13.122
 21
-19.125
 72
1
 10
13.122
 20
-19.125
 11
13.235
 21
-19.160
 72
1
 10
13.235
 20
-19.160
 11
13.346
 21
-19.193
 72
1
 10
13.346
 20
-19.193
 11
13.453
 21
-19.223
 72
1
 10
13.453
 20
-19.223
 11
13.555
 21
-19.248
 72
1
 10
13.555
 20
-19.248
 11
13.740
 21
-19.286
 72
1
 10
13.740
 20
-19.286
 11
13.890
 21
-19.299
 72
1
 10
13.890
 20
-19.299
 11
14.007
 21
-19.288
 72
1
 10
14.007
 20
-19.288
 11
14.141
 21
-19.237
 72
1
 10
14.141
 20
-19.237
 11
14.234
 21
-19.153
 72
1
 10
14.234
 20
-19.153
 11
14.299
 21
-19.047
 72
1
 10
14.299
 20
-19.047
 11
14.346
 21
-18.930
 72
1
 10
14.346
 20
-18.930
 11
14.385
 21
-18.813
 72
1
 10
14.385
 20
-18.813
 11
14.428
 21
-18.707
 72
1
 10
14.428
 20
-18.707
 11
14.463
 21
-18.629
 72
1
 10
14.463
 20
-18.629
 11
14.504
 21
-18.527
 72
1
 10
14.504
 20
-18.527
 11
14.548
 21
-18.406
 72
1
 10
14.548
 20
-18.406
 11
14.595
 21
-18.272
 72
1
 10
14.595
 20
-18.272
 11
14.643
 21
-18.129
 72
1
 10
14.643
 20
-18.129
 11
14.692
 21
-17.983
 72
1
 10
14.692
 20
-17.983
 11
14.739
 21
-17.839
 72
1
 10
14.739
 20
-17.839
 11
14.783
 21
-17.702
 72
1
 10
14.783
 20
-17.702
 11
14.823
 21
-17.577
 72
1
 10
14.823
 20
-17.577
 11
14.859
 21
-17.470
 72
1
 10
14.859
 20
-17.470
 11
14.888
 21
-17.356
 72
1
 10
14.888
 20
-17.356
 11
14.911
 21
-17.214
 72
1
 10
14.911
 20
-17.214
 11
14.929
 21
-17.051
 72
1
 10
14.929
 20
-17.051
 11
14.943
 21
-16.874
 72
1
 10
14.943
 20
-16.874
 11
14.953
 21
-16.689
 72
1
 10
14.953
 20
-16.689
 11
14.959
 21
-16.505
 72
1
 10
14.959
 20
-16.505
 11
14.963
 21
-16.327
 72
1
 10
14.963
 20
-16.327
 11
14.965
 21
-16.164
 72
1
 10
14.965
 20
-16.164
 11
14.966
 21
-16.022
 72
1
 10
14.966
 20
-16.022
 11
14.966
 21
-15.909
 72
1
 10
14.966
 20
-15.909
 11
14.972
 21
-15.784
 72
1
 10
14.972
 20
-15.784
 11
14.990
 21
-15.611
 72
1
 10
14.990
 20
-15.611
 11
15.005
 21
-15.508
 72
1
 10
15.005
 20
-15.508
 11
15.024
 21
-15.396
 72
1
 10
15.024
 20
-15.396
 11
15.049
 21
-15.276
 72
1
 10
15.049
 20
-15.276
 11
15.078
 21
-15.149
 72
1
 10
15.078
 20
-15.149
 11
15.113
 21
-15.017
 72
1
 10
15.113
 20
-15.017
 11
15.155
 21
-14.880
 72
1
 10
15.155
 20
-14.880
 11
15.202
 21
-14.739
 72
1
 10
15.202
 20
-14.739
 11
15.257
 21
-14.595
 72
1
 10
15.257
 20
-14.595
 11
15.319
 21
-14.451
 72
1
 10
15.319
 20
-14.451
 11
15.388
 21
-14.305
 72
1
 10
15.388
 20
-14.305
 11
15.466
 21
-14.161
 72
1
 10
15.466
 20
-14.161
 11
15.552
 21
-14.018
 72
1
 10
15.552
 20
-14.018
 11
15.647
 21
-13.878
 72
1
 10
15.647
 20
-13.878
 11
15.751
 21
-13.743
 72
1
 10
15.751
 20
-13.743
 11
15.865
 21
-13.612
 72
1
 10
15.865
 20
-13.612
 11
15.989
 21
-13.487
 72
1
 10
15.989
 20
-13.487
 11
16.105
 21
-13.374
 72
1
 10
16.105
 20
-13.374
 11
16.198
 21
-13.274
 72
1
 10
16.198
 20
-13.274
 11
16.318
 21
-13.110
 72
1
 10
16.318
 20
-13.110
 11
16.364
 21
-12.983
 72
1
 10
16.364
 20
-12.983
 11
16.350
 21
-12.882
 72
1
 10
16.350
 20
-12.882
 11
16.292
 21
-12.794
 72
1
 10
16.292
 20
-12.794
 11
16.202
 21
-12.708
 72
1
 10
16.202
 20
-12.708
 11
16.096
 21
-12.612
 72
1
 10
16.096
 20
-12.612
 11
15.989
 21
-12.494
 72
1
 10
15.989
 20
-12.494
 11
15.894
 21
-12.341
 72
1
 10
15.894
 20
-12.341
 11
15.857
 21
-12.248
 72
1
 10
15.857
 20
-12.248
 11
15.827
 21
-12.142
 72
1
 10
15.827
 20
-12.142
 11
15.807
 21
-12.035
 72
1
 10
15.807
 20
-12.035
 11
15.789
 21
-11.852
 72
1
 10
15.789
 20
-11.852
 11
15.797
 21
-11.705
 72
1
 10
15.797
 20
-11.705
 11
15.828
 21
-11.583
 72
1
 10
15.828
 20
-11.583
 11
15.878
 21
-11.478
 72
1
 10
15.878
 20
-11.478
 11
15.942
 21
-11.381
 72
1
 10
15.942
 20
-11.381
 11
16.017
 21
-11.282
 72
1
 10
16.017
 20
-11.282
 11
16.100
 21
-11.173
 72
1
 10
16.100
 20
-11.173
 11
16.186
 21
-11.045
 72
1
 10
16.186
 20
-11.045
 11
16.271
 21
-10.888
 72
1
 10
16.271
 20
-10.888
 11
16.312
 21
-10.797
 72
1
 10
16.312
 20
-10.797
 11
16.377
 21
-10.626
 72
1
 10
16.377
 20
-10.626
 11
16.416
 21
-10.494
 72
1
 10
16.416
 20
-10.494
 11
16.436
 21
-10.351
 72
1
 10
16.436
 20
-10.351
 11
16.426
 21
-10.245
 72
1
 10
16.426
 20
-10.245
 11
16.406
 21
-10.147
 72
1
 10
16.406
 20
-10.147
 11
16.393
 21
-10.025
 72
1
 10
16.393
 20
-10.025
 11
16.397
 21
-9.916
 72
1
 10
16.397
 20
-9.916
 11
16.419
 21
-9.774
 72
1
 10
16.419
 20
-9.774
 11
16.446
 21
-9.601
 72
1
 10
16.446
 20
-9.601
 11
16.461
 21
-9.409
 72
1
 10
16.461
 20
-9.409
 11
16.465
 21
-9.307
 72
1
 10
16.465
 20
-9.307
 11
16.467
 21
-9.204
 72
1
 10
16.467
 20
-9.204
 11
16.467
 21
-9.099
 72
1
 10
16.467
 20
-9.099
 11
16.466
 21
-8.994
 72
1
 10
16.466
 20
-8.994
 11
16.463
 21
-8.889
 72
1
 10
16.463
 20
-8.889
 11
16.460
 21
-8.785
 72
1
 10
16.460
 20
-8.785
 11
16.450
 21
-8.585
 72
1
 10
16.450
 20
-8.585
 11
16.440
 21
-8.399
 72
1
 10
16.440
 20
-8.399
 11
16.430
 21
-8.235
 72
1
 10
16.430
 20
-8.235
 11
16.422
 21
-8.099
 72
1
 10
16.422
 20
-8.099
 11
16.419
 21
-7.998
 72
1
 10
16.419
 20
-7.998
 11
16.421
 21
-7.860
 72
1
 10
16.421
 20
-7.860
 11
16.423
 21
-7.753
 72
1
 10
16.423
 20
-7.753
 11
16.426
 21
-7.624
 72
1
 10
16.426
 20
-7.624
 11
16.429
 21
-7.476
 72
1
 10
16.429
 20
-7.476
 11
16.434
 21
-7.313
 72
1
 10
16.434
 20
-7.313
 11
16.439
 21
-7.137
 72
1
 10
16.439
 20
-7.137
 11
16.445
 21
-6.952
 72
1
 10
16.445
 20
-6.952
 11
16.452
 21
-6.761
 72
1
 10
16.452
 20
-6.761
 11
16.460
 21
-6.565
 72
1
 10
16.460
 20
-6.565
 11
16.468
 21
-6.370
 72
1
 10
16.468
 20
-6.370
 11
16.478
 21
-6.177
 72
1
 10
16.478
 20
-6.177
 11
16.488
 21
-5.990
 72
1
 10
16.488
 20
-5.990
 11
16.499
 21
-5.812
 72
1
 10
16.499
 20
-5.812
 11
16.510
 21
-5.645
 72
1
 10
16.510
 20
-5.645
 11
16.523
 21
-5.493
 72
1
 10
16.523
 20
-5.493
 11
16.536
 21
-5.358
 72
1
 10
16.536
 20
-5.358
 11
16.550
 21
-5.245
 72
1
 10
16.550
 20
-5.245
 11
16.581
 21
-5.092
 72
1
 10
16.581
 20
-5.092
 11
16.596
 21
-5.040
 72
1
 10
16.596
 20
-5.040
 11
16.619
 21
-4.909
 72
1
 10
16.619
 20
-4.909
 11
16.634
 21
-4.750
 72
1
 10
16.634
 20
-4.750
 11
16.641
 21
-4.566
 72
1
 10
16.641
 20
-4.566
 11
16.643
 21
-4.466
 72
1
 10
16.643
 20
-4.466
 11
16.643
 21
-4.361
 72
1
 10
16.643
 20
-4.361
 11
16.641
 21
-4.251
 72
1
 10
16.641
 20
-4.251
 11
16.639
 21
-4.139
 72
1
 10
16.639
 20
-4.139
 11
16.635
 21
-4.023
 72
1
 10
16.635
 20
-4.023
 11
16.630
 21
-3.905
 72
1
 10
16.630
 20
-3.905
 11
16.625
 21
-3.784
 72
1
 10
16.625
 20
-3.784
 11
16.619
 21
-3.662
 72
1
 10
16.619
 20
-3.662
 11
16.612
 21
-3.539
 72
1
 10
16.612
 20
-3.539
 11
16.605
 21
-3.416
 72
1
 10
16.605
 20
-3.416
 11
16.597
 21
-3.292
 72
1
 10
16.597
 20
-3.292
 11
16.589
 21
-3.169
 72
1
 10
16.589
 20
-3.169
 11
16.581
 21
-3.047
 72
1
 10
16.581
 20
-3.047
 11
16.572
 21
-2.933
 72
1
 10
16.572
 20
-2.933
 11
16.554
 21
-2.743
 72
1
 10
16.554
 20
-2.743
 11
16.533
 21
-2.592
 72
1
 10
16.533
 20
-2.592
 11
16.512
 21
-2.468
 72
1
 10
16.512
 20
-2.468
 11
16.490
 21
-2.360
 72
1
 10
16.490
 20
-2.360
 11
16.470
 21
-2.254
 72
1
 10
16.470
 20
-2.254
 11
16.452
 21
-2.140
 72
1
 10
16.452
 20
-2.140
 11
16.437
 21
-2.003
 72
1
 10
16.437
 20
-2.003
 11
16.426
 21
-1.833
 72
1
 10
16.426
 20
-1.833
 11
16.422
 21
-1.731
 72
1
 10
16.422
 20
-1.731
 11
16.420
 21
-1.616
 72
1
 10
16.420
 20
-1.616
 11
16.419
 21
-1.487
 72
1
 10
16.419
 20
-1.487
 11
16.419
 21
-1.357
 72
1
 10
16.419
 20
-1.357
 11
16.416
 21
-1.239
 72
1
 10
16.416
 20
-1.239
 11
16.413
 21
-1.134
 72
1
 10
16.413
 20
-1.134
 11
16.403
 21
-0.952
 72
1
 10
16.403
 20
-0.952
 11
16.389
 21
-0.799
 72
1
 10
16.389
 20
-0.799
 11
16.374
 21
-0.664
 72
1
 10
16.374
 20
-0.664
 11
16.358
 21
-0.534
 72
1
 10
16.358
 20
-0.534
 11
16.342
 21
-0.399
 72
1
 10
16.342
 20
-0.399
 11
16.329
 21
-0.246
 72
1
 10
16.329
 20
-0.246
 11
16.318
 21
-0.064
 72
1
 10
16.318
 20
-0.064
 11
16.315
 21
0.042
 72
1
 10
16.315
 20
0.042
 11
16.313
 21
0.159
 72
1
 10
16.313
 20
0.159
 11
16.312
 21
0.289
 72
1
 10
16.312
 20
0.289
 11
16.312
 21
0.420
 72
1
 10
16.312
 20
0.420
 11
16.312
 21
0.541
 72
1
 10
16.312
 20
0.541
 11
16.312
 21
0.652
 72
1
 10
16.312
 20
0.652
 11
16.312
 21
0.754
 72
1
 10
16.312
 20
0.754
 11
16.313
 21
0.938
 72
1
 10
16.313
 20
0.938
 11
16.315
 21
1.103
 72
1
 10
16.315
 20
1.103
 11
16.319
 21
1.258
 72
1
 10
16.319
 20
1.258
 11
16.323
 21
1.413
 72
1
 10
16.323
 20
1.413
 11
16.330
 21
1.577
 72
1
 10
16.330
 20
1.577
 11
16.339
 21
1.761
 72
1
 10
16.339
 20
1.761
 11
16.345
 21
1.864
 72
1
 10
16.345
 20
1.864
 11
16.351
 21
1.975
 72
1
 10
16.351
 20
1.975
 11
16.358
 21
2.095
 72
1
 10
16.358
 20
2.095
 11
16.366
 21
2.226
 72
1
 10
16.366
 20
2.226
 11
16.372
 21
2.363
 72
1
 10
16.372
 20
2.363
 11
16.376
 21
2.500
 72
1
 10
16.376
 20
2.500
 11
16.377
 21
2.635
 72
1
 10
16.377
 20
2.635
 11
16.375
 21
2.768
 72
1
 10
16.375
 20
2.768
 11
16.372
 21
2.898
 72
1
 10
16.372
 20
2.898
 11
16.366
 21
3.025
 72
1
 10
16.366
 20
3.025
 11
16.359
 21
3.148
 72
1
 10
16.359
 20
3.148
 11
16.351
 21
3.266
 72
1
 10
16.351
 20
3.266
 11
16.342
 21
3.378
 72
1
 10
16.342
 20
3.378
 11
16.332
 21
3.484
 72
1
 10
16.332
 20
3.484
 11
16.311
 21
3.675
 72
1
 10
16.311
 20
3.675
 11
16.291
 21
3.834
 72
1
 10
16.291
 20
3.834
 11
16.274
 21
3.954
 72
1
 10
16.274
 20
3.954
 11
16.258
 21
4.056
 72
1
 10
16.258
 20
4.056
 11
20.778
 21
4.433
 72
1
 10
20.778
 20
4.433
 11
20.779
 21
4.360
 72
1
 10
20.779
 20
4.360
 11
20.779
 21
4.244
 72
1
 10
20.779
 20
4.244
 11
20.781
 21
4.088
 72
1
 10
20.781
 20
4.088
 11
20.783
 21
3.905
 72
1
 10
20.783
 20
3.905
 11
20.787
 21
3.708
 72
1
 10
20.787
 20
3.708
 11
20.790
 21
3.607
 72
1
 10
20.790
 20
3.607
 11
20.797
 21
3.412
 72
1
 10
20.797
 20
3.412
 11
20.806
 21
3.234
 72
1
 10
20.806
 20
3.234
 11
20.818
 21
3.086
 72
1
 10
20.818
 20
3.086
 11
20.832
 21
2.980
 72
1
 10
20.832
 20
2.980
 11
20.863
 21
2.871
 72
1
 10
20.863
 20
2.871
 11
20.919
 21
2.714
 72
1
 10
20.919
 20
2.714
 11
20.953
 21
2.620
 72
1
 10
20.953
 20
2.620
 11
20.991
 21
2.517
 72
1
 10
20.991
 20
2.517
 11
21.031
 21
2.406
 72
1
 10
21.031
 20
2.406
 11
21.072
 21
2.288
 72
1
 10
21.072
 20
2.288
 11
21.114
 21
2.165
 72
1
 10
21.114
 20
2.165
 11
21.155
 21
2.038
 72
1
 10
21.155
 20
2.038
 11
21.194
 21
1.907
 72
1
 10
21.194
 20
1.907
 11
21.231
 21
1.775
 72
1
 10
21.231
 20
1.775
 11
21.264
 21
1.641
 72
1
 10
21.264
 20
1.641
 11
21.293
 21
1.508
 72
1
 10
21.293
 20
1.508
 11
21.316
 21
1.375
 72
1
 10
21.316
 20
1.375
 11
21.333
 21
1.246
 72
1
 10
21.333
 20
1.246
 11
21.343
 21
1.119
 72
1
 10
21.343
 20
1.119
 11
21.344
 21
0.998
 72
1
 10
21.344
 20
0.998
 11
21.335
 21
0.882
 72
1
 10
21.335
 20
0.882
 11
21.316
 21
0.773
 72
1
 10
21.316
 20
0.773
 11
21.295
 21
0.662
 72
1
 10
21.295
 20
0.662
 11
21.277
 21
0.539
 72
1
 10
21.277
 20
0.539
 11
21.264
 21
0.406
 72
1
 10
21.264
 20
0.406
 11
21.254
 21
0.264
 72
1
 10
21.254
 20
0.264
 11
21.248
 21
0.114
 72
1
 10
21.248
 20
0.114
 11
21.245
 21
-0.042
 72
1
 10
21.245
 20
-0.042
 11
21.245
 21
-0.204
 72
1
 10
21.245
 20
-0.204
 11
21.247
 21
-0.369
 72
1
 10
21.247
 20
-0.369
 11
21.251
 21
-0.537
 72
1
 10
21.251
 20
-0.537
 11
21.256
 21
-0.707
 72
1
 10
21.256
 20
-0.707
 11
21.262
 21
-0.876
 72
1
 10
21.262
 20
-0.876
 11
21.270
 21
-1.044
 72
1
 10
21.270
 20
-1.044
 11
21.278
 21
-1.209
 72
1
 10
21.278
 20
-1.209
 11
21.286
 21
-1.371
 72
1
 10
21.286
 20
-1.371
 11
21.294
 21
-1.527
 72
1
 10
21.294
 20
-1.527
 11
21.301
 21
-1.677
 72
1
 10
21.301
 20
-1.677
 11
21.307
 21
-1.819
 72
1
 10
21.307
 20
-1.819
 11
21.312
 21
-1.952
 72
1
 10
21.312
 20
-1.952
 11
21.315
 21
-2.075
 72
1
 10
21.315
 20
-2.075
 11
21.316
 21
-2.186
 72
1
 10
21.316
 20
-2.186
 11
21.315
 21
-2.291
 72
1
 10
21.315
 20
-2.291
 11
21.312
 21
-2.395
 72
1
 10
21.312
 20
-2.395
 11
21.307
 21
-2.499
 72
1
 10
21.307
 20
-2.499
 11
21.300
 21
-2.603
 72
1
 10
21.300
 20
-2.603
 11
21.292
 21
-2.707
 72
1
 10
21.292
 20
-2.707
 11
21.283
 21
-2.812
 72
1
 10
21.283
 20
-2.812
 11
21.273
 21
-2.917
 72
1
 10
21.273
 20
-2.917
 11
21.263
 21
-3.024
 72
1
 10
21.263
 20
-3.024
 11
21.253
 21
-3.132
 72
1
 10
21.253
 20
-3.132
 11
21.242
 21
-3.242
 72
1
 10
21.242
 20
-3.242
 11
21.233
 21
-3.355
 72
1
 10
21.233
 20
-3.355
 11
21.223
 21
-3.469
 72
1
 10
21.223
 20
-3.469
 11
21.215
 21
-3.586
 72
1
 10
21.215
 20
-3.586
 11
21.208
 21
-3.706
 72
1
 10
21.208
 20
-3.706
 11
21.203
 21
-3.829
 72
1
 10
21.203
 20
-3.829
 11
21.199
 21
-3.955
 72
1
 10
21.199
 20
-3.955
 11
21.198
 21
-4.085
 72
1
 10
21.198
 20
-4.085
 11
21.199
 21
-4.219
 72
1
 10
21.199
 20
-4.219
 11
21.202
 21
-4.357
 72
1
 10
21.202
 20
-4.357
 11
21.209
 21
-4.500
 72
1
 10
21.209
 20
-4.500
 11
21.215
 21
-4.666
 72
1
 10
21.215
 20
-4.666
 11
21.217
 21
-4.870
 72
1
 10
21.217
 20
-4.870
 11
21.216
 21
-5.107
 72
1
 10
21.216
 20
-5.107
 11
21.213
 21
-5.372
 72
1
 10
21.213
 20
-5.372
 11
21.206
 21
-5.661
 72
1
 10
21.206
 20
-5.661
 11
21.198
 21
-5.968
 72
1
 10
21.198
 20
-5.968
 11
21.187
 21
-6.289
 72
1
 10
21.187
 20
-6.289
 11
21.175
 21
-6.618
 72
1
 10
21.175
 20
-6.618
 11
21.162
 21
-6.952
 72
1
 10
21.162
 20
-6.952
 11
21.148
 21
-7.285
 72
1
 10
21.148
 20
-7.285
 11
21.134
 21
-7.613
 72
1
 10
21.134
 20
-7.613
 11
21.120
 21
-7.929
 72
1
 10
21.120
 20
-7.929
 11
21.106
 21
-8.231
 72
1
 10
21.106
 20
-8.231
 11
21.092
 21
-8.512
 72
1
 10
21.092
 20
-8.512
 11
21.080
 21
-8.768
 72
1
 10
21.080
 20
-8.768
 11
21.069
 21
-8.995
 72
1
 10
21.069
 20
-8.995
 11
21.060
 21
-9.187
 72
1
 10
21.060
 20
-9.187
 11
21.053
 21
-9.339
 72
1
 10
21.053
 20
-9.339
 11
21.047
 21
-9.505
 72
1
 10
21.047
 20
-9.505
 11
21.044
 21
-9.636
 72
1
 10
21.044
 20
-9.636
 11
21.041
 21
-9.747
 72
1
 10
21.041
 20
-9.747
 11
21.036
 21
-9.883
 72
1
 10
21.036
 20
-9.883
 11
21.030
 21
-10.041
 72
1
 10
21.030
 20
-10.041
 11
21.023
 21
-10.219
 72
1
 10
21.023
 20
-10.219
 11
21.015
 21
-10.412
 72
1
 10
21.015
 20
-10.412
 11
21.006
 21
-10.617
 72
1
 10
21.006
 20
-10.617
 11
20.997
 21
-10.832
 72
1
 10
20.997
 20
-10.832
 11
20.987
 21
-11.052
 72
1
 10
20.987
 20
-11.052
 11
20.976
 21
-11.275
 72
1
 10
20.976
 20
-11.275
 11
20.966
 21
-11.497
 72
1
 10
20.966
 20
-11.497
 11
20.955
 21
-11.714
 72
1
 10
20.955
 20
-11.714
 11
20.944
 21
-11.924
 72
1
 10
20.944
 20
-11.924
 11
20.934
 21
-12.123
 72
1
 10
20.934
 20
-12.123
 11
20.923
 21
-12.309
 72
1
 10
20.923
 20
-12.309
 11
20.913
 21
-12.476
 72
1
 10
20.913
 20
-12.476
 11
20.903
 21
-12.623
 72
1
 10
20.903
 20
-12.623
 11
20.886
 21
-12.841
 72
1
 10
20.886
 20
-12.841
 11
20.865
 21
-13.024
 72
1
 10
20.865
 20
-13.024
 11
20.852
 21
-13.128
 72
1
 10
20.852
 20
-13.128
 11
20.837
 21
-13.240
 72
1
 10
20.837
 20
-13.240
 11
20.821
 21
-13.358
 72
1
 10
20.821
 20
-13.358
 11
20.804
 21
-13.480
 72
1
 10
20.804
 20
-13.480
 11
20.786
 21
-13.605
 72
1
 10
20.786
 20
-13.605
 11
20.768
 21
-13.732
 72
1
 10
20.768
 20
-13.732
 11
20.749
 21
-13.859
 72
1
 10
20.749
 20
-13.859
 11
20.731
 21
-13.985
 72
1
 10
20.731
 20
-13.985
 11
20.713
 21
-14.109
 72
1
 10
20.713
 20
-14.109
 11
20.696
 21
-14.229
 72
1
 10
20.696
 20
-14.229
 11
20.680
 21
-14.343
 72
1
 10
20.680
 20
-14.343
 11
20.665
 21
-14.451
 72
1
 10
20.665
 20
-14.451
 11
20.651
 21
-14.552
 72
1
 10
20.651
 20
-14.552
 11
20.630
 21
-14.723
 72
1
 10
20.630
 20
-14.723
 11
20.617
 21
-14.886
 72
1
 10
20.617
 20
-14.886
 11
20.615
 21
-15.034
 72
1
 10
20.615
 20
-15.034
 11
20.613
 21
-15.164
 72
1
 10
20.613
 20
-15.164
 11
20.611
 21
-15.325
 72
1
 10
20.611
 20
-15.325
 11
20.608
 21
-15.514
 72
1
 10
20.608
 20
-15.514
 11
20.605
 21
-15.725
 72
1
 10
20.605
 20
-15.725
 11
20.602
 21
-15.956
 72
1
 10
20.602
 20
-15.956
 11
20.598
 21
-16.200
 72
1
 10
20.598
 20
-16.200
 11
20.594
 21
-16.455
 72
1
 10
20.594
 20
-16.455
 11
20.590
 21
-16.716
 72
1
 10
20.590
 20
-16.716
 11
20.586
 21
-16.978
 72
1
 10
20.586
 20
-16.978
 11
20.582
 21
-17.238
 72
1
 10
20.582
 20
-17.238
 11
20.578
 21
-17.491
 72
1
 10
20.578
 20
-17.491
 11
20.575
 21
-17.733
 72
1
 10
20.575
 20
-17.733
 11
20.571
 21
-17.959
 72
1
 10
20.571
 20
-17.959
 11
20.569
 21
-18.165
 72
1
 10
20.569
 20
-18.165
 11
20.566
 21
-18.347
 72
1
 10
20.566
 20
-18.347
 11
20.564
 21
-18.501
 72
1
 10
20.564
 20
-18.501
 11
20.563
 21
-18.707
 72
1
 10
20.563
 20
-18.707
 11
20.568
 21
-18.773
 72
1
 10
20.568
 20
-18.773
 11
20.603
 21
-18.911
 72
1
 10
20.603
 20
-18.911
 11
20.669
 21
-19.058
 72
1
 10
20.669
 20
-19.058
 11
20.759
 21
-19.212
 72
1
 10
20.759
 20
-19.212
 11
20.867
 21
-19.372
 72
1
 10
20.867
 20
-19.372
 11
20.926
 21
-19.454
 72
1
 10
20.926
 20
-19.454
 11
20.988
 21
-19.537
 72
1
 10
20.988
 20
-19.537
 11
21.051
 21
-19.622
 72
1
 10
21.051
 20
-19.622
 11
21.115
 21
-19.707
 72
1
 10
21.115
 20
-19.707
 11
21.180
 21
-19.793
 72
1
 10
21.180
 20
-19.793
 11
21.244
 21
-19.880
 72
1
 10
21.244
 20
-19.880
 11
21.307
 21
-19.968
 72
1
 10
21.307
 20
-19.968
 11
21.368
 21
-20.056
 72
1
 10
21.368
 20
-20.056
 11
21.426
 21
-20.144
 72
1
 10
21.426
 20
-20.144
 11
21.481
 21
-20.233
 72
1
 10
21.481
 20
-20.233
 11
21.532
 21
-20.322
 72
1
 10
21.532
 20
-20.322
 11
21.619
 21
-20.493
 72
1
 10
21.619
 20
-20.493
 11
21.690
 21
-20.653
 72
1
 10
21.690
 20
-20.653
 11
21.745
 21
-20.805
 72
1
 10
21.745
 20
-20.805
 11
21.788
 21
-20.949
 72
1
 10
21.788
 20
-20.949
 11
21.821
 21
-21.088
 72
1
 10
21.821
 20
-21.088
 11
21.845
 21
-21.224
 72
1
 10
21.845
 20
-21.224
 11
21.864
 21
-21.359
 72
1
 10
21.864
 20
-21.359
 11
21.879
 21
-21.494
 72
1
 10
21.879
 20
-21.494
 11
21.893
 21
-21.632
 72
1
 10
21.893
 20
-21.632
 11
21.908
 21
-21.774
 72
1
 10
21.908
 20
-21.774
 11
21.916
 21
-21.871
 72
1
 10
21.916
 20
-21.871
 11
21.923
 21
-22.013
 72
1
 10
21.923
 20
-22.013
 11
21.929
 21
-22.195
 72
1
 10
21.929
 20
-22.195
 11
21.935
 21
-22.412
 72
1
 10
21.935
 20
-22.412
 11
21.940
 21
-22.660
 72
1
 10
21.940
 20
-22.660
 11
21.945
 21
-22.932
 72
1
 10
21.945
 20
-22.932
 11
21.950
 21
-23.225
 72
1
 10
21.950
 20
-23.225
 11
21.954
 21
-23.534
 72
1
 10
21.954
 20
-23.534
 11
21.958
 21
-23.852
 72
1
 10
21.958
 20
-23.852
 11
21.962
 21
-24.176
 72
1
 10
21.962
 20
-24.176
 11
21.966
 21
-24.500
 72
1
 10
21.966
 20
-24.500
 11
21.970
 21
-24.820
 72
1
 10
21.970
 20
-24.820
 11
21.975
 21
-25.130
 72
1
 10
21.975
 20
-25.130
 11
21.979
 21
-25.426
 72
1
 10
21.979
 20
-25.426
 11
21.984
 21
-25.702
 72
1
 10
21.984
 20
-25.702
 11
21.989
 21
-25.954
 72
1
 10
21.989
 20
-25.954
 11
21.995
 21
-26.176
 72
1
 10
21.995
 20
-26.176
 11
22.001
 21
-26.364
 72
1
 10
22.001
 20
-26.364
 11
22.008
 21
-26.513
 72
1
 10
22.008
 20
-26.513
 11
22.016
 21
-26.618
 72
1
 10
22.016
 20
-26.618
 11
22.029
 21
-26.690
 72
1
 10
22.029
 20
-26.690
 11
22.115
 21
-26.813
 72
1
 10
22.115
 20
-26.813
 11
22.252
 21
-26.826
 72
1
 10
22.252
 20
-26.826
 11
22.358
 21
-26.792
 72
1
 10
22.358
 20
-26.792
 11
22.467
 21
-26.736
 72
1
 10
22.467
 20
-26.736
 11
22.570
 21
-26.669
 72
1
 10
22.570
 20
-26.669
 11
22.659
 21
-26.603
 72
1
 10
22.659
 20
-26.603
 11
22.769
 21
-26.510
 72
1
 10
22.769
 20
-26.510
 11
22.821
 21
-26.515
 72
1
 10
22.821
 20
-26.515
 11
22.967
 21
-26.528
 72
1
 10
22.967
 20
-26.528
 11
23.069
 21
-26.537
 72
1
 10
23.069
 20
-26.537
 11
23.189
 21
-26.548
 72
1
 10
23.189
 20
-26.548
 11
23.324
 21
-26.560
 72
1
 10
23.324
 20
-26.560
 11
23.472
 21
-26.574
 72
1
 10
23.472
 20
-26.574
 11
23.631
 21
-26.589
 72
1
 10
23.631
 20
-26.589
 11
23.798
 21
-26.604
 72
1
 10
23.798
 20
-26.604
 11
23.973
 21
-26.621
 72
1
 10
23.973
 20
-26.621
 11
24.152
 21
-26.638
 72
1
 10
24.152
 20
-26.638
 11
24.335
 21
-26.656
 72
1
 10
24.335
 20
-26.656
 11
24.518
 21
-26.674
 72
1
 10
24.518
 20
-26.674
 11
24.699
 21
-26.692
 72
1
 10
24.699
 20
-26.692
 11
24.877
 21
-26.710
 72
1
 10
24.877
 20
-26.710
 11
25.050
 21
-26.728
 72
1
 10
25.050
 20
-26.728
 11
25.215
 21
-26.745
 72
1
 10
25.215
 20
-26.745
 11
25.370
 21
-26.763
 72
1
 10
25.370
 20
-26.763
 11
25.514
 21
-26.779
 72
1
 10
25.514
 20
-26.779
 11
25.669
 21
-26.795
 72
1
 10
25.669
 20
-26.795
 11
25.857
 21
-26.811
 72
1
 10
25.857
 20
-26.811
 11
26.073
 21
-26.827
 72
1
 10
26.073
 20
-26.827
 11
26.313
 21
-26.843
 72
1
 10
26.313
 20
-26.843
 11
26.572
 21
-26.858
 72
1
 10
26.572
 20
-26.858
 11
26.847
 21
-26.873
 72
1
 10
26.847
 20
-26.873
 11
27.133
 21
-26.888
 72
1
 10
27.133
 20
-26.888
 11
27.424
 21
-26.901
 72
1
 10
27.424
 20
-26.901
 11
27.718
 21
-26.915
 72
1
 10
27.718
 20
-26.915
 11
28.009
 21
-26.927
 72
1
 10
28.009
 20
-26.927
 11
28.294
 21
-26.939
 72
1
 10
28.294
 20
-26.939
 11
28.567
 21
-26.950
 72
1
 10
28.567
 20
-26.950
 11
28.824
 21
-26.959
 72
1
 10
28.824
 20
-26.959
 11
29.062
 21
-26.968
 72
1
 10
29.062
 20
-26.968
 11
29.275
 21
-26.976
 72
1
 10
29.275
 20
-26.976
 11
29.459
 21
-26.982
 72
1
 10
29.459
 20
-26.982
 11
29.610
 21
-26.987
 72
1
 10
29.610
 20
-26.987
 11
29.819
 21
-26.994
 72
1
 10
29.819
 20
-26.994
 11
32.402
 21
-27.640
 72
1
 10
32.402
 20
-27.640
 11
32.444
 21
-27.627
 72
1
 10
32.444
 20
-27.627
 11
32.563
 21
-27.596
 72
1
 10
32.563
 20
-27.596
 11
32.681
 21
-27.571
 72
1
 10
32.681
 20
-27.571
 11
32.826
 21
-27.546
 72
1
 10
32.826
 20
-27.546
 11
32.995
 21
-27.524
 72
1
 10
32.995
 20
-27.524
 11
33.185
 21
-27.508
 72
1
 10
33.185
 20
-27.508
 11
33.287
 21
-27.504
 72
1
 10
33.287
 20
-27.504
 11
33.394
 21
-27.502
 72
1
 10
33.394
 20
-27.502
 11
33.504
 21
-27.504
 72
1
 10
33.504
 20
-27.504
 11
33.618
 21
-27.509
 72
1
 10
33.618
 20
-27.509
 11
33.735
 21
-27.519
 72
1
 10
33.735
 20
-27.519
 11
33.855
 21
-27.532
 72
1
 10
33.855
 20
-27.532
 11
33.978
 21
-27.551
 72
1
 10
33.978
 20
-27.551
 11
34.104
 21
-27.572
 72
1
 10
34.104
 20
-27.572
 11
34.232
 21
-27.597
 72
1
 10
34.232
 20
-27.597
 11
34.362
 21
-27.624
 72
1
 10
34.362
 20
-27.624
 11
34.493
 21
-27.654
 72
1
 10
34.493
 20
-27.654
 11
34.624
 21
-27.685
 72
1
 10
34.624
 20
-27.685
 11
34.753
 21
-27.717
 72
1
 10
34.753
 20
-27.717
 11
34.880
 21
-27.749
 72
1
 10
34.880
 20
-27.749
 11
35.005
 21
-27.782
 72
1
 10
35.005
 20
-27.782
 11
35.126
 21
-27.815
 72
1
 10
35.126
 20
-27.815
 11
35.243
 21
-27.847
 72
1
 10
35.243
 20
-27.847
 11
35.354
 21
-27.877
 72
1
 10
35.354
 20
-27.877
 11
35.460
 21
-27.906
 72
1
 10
35.460
 20
-27.906
 11
35.648
 21
-27.956
 72
1
 10
35.648
 20
-27.956
 11
35.802
 21
-27.994
 72
1
 10
35.802
 20
-27.994
 11
35.954
 21
-28.017
 72
1
 10
35.954
 20
-28.017
 11
36.043
 21
-28.023
 72
1
 10
36.043
 20
-28.023
 11
36.177
 21
-28.042
 72
1
 10
36.177
 20
-28.042
 11
36.351
 21
-28.073
 72
1
 10
36.351
 20
-28.073
 11
36.450
 21
-28.094
 72
1
 10
36.450
 20
-28.094
 11
36.556
 21
-28.117
 72
1
 10
36.556
 20
-28.117
 11
36.669
 21
-28.143
 72
1
 10
36.669
 20
-28.143
 11
36.788
 21
-28.171
 72
1
 10
36.788
 20
-28.171
 11
36.911
 21
-28.203
 72
1
 10
36.911
 20
-28.203
 11
37.038
 21
-28.238
 72
1
 10
37.038
 20
-28.238
 11
37.169
 21
-28.275
 72
1
 10
37.169
 20
-28.275
 11
37.302
 21
-28.315
 72
1
 10
37.302
 20
-28.315
 11
37.437
 21
-28.357
 72
1
 10
37.437
 20
-28.357
 11
37.572
 21
-28.402
 72
1
 10
37.572
 20
-28.402
 11
37.708
 21
-28.450
 72
1
 10
37.708
 20
-28.450
 11
37.842
 21
-28.501
 72
1
 10
37.842
 20
-28.501
 11
37.975
 21
-28.553
 72
1
 10
37.975
 20
-28.553
 11
38.106
 21
-28.609
 72
1
 10
38.106
 20
-28.609
 11
38.243
 21
-28.660
 72
1
 10
38.243
 20
-28.660
 11
38.394
 21
-28.703
 72
1
 10
38.394
 20
-28.703
 11
38.557
 21
-28.738
 72
1
 10
38.557
 20
-28.738
 11
38.731
 21
-28.766
 72
1
 10
38.731
 20
-28.766
 11
38.913
 21
-28.787
 72
1
 10
38.913
 20
-28.787
 11
39.100
 21
-28.802
 72
1
 10
39.100
 20
-28.802
 11
39.293
 21
-28.813
 72
1
 10
39.293
 20
-28.813
 11
39.487
 21
-28.820
 72
1
 10
39.487
 20
-28.820
 11
39.682
 21
-28.823
 72
1
 10
39.682
 20
-28.823
 11
39.875
 21
-28.824
 72
1
 10
39.875
 20
-28.824
 11
40.065
 21
-28.823
 72
1
 10
40.065
 20
-28.823
 11
40.249
 21
-28.822
 72
1
 10
40.249
 20
-28.822
 11
40.425
 21
-28.820
 72
1
 10
40.425
 20
-28.820
 11
40.592
 21
-28.820
 72
1
 10
40.592
 20
-28.820
 11
40.747
 21
-28.821
 72
1
 10
40.747
 20
-28.821
 11
40.889
 21
-28.824
 72
1
 10
40.889
 20
-28.824
 11
41.015
 21
-28.831
 72
1
 10
41.015
 20
-28.831
 11
41.124
 21
-28.841
 72
1
 10
41.124
 20
-28.841
 11
41.281
 21
-28.878
 72
1
 10
41.281
 20
-28.878
 11
41.411
 21
-28.932
 72
1
 10
41.411
 20
-28.932
 11
41.569
 21
-28.996
 72
1
 10
41.569
 20
-28.996
 11
41.750
 21
-29.065
 72
1
 10
41.750
 20
-29.065
 11
41.846
 21
-29.101
 72
1
 10
41.846
 20
-29.101
 11
41.945
 21
-29.137
 72
1
 10
41.945
 20
-29.137
 11
42.046
 21
-29.173
 72
1
 10
42.046
 20
-29.173
 11
42.149
 21
-29.207
 72
1
 10
42.149
 20
-29.207
 11
42.252
 21
-29.241
 72
1
 10
42.252
 20
-29.241
 11
42.354
 21
-29.273
 72
1
 10
42.354
 20
-29.273
 11
42.456
 21
-29.303
 72
1
 10
42.456
 20
-29.303
 11
42.555
 21
-29.330
 72
1
 10
42.555
 20
-29.330
 11
42.743
 21
-29.375
 72
1
 10
42.743
 20
-29.375
 11
42.913
 21
-29.405
 72
1
 10
42.913
 20
-29.405
 11
43.057
 21
-29.416
 72
1
 10
43.057
 20
-29.416
 11
44.026
 21
-29.416
 72
1
 10
44.026
 20
-29.416
 11
44.112
 21
-29.432
 72
1
 10
44.112
 20
-29.432
 11
44.197
 21
-29.492
 72
1
 10
44.197
 20
-29.492
 11
44.262
 21
-29.590
 72
1
 10
44.262
 20
-29.590
 11
44.295
 21
-29.685
 72
1
 10
44.295
 20
-29.685
 11
44.187
 21
-30.169
 72
1
 10
44.187
 20
-30.169
 11
43.541
 21
-30.385
 72
1
 10
43.541
 20
-30.385
 11
43.445
 21
-30.408
 72
1
 10
43.445
 20
-30.408
 11
43.290
 21
-30.446
 72
1
 10
43.290
 20
-30.446
 11
43.191
 21
-30.470
 72
1
 10
43.191
 20
-30.470
 11
43.081
 21
-30.498
 72
1
 10
43.081
 20
-30.498
 11
42.961
 21
-30.528
 72
1
 10
42.961
 20
-30.528
 11
42.834
 21
-30.559
 72
1
 10
42.834
 20
-30.559
 11
42.701
 21
-30.593
 72
1
 10
42.701
 20
-30.593
 11
42.564
 21
-30.628
 72
1
 10
42.564
 20
-30.628
 11
42.426
 21
-30.664
 72
1
 10
42.426
 20
-30.664
 11
42.287
 21
-30.699
 72
1
 10
42.287
 20
-30.699
 11
42.152
 21
-30.735
 72
1
 10
42.152
 20
-30.735
 11
42.020
 21
-30.771
 72
1
 10
42.020
 20
-30.771
 11
41.895
 21
-30.805
 72
1
 10
41.895
 20
-30.805
 11
41.778
 21
-30.838
 72
1
 10
41.778
 20
-30.838
 11
41.671
 21
-30.868
 72
1
 10
41.671
 20
-30.868
 11
41.496
 21
-30.923
 72
1
 10
41.496
 20
-30.923
 11
41.435
 21
-30.947
 72
1
 10
41.435
 20
-30.947
 11
41.408
 21
-31.067
 72
1
 10
41.408
 20
-31.067
 11
41.497
 21
-31.113
 72
1
 10
41.497
 20
-31.113
 11
41.624
 21
-31.158
 72
1
 10
41.624
 20
-31.158
 11
41.775
 21
-31.202
 72
1
 10
41.775
 20
-31.202
 11
41.938
 21
-31.243
 72
1
 10
41.938
 20
-31.243
 11
42.097
 21
-31.283
 72
1
 10
42.097
 20
-31.283
 11
42.242
 21
-31.319
 72
1
 10
42.242
 20
-31.319
 11
42.358
 21
-31.353
 72
1
 10
42.358
 20
-31.353
 11
42.407
 21
-31.368
 72
1
 10
42.407
 20
-31.368
 11
42.512
 21
-31.388
 72
1
 10
42.512
 20
-31.388
 11
42.624
 21
-31.399
 72
1
 10
42.624
 20
-31.399
 11
42.740
 21
-31.401
 72
1
 10
42.740
 20
-31.401
 11
42.857
 21
-31.397
 72
1
 10
42.857
 20
-31.397
 11
42.974
 21
-31.389
 72
1
 10
42.974
 20
-31.389
 11
43.088
 21
-31.379
 72
1
 10
43.088
 20
-31.379
 11
43.198
 21
-31.368
 72
1
 10
43.198
 20
-31.368
 11
43.299
 21
-31.359
 72
1
 10
43.299
 20
-31.359
 11
43.434
 21
-31.353
 72
1
 10
43.434
 20
-31.353
 11
43.543
 21
-31.346
 72
1
 10
43.543
 20
-31.346
 11
43.699
 21
-31.325
 72
1
 10
43.699
 20
-31.325
 11
43.890
 21
-31.295
 72
1
 10
43.890
 20
-31.295
 11
43.993
 21
-31.277
 72
1
 10
43.993
 20
-31.277
 11
44.099
 21
-31.259
 72
1
 10
44.099
 20
-31.259
 11
44.207
 21
-31.239
 72
1
 10
44.207
 20
-31.239
 11
44.315
 21
-31.219
 72
1
 10
44.315
 20
-31.219
 11
44.421
 21
-31.199
 72
1
 10
44.421
 20
-31.199
 11
44.523
 21
-31.179
 72
1
 10
44.523
 20
-31.179
 11
44.708
 21
-31.142
 72
1
 10
44.708
 20
-31.142
 11
44.858
 21
-31.112
 72
1
 10
44.858
 20
-31.112
 11
44.994
 21
-31.084
 72
1
 10
44.994
 20
-31.084
 11
45.104
 21
-31.054
 72
1
 10
45.104
 20
-31.054
 11
45.278
 21
-31.006
 72
1
 10
45.278
 20
-31.006
 11
45.388
 21
-30.975
 72
1
 10
45.388
 20
-30.975
 11
45.511
 21
-30.941
 72
1
 10
45.511
 20
-30.941
 11
45.644
 21
-30.903
 72
1
 10
45.644
 20
-30.903
 11
45.784
 21
-30.864
 72
1
 10
45.784
 20
-30.864
 11
45.929
 21
-30.822
 72
1
 10
45.929
 20
-30.822
 11
46.078
 21
-30.779
 72
1
 10
46.078
 20
-30.779
 11
46.226
 21
-30.735
 72
1
 10
46.226
 20
-30.735
 11
46.373
 21
-30.692
 72
1
 10
46.373
 20
-30.692
 11
46.516
 21
-30.649
 72
1
 10
46.516
 20
-30.649
 11
46.652
 21
-30.607
 72
1
 10
46.652
 20
-30.607
 11
46.778
 21
-30.568
 72
1
 10
46.778
 20
-30.568
 11
46.894
 21
-30.530
 72
1
 10
46.894
 20
-30.530
 11
46.995
 21
-30.496
 72
1
 10
46.995
 20
-30.496
 11
47.147
 21
-30.438
 72
1
 10
47.147
 20
-30.438
 11
47.205
 21
-30.415
 72
1
 10
47.205
 20
-30.415
 11
47.327
 21
-30.369
 72
1
 10
47.327
 20
-30.369
 11
47.459
 21
-30.325
 72
1
 10
47.459
 20
-30.325
 11
47.599
 21
-30.282
 72
1
 10
47.599
 20
-30.282
 11
47.749
 21
-30.238
 72
1
 10
47.749
 20
-30.238
 11
47.906
 21
-30.194
 72
1
 10
47.906
 20
-30.194
 11
48.071
 21
-30.147
 72
1
 10
48.071
 20
-30.147
 11
48.244
 21
-30.098
 72
1
 10
48.244
 20
-30.098
 11
48.424
 21
-30.044
 72
1
 10
48.424
 20
-30.044
 11
48.611
 21
-29.986
 72
1
 10
48.611
 20
-29.986
 11
48.707
 21
-29.954
 72
1
 10
48.707
 20
-29.954
 11
48.804
 21
-29.924
 72
1
 10
48.804
 20
-29.924
 11
48.901
 21
-29.897
 72
1
 10
48.901
 20
-29.897
 11
49.093
 21
-29.854
 72
1
 10
49.093
 20
-29.854
 11
49.283
 21
-29.821
 72
1
 10
49.283
 20
-29.821
 11
49.468
 21
-29.797
 72
1
 10
49.468
 20
-29.797
 11
49.649
 21
-29.779
 72
1
 10
49.649
 20
-29.779
 11
49.823
 21
-29.764
 72
1
 10
49.823
 20
-29.764
 11
49.990
 21
-29.750
 72
1
 10
49.990
 20
-29.750
 11
50.147
 21
-29.734
 72
1
 10
50.147
 20
-29.734
 11
50.294
 21
-29.713
 72
1
 10
50.294
 20
-29.713
 11
50.429
 21
-29.685
 72
1
 10
50.429
 20
-29.685
 11
50.579
 21
-29.659
 72
1
 10
50.579
 20
-29.659
 11
50.764
 21
-29.644
 72
1
 10
50.764
 20
-29.644
 11
50.868
 21
-29.640
 72
1
 10
50.868
 20
-29.640
 11
50.978
 21
-29.638
 72
1
 10
50.978
 20
-29.638
 11
51.095
 21
-29.637
 72
1
 10
51.095
 20
-29.637
 11
51.216
 21
-29.639
 72
1
 10
51.216
 20
-29.639
 11
51.343
 21
-29.641
 72
1
 10
51.343
 20
-29.641
 11
51.472
 21
-29.645
 72
1
 10
51.472
 20
-29.645
 11
51.605
 21
-29.649
 72
1
 10
51.605
 20
-29.649
 11
51.739
 21
-29.654
 72
1
 10
51.739
 20
-29.654
 11
51.875
 21
-29.659
 72
1
 10
51.875
 20
-29.659
 11
52.011
 21
-29.665
 72
1
 10
52.011
 20
-29.665
 11
52.147
 21
-29.670
 72
1
 10
52.147
 20
-29.670
 11
52.282
 21
-29.675
 72
1
 10
52.282
 20
-29.675
 11
52.416
 21
-29.679
 72
1
 10
52.416
 20
-29.679
 11
52.547
 21
-29.682
 72
1
 10
52.547
 20
-29.682
 11
52.674
 21
-29.684
 72
1
 10
52.674
 20
-29.684
 11
52.797
 21
-29.685
 72
1
 10
52.797
 20
-29.685
 11
52.929
 21
-29.680
 72
1
 10
52.929
 20
-29.680
 11
53.081
 21
-29.666
 72
1
 10
53.081
 20
-29.666
 11
53.251
 21
-29.643
 72
1
 10
53.251
 20
-29.643
 11
53.435
 21
-29.612
 72
1
 10
53.435
 20
-29.612
 11
53.631
 21
-29.576
 72
1
 10
53.631
 20
-29.576
 11
53.836
 21
-29.534
 72
1
 10
53.836
 20
-29.534
 11
54.049
 21
-29.488
 72
1
 10
54.049
 20
-29.488
 11
54.265
 21
-29.439
 72
1
 10
54.265
 20
-29.439
 11
54.484
 21
-29.388
 72
1
 10
54.484
 20
-29.388
 11
54.701
 21
-29.335
 72
1
 10
54.701
 20
-29.335
 11
54.915
 21
-29.283
 72
1
 10
54.915
 20
-29.283
 11
55.122
 21
-29.232
 72
1
 10
55.122
 20
-29.232
 11
55.321
 21
-29.183
 72
1
 10
55.321
 20
-29.183
 11
55.508
 21
-29.137
 72
1
 10
55.508
 20
-29.137
 11
55.681
 21
-29.095
 72
1
 10
55.681
 20
-29.095
 11
55.837
 21
-29.058
 72
1
 10
55.837
 20
-29.058
 11
55.974
 21
-29.028
 72
1
 10
55.974
 20
-29.028
 11
56.088
 21
-29.005
 72
1
 10
56.088
 20
-29.005
 11
56.241
 21
-28.986
 72
1
 10
56.241
 20
-28.986
 11
56.352
 21
-28.977
 72
1
 10
56.352
 20
-28.977
 11
56.487
 21
-28.953
 72
1
 10
56.487
 20
-28.953
 11
56.641
 21
-28.919
 72
1
 10
56.641
 20
-28.919
 11
56.810
 21
-28.879
 72
1
 10
56.810
 20
-28.879
 11
56.988
 21
-28.838
 72
1
 10
56.988
 20
-28.838
 11
57.171
 21
-28.800
 72
1
 10
57.171
 20
-28.800
 11
57.354
 21
-28.769
 72
1
 10
57.354
 20
-28.769
 11
57.533
 21
-28.751
 72
1
 10
57.533
 20
-28.751
 11
57.702
 21
-28.750
 72
1
 10
57.702
 20
-28.750
 11
57.856
 21
-28.770
 72
1
 10
57.856
 20
-28.770
 11
58.016
 21
-28.805
 72
1
 10
58.016
 20
-28.805
 11
58.201
 21
-28.844
 72
1
 10
58.201
 20
-28.844
 11
58.301
 21
-28.864
 72
1
 10
58.301
 20
-28.864
 11
58.404
 21
-28.885
 72
1
 10
58.404
 20
-28.885
 11
58.509
 21
-28.904
 72
1
 10
58.509
 20
-28.904
 11
58.616
 21
-28.924
 72
1
 10
58.616
 20
-28.924
 11
58.724
 21
-28.942
 72
1
 10
58.724
 20
-28.942
 11
58.831
 21
-28.959
 72
1
 10
58.831
 20
-28.959
 11
58.937
 21
-28.974
 72
1
 10
58.937
 20
-28.974
 11
59.041
 21
-28.987
 72
1
 10
59.041
 20
-28.987
 11
59.239
 21
-29.007
 72
1
 10
59.239
 20
-29.007
 11
59.418
 21
-29.015
 72
1
 10
59.418
 20
-29.015
 11
59.569
 21
-29.009
 72
1
 10
59.569
 20
-29.009
 11
59.685
 21
-28.986
 72
1
 10
59.685
 20
-28.986
 11
59.741
 21
-28.964
 72
1
 10
59.741
 20
-28.964
 11
59.887
 21
-28.894
 72
1
 10
59.887
 20
-28.894
 11
59.976
 21
-28.846
 72
1
 10
59.976
 20
-28.846
 11
60.074
 21
-28.792
 72
1
 10
60.074
 20
-28.792
 11
60.179
 21
-28.732
 72
1
 10
60.179
 20
-28.732
 11
60.291
 21
-28.666
 72
1
 10
60.291
 20
-28.666
 11
60.409
 21
-28.596
 72
1
 10
60.409
 20
-28.596
 11
60.530
 21
-28.523
 72
1
 10
60.530
 20
-28.523
 11
60.654
 21
-28.447
 72
1
 10
60.654
 20
-28.447
 11
60.780
 21
-28.370
 72
1
 10
60.780
 20
-28.370
 11
60.906
 21
-28.292
 72
1
 10
60.906
 20
-28.292
 11
61.031
 21
-28.214
 72
1
 10
61.031
 20
-28.214
 11
61.155
 21
-28.137
 72
1
 10
61.155
 20
-28.137
 11
61.275
 21
-28.062
 72
1
 10
61.275
 20
-28.062
 11
61.390
 21
-27.990
 72
1
 10
61.390
 20
-27.990
 11
61.500
 21
-27.922
 72
1
 10
61.500
 20
-27.922
 11
61.603
 21
-27.858
 72
1
 10
61.603
 20
-27.858
 11
61.698
 21
-27.800
 72
1
 10
61.698
 20
-27.800
 11
61.784
 21
-27.748
 72
1
 10
61.784
 20
-27.748
 11
61.942
 21
-27.656
 72
1
 10
61.942
 20
-27.656
 11
62.095
 21
-27.572
 72
1
 10
62.095
 20
-27.572
 11
62.241
 21
-27.496
 72
1
 10
62.241
 20
-27.496
 11
62.382
 21
-27.427
 72
1
 10
62.382
 20
-27.427
 11
62.517
 21
-27.364
 72
1
 10
62.517
 20
-27.364
 11
62.648
 21
-27.306
 72
1
 10
62.648
 20
-27.306
 11
62.774
 21
-27.252
 72
1
 10
62.774
 20
-27.252
 11
62.897
 21
-27.200
 72
1
 10
62.897
 20
-27.200
 11
63.015
 21
-27.151
 72
1
 10
63.015
 20
-27.151
 11
63.129
 21
-27.102
 72
1
 10
63.129
 20
-27.102
 11
63.191
 21
-27.080
 72
1
 10
63.191
 20
-27.080
 11
63.341
 21
-27.046
 72
1
 10
63.341
 20
-27.046
 11
63.518
 21
-27.022
 72
1
 10
63.518
 20
-27.022
 11
63.713
 21
-27.006
 72
1
 10
63.713
 20
-27.006
 11
63.814
 21
-27.000
 72
1
 10
63.814
 20
-27.000
 11
63.916
 21
-26.994
 72
1
 10
63.916
 20
-26.994
 11
64.017
 21
-26.988
 72
1
 10
64.017
 20
-26.988
 11
64.117
 21
-26.981
 72
1
 10
64.117
 20
-26.981
 11
64.307
 21
-26.966
 72
1
 10
64.307
 20
-26.966
 11
64.476
 21
-26.943
 72
1
 10
64.476
 20
-26.943
 11
64.615
 21
-26.910
 72
1
 10
64.615
 20
-26.910
 11
64.744
 21
-26.833
 72
1
 10
64.744
 20
-26.833
 11
64.817
 21
-26.770
 72
1
 10
64.817
 20
-26.770
 11
64.935
 21
-26.711
 72
1
 10
64.935
 20
-26.711
 11
65.090
 21
-26.655
 72
1
 10
65.090
 20
-26.655
 11
65.275
 21
-26.604
 72
1
 10
65.275
 20
-26.604
 11
65.377
 21
-26.580
 72
1
 10
65.377
 20
-26.580
 11
65.484
 21
-26.557
 72
1
 10
65.484
 20
-26.557
 11
65.595
 21
-26.536
 72
1
 10
65.595
 20
-26.536
 11
65.709
 21
-26.515
 72
1
 10
65.709
 20
-26.515
 11
65.825
 21
-26.496
 72
1
 10
65.825
 20
-26.496
 11
65.943
 21
-26.478
 72
1
 10
65.943
 20
-26.478
 11
66.061
 21
-26.462
 72
1
 10
66.061
 20
-26.462
 11
66.178
 21
-26.447
 72
1
 10
66.178
 20
-26.447
 11
66.295
 21
-26.434
 72
1
 10
66.295
 20
-26.434
 11
66.409
 21
-26.422
 72
1
 10
66.409
 20
-26.422
 11
66.520
 21
-26.411
 72
1
 10
66.520
 20
-26.411
 11
66.627
 21
-26.402
 72
1
 10
66.627
 20
-26.402
 11
66.747
 21
-26.362
 72
1
 10
66.747
 20
-26.362
 11
66.847
 21
-26.300
 72
1
 10
66.847
 20
-26.300
 11
66.951
 21
-26.224
 72
1
 10
66.951
 20
-26.224
 11
67.053
 21
-26.148
 72
1
 10
67.053
 20
-26.148
 11
67.149
 21
-26.084
 72
1
 10
67.149
 20
-26.084
 11
67.259
 21
-26.037
 72
1
 10
67.259
 20
-26.037
 11
67.392
 21
-26.023
 72
1
 10
67.392
 20
-26.023
 11
67.513
 21
-26.021
 72
1
 10
67.513
 20
-26.021
 11
67.623
 21
-26.029
 72
1
 10
67.623
 20
-26.029
 11
67.767
 21
-26.052
 72
1
 10
67.767
 20
-26.052
 11
67.891
 21
-26.078
 72
1
 10
67.891
 20
-26.078
 11
68.026
 21
-26.099
 72
1
 10
68.026
 20
-26.099
 11
68.134
 21
-26.080
 72
1
 10
68.134
 20
-26.080
 11
68.169
 21
-26.064
 72
1
 10
68.169
 20
-26.064
 11
68.301
 21
-26.025
 72
1
 10
68.301
 20
-26.025
 11
68.408
 21
-26.001
 72
1
 10
68.408
 20
-26.001
 11
68.526
 21
-25.977
 72
1
 10
68.526
 20
-25.977
 11
68.652
 21
-25.950
 72
1
 10
68.652
 20
-25.950
 11
68.784
 21
-25.918
 72
1
 10
68.784
 20
-25.918
 11
68.916
 21
-25.880
 72
1
 10
68.916
 20
-25.880
 11
69.047
 21
-25.832
 72
1
 10
69.047
 20
-25.832
 11
69.174
 21
-25.772
 72
1
 10
69.174
 20
-25.772
 11
69.292
 21
-25.699
 72
1
 10
69.292
 20
-25.699
 11
69.349
 21
-25.659
 72
1
 10
69.349
 20
-25.659
 11
69.467
 21
-25.579
 72
1
 10
69.467
 20
-25.579
 11
69.591
 21
-25.498
 72
1
 10
69.591
 20
-25.498
 11
69.724
 21
-25.412
 72
1
 10
69.724
 20
-25.412
 11
69.867
 21
-25.317
 72
1
 10
69.867
 20
-25.317
 11
70.022
 21
-25.211
 72
1
 10
70.022
 20
-25.211
 11
70.104
 21
-25.153
 72
1
 10
70.104
 20
-25.153
 11
70.190
 21
-25.091
 72
1
 10
70.190
 20
-25.091
 11
70.280
 21
-25.024
 72
1
 10
70.280
 20
-25.024
 11
70.375
 21
-24.953
 72
1
 10
70.375
 20
-24.953
 11
70.473
 21
-24.876
 72
1
 10
70.473
 20
-24.876
 11
70.577
 21
-24.794
 72
1
 10
70.577
 20
-24.794
 11
70.685
 21
-24.706
 72
1
 10
70.685
 20
-24.706
 11
70.798
 21
-24.611
 72
1
 10
70.798
 20
-24.611
 11
70.916
 21
-24.510
 72
1
 10
70.916
 20
-24.510
 11
71.034
 21
-24.412
 72
1
 10
71.034
 20
-24.412
 11
71.146
 21
-24.330
 72
1
 10
71.146
 20
-24.330
 11
71.253
 21
-24.261
 72
1
 10
71.253
 20
-24.261
 11
71.354
 21
-24.204
 72
1
 10
71.354
 20
-24.204
 11
71.449
 21
-24.160
 72
1
 10
71.449
 20
-24.160
 11
71.624
 21
-24.102
 72
1
 10
71.624
 20
-24.102
 11
71.780
 21
-24.080
 72
1
 10
71.780
 20
-24.080
 11
71.917
 21
-24.086
 72
1
 10
71.917
 20
-24.086
 11
72.037
 21
-24.113
 72
1
 10
72.037
 20
-24.113
 11
72.141
 21
-24.152
 72
1
 10
72.141
 20
-24.152
 11
72.231
 21
-24.196
 72
1
 10
72.231
 20
-24.196
 11
72.341
 21
-24.256
 72
1
 10
72.341
 20
-24.256
 11
72.405
 21
-24.294
 72
1
 10
72.405
 20
-24.294
 11
72.505
 21
-24.365
 72
1
 10
72.505
 20
-24.365
 11
72.626
 21
-24.439
 72
1
 10
72.626
 20
-24.439
 11
72.728
 21
-24.484
 72
1
 10
72.728
 20
-24.484
 11
72.852
 21
-24.518
 72
1
 10
72.852
 20
-24.518
 11
73.004
 21
-24.538
 72
1
 10
73.004
 20
-24.538
 11
73.189
 21
-24.540
 72
1
 10
73.189
 20
-24.540
 11
73.296
 21
-24.532
 72
1
 10
73.296
 20
-24.532
 11
73.413
 21
-24.518
 72
1
 10
73.413
 20
-24.518
 11
73.540
 21
-24.497
 72
1
 10
73.540
 20
-24.497
 11
73.680
 21
-24.469
 72
1
 10
73.680
 20
-24.469
 11
73.788
 21
-24.434
 72
1
 10
73.788
 20
-24.434
 11
73.908
 21
-24.356
 72
1
 10
73.908
 20
-24.356
 11
73.989
 21
-24.251
 72
1
 10
73.989
 20
-24.251
 11
74.041
 21
-24.128
 72
1
 10
74.041
 20
-24.128
 11
74.076
 21
-23.993
 72
1
 10
74.076
 20
-23.993
 11
74.108
 21
-23.852
 72
1
 10
74.108
 20
-23.852
 11
74.147
 21
-23.712
 72
1
 10
74.147
 20
-23.712
 11
74.192
 21
-23.587
 72
1
 10
74.192
 20
-23.587
 11
74.238
 21
-23.465
 72
1
 10
74.238
 20
-23.465
 11
74.284
 21
-23.350
 72
1
 10
74.284
 20
-23.350
 11
74.329
 21
-23.244
 72
1
 10
74.329
 20
-23.244
 11
74.389
 21
-23.106
 72
1
 10
74.389
 20
-23.106
 11
74.439
 21
-22.999
 72
1
 10
74.439
 20
-22.999
 11
74.484
 21
-22.905
 72
1
 10
74.484
 20
-22.905
 11
75.722
 21
-22.582
 97
0
 92
0
 93
34
 72
1
 10
15.558
 20
-23.604
 11
15.074
 21
-23.228
 72
1
 10
15.074
 20
-23.228
 11
15.128
 21
-22.528
 72
1
 10
15.128
 20
-22.528
 11
15.143
 21
-22.525
 72
1
 10
15.143
 20
-22.525
 11
15.251
 21
-22.505
 72
1
 10
15.251
 20
-22.505
 11
15.381
 21
-22.482
 72
1
 10
15.381
 20
-22.482
 11
15.482
 21
-22.466
 72
1
 10
15.482
 20
-22.466
 11
15.588
 21
-22.451
 72
1
 10
15.588
 20
-22.451
 11
15.695
 21
-22.437
 72
1
 10
15.695
 20
-22.437
 11
15.798
 21
-22.427
 72
1
 10
15.798
 20
-22.427
 11
15.935
 21
-22.420
 72
1
 10
15.935
 20
-22.420
 11
16.012
 21
-22.427
 72
1
 10
16.012
 20
-22.427
 11
16.118
 21
-22.458
 72
1
 10
16.118
 20
-22.458
 11
16.213
 21
-22.513
 72
1
 10
16.213
 20
-22.513
 11
16.299
 21
-22.589
 72
1
 10
16.299
 20
-22.589
 11
16.379
 21
-22.681
 72
1
 10
16.379
 20
-22.681
 11
16.454
 21
-22.788
 72
1
 10
16.454
 20
-22.788
 11
16.527
 21
-22.905
 72
1
 10
16.527
 20
-22.905
 11
16.563
 21
-22.988
 72
1
 10
16.563
 20
-22.988
 11
16.577
 21
-23.123
 72
1
 10
16.577
 20
-23.123
 11
16.555
 21
-23.265
 72
1
 10
16.555
 20
-23.265
 11
16.527
 21
-23.362
 72
1
 10
16.527
 20
-23.362
 11
16.492
 21
-23.459
 72
1
 10
16.492
 20
-23.459
 11
16.454
 21
-23.554
 72
1
 10
16.454
 20
-23.554
 11
16.402
 21
-23.692
 72
1
 10
16.402
 20
-23.692
 11
16.365
 21
-23.819
 72
1
 10
16.365
 20
-23.819
 11
16.311
 21
-23.897
 72
1
 10
16.311
 20
-23.897
 11
16.208
 21
-23.902
 72
1
 10
16.208
 20
-23.902
 11
16.072
 21
-23.856
 72
1
 10
16.072
 20
-23.856
 11
15.971
 21
-23.808
 72
1
 10
15.971
 20
-23.808
 11
15.868
 21
-23.753
 72
1
 10
15.868
 20
-23.753
 11
15.768
 21
-23.698
 72
1
 10
15.768
 20
-23.698
 11
15.674
 21
-23.650
 72
1
 10
15.674
 20
-23.650
 11
15.558
 21
-23.604
 72
1
 10
15.558
 20
-23.604
 11
15.558
 21
-23.604
 97
0
 75
0
 76
1
 98
1
 10
0.0
 20
0.0
  0
ENDSEC
  0
SECTION
  2
OBJECTS
  0
DICTIONARY
  5
C
100
AcDbDictionary
  3
ACAD_GROUP
350
D
  3
ACAD_MLINESTYLE
350
1B
  3
ACDBVARIABLEDICTIONARY
350
32
  0
DICTIONARY
  5
D
102
{ACAD_REACTORS
330
C
102
}
100
AcDbDictionary
  0
DICTIONARY
  5
1B
102
{ACAD_REACTORS
330
C
102
}
100
AcDbDictionary
  3
STANDARD
350
1C
  0
DICTIONARY
  5
32
102
{ACAD_REACTORS
330
C
102
}
100
AcDbDictionary
  3
SORTENTS
350
33
  0
MLINESTYLE
  5
1C
102
{ACAD_REACTORS
330
1B
102
}
100
AcDbMlineStyle
  2
STANDARD
 70
     0
  3

 62
   256
 51
90.0
 52
90.0
 71
     2
 49
0.5
 62
   256
  6
BYLAYER
 49
-0.5
 62
   256
  6
BYLAYER
  0
DICTIONARYVAR
  5
33
102
{ACAD_REACTORS
330
32
102
}
100
DictionaryVariables
280
     0
  1
96
  0
ENDSEC
  0
EOF

