  0
SECTION
  2
HEADER
  9
$ACADVER
  1
AC1006
  0
ENDSEC
  0
SECTION
  2
TABLES
  0
TABLE
  2
LAYER
  0
LAYER
  2
CHEMINEMENTS
 70
    64
 62
    1
  6
CONTINUOUS
  0
LAYER
  2
POINTS
 70
    64
 62
    6
  6
CONTINUOUS
  0
LAYER
  2
PROFONDEURS
 70
    64
 62
    2
  6
CONTINUOUS
  0
LAYER
  2
ECHELLE
 70
    64
 62
    7
  6
CONTINUOUS
  0
ENDTAB
  0
ENDSEC
  0
SECTION
  2
ENTITIES
  0
LINE
  8
CHEMINEMENTS
 10
    0.00
 20
    0.00
 30
    0.00
 11
    0.00
 21
    0.00
 31
    0.00
  0
CIRCLE
  8
POINTS
 10
    0.00
 20
    0.00
 30
    0.00
 40
    0.2
  0
TEXT
  8
PROFONDEURS
 10
    0.00
 20
    0.00
 30
    0.00
 40
    0.6
 72
    0
  1
+0
  0
LINE
  8
CHEMINEMENTS
 10
    0.00
 20
    0.00
 30
    0.00
 11
    6.70
 21
    -4.19
 31
    0.00
  0
CIRCLE
  8
POINTS
 10
    6.70
 20
    -4.19
 30
    0.00
 40
    0.2
  0
LINE
  8
CHEMINEMENTS
 10
    6.70
 20
    -4.19
 30
    0.00
 11
    15.01
 21
    -17.49
 31
    0.00
  0
CIRCLE
  8
POINTS
 10
    15.01
 20
    -17.49
 30
    0.00
 40
    0.2
  0
LINE
  8
CHEMINEMENTS
 10
    15.01
 20
    -17.49
 30
    0.00
 11
    15.01
 21
    -32.51
 31
    0.00
  0
CIRCLE
  8
POINTS
 10
    15.01
 20
    -32.51
 30
    0.00
 40
    0.2
  0
LINE
  8
CHEMINEMENTS
 10
    15.01
 20
    -32.51
 30
    0.00
 11
    23.80
 21
    -36.80
 31
    0.00
  0
CIRCLE
  8
POINTS
 10
    23.80
 20
    -36.80
 30
    0.00
 40
    0.2
  0
LINE
  8
CHEMINEMENTS
 10
    23.80
 20
    -36.80
 30
    0.00
 11
    23.80
 21
    -40.15
 31
    0.00
  0
CIRCLE
  8
POINTS
 10
    23.80
 20
    -40.15
 30
    0.00
 40
    0.2
  0
LINE
  8
CHEMINEMENTS
 10
    23.80
 20
    -40.15
 30
    0.00
 11
    29.51
 21
    -42.57
 31
    0.00
  0
CIRCLE
  8
POINTS
 10
    29.51
 20
    -42.57
 30
    0.00
 40
    0.2
  0
LINE
  8
CHEMINEMENTS
 10
    29.51
 20
    -42.57
 30
    0.00
 11
    33.15
 21
    -45.22
 31
    0.00
  0
CIRCLE
  8
POINTS
 10
    33.15
 20
    -45.22
 30
    0.00
 40
    0.2
  0
LINE
  8
CHEMINEMENTS
 10
    33.15
 20
    -45.22
 30
    0.00
 11
    35.85
 21
    -49.37
 31
    0.00
  0
CIRCLE
  8
POINTS
 10
    35.85
 20
    -49.37
 30
    0.00
 40
    0.2
  0
LINE
  8
CHEMINEMENTS
 10
    33.15
 20
    -45.22
 30
    0.00
 11
    27.96
 21
    -51.87
 31
    0.00
  0
CIRCLE
  8
POINTS
 10
    27.96
 20
    -51.87
 30
    0.00
 40
    0.2
  0
LINE
  8
CHEMINEMENTS
 10
    35.85
 20
    -49.37
 30
    0.00
 11
    38.33
 21
    -51.69
 31
    0.00
  0
CIRCLE
  8
POINTS
 10
    38.33
 20
    -51.69
 30
    0.00
 40
    0.2
  0
LINE
  8
CHEMINEMENTS
 10
    38.33
 20
    -51.69
 30
    0.00
 11
    42.12
 21
    -51.36
 31
    0.00
  0
CIRCLE
  8
POINTS
 10
    42.12
 20
    -51.36
 30
    0.00
 40
    0.2
  0
LINE
  8
CHEMINEMENTS
 10
    42.12
 20
    -51.36
 30
    0.00
 11
    45.15
 21
    -55.52
 31
    0.00
  0
CIRCLE
  8
POINTS
 10
    45.15
 20
    -55.52
 30
    0.00
 40
    0.2
  0
LINE
  8
CHEMINEMENTS
 10
    45.15
 20
    -55.52
 30
    0.00
 11
    47.30
 21
    -55.75
 31
    0.00
  0
CIRCLE
  8
POINTS
 10
    47.30
 20
    -55.75
 30
    0.00
 40
    0.2
  0
LINE
  8
CHEMINEMENTS
 10
    47.30
 20
    -55.75
 30
    0.00
 11
    50.28
 21
    -60.72
 31
    0.00
  0
CIRCLE
  8
POINTS
 10
    50.28
 20
    -60.72
 30
    0.00
 40
    0.2
  0
LINE
  8
CHEMINEMENTS
 10
    50.28
 20
    -60.72
 30
    0.00
 11
    53.36
 21
    -69.66
 31
    0.00
  0
CIRCLE
  8
POINTS
 10
    53.36
 20
    -69.66
 30
    0.00
 40
    0.2
  0
LINE
  8
CHEMINEMENTS
 10
    53.36
 20
    -69.66
 30
    0.00
 11
    57.91
 21
    -71.06
 31
    0.00
  0
CIRCLE
  8
POINTS
 10
    57.91
 20
    -71.06
 30
    0.00
 40
    0.2
  0
LINE
  8
CHEMINEMENTS
 10
    57.91
 20
    -71.06
 30
    0.00
 11
    61.07
 21
    -78.48
 31
    0.00
  0
CIRCLE
  8
POINTS
 10
    61.07
 20
    -78.48
 30
    0.00
 40
    0.2
  0
LINE
  8
CHEMINEMENTS
 10
    61.07
 20
    -78.48
 30
    0.00
 11
    66.83
 21
    -84.66
 31
    0.00
  0
CIRCLE
  8
POINTS
 10
    66.83
 20
    -84.66
 30
    0.00
 40
    0.2
  0
LINE
  8
CHEMINEMENTS
 10
    66.83
 20
    -84.66
 30
    0.00
 11
    69.00
 21
    -84.28
 31
    0.00
  0
CIRCLE
  8
POINTS
 10
    69.00
 20
    -84.28
 30
    0.00
 40
    0.2
  0
LINE
  8
CHEMINEMENTS
 10
    69.00
 20
    -84.28
 30
    0.00
 11
    73.29
 21
    -84.13
 31
    0.00
  0
CIRCLE
  8
POINTS
 10
    73.29
 20
    -84.13
 30
    0.00
 40
    0.2
  0
LINE
  8
CHEMINEMENTS
 10
    73.29
 20
    -84.13
 30
    0.00
 11
    75.13
 21
    -84.62
 31
    0.00
  0
CIRCLE
  8
POINTS
 10
    75.13
 20
    -84.62
 30
    0.00
 40
    0.2
  0
LINE
  8
CHEMINEMENTS
 10
    75.13
 20
    -84.62
 30
    0.00
 11
    77.25
 21
    -86.75
 31
    0.00
  0
CIRCLE
  8
POINTS
 10
    77.25
 20
    -86.75
 30
    0.00
 40
    0.2
  0
LINE
  8
CHEMINEMENTS
 10
    77.25
 20
    -86.75
 30
    0.00
 11
    80.17
 21
    -88.50
 31
    0.00
  0
CIRCLE
  8
POINTS
 10
    80.17
 20
    -88.50
 30
    0.00
 40
    0.2
  0
LINE
  8
CHEMINEMENTS
 10
    80.17
 20
    -88.50
 30
    0.00
 11
    87.57
 21
    -99.90
 31
    0.00
  0
CIRCLE
  8
POINTS
 10
    87.57
 20
    -99.90
 30
    0.00
 40
    0.2
  0
LINE
  8
CHEMINEMENTS
 10
    87.57
 20
    -99.90
 30
    0.00
 11
    87.57
 21
    -109.90
 31
    0.00
  0
CIRCLE
  8
POINTS
 10
    87.57
 20
    -109.90
 30
    0.00
 40
    0.2
  0
LINE
  8
CHEMINEMENTS
 10
    87.57
 20
    -109.90
 30
    0.00
 11
    87.57
 21
    -120.90
 31
    0.00
  0
CIRCLE
  8
POINTS
 10
    87.57
 20
    -120.90
 30
    0.00
 40
    0.2
  0
LINE
  8
CHEMINEMENTS
 10
    87.57
 20
    -120.90
 30
    0.00
 11
    94.55
 21
    -120.29
 31
    0.00
  0
CIRCLE
  8
POINTS
 10
    94.55
 20
    -120.29
 30
    0.00
 40
    0.2
  0
LINE
  8
CHEMINEMENTS
 10
    94.55
 20
    -120.29
 30
    0.00
 11
    98.16
 21
    -131.42
 31
    0.00
  0
CIRCLE
  8
POINTS
 10
    98.16
 20
    -131.42
 30
    0.00
 40
    0.2
  0
LINE
  8
CHEMINEMENTS
 10
    98.16
 20
    -131.42
 30
    0.00
 11
    101.04
 21
    -134.20
 31
    0.00
  0
CIRCLE
  8
POINTS
 10
    101.04
 20
    -134.20
 30
    0.00
 40
    0.2
  0
LINE
  8
CHEMINEMENTS
 10
    101.04
 20
    -134.20
 30
    0.00
 11
    108.54
 21
    -134.20
 31
    0.00
  0
CIRCLE
  8
POINTS
 10
    108.54
 20
    -134.20
 30
    0.00
 40
    0.2
  0
LINE
  8
CHEMINEMENTS
 10
    108.54
 20
    -134.20
 30
    0.00
 11
    108.54
 21
    -138.20
 31
    0.00
  0
CIRCLE
  8
POINTS
 10
    108.54
 20
    -138.20
 30
    0.00
 40
    0.2
  0
LINE
  8
CHEMINEMENTS
 10
    108.54
 20
    -138.20
 30
    0.00
 11
    110.59
 21
    -139.15
 31
    0.00
  0
CIRCLE
  8
POINTS
 10
    110.59
 20
    -139.15
 30
    0.00
 40
    0.2
  0
LINE
  8
CHEMINEMENTS
 10
    110.59
 20
    -139.15
 30
    0.00
 11
    112.79
 21
    -147.36
 31
    0.00
  0
CIRCLE
  8
POINTS
 10
    112.79
 20
    -147.36
 30
    0.00
 40
    0.2
  0
LINE
  8
CHEMINEMENTS
 10
    112.79
 20
    -147.36
 30
    0.00
 11
    135.29
 21
    -147.36
 31
    0.00
  0
CIRCLE
  8
POINTS
 10
    135.29
 20
    -147.36
 30
    0.00
 40
    0.2
  0
LINE
  8
CHEMINEMENTS
 10
    135.29
 20
    -147.36
 30
    0.00
 11
    139.67
 21
    -163.74
 31
    0.00
  0
CIRCLE
  8
POINTS
 10
    139.67
 20
    -163.74
 30
    0.00
 40
    0.2
  0
LINE
  8
CHEMINEMENTS
 10
    139.67
 20
    -163.74
 30
    0.00
 11
    132.64
 21
    -166.02
 31
    0.00
  0
CIRCLE
  8
POINTS
 10
    132.64
 20
    -166.02
 30
    0.00
 40
    0.2
  0
LINE
  8
CHEMINEMENTS
 10
    132.64
 20
    -166.02
 30
    0.00
 11
    130.94
 21
    -166.64
 31
    0.00
  0
CIRCLE
  8
POINTS
 10
    130.94
 20
    -166.64
 30
    0.00
 40
    0.2
  0
LINE
  8
CHEMINEMENTS
 10
    130.94
 20
    -166.64
 30
    0.00
 11
    124.96
 21
    -169.43
 31
    0.00
  0
CIRCLE
  8
POINTS
 10
    124.96
 20
    -169.43
 30
    0.00
 40
    0.2
  0
LINE
  8
CHEMINEMENTS
 10
    124.96
 20
    -169.43
 30
    0.00
 11
    118.64
 21
    -173.08
 31
    0.00
  0
CIRCLE
  8
POINTS
 10
    118.64
 20
    -173.08
 30
    0.00
 40
    0.2
  0
LINE
  8
CHEMINEMENTS
 10
    118.64
 20
    -173.08
 30
    0.00
 11
    110.72
 21
    -176.44
 31
    0.00
  0
CIRCLE
  8
POINTS
 10
    110.72
 20
    -176.44
 30
    0.00
 40
    0.2
  0
LINE
  8
CHEMINEMENTS
 10
    110.72
 20
    -176.44
 30
    0.00
 11
    109.53
 21
    -180.88
 31
    0.00
  0
CIRCLE
  8
POINTS
 10
    109.53
 20
    -180.88
 30
    0.00
 40
    0.2
  0
LINE
  8
CHEMINEMENTS
 10
    109.53
 20
    -180.88
 30
    0.00
 11
    104.32
 21
    -183.42
 31
    0.00
  0
CIRCLE
  8
POINTS
 10
    104.32
 20
    -183.42
 30
    0.00
 40
    0.2
  0
LINE
  8
CHEMINEMENTS
 10
    104.32
 20
    -183.42
 30
    0.00
 11
    102.52
 21
    -183.49
 31
    0.00
  0
CIRCLE
  8
POINTS
 10
    102.52
 20
    -183.49
 30
    0.00
 40
    0.2
  0
LINE
  8
CHEMINEMENTS
 10
    102.52
 20
    -183.49
 30
    0.00
 11
    100.94
 21
    -183.71
 31
    0.00
  0
CIRCLE
  8
POINTS
 10
    100.94
 20
    -183.71
 30
    0.00
 40
    0.2
  0
LINE
  8
CHEMINEMENTS
 10
    100.94
 20
    -183.71
 30
    0.00
 11
    97.54
 21
    -183.71
 31
    0.00
  0
CIRCLE
  8
POINTS
 10
    97.54
 20
    -183.71
 30
    0.00
 40
    0.2
  0
LINE
  8
CHEMINEMENTS
 10
    97.54
 20
    -183.71
 30
    0.00
 11
    90.83
 21
    -186.84
 31
    0.00
  0
CIRCLE
  8
POINTS
 10
    90.83
 20
    -186.84
 30
    0.00
 40
    0.2
  0
LINE
  8
CHEMINEMENTS
 10
    90.83
 20
    -186.84
 30
    0.00
 11
    87.82
 21
    -187.76
 31
    0.00
  0
CIRCLE
  8
POINTS
 10
    87.82
 20
    -187.76
 30
    0.00
 40
    0.2
  0
LINE
  8
CHEMINEMENTS
 10
    87.82
 20
    -187.76
 30
    0.00
 11
    84.80
 21
    -188.46
 31
    0.00
  0
CIRCLE
  8
POINTS
 10
    84.80
 20
    -188.46
 30
    0.00
 40
    0.2
  0
LINE
  8
CHEMINEMENTS
 10
    84.80
 20
    -188.46
 30
    0.00
 11
    82.90
 21
    -188.46
 31
    0.00
  0
CIRCLE
  8
POINTS
 10
    82.90
 20
    -188.46
 30
    0.00
 40
    0.2
  0
LINE
  8
CHEMINEMENTS
 10
    82.90
 20
    -188.46
 30
    0.00
 11
    80.29
 21
    -189.73
 31
    0.00
  0
CIRCLE
  8
POINTS
 10
    80.29
 20
    -189.73
 30
    0.00
 40
    0.2
  0
LINE
  8
CHEMINEMENTS
 10
    80.29
 20
    -189.73
 30
    0.00
 11
    78.29
 21
    -189.80
 31
    0.00
  0
CIRCLE
  8
POINTS
 10
    78.29
 20
    -189.80
 30
    0.00
 40
    0.2
  0
LINE
  8
CHEMINEMENTS
 10
    78.29
 20
    -189.80
 30
    0.00
 11
    70.41
 21
    -195.95
 31
    0.00
  0
CIRCLE
  8
POINTS
 10
    70.41
 20
    -195.95
 30
    0.00
 40
    0.2
  0
LINE
  8
CHEMINEMENTS
 10
    70.41
 20
    -195.95
 30
    0.00
 11
    80.49
 21
    -199.23
 31
    0.00
  0
CIRCLE
  8
POINTS
 10
    80.49
 20
    -199.23
 30
    0.00
 40
    0.2
  0
LINE
  8
CHEMINEMENTS
 10
    80.49
 20
    -199.23
 30
    0.00
 11
    81.86
 21
    -202.99
 31
    0.00
  0
CIRCLE
  8
POINTS
 10
    81.86
 20
    -202.99
 30
    0.00
 40
    0.2
  0
LINE
  8
CHEMINEMENTS
 10
    81.86
 20
    -202.99
 30
    0.00
 11
    93.88
 21
    -205.11
 31
    0.00
  0
CIRCLE
  8
POINTS
 10
    93.88
 20
    -205.11
 30
    0.00
 40
    0.2
  0
LINE
  8
CHEMINEMENTS
 10
    93.88
 20
    -205.11
 30
    0.00
 11
    95.27
 21
    -205.18
 31
    0.00
  0
CIRCLE
  8
POINTS
 10
    95.27
 20
    -205.18
 30
    0.00
 40
    0.2
  0
LINE
  8
CHEMINEMENTS
 10
    95.27
 20
    -205.18
 30
    0.00
 11
    97.67
 21
    -205.39
 31
    0.00
  0
CIRCLE
  8
POINTS
 10
    97.67
 20
    -205.39
 30
    0.00
 40
    0.2
  0
LINE
  8
CHEMINEMENTS
 10
    97.67
 20
    -205.39
 30
    0.00
 11
    98.67
 21
    -205.39
 31
    0.00
  0
CIRCLE
  8
POINTS
 10
    98.67
 20
    -205.39
 30
    0.00
 40
    0.2
  0
LINE
  8
CHEMINEMENTS
 10
    98.67
 20
    -205.39
 30
    0.00
 11
    100.27
 21
    -205.39
 31
    0.00
  0
CIRCLE
  8
POINTS
 10
    100.27
 20
    -205.39
 30
    0.00
 40
    0.2
  0
LINE
  8
CHEMINEMENTS
 10
    100.27
 20
    -205.39
 30
    0.00
 11
    102.66
 21
    -205.60
 31
    0.00
  0
CIRCLE
  8
POINTS
 10
    102.66
 20
    -205.60
 30
    0.00
 40
    0.2
  0
LINE
  8
CHEMINEMENTS
 10
    102.66
 20
    -205.60
 30
    0.00
 11
    104.06
 21
    -205.60
 31
    0.00
  0
CIRCLE
  8
POINTS
 10
    104.06
 20
    -205.60
 30
    0.00
 40
    0.2
  0
LINE
  8
CHEMINEMENTS
 10
    104.06
 20
    -205.60
 30
    0.00
 11
    108.05
 21
    -205.88
 31
    0.00
  0
CIRCLE
  8
POINTS
 10
    108.05
 20
    -205.88
 30
    0.00
 40
    0.2
  0
LINE
  8
CHEMINEMENTS
 10
    108.05
 20
    -205.88
 30
    0.00
 11
    110.84
 21
    -206.07
 31
    0.00
  0
CIRCLE
  8
POINTS
 10
    110.84
 20
    -206.07
 30
    0.00
 40
    0.2
  0
LINE
  8
CHEMINEMENTS
 10
    110.84
 20
    -206.07
 30
    0.00
 11
    113.70
 21
    -207.72
 31
    0.00
  0
CIRCLE
  8
POINTS
 10
    113.70
 20
    -207.72
 30
    0.00
 40
    0.2
  0
LINE
  8
CHEMINEMENTS
 10
    113.70
 20
    -207.72
 30
    0.00
 11
    118.65
 21
    -208.42
 31
    0.00
  0
CIRCLE
  8
POINTS
 10
    118.65
 20
    -208.42
 30
    0.00
 40
    0.2
  0
LINE
  8
CHEMINEMENTS
 10
    118.65
 20
    -208.42
 30
    0.00
 11
    120.65
 21
    -208.42
 31
    0.00
  0
CIRCLE
  8
POINTS
 10
    120.65
 20
    -208.42
 30
    0.00
 40
    0.2
  0
LINE
  8
CHEMINEMENTS
 10
    120.65
 20
    -208.42
 30
    0.00
 11
    124.93
 21
    -209.81
 31
    0.00
  0
CIRCLE
  8
POINTS
 10
    124.93
 20
    -209.81
 30
    0.00
 40
    0.2
  0
LINE
  8
CHEMINEMENTS
 10
    124.93
 20
    -209.81
 30
    0.00
 11
    127.53
 21
    -211.31
 31
    0.00
  0
CIRCLE
  8
POINTS
 10
    127.53
 20
    -211.31
 30
    0.00
 40
    0.2
  0
LINE
  8
CHEMINEMENTS
 10
    127.53
 20
    -211.31
 30
    0.00
 11
    130.38
 21
    -217.15
 31
    0.00
  0
CIRCLE
  8
POINTS
 10
    130.38
 20
    -217.15
 30
    0.00
 40
    0.2
  0
LINE
  8
CHEMINEMENTS
 10
    130.38
 20
    -217.15
 30
    0.00
 11
    137.37
 21
    -218.64
 31
    0.00
  0
CIRCLE
  8
POINTS
 10
    137.37
 20
    -218.64
 30
    0.00
 40
    0.2
  0
LINE
  8
CHEMINEMENTS
 10
    137.37
 20
    -218.64
 30
    0.00
 11
    138.82
 21
    -223.11
 31
    0.00
  0
CIRCLE
  8
POINTS
 10
    138.82
 20
    -223.11
 30
    0.00
 40
    0.2
  0
LINE
  8
CHEMINEMENTS
 10
    138.82
 20
    -223.11
 30
    0.00
 11
    144.63
 21
    -224.13
 31
    0.00
  0
CIRCLE
  8
POINTS
 10
    144.63
 20
    -224.13
 30
    0.00
 40
    0.2
  0
LINE
  8
CHEMINEMENTS
 10
    144.63
 20
    -224.13
 30
    0.00
 11
    152.34
 21
    -225.35
 31
    0.00
  0
CIRCLE
  8
POINTS
 10
    152.34
 20
    -225.35
 30
    0.00
 40
    0.2
  0
LINE
  8
CHEMINEMENTS
 10
    152.34
 20
    -225.35
 30
    0.00
 11
    157.93
 21
    -228.85
 31
    0.00
  0
CIRCLE
  8
POINTS
 10
    157.93
 20
    -228.85
 30
    0.00
 40
    0.2
  0
LINE
  8
CHEMINEMENTS
 10
    157.93
 20
    -228.85
 30
    0.00
 11
    160.77
 21
    -229.10
 31
    0.00
  0
CIRCLE
  8
POINTS
 10
    160.77
 20
    -229.10
 30
    0.00
 40
    0.2
  0
LINE
  8
CHEMINEMENTS
 10
    160.77
 20
    -229.10
 30
    0.00
 11
    162.74
 21
    -230.47
 31
    0.00
  0
CIRCLE
  8
POINTS
 10
    162.74
 20
    -230.47
 30
    0.00
 40
    0.2
  0
LINE
  8
CHEMINEMENTS
 10
    162.74
 20
    -230.47
 30
    0.00
 11
    166.27
 21
    -232.12
 31
    0.00
  0
CIRCLE
  8
POINTS
 10
    166.27
 20
    -232.12
 30
    0.00
 40
    0.2
  0
LINE
  8
CHEMINEMENTS
 10
    166.27
 20
    -232.12
 30
    0.00
 11
    167.17
 21
    -233.19
 31
    0.00
  0
CIRCLE
  8
POINTS
 10
    167.17
 20
    -233.19
 30
    0.00
 40
    0.2
  0
LINE
  8
CHEMINEMENTS
 10
    167.17
 20
    -233.19
 30
    0.00
 11
    169.21
 21
    -234.02
 31
    0.00
  0
CIRCLE
  8
POINTS
 10
    169.21
 20
    -234.02
 30
    0.00
 40
    0.2
  0
LINE
  8
CHEMINEMENTS
 10
    169.21
 20
    -234.02
 30
    0.00
 11
    171.28
 21
    -233.65
 31
    0.00
  0
CIRCLE
  8
POINTS
 10
    171.28
 20
    -233.65
 30
    0.00
 40
    0.2
  0
LINE
  8
CHEMINEMENTS
 10
    171.28
 20
    -233.65
 30
    0.00
 11
    173.68
 21
    -233.49
 31
    0.00
  0
CIRCLE
  8
POINTS
 10
    173.68
 20
    -233.49
 30
    0.00
 40
    0.2
  0
LINE
  8
CHEMINEMENTS
 10
    173.68
 20
    -233.49
 30
    0.00
 11
    178.57
 21
    -233.23
 31
    0.00
  0
CIRCLE
  8
POINTS
 10
    178.57
 20
    -233.23
 30
    0.00
 40
    0.2
  0
LINE
  8
CHEMINEMENTS
 10
    178.57
 20
    -233.23
 30
    0.00
 11
    180.83
 21
    -235.49
 31
    0.00
  0
CIRCLE
  8
POINTS
 10
    180.83
 20
    -235.49
 30
    0.00
 40
    0.2
  0
LINE
  8
CHEMINEMENTS
 10
    180.83
 20
    -235.49
 30
    0.00
 11
    183.90
 21
    -238.36
 31
    0.00
  0
CIRCLE
  8
POINTS
 10
    183.90
 20
    -238.36
 30
    0.00
 40
    0.2
  0
LINE
  8
CHEMINEMENTS
 10
    183.90
 20
    -238.36
 30
    0.00
 11
    188.04
 21
    -239.09
 31
    0.00
  0
CIRCLE
  8
POINTS
 10
    188.04
 20
    -239.09
 30
    0.00
 40
    0.2
  0
LINE
  8
CHEMINEMENTS
 10
    188.04
 20
    -239.09
 30
    0.00
 11
    197.55
 21
    -240.42
 31
    0.00
  0
CIRCLE
  8
POINTS
 10
    197.55
 20
    -240.42
 30
    0.00
 40
    0.2
  0
LINE
  8
CHEMINEMENTS
 10
    197.55
 20
    -240.42
 30
    0.00
 11
    199.91
 21
    -242.27
 31
    0.00
  0
CIRCLE
  8
POINTS
 10
    199.91
 20
    -242.27
 30
    0.00
 40
    0.2
  0
LINE
  8
CHEMINEMENTS
 10
    199.91
 20
    -242.27
 30
    0.00
 11
    208.89
 21
    -242.90
 31
    0.00
  0
CIRCLE
  8
POINTS
 10
    208.89
 20
    -242.90
 30
    0.00
 40
    0.2
  0
LINE
  8
CHEMINEMENTS
 10
    208.89
 20
    -242.90
 30
    0.00
 11
    212.09
 21
    -242.90
 31
    0.00
  0
CIRCLE
  8
POINTS
 10
    212.09
 20
    -242.90
 30
    0.00
 40
    0.2
  0
LINE
  8
CHEMINEMENTS
 10
    212.09
 20
    -242.90
 30
    0.00
 11
    216.96
 21
    -249.86
 31
    0.00
  0
CIRCLE
  8
POINTS
 10
    216.96
 20
    -249.86
 30
    0.00
 40
    0.2
  0
LINE
  8
CHEMINEMENTS
 10
    216.96
 20
    -249.86
 30
    0.00
 11
    220.48
 21
    -251.00
 31
    0.00
  0
CIRCLE
  8
POINTS
 10
    220.48
 20
    -251.00
 30
    0.00
 40
    0.2
  0
LINE
  8
CHEMINEMENTS
 10
    220.48
 20
    -251.00
 30
    0.00
 11
    223.81
 21
    -251.71
 31
    0.00
  0
CIRCLE
  8
POINTS
 10
    223.81
 20
    -251.71
 30
    0.00
 40
    0.2
  0
LINE
  8
CHEMINEMENTS
 10
    223.81
 20
    -251.71
 30
    0.00
 11
    227.33
 21
    -253.13
 31
    0.00
  0
CIRCLE
  8
POINTS
 10
    227.33
 20
    -253.13
 30
    0.00
 40
    0.2
  0
LINE
  8
CHEMINEMENTS
 10
    227.33
 20
    -253.13
 30
    0.00
 11
    235.43
 21
    -255.15
 31
    0.00
  0
CIRCLE
  8
POINTS
 10
    235.43
 20
    -255.15
 30
    0.00
 40
    0.2
  0
LINE
  8
CHEMINEMENTS
 10
    235.43
 20
    -255.15
 30
    0.00
 11
    237.51
 21
    -255.71
 31
    0.00
  0
CIRCLE
  8
POINTS
 10
    237.51
 20
    -255.71
 30
    0.00
 40
    0.2
  0
LINE
  8
CHEMINEMENTS
 10
    237.51
 20
    -255.71
 30
    0.00
 11
    241.91
 21
    -256.89
 31
    0.00
  0
CIRCLE
  8
POINTS
 10
    241.91
 20
    -256.89
 30
    0.00
 40
    0.2
  0
LINE
  8
CHEMINEMENTS
 10
    241.91
 20
    -256.89
 30
    0.00
 11
    243.41
 21
    -256.89
 31
    0.00
  0
CIRCLE
  8
POINTS
 10
    243.41
 20
    -256.89
 30
    0.00
 40
    0.2
  0
LINE
  8
CHEMINEMENTS
 10
    243.41
 20
    -256.89
 30
    0.00
 11
    247.50
 21
    -257.83
 31
    0.00
  0
CIRCLE
  8
POINTS
 10
    247.50
 20
    -257.83
 30
    0.00
 40
    0.2
  0
LINE
  8
CHEMINEMENTS
 10
    247.50
 20
    -257.83
 30
    0.00
 11
    250.21
 21
    -257.36
 31
    0.00
  0
CIRCLE
  8
POINTS
 10
    250.21
 20
    -257.36
 30
    0.00
 40
    0.2
  0
LINE
  8
CHEMINEMENTS
 10
    250.21
 20
    -257.36
 30
    0.00
 11
    252.67
 21
    -257.79
 31
    0.00
  0
CIRCLE
  8
POINTS
 10
    252.67
 20
    -257.79
 30
    0.00
 40
    0.2
  0
LINE
  8
CHEMINEMENTS
 10
    252.67
 20
    -257.79
 30
    0.00
 11
    254.26
 21
    -257.68
 31
    0.00
  0
CIRCLE
  8
POINTS
 10
    254.26
 20
    -257.68
 30
    0.00
 40
    0.2
  0
LINE
  8
CHEMINEMENTS
 10
    254.26
 20
    -257.68
 30
    0.00
 11
    255.88
 21
    -258.20
 31
    0.00
  0
CIRCLE
  8
POINTS
 10
    255.88
 20
    -258.20
 30
    0.00
 40
    0.2
  0
LINE
  8
CHEMINEMENTS
 10
    255.88
 20
    -258.20
 30
    0.00
 11
    258.20
 21
    -259.14
 31
    0.00
  0
CIRCLE
  8
POINTS
 10
    258.20
 20
    -259.14
 30
    0.00
 40
    0.2
  0
LINE
  8
CHEMINEMENTS
 10
    258.20
 20
    -259.14
 30
    0.00
 11
    259.93
 21
    -259.38
 31
    0.00
  0
CIRCLE
  8
POINTS
 10
    259.93
 20
    -259.38
 30
    0.00
 40
    0.2
  0
LINE
  8
CHEMINEMENTS
 10
    259.93
 20
    -259.38
 30
    0.00
 11
    261.37
 21
    -259.80
 31
    0.00
  0
CIRCLE
  8
POINTS
 10
    261.37
 20
    -259.80
 30
    0.00
 40
    0.2
  0
LINE
  8
CHEMINEMENTS
 10
    261.37
 20
    -259.80
 30
    0.00
 11
    269.05
 21
    -258.72
 31
    0.00
  0
CIRCLE
  8
POINTS
 10
    269.05
 20
    -258.72
 30
    0.00
 40
    0.2
  0
LINE
  8
CHEMINEMENTS
 10
    269.05
 20
    -258.72
 30
    0.00
 11
    272.18
 21
    -259.16
 31
    0.00
  0
CIRCLE
  8
POINTS
 10
    272.18
 20
    -259.16
 30
    0.00
 40
    0.2
  0
LINE
  8
CHEMINEMENTS
 10
    272.18
 20
    -259.16
 30
    0.00
 11
    274.26
 21
    -259.45
 31
    0.00
  0
CIRCLE
  8
POINTS
 10
    274.26
 20
    -259.45
 30
    0.00
 40
    0.2
  0
LINE
  8
CHEMINEMENTS
 10
    274.26
 20
    -259.45
 30
    0.00
 11
    276.35
 21
    -260.13
 31
    0.00
  0
CIRCLE
  8
POINTS
 10
    276.35
 20
    -260.13
 30
    0.00
 40
    0.2
  0
LINE
  8
CHEMINEMENTS
 10
    276.35
 20
    -260.13
 30
    0.00
 11
    278.31
 21
    -260.55
 31
    0.00
  0
CIRCLE
  8
POINTS
 10
    278.31
 20
    -260.55
 30
    0.00
 40
    0.2
  0
LINE
  8
CHEMINEMENTS
 10
    278.31
 20
    -260.55
 30
    0.00
 11
    280.61
 21
    -260.55
 31
    0.00
  0
CIRCLE
  8
POINTS
 10
    280.61
 20
    -260.55
 30
    0.00
 40
    0.2
  0
LINE
  8
CHEMINEMENTS
 10
    280.61
 20
    -260.55
 30
    0.00
 11
    282.90
 21
    -260.75
 31
    0.00
  0
CIRCLE
  8
POINTS
 10
    282.90
 20
    -260.75
 30
    0.00
 40
    0.2
  0
LINE
  8
CHEMINEMENTS
 10
    282.90
 20
    -260.75
 30
    0.00
 11
    285.65
 21
    -261.23
 31
    0.00
  0
CIRCLE
  8
POINTS
 10
    285.65
 20
    -261.23
 30
    0.00
 40
    0.2
  0
LINE
  8
CHEMINEMENTS
 10
    285.65
 20
    -261.23
 30
    0.00
 11
    287.63
 21
    -261.51
 31
    0.00
  0
CIRCLE
  8
POINTS
 10
    287.63
 20
    -261.51
 30
    0.00
 40
    0.2
  0
LINE
  8
CHEMINEMENTS
 10
    287.63
 20
    -261.51
 30
    0.00
 11
    292.23
 21
    -262.49
 31
    0.00
  0
CIRCLE
  8
POINTS
 10
    292.23
 20
    -262.49
 30
    0.00
 40
    0.2
  0
LINE
  8
CHEMINEMENTS
 10
    292.23
 20
    -262.49
 30
    0.00
 11
    295.51
 21
    -262.83
 31
    0.00
  0
CIRCLE
  8
POINTS
 10
    295.51
 20
    -262.83
 30
    0.00
 40
    0.2
  0
LINE
  8
CHEMINEMENTS
 10
    295.51
 20
    -262.83
 30
    0.00
 11
    299.23
 21
    -263.36
 31
    0.00
  0
CIRCLE
  8
POINTS
 10
    299.23
 20
    -263.36
 30
    0.00
 40
    0.2
  0
LINE
  8
CHEMINEMENTS
 10
    299.23
 20
    -263.36
 30
    0.00
 11
    303.95
 21
    -264.19
 31
    0.00
  0
CIRCLE
  8
POINTS
 10
    303.95
 20
    -264.19
 30
    0.00
 40
    0.2
  0
LINE
  8
CHEMINEMENTS
 10
    303.95
 20
    -264.19
 30
    0.00
 11
    305.70
 21
    -264.19
 31
    0.00
  0
CIRCLE
  8
POINTS
 10
    305.70
 20
    -264.19
 30
    0.00
 40
    0.2
  0
LINE
  8
CHEMINEMENTS
 10
    305.70
 20
    -264.19
 30
    0.00
 11
    307.65
 21
    -264.19
 31
    0.00
  0
CIRCLE
  8
POINTS
 10
    307.65
 20
    -264.19
 30
    0.00
 40
    0.2
  0
LINE
  8
CHEMINEMENTS
 10
    307.65
 20
    -264.19
 30
    0.00
 11
    310.82
 21
    -264.63
 31
    0.00
  0
CIRCLE
  8
POINTS
 10
    310.82
 20
    -264.63
 30
    0.00
 40
    0.2
  0
LINE
  8
CHEMINEMENTS
 10
    310.82
 20
    -264.63
 30
    0.00
 11
    321.09
 21
    -267.97
 31
    0.00
  0
CIRCLE
  8
POINTS
 10
    321.09
 20
    -267.97
 30
    0.00
 40
    0.2
  0
LINE
  8
CHEMINEMENTS
 10
    321.09
 20
    -267.97
 30
    0.00
 11
    326.78
 21
    -268.37
 31
    0.00
  0
CIRCLE
  8
POINTS
 10
    326.78
 20
    -268.37
 30
    0.00
 40
    0.2
  0
LINE
  8
CHEMINEMENTS
 10
    326.78
 20
    -268.37
 30
    0.00
 11
    333.08
 21
    -271.31
 31
    0.00
  0
CIRCLE
  8
POINTS
 10
    333.08
 20
    -271.31
 30
    0.00
 40
    0.2
  0
LINE
  8
CHEMINEMENTS
 10
    333.08
 20
    -271.31
 30
    0.00
 11
    335.91
 21
    -274.13
 31
    0.00
  0
CIRCLE
  8
POINTS
 10
    335.91
 20
    -274.13
 30
    0.00
 40
    0.2
  0
LINE
  8
CHEMINEMENTS
 10
    335.91
 20
    -274.13
 30
    0.00
 11
    340.82
 21
    -276.12
 31
    0.00
  0
CIRCLE
  8
POINTS
 10
    340.82
 20
    -276.12
 30
    0.00
 40
    0.2
  0
LINE
  8
CHEMINEMENTS
 10
    340.82
 20
    -276.12
 30
    0.00
 11
    343.55
 21
    -275.13
 31
    0.00
  0
CIRCLE
  8
POINTS
 10
    343.55
 20
    -275.13
 30
    0.00
 40
    0.2
  0
LINE
  8
CHEMINEMENTS
 10
    343.55
 20
    -275.13
 30
    0.00
 11
    345.20
 21
    -275.13
 31
    0.00
  0
CIRCLE
  8
POINTS
 10
    345.20
 20
    -275.13
 30
    0.00
 40
    0.2
  0
LINE
  8
CHEMINEMENTS
 10
    345.20
 20
    -275.13
 30
    0.00
 11
    345.20
 21
    -278.93
 31
    0.00
  0
CIRCLE
  8
POINTS
 10
    345.20
 20
    -278.93
 30
    0.00
 40
    0.2
  0
LINE
  8
CHEMINEMENTS
 10
    345.20
 20
    -278.93
 30
    0.00
 11
    348.03
 21
    -279.53
 31
    0.00
  0
CIRCLE
  8
POINTS
 10
    348.03
 20
    -279.53
 30
    0.00
 40
    0.2
  0
LINE
  8
CHEMINEMENTS
 10
    348.03
 20
    -279.53
 30
    0.00
 11
    351.27
 21
    -280.16
 31
    0.00
  0
CIRCLE
  8
POINTS
 10
    351.27
 20
    -280.16
 30
    0.00
 40
    0.2
  0
LINE
  8
CHEMINEMENTS
 10
    351.27
 20
    -280.16
 30
    0.00
 11
    353.57
 21
    -280.32
 31
    0.00
  0
CIRCLE
  8
POINTS
 10
    353.57
 20
    -280.32
 30
    0.00
 40
    0.2
  0
LINE
  8
CHEMINEMENTS
 10
    353.57
 20
    -280.32
 30
    0.00
 11
    356.87
 21
    -280.26
 31
    0.00
  0
CIRCLE
  8
POINTS
 10
    356.87
 20
    -280.26
 30
    0.00
 40
    0.2
  0
LINE
  8
CHEMINEMENTS
 10
    356.87
 20
    -280.26
 30
    0.00
 11
    362.26
 21
    -280.45
 31
    0.00
  0
CIRCLE
  8
POINTS
 10
    362.26
 20
    -280.45
 30
    0.00
 40
    0.2
  0
LINE
  8
CHEMINEMENTS
 10
    362.26
 20
    -280.45
 30
    0.00
 11
    364.88
 21
    -281.11
 31
    0.00
  0
CIRCLE
  8
POINTS
 10
    364.88
 20
    -281.11
 30
    0.00
 40
    0.2
  0
LINE
  8
CHEMINEMENTS
 10
    364.88
 20
    -281.11
 30
    0.00
 11
    367.06
 21
    -282.52
 31
    0.00
  0
CIRCLE
  8
POINTS
 10
    367.06
 20
    -282.52
 30
    0.00
 40
    0.2
  0
LINE
  8
CHEMINEMENTS
 10
    367.06
 20
    -282.52
 30
    0.00
 11
    370.27
 21
    -284.16
 31
    0.00
  0
CIRCLE
  8
POINTS
 10
    370.27
 20
    -284.16
 30
    0.00
 40
    0.2
  0
LINE
  8
CHEMINEMENTS
 10
    370.27
 20
    -284.16
 30
    0.00
 11
    373.81
 21
    -288.23
 31
    0.00
  0
CIRCLE
  8
POINTS
 10
    373.81
 20
    -288.23
 30
    0.00
 40
    0.2
  0
LINE
  8
CHEMINEMENTS
 10
    373.81
 20
    -288.23
 30
    0.00
 11
    375.60
 21
    -288.42
 31
    0.00
  0
CIRCLE
  8
POINTS
 10
    375.60
 20
    -288.42
 30
    0.00
 40
    0.2
  0
LINE
  8
CHEMINEMENTS
 10
    375.60
 20
    -288.42
 30
    0.00
 11
    380.55
 21
    -289.65
 31
    0.00
  0
CIRCLE
  8
POINTS
 10
    380.55
 20
    -289.65
 30
    0.00
 40
    0.2
  0
LINE
  8
CHEMINEMENTS
 10
    380.55
 20
    -289.65
 30
    0.00
 11
    382.44
 21
    -289.85
 31
    0.00
  0
CIRCLE
  8
POINTS
 10
    382.44
 20
    -289.85
 30
    0.00
 40
    0.2
  0
LINE
  8
CHEMINEMENTS
 10
    382.44
 20
    -289.85
 30
    0.00
 11
    384.92
 21
    -290.20
 31
    0.00
  0
CIRCLE
  8
POINTS
 10
    384.92
 20
    -290.20
 30
    0.00
 40
    0.2
  0
LINE
  8
CHEMINEMENTS
 10
    384.92
 20
    -290.20
 30
    0.00
 11
    390.14
 21
    -291.12
 31
    0.00
  0
CIRCLE
  8
POINTS
 10
    390.14
 20
    -291.12
 30
    0.00
 40
    0.2
  0
LINE
  8
CHEMINEMENTS
 10
    390.14
 20
    -291.12
 30
    0.00
 11
    393.57
 21
    -291.79
 31
    0.00
  0
CIRCLE
  8
POINTS
 10
    393.57
 20
    -291.79
 30
    0.00
 40
    0.2
  0
LINE
  8
CHEMINEMENTS
 10
    393.57
 20
    -291.79
 30
    0.00
 11
    396.66
 21
    -292.11
 31
    0.00
  0
CIRCLE
  8
POINTS
 10
    396.66
 20
    -292.11
 30
    0.00
 40
    0.2
  0
LINE
  8
CHEMINEMENTS
 10
    396.66
 20
    -292.11
 30
    0.00
 11
    400.35
 21
    -292.37
 31
    0.00
  0
CIRCLE
  8
POINTS
 10
    400.35
 20
    -292.37
 30
    0.00
 40
    0.2
  0
LINE
  8
CHEMINEMENTS
 10
    400.35
 20
    -292.37
 30
    0.00
 11
    402.70
 21
    -293.47
 31
    0.00
  0
CIRCLE
  8
POINTS
 10
    402.70
 20
    -293.47
 30
    0.00
 40
    0.2
  0
LINE
  8
CHEMINEMENTS
 10
    402.70
 20
    -293.47
 30
    0.00
 11
    407.21
 21
    -296.62
 31
    0.00
  0
CIRCLE
  8
POINTS
 10
    407.21
 20
    -296.62
 30
    0.00
 40
    0.2
  0
LINE
  8
CHEMINEMENTS
 10
    407.21
 20
    -296.62
 30
    0.00
 11
    407.21
 21
    -295.02
 31
    0.00
  0
CIRCLE
  8
POINTS
 10
    407.21
 20
    -295.02
 30
    0.00
 40
    0.2
  0
LINE
  8
CHEMINEMENTS
 10
    407.21
 20
    -295.02
 30
    0.00
 11
    410.71
 21
    -295.08
 31
    0.00
  0
CIRCLE
  8
POINTS
 10
    410.71
 20
    -295.08
 30
    0.00
 40
    0.2
  0
LINE
  8
CHEMINEMENTS
 10
    410.71
 20
    -295.08
 30
    0.00
 11
    412.71
 21
    -295.12
 31
    0.00
  0
CIRCLE
  8
POINTS
 10
    412.71
 20
    -295.12
 30
    0.00
 40
    0.2
  0
LINE
  8
CHEMINEMENTS
 10
    412.71
 20
    -295.12
 30
    0.00
 11
    414.31
 21
    -295.12
 31
    0.00
  0
CIRCLE
  8
POINTS
 10
    414.31
 20
    -295.12
 30
    0.00
 40
    0.2
  0
LINE
  8
CHEMINEMENTS
 10
    414.31
 20
    -295.12
 30
    0.00
 11
    416.71
 21
    -295.16
 31
    0.00
  0
CIRCLE
  8
POINTS
 10
    416.71
 20
    -295.16
 30
    0.00
 40
    0.2
  0
LINE
  8
CHEMINEMENTS
 10
    416.71
 20
    -295.16
 30
    0.00
 11
    419.31
 21
    -295.16
 31
    0.00
  0
CIRCLE
  8
POINTS
 10
    419.31
 20
    -295.16
 30
    0.00
 40
    0.2
  0
LINE
  8
CHEMINEMENTS
 10
    419.31
 20
    -295.16
 30
    0.00
 11
    421.29
 21
    -295.41
 31
    0.00
  0
CIRCLE
  8
POINTS
 10
    421.29
 20
    -295.41
 30
    0.00
 40
    0.2
  0
LINE
  8
CHEMINEMENTS
 10
    421.29
 20
    -295.41
 30
    0.00
 11
    423.98
 21
    -295.69
 31
    0.00
  0
CIRCLE
  8
POINTS
 10
    423.98
 20
    -295.69
 30
    0.00
 40
    0.2
  0
LINE
  8
CHEMINEMENTS
 10
    423.98
 20
    -295.69
 30
    0.00
 11
    425.48
 21
    -295.69
 31
    0.00
  0
CIRCLE
  8
POINTS
 10
    425.48
 20
    -295.69
 30
    0.00
 40
    0.2
  0
LINE
  8
CHEMINEMENTS
 10
    425.48
 20
    -295.69
 30
    0.00
 11
    430.66
 21
    -296.79
 31
    0.00
  0
CIRCLE
  8
POINTS
 10
    430.66
 20
    -296.79
 30
    0.00
 40
    0.2
  0
LINE
  8
CHEMINEMENTS
 10
    430.66
 20
    -296.79
 30
    0.00
 11
    433.93
 21
    -298.53
 31
    0.00
  0
CIRCLE
  8
POINTS
 10
    433.93
 20
    -298.53
 30
    0.00
 40
    0.2
  0
LINE
  8
CHEMINEMENTS
 10
    433.93
 20
    -298.53
 30
    0.00
 11
    438.93
 21
    -301.65
 31
    0.00
  0
CIRCLE
  8
POINTS
 10
    438.93
 20
    -301.65
 30
    0.00
 40
    0.2
  0
LINE
  8
CHEMINEMENTS
 10
    438.93
 20
    -301.65
 30
    0.00
 11
    441.90
 21
    -302.56
 31
    0.00
  0
CIRCLE
  8
POINTS
 10
    441.90
 20
    -302.56
 30
    0.00
 40
    0.2
  0
LINE
  8
CHEMINEMENTS
 10
    441.90
 20
    -302.56
 30
    0.00
 11
    444.44
 21
    -304.15
 31
    0.00
  0
CIRCLE
  8
POINTS
 10
    444.44
 20
    -304.15
 30
    0.00
 40
    0.2
  0
LINE
  8
CHEMINEMENTS
 10
    444.44
 20
    -304.15
 30
    0.00
 11
    445.43
 21
    -303.98
 31
    0.00
  0
CIRCLE
  8
POINTS
 10
    445.43
 20
    -303.98
 30
    0.00
 40
    0.2
  0
LINE
  8
CHEMINEMENTS
 10
    445.43
 20
    -303.98
 30
    0.00
 11
    450.83
 21
    -304.07
 31
    0.00
  0
CIRCLE
  8
POINTS
 10
    450.83
 20
    -304.07
 30
    0.00
 40
    0.2
  0
LINE
  8
CHEMINEMENTS
 10
    450.83
 20
    -304.07
 30
    0.00
 11
    453.32
 21
    -304.24
 31
    0.00
  0
CIRCLE
  8
POINTS
 10
    453.32
 20
    -304.24
 30
    0.00
 40
    0.2
  0
LINE
  8
CHEMINEMENTS
 10
    453.32
 20
    -304.24
 30
    0.00
 11
    456.72
 21
    -304.30
 31
    0.00
  0
CIRCLE
  8
POINTS
 10
    456.72
 20
    -304.30
 30
    0.00
 40
    0.2
  0
LINE
  8
CHEMINEMENTS
 10
    456.72
 20
    -304.30
 30
    0.00
 11
    459.52
 21
    -304.45
 31
    0.00
  0
CIRCLE
  8
POINTS
 10
    459.52
 20
    -304.45
 30
    0.00
 40
    0.2
  0
LINE
  8
CHEMINEMENTS
 10
    459.52
 20
    -304.45
 30
    0.00
 11
    461.40
 21
    -304.71
 31
    0.00
  0
CIRCLE
  8
POINTS
 10
    461.40
 20
    -304.71
 30
    0.00
 40
    0.2
  0
LINE
  8
CHEMINEMENTS
 10
    461.40
 20
    -304.71
 30
    0.00
 11
    462.90
 21
    -304.71
 31
    0.00
  0
CIRCLE
  8
POINTS
 10
    462.90
 20
    -304.71
 30
    0.00
 40
    0.2
  0
LINE
  8
CHEMINEMENTS
 10
    462.90
 20
    -304.71
 30
    0.00
 11
    476.29
 21
    -305.18
 31
    0.00
  0
CIRCLE
  8
POINTS
 10
    476.29
 20
    -305.18
 30
    0.00
 40
    0.2
  0
LINE
  8
CHEMINEMENTS
 10
    476.29
 20
    -305.18
 30
    0.00
 11
    486.63
 21
    -303.36
 31
    0.00
  0
CIRCLE
  8
POINTS
 10
    486.63
 20
    -303.36
 30
    0.00
 40
    0.2
  0
LINE
  8
CHEMINEMENTS
 10
    476.29
 20
    -305.18
 30
    0.00
 11
    483.15
 21
    -307.95
 31
    0.00
  0
CIRCLE
  8
POINTS
 10
    483.15
 20
    -307.95
 30
    0.00
 40
    0.2
  0
LINE
  8
CHEMINEMENTS
 10
    61.12
 20
    5.44
 30
    0.00
 11
    61.12
 21
    7.44
 31
    0.00
  0
CIRCLE
  8
POINTS
 10
    61.12
 20
    7.44
 30
    0.00
 40
    0.2
  0
TEXT
  8
PROFONDEURS
 10
    61.12
 20
    7.44
 30
    0.00
 40
    0.6
 72
    0
  1
+7
  0
LINE
  8
CHEMINEMENTS
 10
    61.12
 20
    5.44
 30
    0.00
 11
    61.12
 21
    5.44
 31
    0.00
  0
CIRCLE
  8
POINTS
 10
    61.12
 20
    5.44
 30
    0.00
 40
    0.2
  0
LINE
  8
CHEMINEMENTS
 10
    57.94
 20
    0.35
 30
    0.00
 11
    61.12
 21
    5.44
 31
    0.00
  0
CIRCLE
  8
POINTS
 10
    61.12
 20
    5.44
 30
    0.00
 40
    0.2
  0
LINE
  8
CHEMINEMENTS
 10
    56.18
 20
    -0.59
 30
    0.00
 11
    57.94
 21
    0.35
 31
    0.00
  0
CIRCLE
  8
POINTS
 10
    57.94
 20
    0.35
 30
    0.00
 40
    0.2
  0
LINE
  8
CHEMINEMENTS
 10
    51.98
 20
    -3.31
 30
    0.00
 11
    56.18
 21
    -0.59
 31
    0.00
  0
CIRCLE
  8
POINTS
 10
    56.18
 20
    -0.59
 30
    0.00
 40
    0.2
  0
LINE
  8
CHEMINEMENTS
 10
    50.08
 20
    -3.93
 30
    0.00
 11
    51.98
 21
    -3.31
 31
    0.00
  0
CIRCLE
  8
POINTS
 10
    51.98
 20
    -3.31
 30
    0.00
 40
    0.2
  0
LINE
  8
CHEMINEMENTS
 10
    48.25
 20
    -4.74
 30
    0.00
 11
    50.08
 21
    -3.93
 31
    0.00
  0
CIRCLE
  8
POINTS
 10
    50.08
 20
    -3.93
 30
    0.00
 40
    0.2
  0
LINE
  8
CHEMINEMENTS
 10
    45.42
 20
    -5.72
 30
    0.00
 11
    48.25
 21
    -4.74
 31
    0.00
  0
CIRCLE
  8
POINTS
 10
    48.25
 20
    -4.74
 30
    0.00
 40
    0.2
  0
LINE
  8
CHEMINEMENTS
 10
    40.53
 20
    -6.76
 30
    0.00
 11
    45.42
 21
    -5.72
 31
    0.00
  0
CIRCLE
  8
POINTS
 10
    45.42
 20
    -5.72
 30
    0.00
 40
    0.2
  0
LINE
  8
CHEMINEMENTS
 10
    37.58
 20
    -7.33
 30
    0.00
 11
    40.53
 21
    -6.76
 31
    0.00
  0
CIRCLE
  8
POINTS
 10
    40.53
 20
    -6.76
 30
    0.00
 40
    0.2
  0
LINE
  8
CHEMINEMENTS
 10
    36.60
 20
    -7.51
 30
    0.00
 11
    37.58
 21
    -7.33
 31
    0.00
  0
CIRCLE
  8
POINTS
 10
    37.58
 20
    -7.33
 30
    0.00
 40
    0.2
  0
LINE
  8
CHEMINEMENTS
 10
    32.86
 20
    -8.94
 30
    0.00
 11
    36.60
 21
    -7.51
 31
    0.00
  0
CIRCLE
  8
POINTS
 10
    36.60
 20
    -7.51
 30
    0.00
 40
    0.2
  0
LINE
  8
CHEMINEMENTS
 10
    30.86
 20
    -8.90
 30
    0.00
 11
    32.86
 21
    -8.94
 31
    0.00
  0
CIRCLE
  8
POINTS
 10
    32.86
 20
    -8.94
 30
    0.00
 40
    0.2
  0
LINE
  8
CHEMINEMENTS
 10
    29.04
 20
    -9.72
 30
    0.00
 11
    30.86
 21
    -8.90
 31
    0.00
  0
CIRCLE
  8
POINTS
 10
    30.86
 20
    -8.90
 30
    0.00
 40
    0.2
  0
LINE
  8
CHEMINEMENTS
 10
    27.34
 20
    -10.78
 30
    0.00
 11
    29.04
 21
    -9.72
 31
    0.00
  0
CIRCLE
  8
POINTS
 10
    29.04
 20
    -9.72
 30
    0.00
 40
    0.2
  0
LINE
  8
CHEMINEMENTS
 10
    26.16
 20
    -12.40
 30
    0.00
 11
    27.34
 21
    -10.78
 31
    0.00
  0
CIRCLE
  8
POINTS
 10
    27.34
 20
    -10.78
 30
    0.00
 40
    0.2
  0
LINE
  8
CHEMINEMENTS
 10
    15.01
 20
    -32.51
 30
    0.00
 11
    26.16
 21
    -12.40
 31
    0.00
  0
CIRCLE
  8
POINTS
 10
    26.16
 20
    -12.40
 30
    0.00
 40
    0.2
  0
LINE
  8
CHEMINEMENTS
 10
    136.06
 20
    91.00
 30
    0.00
 11
    136.06
 21
    91.00
 31
    0.00
  0
CIRCLE
  8
POINTS
 10
    136.06
 20
    91.00
 30
    0.00
 40
    0.2
  0
TEXT
  8
PROFONDEURS
 10
    136.06
 20
    91.00
 30
    0.00
 40
    0.6
 72
    0
  1
+0
  0
LINE
  8
CHEMINEMENTS
 10
    136.06
 20
    91.00
 30
    0.00
 11
    139.61
 21
    91.00
 31
    0.00
  0
CIRCLE
  8
POINTS
 10
    139.61
 20
    91.00
 30
    0.00
 40
    0.2
  0
LINE
  8
CHEMINEMENTS
 10
    139.61
 20
    91.00
 30
    0.00
 11
    145.84
 21
    91.33
 31
    0.00
  0
CIRCLE
  8
POINTS
 10
    145.84
 20
    91.33
 30
    0.00
 40
    0.2
  0
LINE
  8
CHEMINEMENTS
 10
    145.84
 20
    91.33
 30
    0.00
 11
    149.37
 21
    91.02
 31
    0.00
  0
CIRCLE
  8
POINTS
 10
    149.37
 20
    91.02
 30
    0.00
 40
    0.2
  0
LINE
  8
CHEMINEMENTS
 10
    149.37
 20
    91.02
 30
    0.00
 11
    147.35
 21
    94.01
 31
    0.00
  0
CIRCLE
  8
POINTS
 10
    147.35
 20
    94.01
 30
    0.00
 40
    0.2
  0
LINE
  8
CHEMINEMENTS
 10
    149.37
 20
    91.02
 30
    0.00
 11
    152.10
 21
    90.83
 31
    0.00
  0
CIRCLE
  8
POINTS
 10
    152.10
 20
    90.83
 30
    0.00
 40
    0.2
  0
LINE
  8
CHEMINEMENTS
 10
    152.10
 20
    90.83
 30
    0.00
 11
    154.37
 21
    90.91
 31
    0.00
  0
CIRCLE
  8
POINTS
 10
    154.37
 20
    90.91
 30
    0.00
 40
    0.2
  0
LINE
  8
CHEMINEMENTS
 10
    154.37
 20
    90.91
 30
    0.00
 11
    152.21
 21
    91.69
 31
    0.00
  0
CIRCLE
  8
POINTS
 10
    152.21
 20
    91.69
 30
    0.00
 40
    0.2
  0
LINE
  8
CHEMINEMENTS
 10
    152.21
 20
    91.69
 30
    0.00
 11
    149.37
 21
    92.73
 31
    0.00
  0
CIRCLE
  8
POINTS
 10
    149.37
 20
    92.73
 30
    0.00
 40
    0.2
  0
LINE
  8
CHEMINEMENTS
 10
    149.37
 20
    92.73
 30
    0.00
 11
    149.37
 21
    102.99
 31
    0.00
  0
CIRCLE
  8
POINTS
 10
    149.37
 20
    102.99
 30
    0.00
 40
    0.2
  0
LINE
  8
CHEMINEMENTS
 10
    149.37
 20
    102.99
 30
    0.00
 11
    146.95
 21
    102.99
 31
    0.00
  0
CIRCLE
  8
POINTS
 10
    146.95
 20
    102.99
 30
    0.00
 40
    0.2
  0
TEXT
  8
PROFONDEURS
 10
    146.95
 20
    102.99
 30
    0.00
 40
    0.6
 72
    0
  1
+12
  0
LINE
  8
CHEMINEMENTS
 10
    154.37
 20
    90.91
 30
    0.00
 11
    156.03
 21
    91.05
 31
    0.00
  0
CIRCLE
  8
POINTS
 10
    156.03
 20
    91.05
 30
    0.00
 40
    0.2
  0
LINE
  8
CHEMINEMENTS
 10
    156.03
 20
    91.05
 30
    0.00
 11
    163.91
 21
    84.89
 31
    0.00
  0
CIRCLE
  8
POINTS
 10
    163.91
 20
    84.89
 30
    0.00
 40
    0.2
  0
LINE
  8
CHEMINEMENTS
 10
    163.91
 20
    84.89
 30
    0.00
 11
    166.96
 21
    83.47
 31
    0.00
  0
CIRCLE
  8
POINTS
 10
    166.96
 20
    83.47
 30
    0.00
 40
    0.2
  0
LINE
  8
CHEMINEMENTS
 10
    166.96
 20
    83.47
 30
    0.00
 11
    171.62
 21
    81.96
 31
    0.00
  0
CIRCLE
  8
POINTS
 10
    171.62
 20
    81.96
 30
    0.00
 40
    0.2
  0
LINE
  8
CHEMINEMENTS
 10
    171.62
 20
    81.96
 30
    0.00
 11
    175.99
 21
    81.88
 31
    0.00
  0
CIRCLE
  8
POINTS
 10
    175.99
 20
    81.88
 30
    0.00
 40
    0.2
  0
TEXT
  8
PROFONDEURS
 10
    175.99
 20
    81.88
 30
    0.00
 40
    0.6
 72
    0
  1
-9
  0
TEXT
  8
ECHELLE
 10
    0.00
 20
    -338.79
 30
    0.00
 40
    10.3
 72
    0
  1
0
  0
TEXT
  8
ECHELLE
 10
    215.42
 20
    -338.79
 30
    0.00
 40
    10.3
 72
    0
  1
200 m
  0
LINE
  8
ECHELLE
 10
    10.28
 20
    -328.51
 30
    0.00
 11
    210.28
 21
    -328.51
 31
    0.00
  0
LINE
  8
ECHELLE
 10
    210.28
 20
    -328.51
 30
    0.00
 11
    210.28
 21
    -338.79
 31
    0.00
  0
LINE
  8
ECHELLE
 10
    210.28
 20
    -338.79
 30
    0.00
 11
    10.28
 21
    -338.79
 31
    0.00
  0
LINE
  8
ECHELLE
 10
    10.28
 20
    -338.79
 30
    0.00
 11
    10.28
 21
    -328.51
 31
    0.00
  0
SOLID
  8
ECHELLE
 10
    10.28
 20
    -328.51
 30
    960721913548479880000000000000000000000000000000000000000000000000000000000000000000000000000000000000000000000000000000000000000000000000000000000000000000000000000000000000000000000000000000000000000000000000000000000000000000000000000000000000000000000000000.00
 11
    30.28
 21
    -328.51
 31
    960721913548479880000000000000000000000000000000000000000000000000000000000000000000000000000000000000000000000000000000000000000000000000000000000000000000000000000000000000000000000000000000000000000000000000000000000000000000000000000000000000000000000000000.00
 12
    10.28
 22
    -333.65
 32
    960721913548479880000000000000000000000000000000000000000000000000000000000000000000000000000000000000000000000000000000000000000000000000000000000000000000000000000000000000000000000000000000000000000000000000000000000000000000000000000000000000000000000000000.00
 13
    30.28
 23
    -333.65
 33
    960721913548479880000000000000000000000000000000000000000000000000000000000000000000000000000000000000000000000000000000000000000000000000000000000000000000000000000000000000000000000000000000000000000000000000000000000000000000000000000000000000000000000000000.00
  0
SOLID
  8
ECHELLE
 10
    30.28
 20
    -333.65
 30
    960721913548479880000000000000000000000000000000000000000000000000000000000000000000000000000000000000000000000000000000000000000000000000000000000000000000000000000000000000000000000000000000000000000000000000000000000000000000000000000000000000000000000000000.00
 11
    50.28
 21
    -333.65
 31
    960721913548479880000000000000000000000000000000000000000000000000000000000000000000000000000000000000000000000000000000000000000000000000000000000000000000000000000000000000000000000000000000000000000000000000000000000000000000000000000000000000000000000000000.00
 12
    30.28
 22
    -338.79
 32
    960721913548479880000000000000000000000000000000000000000000000000000000000000000000000000000000000000000000000000000000000000000000000000000000000000000000000000000000000000000000000000000000000000000000000000000000000000000000000000000000000000000000000000000.00
 13
    50.28
 23
    -338.79
 33
    960721913548479880000000000000000000000000000000000000000000000000000000000000000000000000000000000000000000000000000000000000000000000000000000000000000000000000000000000000000000000000000000000000000000000000000000000000000000000000000000000000000000000000000.00
  0
SOLID
  8
ECHELLE
 10
    50.28
 20
    -328.51
 30
    960721913548479880000000000000000000000000000000000000000000000000000000000000000000000000000000000000000000000000000000000000000000000000000000000000000000000000000000000000000000000000000000000000000000000000000000000000000000000000000000000000000000000000000.00
 11
    70.28
 21
    -328.51
 31
    960721913548479880000000000000000000000000000000000000000000000000000000000000000000000000000000000000000000000000000000000000000000000000000000000000000000000000000000000000000000000000000000000000000000000000000000000000000000000000000000000000000000000000000.00
 12
    50.28
 22
    -333.65
 32
    960721913548479880000000000000000000000000000000000000000000000000000000000000000000000000000000000000000000000000000000000000000000000000000000000000000000000000000000000000000000000000000000000000000000000000000000000000000000000000000000000000000000000000000.00
 13
    70.28
 23
    -333.65
 33
    960721913548479880000000000000000000000000000000000000000000000000000000000000000000000000000000000000000000000000000000000000000000000000000000000000000000000000000000000000000000000000000000000000000000000000000000000000000000000000000000000000000000000000000.00
  0
SOLID
  8
ECHELLE
 10
    70.28
 20
    -333.65
 30
    960721913548479880000000000000000000000000000000000000000000000000000000000000000000000000000000000000000000000000000000000000000000000000000000000000000000000000000000000000000000000000000000000000000000000000000000000000000000000000000000000000000000000000000.00
 11
    90.28
 21
    -333.65
 31
    960721913548479880000000000000000000000000000000000000000000000000000000000000000000000000000000000000000000000000000000000000000000000000000000000000000000000000000000000000000000000000000000000000000000000000000000000000000000000000000000000000000000000000000.00
 12
    70.28
 22
    -338.79
 32
    960721913548479880000000000000000000000000000000000000000000000000000000000000000000000000000000000000000000000000000000000000000000000000000000000000000000000000000000000000000000000000000000000000000000000000000000000000000000000000000000000000000000000000000.00
 13
    90.28
 23
    -338.79
 33
    960721913548479880000000000000000000000000000000000000000000000000000000000000000000000000000000000000000000000000000000000000000000000000000000000000000000000000000000000000000000000000000000000000000000000000000000000000000000000000000000000000000000000000000.00
  0
SOLID
  8
ECHELLE
 10
    90.28
 20
    -328.51
 30
    960721913548479880000000000000000000000000000000000000000000000000000000000000000000000000000000000000000000000000000000000000000000000000000000000000000000000000000000000000000000000000000000000000000000000000000000000000000000000000000000000000000000000000000.00
 11
    110.28
 21
    -328.51
 31
    960721913548479880000000000000000000000000000000000000000000000000000000000000000000000000000000000000000000000000000000000000000000000000000000000000000000000000000000000000000000000000000000000000000000000000000000000000000000000000000000000000000000000000000.00
 12
    90.28
 22
    -333.65
 32
    960721913548479880000000000000000000000000000000000000000000000000000000000000000000000000000000000000000000000000000000000000000000000000000000000000000000000000000000000000000000000000000000000000000000000000000000000000000000000000000000000000000000000000000.00
 13
    110.28
 23
    -333.65
 33
    960721913548479880000000000000000000000000000000000000000000000000000000000000000000000000000000000000000000000000000000000000000000000000000000000000000000000000000000000000000000000000000000000000000000000000000000000000000000000000000000000000000000000000000.00
  0
SOLID
  8
ECHELLE
 10
    110.28
 20
    -333.65
 30
    960721913548479880000000000000000000000000000000000000000000000000000000000000000000000000000000000000000000000000000000000000000000000000000000000000000000000000000000000000000000000000000000000000000000000000000000000000000000000000000000000000000000000000000.00
 11
    210.28
 21
    -333.65
 31
    960721913548479880000000000000000000000000000000000000000000000000000000000000000000000000000000000000000000000000000000000000000000000000000000000000000000000000000000000000000000000000000000000000000000000000000000000000000000000000000000000000000000000000000.00
 12
    110.28
 22
    -338.79
 32
    960721913548479880000000000000000000000000000000000000000000000000000000000000000000000000000000000000000000000000000000000000000000000000000000000000000000000000000000000000000000000000000000000000000000000000000000000000000000000000000000000000000000000000000.00
 13
    210.28
 23
    -338.79
 33
    960721913548479880000000000000000000000000000000000000000000000000000000000000000000000000000000000000000000000000000000000000000000000000000000000000000000000000000000000000000000000000000000000000000000000000000000000000000000000000000000000000000000000000000.00
  0
ENDSEC
  0
EOF
