<?xml version="1.0" encoding="utf-8" standalone="no"?>
<!-- Generated by Therion 6.0.6 (2022-03-12) -->
<!DOCTYPE svg PUBLIC "-//W3C//DTD SVG 1.1//EN" "http://www.w3.org/Graphics/SVG/1.1/DTD/svg11.dtd">
<svg width="16.323cm" height="19.216cm" viewBox="-147.032 -325.159 462.693 544.693" xmlns="http://www.w3.org/2000/svg" xmlns:xlink="http://www.w3.org/1999/xlink">
<defs>
<g id="F_aaaaaaa_data/209/GouffreCumpleAnos/outputs/GouffreCumpleAnos-coupe.svg">
<g>
<clipPath id="clip_3_data/209/GouffreCumpleAnos/outputs/GouffreCumpleAnos-coupe.svg">
  <path d="M238.750 66.900C238.750 66.900 220.920 69.260 219.340 70.310C217.770 71.350 205.190 74.500 203.870 75.550C202.560 76.600 197.320 81.840 194.960 84.200C192.600 86.560 183.160 91.280 181.590 92.590C180.010 93.900 168.480 102.560 166.640 104.920C164.810 107.280 153.790 115.930 151.960 117.240C150.120 118.550 132.820 131.140 129.150 137.430C125.480 143.720 108.430 159.460 105.550 162.080C102.670 164.700 93.490 172.830 90.870 176.240C88.240 179.640 85.100 183.840 84.570 184.890C84.050 185.940 85.100 194.330 80.380 195.110C75.660 195.900 63.340 195.640 62.290 195.640C61.240 195.640 53.630 199.050 53.370 201.140C53.110 203.240 54.420 220.810 53.900 223.690C53.370 226.580 48.650 241.790 48.650 244.150C48.650 246.500 42.880 304.980 43.930 308.380C44.980 311.790 53.110 359.510 54.420 362.140C55.730 364.760 57.300 372.890 64.120 380.490C70.940 388.090 76.180 407.760 76.710 411.960C77.230 416.150 80.640 441.850 80.900 444.470C81.160 447.090 85.100 456.790 84.570 460.200C84.050 463.610 84.050 479.340 85.100 479.600C79.593 480.213 74.087 480.827 68.580 481.440C68.580 481.440 61.500 465.440 60.710 463.350C59.920 461.250 57.040 455.480 55.990 452.330C54.940 449.190 52.060 440.270 50.750 438.700C49.440 437.130 46.290 433.980 46.290 433.980C46.290 433.980 41.050 446.040 41.050 447.090C41.050 448.140 40.780 453.910 40.780 456.790C40.780 459.680 40.520 468.590 40.520 470.160C40.520 471.740 39.730 479.600 39.730 479.600C39.993 480.737 40.257 481.873 40.520 483.010C27.467 481.403 14.413 479.797 1.360 478.190C1.360 478.190 -1.890 465.580 -2.020 463.890C-2.150 462.200 -3.310 451.800 -3.440 450.110C-3.570 448.420 -4.870 449.070 -5.520 449.850C-6.170 450.630 -6.430 461.680 -6.950 466.100C-7.470 470.520 -7.600 476.500 -7.600 476.500C-11.837 477.533 -16.073 478.567 -20.310 479.600C-20.310 479.600 -16.900 462.820 -17.430 458.630C-17.950 454.430 -16.110 427.420 -15.850 423.750C-15.590 420.080 -16.380 409.330 -16.380 403.560C-16.380 397.800 -15.070 381.010 -14.800 375.510C-14.540 370.000 -19.780 346.140 -20.830 344.040C-21.880 341.950 -31.580 331.980 -36.300 324.640C-41.020 317.300 -46.530 309.960 -46.530 306.810C-46.530 303.660 -46.790 275.610 -46.790 273.770C-46.790 271.940 -46.270 267.740 -44.690 265.640C-43.120 263.550 -38.140 252.530 -38.140 252.530C-38.140 252.530 -38.660 247.030 -39.450 244.930C-40.230 242.830 -42.070 238.380 -44.170 235.490C-46.270 232.610 -46.000 228.150 -46.000 223.950C-46.000 219.760 -45.480 190.920 -45.740 189.340C-46.000 187.770 -46.260 177.020 -46.260 177.020C-42.677 180.253 -39.093 183.487 -35.510 186.720C-35.510 186.720 -37.040 218.830 -34.990 226.840C-32.940 234.850 -31.430 232.870 -30.530 235.230C-29.640 237.590 -29.480 237.850 -29.220 240.740C-28.960 243.620 -27.910 250.180 -26.340 250.440C-24.770 250.700 -17.160 252.540 -16.110 253.580C-15.060 254.630 -10.060 270.580 -11.920 276.660C-13.770 282.730 -20.360 282.120 -22.140 287.150C-23.930 292.180 -23.720 300.780 -20.570 304.450C-17.420 308.120 -12.510 318.380 -9.820 321.230C-7.130 324.080 -8.250 325.690 -6.940 323.330C-5.630 320.970 0.140 302.350 0.410 301.300C0.670 300.260 4.340 288.190 3.810 282.160C3.290 276.130 6.170 258.040 6.700 253.580C7.220 249.130 8.010 234.970 10.110 229.990C12.210 225.000 13.780 220.020 13.520 215.300C13.260 210.580 15.880 193.540 17.710 190.660C19.550 187.770 12.730 181.480 20.600 179.640C28.460 177.810 29.250 173.610 34.230 175.450C39.210 177.280 49.440 178.070 52.060 177.550C54.680 177.020 61.540 176.980 64.120 173.880C66.700 170.770 57.300 166.010 65.430 162.340C73.560 158.670 75.410 158.150 78.810 155.000C82.200 151.850 84.570 144.770 85.620 144.510C86.670 144.250 105.810 141.360 105.810 140.310C105.810 139.270 106.340 134.550 106.070 130.870C105.810 127.200 106.730 123.100 108.700 121.170C110.660 119.240 107.650 125.110 114.990 119.600C122.330 114.090 121.280 110.420 123.120 108.850C124.950 107.280 128.200 108.720 129.930 107.280C131.670 105.830 132.030 106.230 132.560 101.250C133.080 96.260 130.200 94.430 133.870 92.590C137.540 90.760 156.150 83.940 157.730 83.420C159.300 82.890 166.120 79.750 169.000 79.220C171.890 78.700 173.980 78.170 177.650 78.440C181.330 78.700 190.370 77.560 189.320 75.200C188.270 72.840 191.930 60.910 192.600 55.360C193.280 49.820 193.130 44.610 193.650 41.990C194.170 39.370 187.880 36.220 194.960 36.750C202.040 37.270 221.700 35.170 222.750 35.170C223.800 35.170 235.860 35.170 235.860 29.930C235.860 24.680 236.650 13.670 236.130 12.620C235.600 11.570 232.770 7.520 236.390 3.710C240.010 -0.100 252.680 2.830 258.940 1.870C265.190 0.910 273.880 -1.540 273.880 -1.540C274.493 15.067 275.107 31.673 275.720 48.280C275.720 48.280 266.000 50.750 261.030 51.160C257.640 51.450 253.720 49.130 250.810 50.900C248.070 52.570 248.030 56.680 246.610 59.560C246.270 60.260 245.560 61.650 245.560 61.650C245.560 61.650 245.560 61.650 245.560 61.650C245.270 68.580 244.980 75.510 244.690 82.440C241.963 82.283 239.237 82.127 236.510 81.970C237.257 76.947 238.003 71.923 238.750 66.900C238.750 66.900 238.750 66.900 238.750 66.900M23.110 322.100C23.110 322.100 23.110 322.100 23.110 322.100C23.110 322.100 19.360 320.600 18.300 321.800C17.250 323.000 16.800 329.310 17.250 332.760C17.700 336.220 12.450 339.670 6.890 341.930C1.330 344.180 -1.070 344.180 -1.070 345.080C-1.070 345.980 0.730 348.230 1.480 348.380C2.230 348.530 5.840 350.790 6.290 351.990C6.740 353.190 11.850 356.950 12.750 357.250C13.650 357.550 20.860 357.850 25.360 357.550C29.870 357.250 27.470 354.840 27.620 353.490C27.770 352.140 26.860 347.330 26.260 345.830C25.660 344.330 25.210 336.520 25.210 334.870C25.210 333.220 23.410 322.700 23.110 322.100M-2.270 431.530C-2.270 431.530 -4.220 430.100 -4.870 430.490C-5.520 430.880 -6.040 436.210 -6.040 437.630C-6.040 439.060 -5.520 442.700 -4.740 444.520C-3.960 446.340 -2.400 444.260 -2.400 444.260C-2.400 444.260 -1.760 441.140 -1.760 439.450C-1.750 437.760 -2.270 431.530 -2.270 431.530M-1.750 395.390C-1.750 395.390 -3.440 393.970 -4.220 393.580C-5.000 393.190 -5.260 396.170 -5.650 397.340C-6.040 398.510 -5.390 401.760 -5.260 402.930C-5.130 404.100 -4.220 420.090 -4.350 421.910C-4.480 423.730 -1.240 423.210 -1.240 423.210C-1.240 423.210 -0.200 418.790 -0.200 418.010C-0.200 417.230 -0.070 408.650 -0.330 406.050C-0.590 403.450 -1.750 395.390 -1.750 395.390M15.270 365.370C14.880 364.330 12.020 364.850 11.370 366.800C10.720 368.750 11.760 370.960 12.020 373.560C12.280 376.160 10.980 382.790 9.940 384.350C8.900 385.910 6.040 393.320 6.430 395.390C6.820 397.470 8.250 398.120 9.030 398.250C9.810 398.380 15.010 400.330 15.920 400.200C16.830 400.070 20.340 398.120 20.860 397.340C21.380 396.560 19.820 390.720 19.300 389.160C18.780 387.600 16.310 381.620 16.180 379.670C16.050 377.720 15.270 365.370 15.270 365.370M18.910 404.100C18.910 404.100 15.010 403.320 13.710 403.190C12.410 403.060 10.980 402.410 7.990 403.710C5.000 405.010 7.600 408.130 7.860 409.690C8.120 411.250 9.940 421.780 9.810 423.080C9.680 424.380 9.030 428.410 9.550 431.400C10.070 434.390 11.110 437.510 11.370 438.410C11.630 439.320 11.240 448.420 11.110 449.200C10.980 449.980 12.670 452.320 13.450 452.320C14.230 452.320 15.400 449.200 15.530 447.510C15.660 445.820 18.910 413.200 19.560 410.860C20.210 408.520 19.300 405.140 18.910 404.100" />
</clipPath>
<g clip-path="url(#clip_3_data/209/GouffreCumpleAnos/outputs/GouffreCumpleAnos-coupe.svg)">
<path fill="none" stroke="#b2b2b2" stroke-width="0.350" d="M189.130 84.720L194.650 53.370" />
<path fill="none" stroke="#b2b2b2" stroke-width="0.350" d="M183.650 86.200L189.130 84.720" />
<path fill="none" stroke="#b2b2b2" stroke-width="0.350" d="M171.490 90.390L183.650 86.200" />
<path fill="none" stroke="#b2b2b2" stroke-width="0.350" d="M157.920 96.400L171.490 90.390" />
<path fill="none" stroke="#b2b2b2" stroke-width="0.350" d="M142.910 95.610L157.920 96.400" />
<path fill="none" stroke="#b2b2b2" stroke-width="0.350" d="M124.520 114.660L142.910 95.610" />
<path fill="none" stroke="#b2b2b2" stroke-width="0.350" d="M117.400 126.050L124.520 114.660" />
<path fill="none" stroke="#b2b2b2" stroke-width="0.350" d="M107.460 125.200L117.400 126.050" />
<path fill="none" stroke="#b2b2b2" stroke-width="0.350" d="M107.460 143.340L107.460 125.200" />
<path fill="none" stroke="#b2b2b2" stroke-width="0.350" d="M88.640 143.340L107.460 143.340" />
<path fill="none" stroke="#b2b2b2" stroke-width="0.350" d="M88.640 160.350L88.640 143.340" />
<path fill="none" stroke="#b2b2b2" stroke-width="0.350" d="M79.570 166.470L88.640 160.350" />
<path fill="none" stroke="#b2b2b2" stroke-width="0.350" d="M53.690 188.190L79.570 166.470" />
<path fill="none" stroke="#4c4c4c" stroke-width="0.350" d="M266.370 44.360C266.370 44.360 264.280 42.740 264.980 38.800C265.670 34.870 266.600 32.320 266.600 31.400C266.600 30.470 266.600 25.610 266.600 25.610" />
<path fill="none" stroke="#4c4c4c" stroke-width="0.350" d="M249.010 46.440C249.010 46.440 249.700 40.190 250.170 38.800C250.630 37.410 251.790 33.250 251.320 32.320C250.860 31.400 249.940 25.150 249.940 25.150" />
<path fill="none" stroke="#4c4c4c" stroke-width="0.350" d="M257.110 45.050C257.110 45.050 257.110 41.120 257.800 35.790C258.500 30.470 258.500 30.470 258.500 30.470L257.800 24.690" />
<path fill="none" stroke="#4c4c4c" stroke-width="0.350" d="M249.940 25.150L257.800 24.690L266.600 25.610L274.700 23.300" />
<path fill="none" stroke="#4c4c4c" stroke-width="0.350" d="M274.000 15.660L266.830 15.200L252.710 16.820L244.610 17.050" />
<path fill="none" stroke="#4c4c4c" stroke-width="0.350" d="M251.090 5.010C251.090 5.010 251.560 8.950 251.560 9.870C251.560 10.800 250.630 15.890 250.630 15.890" />
<path fill="none" stroke="#4c4c4c" stroke-width="0.350" d="M260.120 15.200C260.120 15.200 259.660 13.350 259.660 10.570C259.660 7.790 260.120 3.860 260.120 3.860" />
<path fill="none" stroke="#4c4c4c" stroke-width="0.350" d="M270.530 0.850C270.530 0.850 268.680 5.710 268.910 7.100C269.140 8.490 268.910 13.810 268.910 13.810" />
<path fill="#ffffff" stroke="none" d="M62.480 183.510C62.220 184.170 63.010 186.960 63.010 188.820C63.010 190.680 63.810 191.470 62.620 192.140C61.420 192.800 59.830 192.800 58.630 192.140C57.440 191.470 55.840 189.610 55.710 188.950C55.580 188.290 58.770 184.570 58.770 184.570Z" />
<path fill="none" stroke="#4c4c4c" stroke-width="0.500" d="M62.480 183.510C62.220 184.170 63.010 186.960 63.010 188.820C63.010 190.680 63.810 191.470 62.620 192.140C61.420 192.800 59.830 192.800 58.630 192.140C57.440 191.470 55.840 189.610 55.710 188.950C55.580 188.290 58.770 184.570 58.770 184.570Z" />
<path fill="#ffffff" stroke="none" d="M93.820 164.790C93.820 164.790 95.280 167.840 94.350 169.970C93.420 172.090 93.550 172.220 93.020 172.360C92.490 172.490 87.840 168.110 87.840 168.110L87.710 165.720L89.970 164.390Z" />
<path fill="none" stroke="#4c4c4c" stroke-width="0.500" d="M93.820 164.790C93.820 164.790 95.280 167.840 94.350 169.970C93.420 172.090 93.550 172.220 93.020 172.360C92.490 172.490 87.840 168.110 87.840 168.110L87.710 165.720L89.970 164.390Z" />
<path fill="none" stroke="#4c4c4c" stroke-width="0.350" d="M45.200 378.620C44.710 381.580 41.250 411.150 40.270 415.590C39.280 420.020 35.830 426.430 34.350 431.360C32.880 436.290 30.900 481.140 30.900 481.140" />
<path fill="none" stroke="#4c4c4c" stroke-width="0.350" d="M22.030 467.830C22.030 467.830 21.050 449.100 22.030 442.200C23.020 435.300 23.510 428.400 25.480 420.020C27.450 411.640 32.380 395.380 30.900 390.450C29.430 385.520 26.960 371.720 26.960 371.720" />
<path fill="none" stroke="#4c4c4c" stroke-width="0.350" d="M5.770 475.720C5.770 475.720 0.840 455.020 0.840 450.580C0.840 446.140 2.810 428.400 2.810 426.430C2.810 424.460 0.840 397.840 0.840 397.840" />
<path fill="none" stroke="#4c4c4c" stroke-width="0.350" d="M10.700 463.390C10.700 463.390 6.260 443.190 5.770 441.220C5.280 439.240 5.280 426.430 5.280 426.430L4.780 419.530" />
<path fill="none" stroke="#4c4c4c" stroke-width="0.350" d="M4.290 292.370C4.780 294.340 12.180 316.030 12.180 316.030C12.180 316.030 18.090 329.330 26.470 300.750C34.850 272.160 41.260 251.460 41.260 248.500C41.260 245.550 53.580 205.130 53.580 205.130" />
<path fill="none" stroke="#b2b2b2" stroke-width="0.350" d="M53.690 188.190L79.570 166.470" />
<path fill="none" stroke="#b2b2b2" stroke-width="0.350" d="M79.570 166.470L88.640 160.350" />
<path fill="none" stroke="#b2b2b2" stroke-width="0.350" d="M79.570 166.470L53.690 188.190" />
<path fill="none" stroke="#b2b2b2" stroke-width="0.350" d="M88.640 160.350L88.640 143.340" />
<path fill="none" stroke="#b2b2b2" stroke-width="0.350" d="M88.640 160.350L79.570 166.470" />
<path fill="none" stroke="#b2b2b2" stroke-width="0.350" d="M88.640 143.340L107.460 143.340" />
<path fill="none" stroke="#b2b2b2" stroke-width="0.350" d="M88.640 143.340L88.640 160.350" />
<path fill="none" stroke="#b2b2b2" stroke-width="0.350" d="M107.460 143.340L107.460 125.200" />
<path fill="none" stroke="#b2b2b2" stroke-width="0.350" d="M107.460 143.340L88.640 143.340" />
<path fill="none" stroke="#b2b2b2" stroke-width="0.350" d="M107.460 125.200L117.400 126.050" />
<path fill="none" stroke="#b2b2b2" stroke-width="0.350" d="M107.460 125.200L107.460 143.340" />
<path fill="none" stroke="#b2b2b2" stroke-width="0.350" d="M117.400 126.050L124.520 114.660" />
<path fill="none" stroke="#b2b2b2" stroke-width="0.350" d="M117.400 126.050L107.460 125.200" />
<path fill="none" stroke="#b2b2b2" stroke-width="0.350" d="M124.520 114.660L142.910 95.610" />
<path fill="none" stroke="#b2b2b2" stroke-width="0.350" d="M124.520 114.660L117.400 126.050" />
<path fill="none" stroke="#b2b2b2" stroke-width="0.350" d="M142.910 95.610L157.920 96.400" />
<path fill="none" stroke="#b2b2b2" stroke-width="0.350" d="M142.910 95.610L124.520 114.660" />
<path fill="none" stroke="#b2b2b2" stroke-width="0.350" d="M157.920 96.400L171.490 90.390" />
<path fill="none" stroke="#b2b2b2" stroke-width="0.350" d="M157.920 96.400L142.910 95.610" />
<path fill="none" stroke="#b2b2b2" stroke-width="0.350" d="M171.490 90.390L183.650 86.200" />
<path fill="none" stroke="#b2b2b2" stroke-width="0.350" d="M171.490 90.390L157.920 96.400" />
<path fill="none" stroke="#b2b2b2" stroke-width="0.350" d="M183.650 86.200L189.130 84.720" />
<path fill="none" stroke="#b2b2b2" stroke-width="0.350" d="M183.650 86.200L171.490 90.390" />
<path fill="none" stroke="#b2b2b2" stroke-width="0.350" d="M189.130 84.720L194.650 53.370" />
<path fill="none" stroke="#b2b2b2" stroke-width="0.350" d="M189.130 84.720L183.650 86.200" />
<path fill="none" stroke="#b2b2b2" stroke-width="0.350" d="M194.650 53.370L189.130 84.720" />
</g>
</g>
</g>
<g id="G_aaaaaaa_data/209/GouffreCumpleAnos/outputs/GouffreCumpleAnos-coupe.svg">
</g>
<g id="B_aaaaaaa_data/209/GouffreCumpleAnos/outputs/GouffreCumpleAnos-coupe.svg">
<path fill="none" stroke="inherit" stroke-width="0.350" d="M285.750 68.900C285.750 68.900 267.920 71.260 266.340 72.310C264.770 73.350 252.190 76.500 250.870 77.550C249.560 78.600 244.320 83.840 241.960 86.200C239.600 88.560 230.160 93.280 228.590 94.590C227.010 95.900 215.480 104.560 213.640 106.920C211.810 109.280 200.790 117.930 198.960 119.240C197.120 120.550 179.820 133.140 176.150 139.430C172.480 145.720 155.430 161.460 152.550 164.080C149.670 166.700 140.490 174.830 137.870 178.240C135.240 181.640 132.100 185.840 131.570 186.890C131.050 187.940 132.100 196.330 127.380 197.110C122.660 197.900 110.340 197.640 109.290 197.640C108.240 197.640 100.630 201.050 100.370 203.140C100.110 205.240 101.420 222.810 100.900 225.690C100.370 228.580 95.650 243.790 95.650 246.150C95.650 248.500 89.880 306.980 90.930 310.380C91.980 313.790 100.110 361.510 101.420 364.140C102.730 366.760 104.300 374.890 111.120 382.490C117.940 390.090 123.180 409.760 123.710 413.960C124.230 418.150 127.640 443.850 127.900 446.470C128.160 449.090 132.100 458.790 131.570 462.200C131.050 465.610 131.050 481.340 132.100 481.600" />
<path fill="none" stroke="inherit" stroke-width="0.350" d="M115.580 483.440C115.580 483.440 108.500 467.440 107.710 465.350C106.920 463.250 104.040 457.480 102.990 454.330C101.940 451.190 99.060 442.270 97.750 440.700C96.440 439.130 93.290 435.980 93.290 435.980C93.290 435.980 88.050 448.040 88.050 449.090C88.050 450.140 87.780 455.910 87.780 458.790C87.780 461.680 87.520 470.590 87.520 472.160C87.520 473.740 86.730 481.600 86.730 481.600L87.520 485.010" />
<path fill="none" stroke="inherit" stroke-width="0.350" d="M48.360 480.190C48.360 480.190 45.110 467.580 44.980 465.890C44.850 464.200 43.690 453.800 43.560 452.110C43.430 450.420 42.130 451.070 41.480 451.850C40.830 452.630 40.570 463.680 40.050 468.100C39.530 472.520 39.400 478.500 39.400 478.500" />
<path fill="none" stroke="inherit" stroke-width="0.350" d="M26.690 481.600C26.690 481.600 30.100 464.820 29.570 460.630C29.050 456.430 30.890 429.420 31.150 425.750C31.410 422.080 30.620 411.330 30.620 405.560C30.620 399.800 31.930 383.010 32.200 377.510C32.460 372.000 27.220 348.140 26.170 346.040C25.120 343.950 15.420 333.980 10.700 326.640C5.980 319.300 0.470 311.960 0.470 308.810C0.470 305.660 0.210 277.610 0.210 275.770C0.210 273.940 0.730 269.740 2.310 267.640C3.880 265.550 8.860 254.530 8.860 254.530C8.860 254.530 8.340 249.030 7.550 246.930C6.770 244.830 4.930 240.380 2.830 237.490C0.730 234.610 1.000 230.150 1.000 225.950C1.000 221.760 1.520 192.920 1.260 191.340C1.000 189.770 0.740 179.020 0.740 179.020" />
<path fill="none" stroke="inherit" stroke-width="0.350" d="M11.490 188.720C11.490 188.720 9.960 220.830 12.010 228.840C14.060 236.850 15.570 234.870 16.470 237.230C17.360 239.590 17.520 239.850 17.780 242.740C18.040 245.620 19.090 252.180 20.660 252.440C22.230 252.700 29.840 254.540 30.890 255.580C31.940 256.630 36.940 272.580 35.080 278.660C33.230 284.730 26.640 284.120 24.860 289.150C23.070 294.180 23.280 302.780 26.430 306.450C29.580 310.120 34.490 320.380 37.180 323.230C39.870 326.080 38.750 327.690 40.060 325.330C41.370 322.970 47.140 304.350 47.410 303.300C47.670 302.260 51.340 290.190 50.810 284.160C50.290 278.130 53.170 260.040 53.700 255.580C54.220 251.130 55.010 236.970 57.110 231.990C59.210 227.000 60.780 222.020 60.520 217.300C60.260 212.580 62.880 195.540 64.710 192.660C66.550 189.770 59.730 183.480 67.600 181.640C75.460 179.810 76.250 175.610 81.230 177.450C86.210 179.280 96.440 180.070 99.060 179.550C101.680 179.020 108.540 178.980 111.120 175.880C113.700 172.770 104.300 168.010 112.430 164.340C120.560 160.670 122.410 160.150 125.810 157.000C129.200 153.850 131.570 146.770 132.620 146.510C133.670 146.250 152.810 143.360 152.810 142.310C152.810 141.270 153.340 136.550 153.070 132.870C152.810 129.200 153.730 125.100 155.700 123.170C157.660 121.240 154.650 127.110 161.990 121.600C169.330 116.090 168.280 112.420 170.120 110.850C171.950 109.280 175.200 110.720 176.930 109.280C178.670 107.830 179.030 108.230 179.560 103.250C180.080 98.260 177.200 96.430 180.870 94.590C184.540 92.760 203.150 85.940 204.730 85.420C206.300 84.890 213.120 81.750 216.000 81.220C218.890 80.700 220.980 80.170 224.650 80.440C228.330 80.700 237.370 79.560 236.320 77.200C235.270 74.840 238.930 62.910 239.600 57.360C240.280 51.820 240.130 46.610 240.650 43.990C241.170 41.370 234.880 38.220 241.960 38.750C249.040 39.270 268.700 37.170 269.750 37.170C270.800 37.170 282.860 37.170 282.860 31.930C282.860 26.680 283.650 15.670 283.130 14.620C282.600 13.570 279.770 9.520 283.390 5.710C287.010 1.900 299.680 4.830 305.940 3.870C312.190 2.910 320.880 0.460 320.880 0.460" />
<path fill="none" stroke="inherit" stroke-width="0.350" d="M322.720 50.280C322.720 50.280 313.000 52.750 308.030 53.160C304.640 53.450 300.720 51.130 297.810 52.900C295.070 54.570 295.030 58.680 293.610 61.560C293.270 62.260 292.560 63.650 292.560 63.650" />
<path fill="none" stroke="inherit" stroke-width="0.350" d="M292.560 63.650L291.690 84.440" />
<path fill="none" stroke="inherit" stroke-width="0.350" d="M283.510 83.970L285.750 68.900" />
<path fill="none" stroke="inherit" stroke-width="0.350" d="M70.110 324.100C70.410 324.700 72.210 335.220 72.210 336.870C72.210 338.520 72.660 346.330 73.260 347.830C73.860 349.330 74.770 354.140 74.620 355.490C74.470 356.840 76.870 359.250 72.360 359.550C67.860 359.850 60.650 359.550 59.750 359.250C58.850 358.950 53.740 355.190 53.290 353.990C52.840 352.790 49.230 350.530 48.480 350.380C47.730 350.230 45.930 347.980 45.930 347.080C45.930 346.180 48.330 346.180 53.890 343.930C59.450 341.670 64.700 338.220 64.250 334.760C63.800 331.310 64.250 325.000 65.300 323.800C66.360 322.600 70.110 324.100 70.110 324.100Z" />
<path fill="none" stroke="inherit" stroke-width="0.350" d="M44.730 433.530C44.730 433.530 45.250 439.760 45.240 441.450C45.240 443.140 44.600 446.260 44.600 446.260C44.600 446.260 43.040 448.340 42.260 446.520C41.480 444.700 40.960 441.060 40.960 439.630C40.960 438.210 41.480 432.880 42.130 432.490C42.780 432.100 44.730 433.530 44.730 433.530Z" />
<path fill="none" stroke="inherit" stroke-width="0.350" d="M45.250 397.390C45.250 397.390 46.410 405.450 46.670 408.050C46.930 410.650 46.800 419.230 46.800 420.010C46.800 420.790 45.760 425.210 45.760 425.210C45.760 425.210 42.520 425.730 42.650 423.910C42.780 422.090 41.870 406.100 41.740 404.930C41.610 403.760 40.960 400.510 41.350 399.340C41.740 398.170 42.000 395.190 42.780 395.580C43.560 395.970 45.250 397.390 45.250 397.390Z" />
<path fill="none" stroke="inherit" stroke-width="0.350" d="M62.270 367.370C62.270 367.370 63.050 379.720 63.180 381.670C63.310 383.620 65.780 389.600 66.300 391.160C66.820 392.720 68.380 398.560 67.860 399.340C67.340 400.120 63.830 402.070 62.920 402.200C62.010 402.330 56.810 400.380 56.030 400.250C55.250 400.120 53.820 399.470 53.430 397.390C53.040 395.320 55.900 387.910 56.940 386.350C57.980 384.790 59.280 378.160 59.020 375.560C58.760 372.960 57.720 370.750 58.370 368.800C59.020 366.850 61.880 366.330 62.270 367.370Z" />
<path fill="none" stroke="inherit" stroke-width="0.350" d="M65.910 406.100C66.300 407.140 67.210 410.520 66.560 412.860C65.910 415.200 62.660 447.820 62.530 449.510C62.400 451.200 61.230 454.320 60.450 454.320C59.670 454.320 57.980 451.980 58.110 451.200C58.240 450.420 58.630 441.320 58.370 440.410C58.110 439.510 57.070 436.390 56.550 433.400C56.030 430.410 56.680 426.380 56.810 425.080C56.940 423.780 55.120 413.250 54.860 411.690C54.600 410.130 52.000 407.010 54.990 405.710C57.980 404.410 59.410 405.060 60.710 405.190C62.010 405.320 65.910 406.100 65.910 406.100Z" />
</g>
<g id="I_aaaaaaa_data/209/GouffreCumpleAnos/outputs/GouffreCumpleAnos-coupe.svg">
<path fill="inherit" stroke="none" d="M285.750 68.900C285.750 68.900 267.920 71.260 266.340 72.310C264.770 73.350 252.190 76.500 250.870 77.550C249.560 78.600 244.320 83.840 241.960 86.200C239.600 88.560 230.160 93.280 228.590 94.590C227.010 95.900 215.480 104.560 213.640 106.920C211.810 109.280 200.790 117.930 198.960 119.240C197.120 120.550 179.820 133.140 176.150 139.430C172.480 145.720 155.430 161.460 152.550 164.080C149.670 166.700 140.490 174.830 137.870 178.240C135.240 181.640 132.100 185.840 131.570 186.890C131.050 187.940 132.100 196.330 127.380 197.110C122.660 197.900 110.340 197.640 109.290 197.640C108.240 197.640 100.630 201.050 100.370 203.140C100.110 205.240 101.420 222.810 100.900 225.690C100.370 228.580 95.650 243.790 95.650 246.150C95.650 248.500 89.880 306.980 90.930 310.380C91.980 313.790 100.110 361.510 101.420 364.140C102.730 366.760 104.300 374.890 111.120 382.490C117.940 390.090 123.180 409.760 123.710 413.960C124.230 418.150 127.640 443.850 127.900 446.470C128.160 449.090 132.100 458.790 131.570 462.200C131.050 465.610 131.050 481.340 132.100 481.600C126.593 482.213 121.087 482.827 115.580 483.440C115.580 483.440 108.500 467.440 107.710 465.350C106.920 463.250 104.040 457.480 102.990 454.330C101.940 451.190 99.060 442.270 97.750 440.700C96.440 439.130 93.290 435.980 93.290 435.980C93.290 435.980 88.050 448.040 88.050 449.090C88.050 450.140 87.780 455.910 87.780 458.790C87.780 461.680 87.520 470.590 87.520 472.160C87.520 473.740 86.730 481.600 86.730 481.600C86.993 482.737 87.257 483.873 87.520 485.010C74.467 483.403 61.413 481.797 48.360 480.190C48.360 480.190 45.110 467.580 44.980 465.890C44.850 464.200 43.690 453.800 43.560 452.110C43.430 450.420 42.130 451.070 41.480 451.850C40.830 452.630 40.570 463.680 40.050 468.100C39.530 472.520 39.400 478.500 39.400 478.500C35.163 479.533 30.927 480.567 26.690 481.600C26.690 481.600 30.100 464.820 29.570 460.630C29.050 456.430 30.890 429.420 31.150 425.750C31.410 422.080 30.620 411.330 30.620 405.560C30.620 399.800 31.930 383.010 32.200 377.510C32.460 372.000 27.220 348.140 26.170 346.040C25.120 343.950 15.420 333.980 10.700 326.640C5.980 319.300 0.470 311.960 0.470 308.810C0.470 305.660 0.210 277.610 0.210 275.770C0.210 273.940 0.730 269.740 2.310 267.640C3.880 265.550 8.860 254.530 8.860 254.530C8.860 254.530 8.340 249.030 7.550 246.930C6.770 244.830 4.930 240.380 2.830 237.490C0.730 234.610 1.000 230.150 1.000 225.950C1.000 221.760 1.520 192.920 1.260 191.340C1.000 189.770 0.740 179.020 0.740 179.020C4.323 182.253 7.907 185.487 11.490 188.720C11.490 188.720 9.960 220.830 12.010 228.840C14.060 236.850 15.570 234.870 16.470 237.230C17.360 239.590 17.520 239.850 17.780 242.740C18.040 245.620 19.090 252.180 20.660 252.440C22.230 252.700 29.840 254.540 30.890 255.580C31.940 256.630 36.940 272.580 35.080 278.660C33.230 284.730 26.640 284.120 24.860 289.150C23.070 294.180 23.280 302.780 26.430 306.450C29.580 310.120 34.490 320.380 37.180 323.230C39.870 326.080 38.750 327.690 40.060 325.330C41.370 322.970 47.140 304.350 47.410 303.300C47.670 302.260 51.340 290.190 50.810 284.160C50.290 278.130 53.170 260.040 53.700 255.580C54.220 251.130 55.010 236.970 57.110 231.990C59.210 227.000 60.780 222.020 60.520 217.300C60.260 212.580 62.880 195.540 64.710 192.660C66.550 189.770 59.730 183.480 67.600 181.640C75.460 179.810 76.250 175.610 81.230 177.450C86.210 179.280 96.440 180.070 99.060 179.550C101.680 179.020 108.540 178.980 111.120 175.880C113.700 172.770 104.300 168.010 112.430 164.340C120.560 160.670 122.410 160.150 125.810 157.000C129.200 153.850 131.570 146.770 132.620 146.510C133.670 146.250 152.810 143.360 152.810 142.310C152.810 141.270 153.340 136.550 153.070 132.870C152.810 129.200 153.730 125.100 155.700 123.170C157.660 121.240 154.650 127.110 161.990 121.600C169.330 116.090 168.280 112.420 170.120 110.850C171.950 109.280 175.200 110.720 176.930 109.280C178.670 107.830 179.030 108.230 179.560 103.250C180.080 98.260 177.200 96.430 180.870 94.590C184.540 92.760 203.150 85.940 204.730 85.420C206.300 84.890 213.120 81.750 216.000 81.220C218.890 80.700 220.980 80.170 224.650 80.440C228.330 80.700 237.370 79.560 236.320 77.200C235.270 74.840 238.930 62.910 239.600 57.360C240.280 51.820 240.130 46.610 240.650 43.990C241.170 41.370 234.880 38.220 241.960 38.750C249.040 39.270 268.700 37.170 269.750 37.170C270.800 37.170 282.860 37.170 282.860 31.930C282.860 26.680 283.650 15.670 283.130 14.620C282.600 13.570 279.770 9.520 283.390 5.710C287.010 1.900 299.680 4.830 305.940 3.870C312.190 2.910 320.880 0.460 320.880 0.460C321.493 17.067 322.107 33.673 322.720 50.280C322.720 50.280 313.000 52.750 308.030 53.160C304.640 53.450 300.720 51.130 297.810 52.900C295.070 54.570 295.030 58.680 293.610 61.560C293.270 62.260 292.560 63.650 292.560 63.650C292.560 63.650 292.560 63.650 292.560 63.650C292.270 70.580 291.980 77.510 291.690 84.440C288.963 84.283 286.237 84.127 283.510 83.970C284.257 78.947 285.003 73.923 285.750 68.900C285.750 68.900 285.750 68.900 285.750 68.900M70.110 324.100C70.110 324.100 70.110 324.100 70.110 324.100C70.110 324.100 66.360 322.600 65.300 323.800C64.250 325.000 63.800 331.310 64.250 334.760C64.700 338.220 59.450 341.670 53.890 343.930C48.330 346.180 45.930 346.180 45.930 347.080C45.930 347.980 47.730 350.230 48.480 350.380C49.230 350.530 52.840 352.790 53.290 353.990C53.740 355.190 58.850 358.950 59.750 359.250C60.650 359.550 67.860 359.850 72.360 359.550C76.870 359.250 74.470 356.840 74.620 355.490C74.770 354.140 73.860 349.330 73.260 347.830C72.660 346.330 72.210 338.520 72.210 336.870C72.210 335.220 70.410 324.700 70.110 324.100M44.730 433.530C44.730 433.530 42.780 432.100 42.130 432.490C41.480 432.880 40.960 438.210 40.960 439.630C40.960 441.060 41.480 444.700 42.260 446.520C43.040 448.340 44.600 446.260 44.600 446.260C44.600 446.260 45.240 443.140 45.240 441.450C45.250 439.760 44.730 433.530 44.730 433.530M45.250 397.390C45.250 397.390 43.560 395.970 42.780 395.580C42.000 395.190 41.740 398.170 41.350 399.340C40.960 400.510 41.610 403.760 41.740 404.930C41.870 406.100 42.780 422.090 42.650 423.910C42.520 425.730 45.760 425.210 45.760 425.210C45.760 425.210 46.800 420.790 46.800 420.010C46.800 419.230 46.930 410.650 46.670 408.050C46.410 405.450 45.250 397.390 45.250 397.390M62.270 367.370C61.880 366.330 59.020 366.850 58.370 368.800C57.720 370.750 58.760 372.960 59.020 375.560C59.280 378.160 57.980 384.790 56.940 386.350C55.900 387.910 53.040 395.320 53.430 397.390C53.820 399.470 55.250 400.120 56.030 400.250C56.810 400.380 62.010 402.330 62.920 402.200C63.830 402.070 67.340 400.120 67.860 399.340C68.380 398.560 66.820 392.720 66.300 391.160C65.780 389.600 63.310 383.620 63.180 381.670C63.050 379.720 62.270 367.370 62.270 367.370M65.910 406.100C65.910 406.100 62.010 405.320 60.710 405.190C59.410 405.060 57.980 404.410 54.990 405.710C52.000 407.010 54.600 410.130 54.860 411.690C55.120 413.250 56.940 423.780 56.810 425.080C56.680 426.380 56.030 430.410 56.550 433.400C57.070 436.390 58.110 439.510 58.370 440.410C58.630 441.320 58.240 450.420 58.110 451.200C57.980 451.980 59.670 454.320 60.450 454.320C61.230 454.320 62.400 451.200 62.530 449.510C62.660 447.820 65.910 415.200 66.560 412.860C67.210 410.520 66.300 407.140 65.910 406.100Z" />
</g>
<g id="E_aaaaaaa_data/209/GouffreCumpleAnos/outputs/GouffreCumpleAnos-coupe.svg">
<path fill="none" stroke="#000000" stroke-width="1.000" d="M323.720 51.280C323.720 51.280 314.000 53.750 309.030 54.160C305.640 54.450 301.720 52.130 298.810 53.900C296.070 55.570 296.030 59.680 294.610 62.560C294.270 63.260 293.560 64.650 293.560 64.650" />
<path fill="none" stroke="#000000" stroke-width="1.000" d="M286.750 69.900C286.750 69.900 268.920 72.260 267.340 73.310C265.770 74.350 253.190 77.500 251.870 78.550C250.560 79.600 245.320 84.840 242.960 87.200C240.600 89.560 231.160 94.280 229.590 95.590C228.010 96.900 216.480 105.560 214.640 107.920C212.810 110.280 201.790 118.930 199.960 120.240C198.120 121.550 180.820 134.140 177.150 140.430C173.480 146.720 156.430 162.460 153.550 165.080C150.670 167.700 141.490 175.830 138.870 179.240C136.240 182.640 133.100 186.840 132.570 187.890C132.050 188.940 133.100 197.330 128.380 198.110C123.660 198.900 111.340 198.640 110.290 198.640C109.240 198.640 101.630 202.050 101.370 204.140C101.110 206.240 102.420 223.810 101.900 226.690C101.370 229.580 96.650 244.790 96.650 247.150C96.650 249.500 90.880 307.980 91.930 311.380C92.980 314.790 101.110 362.510 102.420 365.140C103.730 367.760 105.300 375.890 112.120 383.490C118.940 391.090 124.180 410.760 124.710 414.960C125.230 419.150 128.640 444.850 128.900 447.470C129.160 450.090 133.100 459.790 132.570 463.200C132.050 466.610 132.050 482.340 133.100 482.600" />
<path fill="none" stroke="#000000" stroke-width="1.000" d="M133.100 482.600C133.100 482.600 142.800 482.340 144.630 483.390C146.470 484.440 149.880 485.490 150.930 485.750C151.970 486.010 158.790 486.540 158.790 486.540" />
<path fill="none" stroke="#000000" stroke-width="1.000" d="M116.580 484.440C116.580 484.440 109.500 468.440 108.710 466.350C107.920 464.250 105.040 458.480 103.990 455.330C102.940 452.190 100.060 443.270 98.750 441.700C97.440 440.130 94.290 436.980 94.290 436.980C94.290 436.980 89.050 449.040 89.050 450.090C89.050 451.140 88.780 456.910 88.780 459.790C88.780 462.680 88.520 471.590 88.520 473.160C88.520 474.740 87.730 482.600 87.730 482.600L88.520 486.010" />
<path fill="none" stroke="#000000" stroke-width="1.000" d="M27.690 482.600C27.690 482.600 31.100 465.820 30.570 461.630C30.050 457.430 31.890 430.420 32.150 426.750C32.410 423.080 31.620 412.330 31.620 406.560C31.620 400.800 32.930 384.010 33.200 378.510C33.460 373.000 28.220 349.140 27.170 347.040C26.120 344.950 16.420 334.980 11.700 327.640C6.980 320.300 1.470 312.960 1.470 309.810C1.470 306.660 1.210 278.610 1.210 276.770C1.210 274.940 1.730 270.740 3.310 268.640C4.880 266.550 9.860 255.530 9.860 255.530C9.860 255.530 9.340 250.030 8.550 247.930C7.770 245.830 5.930 241.380 3.830 238.490C1.730 235.610 2.000 231.150 2.000 226.950C2.000 222.760 2.520 193.920 2.260 192.340C2.000 190.770 1.740 180.020 1.740 180.020" />
<path fill="none" stroke="#000000" stroke-width="1.000" d="M12.490 189.720C12.490 189.720 10.960 221.830 13.010 229.840C15.060 237.850 16.570 235.870 17.470 238.230C18.360 240.590 18.520 240.850 18.780 243.740C19.040 246.620 20.090 253.180 21.660 253.440C23.230 253.700 30.840 255.540 31.890 256.580C32.940 257.630 37.940 273.580 36.080 279.660C34.230 285.730 27.640 285.120 25.860 290.150C24.070 295.180 24.280 303.780 27.430 307.450C30.580 311.120 35.490 321.380 38.180 324.230C40.870 327.080 39.750 328.690 41.060 326.330C42.370 323.970 48.140 305.350 48.410 304.300C48.670 303.260 52.340 291.190 51.810 285.160C51.290 279.130 54.170 261.040 54.700 256.580C55.220 252.130 56.010 237.970 58.110 232.990C60.210 228.000 61.780 223.020 61.520 218.300C61.260 213.580 63.880 196.540 65.710 193.660C67.550 190.770 60.730 184.480 68.600 182.640C76.460 180.810 77.250 176.610 82.230 178.450C87.210 180.280 97.440 181.070 100.060 180.550C102.680 180.020 109.540 179.980 112.120 176.880C114.700 173.770 105.300 169.010 113.430 165.340C121.560 161.670 123.410 161.150 126.810 158.000C130.200 154.850 132.570 147.770 133.620 147.510C134.670 147.250 153.810 144.360 153.810 143.310C153.810 142.270 154.340 137.550 154.070 133.870C153.810 130.200 154.730 126.100 156.700 124.170C158.660 122.240 155.650 128.110 162.990 122.600C170.330 117.090 169.280 113.420 171.120 111.850C172.950 110.280 176.200 111.720 177.930 110.280C179.670 108.830 180.030 109.230 180.560 104.250C181.080 99.260 178.200 97.430 181.870 95.590C185.540 93.760 204.150 86.940 205.730 86.420C207.300 85.890 214.120 82.750 217.000 82.220C219.890 81.700 221.980 81.170 225.650 81.440C229.330 81.700 238.370 80.560 237.320 78.200C236.270 75.840 239.930 63.910 240.600 58.360C241.280 52.820 241.130 47.610 241.650 44.990C242.170 42.370 235.880 39.220 242.960 39.750C250.040 40.270 269.700 38.170 270.750 38.170C271.800 38.170 283.860 38.170 283.860 32.930C283.860 27.680 284.650 16.670 284.130 15.620C283.600 14.570 280.770 10.520 284.390 6.710C288.010 2.900 300.680 5.830 306.940 4.870C313.190 3.910 321.880 1.460 321.880 1.460" />
<path fill="none" stroke="#000000" stroke-width="1.000" d="M40.400 479.500C40.400 479.500 40.530 473.520 41.050 469.100C41.570 464.680 41.830 453.630 42.480 452.850C43.130 452.070 44.430 451.420 44.560 453.110C44.690 454.800 45.850 465.200 45.980 466.890C46.110 468.580 49.360 481.190 49.360 481.190" />
<path fill="none" stroke="#000000" stroke-width="1.000" d="M66.910 407.100C67.300 408.140 68.210 411.520 67.560 413.860C66.910 416.200 63.660 448.820 63.530 450.510C63.400 452.200 62.230 455.320 61.450 455.320C60.670 455.320 58.980 452.980 59.110 452.200C59.240 451.420 59.630 442.320 59.370 441.410C59.110 440.510 58.070 437.390 57.550 434.400C57.030 431.410 57.680 427.380 57.810 426.080C57.940 424.780 56.120 414.250 55.860 412.690C55.600 411.130 53.000 408.010 55.990 406.710C58.980 405.410 60.410 406.060 61.710 406.190C63.010 406.320 66.910 407.100 66.910 407.100Z" />
<path fill="none" stroke="#000000" stroke-width="1.000" d="M63.270 368.370C63.270 368.370 64.050 380.720 64.180 382.670C64.310 384.620 66.780 390.600 67.300 392.160C67.820 393.720 69.380 399.560 68.860 400.340C68.340 401.120 64.830 403.070 63.920 403.200C63.010 403.330 57.810 401.380 57.030 401.250C56.250 401.120 54.820 400.470 54.430 398.390C54.040 396.320 56.900 388.910 57.940 387.350C58.980 385.790 60.280 379.160 60.020 376.560C59.760 373.960 58.720 371.750 59.370 369.800C60.020 367.850 62.880 367.330 63.270 368.370Z" />
<path fill="none" stroke="#000000" stroke-width="1.000" d="M46.250 398.390C46.250 398.390 47.410 406.450 47.670 409.050C47.930 411.650 47.800 420.230 47.800 421.010C47.800 421.790 46.760 426.210 46.760 426.210C46.760 426.210 43.520 426.730 43.650 424.910C43.780 423.090 42.870 407.100 42.740 405.930C42.610 404.760 41.960 401.510 42.350 400.340C42.740 399.170 43.000 396.190 43.780 396.580C44.560 396.970 46.250 398.390 46.250 398.390Z" />
<path fill="none" stroke="#000000" stroke-width="1.000" d="M45.730 434.530C45.730 434.530 46.250 440.760 46.240 442.450C46.240 444.140 45.600 447.260 45.600 447.260C45.600 447.260 44.040 449.340 43.260 447.520C42.480 445.700 41.960 442.060 41.960 440.630C41.960 439.210 42.480 433.880 43.130 433.490C43.780 433.100 45.730 434.530 45.730 434.530Z" />
<path fill="none" stroke="#000000" stroke-width="1.000" d="M49.360 481.190L40.400 479.500" />
<path fill="none" stroke="#000000" stroke-width="1.000" d="M116.580 484.440C116.580 484.440 104.990 483.920 103.040 484.180C101.090 484.440 96.930 484.830 95.890 485.210C94.850 485.600 88.520 486.010 88.520 486.010" />
<path fill="none" stroke="#000000" stroke-width="1.000" d="M71.110 325.100C71.410 325.700 73.210 336.220 73.210 337.870C73.210 339.520 73.660 347.330 74.260 348.830C74.860 350.330 75.770 355.140 75.620 356.490C75.470 357.840 77.870 360.250 73.360 360.550C68.860 360.850 61.650 360.550 60.750 360.250C59.850 359.950 54.740 356.190 54.290 354.990C53.840 353.790 50.230 351.530 49.480 351.380C48.730 351.230 46.930 348.980 46.930 348.080C46.930 347.180 49.330 347.180 54.890 344.930C60.450 342.670 65.700 339.220 65.250 335.760C64.800 332.310 65.250 326.000 66.300 324.800C67.360 323.600 71.110 325.100 71.110 325.100Z" />
<path fill="none" stroke="#0032b2" stroke-width="0.350" d="M126.510 150.720L126.510 149.320L128.010 150.020Z" />
<path fill="#0032b2" stroke="none" d="M126.510 150.720L126.510 149.320L128.010 150.020Z" />
<path fill="none" stroke="#0032b2" stroke-width="0.350" d="M126.610 150.420C126.819 149.867 126.235 149.348 125.710 149.620C125.301 149.832 125.234 150.575 124.710 150.520C124.182 150.465 124.234 149.582 123.710 149.520C123.149 149.453 123.117 150.255 122.710 150.520C122.295 150.791 121.742 150.514 121.710 150.020" />
<path fill="none" stroke="#0032b2" stroke-width="0.350" d="M290.010 84.879L288.694 84.400L289.865 83.230Z" />
<path fill="#0032b2" stroke="none" d="M290.010 84.879L288.694 84.400L289.865 83.230Z" />
<path fill="none" stroke="#0032b2" stroke-width="0.350" d="M289.762 84.682C289.313 84.297 288.626 84.668 288.702 85.254C288.762 85.711 289.437 86.028 289.206 86.502C288.973 86.979 288.162 86.629 287.924 87.100C287.670 87.604 288.412 87.909 288.522 88.381C288.634 88.864 288.186 89.289 287.710 89.150" />
<path fill="none" stroke="#000000" stroke-width="1.000" d="M27.690 482.600L11.610 483.720" />
<path fill="none" stroke="#000000" stroke-width="1.000" stroke-dasharray="6.000,6.000" stroke-dashoffset="0.000" d="M293.560 64.650L292.690 85.440" />
<path fill="none" stroke="#000000" stroke-width="1.000" stroke-dasharray="6.000,6.000" stroke-dashoffset="0.000" d="M284.510 84.970L286.750 69.900" />
<path fill="none" stroke="#b20000" stroke-width="0.500" d="M122.530 483.970L122.530 483.970L120.968 469.674L119.405 456.263L117.843 443.738L116.280 432.099L114.718 421.346L113.155 411.478L111.593 402.496L110.030 394.401L108.468 387.191L106.905 380.866L105.343 375.428L103.780 370.875L102.218 367.208L100.655 364.427L99.093 362.532L97.530 361.522L95.968 361.399L94.405 362.161L92.843 363.809" />
<path fill="none" stroke="#b20000" stroke-width="0.500" d="M91.280 366.340L91.280 366.340L90.873 352.616L90.466 339.746L90.059 327.730L89.652 316.567L89.245 306.258L88.838 296.802L88.431 288.200L88.024 280.451L87.617 273.557L87.210 267.515L86.803 262.327L86.396 257.993L85.989 254.512L85.582 251.886L85.175 250.112L84.768 249.192L84.361 249.126L83.954 249.913L83.547 251.554" />
<path fill="none" stroke="#b20000" stroke-width="0.500" d="M83.140 254.050L83.140 254.050L82.576 252.606L82.011 251.296L81.447 250.119L80.882 249.075L80.317 248.164L79.753 247.386L79.189 246.742L78.624 246.231L78.060 245.853L77.495 245.608L76.931 245.497L76.366 245.519L75.802 245.674L75.237 245.962L74.673 246.384L74.108 246.938L73.544 247.627L72.979 248.448L72.415 249.402" />
<path fill="none" stroke="#b20000" stroke-width="0.500" d="M71.850 250.490L71.850 186.920" />
<path fill="none" stroke="#b20000" stroke-width="2.500" d="M122.530 483.970h0.001" />
<path fill="none" stroke="#b20000" stroke-width="2.500" d="M91.280 366.340h0.001" />
<path fill="none" stroke="#b20000" stroke-width="2.500" d="M83.140 254.050h0.001" />
<path fill="none" stroke="#b20000" stroke-width="2.500" d="M71.850 250.490h0.001" />
<path fill="#ffffff" stroke="none" d="M242.150 55.870C241.874 56.146 241.874 56.594 242.150 56.870C242.426 57.146 242.874 57.146 243.150 56.870C243.426 56.594 243.426 56.146 243.150 55.870C242.874 55.594 242.426 55.594 242.150 55.870Z" />
<path fill="none" stroke="#999999" stroke-width="0.350" d="M242.150 55.870C241.874 56.146 241.874 56.594 242.150 56.870C242.426 57.146 242.874 57.146 243.150 56.870C243.426 56.594 243.426 56.146 243.150 55.870C242.874 55.594 242.426 55.594 242.150 55.870Z" />
<path fill="#ffffff" stroke="none" d="M236.630 87.220C236.354 87.496 236.354 87.944 236.630 88.220C236.906 88.496 237.354 88.496 237.630 88.220C237.906 87.944 237.906 87.496 237.630 87.220C237.354 86.944 236.906 86.944 236.630 87.220Z" />
<path fill="none" stroke="#999999" stroke-width="0.350" d="M236.630 87.220C236.354 87.496 236.354 87.944 236.630 88.220C236.906 88.496 237.354 88.496 237.630 88.220C237.906 87.944 237.906 87.496 237.630 87.220C237.354 86.944 236.906 86.944 236.630 87.220Z" />
<path fill="#ffffff" stroke="none" d="M231.150 88.700C230.874 88.976 230.874 89.424 231.150 89.700C231.426 89.976 231.874 89.976 232.150 89.700C232.426 89.424 232.426 88.976 232.150 88.700C231.874 88.424 231.426 88.424 231.150 88.700Z" />
<path fill="none" stroke="#999999" stroke-width="0.350" d="M231.150 88.700C230.874 88.976 230.874 89.424 231.150 89.700C231.426 89.976 231.874 89.976 232.150 89.700C232.426 89.424 232.426 88.976 232.150 88.700C231.874 88.424 231.426 88.424 231.150 88.700Z" />
<path fill="#ffffff" stroke="none" d="M218.990 92.890C218.714 93.166 218.714 93.614 218.990 93.890C219.266 94.166 219.714 94.166 219.990 93.890C220.266 93.614 220.266 93.166 219.990 92.890C219.714 92.614 219.266 92.614 218.990 92.890Z" />
<path fill="none" stroke="#999999" stroke-width="0.350" d="M218.990 92.890C218.714 93.166 218.714 93.614 218.990 93.890C219.266 94.166 219.714 94.166 219.990 93.890C220.266 93.614 220.266 93.166 219.990 92.890C219.714 92.614 219.266 92.614 218.990 92.890Z" />
<path fill="#ffffff" stroke="none" d="M205.420 98.900C205.144 99.176 205.144 99.624 205.420 99.900C205.696 100.176 206.144 100.176 206.420 99.900C206.696 99.624 206.696 99.176 206.420 98.900C206.144 98.624 205.696 98.624 205.420 98.900Z" />
<path fill="none" stroke="#999999" stroke-width="0.350" d="M205.420 98.900C205.144 99.176 205.144 99.624 205.420 99.900C205.696 100.176 206.144 100.176 206.420 99.900C206.696 99.624 206.696 99.176 206.420 98.900C206.144 98.624 205.696 98.624 205.420 98.900Z" />
<path fill="#ffffff" stroke="none" d="M190.410 98.110C190.134 98.386 190.134 98.834 190.410 99.110C190.686 99.386 191.134 99.386 191.410 99.110C191.686 98.834 191.686 98.386 191.410 98.110C191.134 97.834 190.686 97.834 190.410 98.110Z" />
<path fill="none" stroke="#999999" stroke-width="0.350" d="M190.410 98.110C190.134 98.386 190.134 98.834 190.410 99.110C190.686 99.386 191.134 99.386 191.410 99.110C191.686 98.834 191.686 98.386 191.410 98.110C191.134 97.834 190.686 97.834 190.410 98.110Z" />
<path fill="#ffffff" stroke="none" d="M172.020 117.160C171.744 117.436 171.744 117.884 172.020 118.160C172.296 118.436 172.744 118.436 173.020 118.160C173.296 117.884 173.296 117.436 173.020 117.160C172.744 116.884 172.296 116.884 172.020 117.160Z" />
<path fill="none" stroke="#999999" stroke-width="0.350" d="M172.020 117.160C171.744 117.436 171.744 117.884 172.020 118.160C172.296 118.436 172.744 118.436 173.020 118.160C173.296 117.884 173.296 117.436 173.020 117.160C172.744 116.884 172.296 116.884 172.020 117.160Z" />
<path fill="#ffffff" stroke="none" d="M164.900 128.550C164.624 128.826 164.624 129.274 164.900 129.550C165.176 129.826 165.624 129.826 165.900 129.550C166.176 129.274 166.176 128.826 165.900 128.550C165.624 128.274 165.176 128.274 164.900 128.550Z" />
<path fill="none" stroke="#999999" stroke-width="0.350" d="M164.900 128.550C164.624 128.826 164.624 129.274 164.900 129.550C165.176 129.826 165.624 129.826 165.900 129.550C166.176 129.274 166.176 128.826 165.900 128.550C165.624 128.274 165.176 128.274 164.900 128.550Z" />
<path fill="#ffffff" stroke="none" d="M154.960 127.700C154.684 127.976 154.684 128.424 154.960 128.700C155.236 128.976 155.684 128.976 155.960 128.700C156.236 128.424 156.236 127.976 155.960 127.700C155.684 127.424 155.236 127.424 154.960 127.700Z" />
<path fill="none" stroke="#999999" stroke-width="0.350" d="M154.960 127.700C154.684 127.976 154.684 128.424 154.960 128.700C155.236 128.976 155.684 128.976 155.960 128.700C156.236 128.424 156.236 127.976 155.960 127.700C155.684 127.424 155.236 127.424 154.960 127.700Z" />
<path fill="#ffffff" stroke="none" d="M154.960 145.840C154.684 146.116 154.684 146.564 154.960 146.840C155.236 147.116 155.684 147.116 155.960 146.840C156.236 146.564 156.236 146.116 155.960 145.840C155.684 145.564 155.236 145.564 154.960 145.840Z" />
<path fill="none" stroke="#999999" stroke-width="0.350" d="M154.960 145.840C154.684 146.116 154.684 146.564 154.960 146.840C155.236 147.116 155.684 147.116 155.960 146.840C156.236 146.564 156.236 146.116 155.960 145.840C155.684 145.564 155.236 145.564 154.960 145.840Z" />
<path fill="#ffffff" stroke="none" d="M136.140 145.840C135.864 146.116 135.864 146.564 136.140 146.840C136.416 147.116 136.864 147.116 137.140 146.840C137.416 146.564 137.416 146.116 137.140 145.840C136.864 145.564 136.416 145.564 136.140 145.840Z" />
<path fill="none" stroke="#999999" stroke-width="0.350" d="M136.140 145.840C135.864 146.116 135.864 146.564 136.140 146.840C136.416 147.116 136.864 147.116 137.140 146.840C137.416 146.564 137.416 146.116 137.140 145.840C136.864 145.564 136.416 145.564 136.140 145.840Z" />
<path fill="#ffffff" stroke="none" d="M136.140 162.850C135.864 163.126 135.864 163.574 136.140 163.850C136.416 164.126 136.864 164.126 137.140 163.850C137.416 163.574 137.416 163.126 137.140 162.850C136.864 162.574 136.416 162.574 136.140 162.850Z" />
<path fill="none" stroke="#999999" stroke-width="0.350" d="M136.140 162.850C135.864 163.126 135.864 163.574 136.140 163.850C136.416 164.126 136.864 164.126 137.140 163.850C137.416 163.574 137.416 163.126 137.140 162.850C136.864 162.574 136.416 162.574 136.140 162.850Z" />
<path fill="#ffffff" stroke="none" d="M127.070 168.970C126.794 169.246 126.794 169.694 127.070 169.970C127.346 170.246 127.794 170.246 128.070 169.970C128.346 169.694 128.346 169.246 128.070 168.970C127.794 168.694 127.346 168.694 127.070 168.970Z" />
<path fill="none" stroke="#999999" stroke-width="0.350" d="M127.070 168.970C126.794 169.246 126.794 169.694 127.070 169.970C127.346 170.246 127.794 170.246 128.070 169.970C128.346 169.694 128.346 169.246 128.070 168.970C127.794 168.694 127.346 168.694 127.070 168.970Z" />
<path fill="#ffffff" stroke="none" d="M101.190 190.690C100.914 190.966 100.914 191.414 101.190 191.690C101.466 191.966 101.914 191.966 102.190 191.690C102.466 191.414 102.466 190.966 102.190 190.690C101.914 190.414 101.466 190.414 101.190 190.690Z" />
<path fill="none" stroke="#999999" stroke-width="0.350" d="M101.190 190.690C100.914 190.966 100.914 191.414 101.190 191.690C101.466 191.966 101.914 191.966 102.190 191.690C102.466 191.414 102.466 190.966 102.190 190.690C101.914 190.414 101.466 190.414 101.190 190.690Z" />
</g>
<g id="X_aaaaaaa_data/209/GouffreCumpleAnos/outputs/GouffreCumpleAnos-coupe.svg">
<text font-family="thss00" font-size="5.978" fill="#999999" stroke="none" transform="matrix(1.000 0.000 -0.000 -1.000 260.525 38.305)">&#x31;&#x33;</text>
<text font-family="thss00" font-size="5.978" fill="#999999" stroke="none" transform="matrix(1.000 0.000 -0.000 -1.000 255.005 69.595)">&#x31;&#x32;</text>
<text font-family="thss00" font-size="5.978" fill="#999999" stroke="none" transform="matrix(1.000 0.000 -0.000 -1.000 249.525 71.075)">&#x31;</text>
<text font-family="thss00" font-size="5.978" fill="#999999" stroke="none" transform="matrix(1.000 0.000 -0.000 -1.000 252.412 71.075)">&#x31;</text>
<text font-family="thss00" font-size="5.978" fill="#999999" stroke="none" transform="matrix(1.000 0.000 -0.000 -1.000 237.365 75.325)">&#x31;&#x30;</text>
<text font-family="thss00" font-size="5.978" fill="#999999" stroke="none" transform="matrix(1.000 0.000 -0.000 -1.000 223.795 81.335)">&#x39;</text>
<text font-family="thss00" font-size="5.978" fill="#999999" stroke="none" transform="matrix(1.000 0.000 -0.000 -1.000 208.785 80.545)">&#x38;</text>
<text font-family="thss00" font-size="5.978" fill="#999999" stroke="none" transform="matrix(1.000 0.000 -0.000 -1.000 190.395 99.535)">&#x37;</text>
<text font-family="thss00" font-size="5.978" fill="#999999" stroke="none" transform="matrix(1.000 0.000 -0.000 -1.000 183.275 110.985)">&#x36;</text>
<text font-family="thss00" font-size="5.978" fill="#999999" stroke="none" transform="matrix(1.000 0.000 -0.000 -1.000 173.335 110.135)">&#x35;</text>
<text font-family="thss00" font-size="5.978" fill="#999999" stroke="none" transform="matrix(1.000 0.000 -0.000 -1.000 173.335 128.215)">&#x34;</text>
<text font-family="thss00" font-size="5.978" fill="#999999" stroke="none" transform="matrix(1.000 0.000 -0.000 -1.000 154.515 128.275)">&#x33;</text>
<text font-family="thss00" font-size="5.978" fill="#999999" stroke="none" transform="matrix(1.000 0.000 -0.000 -1.000 154.515 145.225)">&#x32;</text>
<text font-family="thss00" font-size="5.978" fill="#999999" stroke="none" transform="matrix(1.000 0.000 -0.000 -1.000 145.445 151.345)">&#x31;</text>
<text font-family="thss00" font-size="5.978" fill="#999999" stroke="none" transform="matrix(1.000 0.000 -0.000 -1.000 119.565 173.125)">&#x30;</text>
<text font-family="thbf00" font-size="6.974" fill="#000000" stroke="none" transform="matrix(1.000 0.000 -0.000 -1.000 152.916 115.337)">&#x72;&#x33;</text>
<text font-family="thbf00" font-size="6.974" fill="#000000" stroke="none" transform="matrix(1.000 0.000 -0.000 -1.000 182.596 79.407)">&#x72;&#x33;</text>
<text font-family="thbf00" font-size="6.974" fill="#000000" stroke="none" transform="matrix(1.000 0.000 -0.000 -1.000 171.720 154.951)">&#x70;&#x33;</text>
<text font-family="thss00" font-size="6.974" fill="#000000" stroke="none" transform="matrix(1.000 0.000 -0.000 -1.000 33.280 180.112)">&#x64;&#x61;&#x6c;&#x6c;&#x65;</text>
<text font-family="thss00" font-size="6.974" fill="#000000" stroke="none" transform="matrix(1.000 0.000 -0.000 -1.000 33.280 171.743)">&#x67;&#x72;&#xe8;&#x73;</text>
<text font-family="thbf00" font-size="6.974" fill="#000000" stroke="none" transform="matrix(1.000 0.000 -0.000 -1.000 117.340 262.010)">&#x70;&#x35;&#x30;</text>
<text font-family="thbf00" font-size="6.974" fill="#000000" stroke="none" transform="matrix(1.000 0.000 -0.000 -1.000 241.975 37.550)">&#x70;&#x36;</text>
<text font-family="thbf00" font-size="6.974" fill="#000000" stroke="none" transform="matrix(1.000 0.000 -0.000 -1.000 284.065 1.480)">&#x70;&#x36;</text>
<text font-family="thss00" font-size="6.974" fill="#000000" stroke="none" transform="matrix(1.000 0.000 -0.000 -1.000 323.520 45.961)">&#x67;&#x72;&#xe8;&#x73;</text>
<text font-family="thss00" font-size="7.970" fill="#000000" stroke="none" transform="matrix(1.000 0.000 -0.000 -1.000 363.350 29.857)">&#x4d;&#xe9;&#x61;&#x6e;&#x64;&#x72;&#x65;</text>
<text font-family="thss00" font-size="7.970" fill="#000000" stroke="none" transform="matrix(1.000 0.000 -0.000 -1.000 397.072 29.857)">&#x64;&#x65;</text>
<text font-family="thss00" font-size="7.970" fill="#000000" stroke="none" transform="matrix(1.000 0.000 -0.000 -1.000 363.350 20.293)">&#x44;&#x61;&#x6d;&#x6f;&#x63;&#x6c;&#xe8;&#x73;</text>
<text font-family="thss00" font-size="7.970" fill="#000000" stroke="none" transform="matrix(1.000 0.000 -0.000 -1.000 203.210 153.547)">&#x4d;&#xe9;&#x61;&#x6e;&#x64;&#x72;&#x65;</text>
<text font-family="thss00" font-size="7.970" fill="#000000" stroke="none" transform="matrix(1.000 0.000 -0.000 -1.000 236.931 153.547)">&#x64;&#x65;</text>
<text font-family="thss00" font-size="7.970" fill="#000000" stroke="none" transform="matrix(1.000 0.000 -0.000 -1.000 248.026 153.547)">&#x6c;&#x61;</text>
<text font-family="thss00" font-size="7.970" fill="#000000" stroke="none" transform="matrix(1.000 0.000 -0.000 -1.000 203.210 143.983)">&#x43;&#x72;&#x75;&#x65;</text>
<text font-family="thss00" font-size="7.970" fill="#000000" stroke="none" transform="matrix(1.000 0.000 -0.000 -1.000 222.729 143.983)">&#x53;&#x75;&#x62;&#x69;&#x74;&#x65;</text>
<text font-family="thbf00" font-size="6.974" fill="#000000" stroke="none" transform="matrix(1.000 0.000 -0.000 -1.000 0.620 225.670)">&#x70;&#x34;&#x39;</text>
</g>
<clipPath id="clip_viewBox">
<path d="M-147.032 -219.533L315.661 -219.533L315.661 325.159L-147.032 325.159z" />
</clipPath>
</defs>
<g transform="scale(1,-1)" fill="#000000" stroke="#000000" stroke-linecap="round" stroke-linejoin="round" stroke-miterlimit="10" fill-rule="evenodd" clip-rule="evenodd" clip-path="url(#clip_viewBox)">
<rect x="-147.032" y="-219.533" width="462.693" height="544.693" stroke="none" fill="#d8d8d8" />
<g fill="#ffffff">
<use x="-100.685" y="-190.187" xlink:href="#I_aaaaaaa_data/209/GouffreCumpleAnos/outputs/GouffreCumpleAnos-coupe.svg" />
</g>
<use x="-53.685" y="-188.187" xlink:href="#F_aaaaaaa_data/209/GouffreCumpleAnos/outputs/GouffreCumpleAnos-coupe.svg" />
<use x="-101.685" y="-191.187" xlink:href="#E_aaaaaaa_data/209/GouffreCumpleAnos/outputs/GouffreCumpleAnos-coupe.svg" />
<use x="-118.685" y="-172.187" xlink:href="#X_aaaaaaa_data/209/GouffreCumpleAnos/outputs/GouffreCumpleAnos-coupe.svg" />
</g>
</svg>
