  0
SECTION
  2
HEADER
  9
$ACADVER
  1
AC1006
  0
ENDSEC
  0
SECTION
  2
TABLES
  0
TABLE
  2
LAYER
  0
LAYER
  2
CHEMINEMENTS
 70
    64
 62
    1
  6
CONTINUOUS
  0
LAYER
  2
RADIALES
 70
    64
 62
    9
  6
CONTINUOUS
  0
LAYER
  2
LARGEURS
 70
    64
 62
    4
  6
CONTINUOUS
  0
LAYER
  2
CONTOURS_LARGEURS
 70
    64
 62
    3
  6
CONTINUOUS
  0
LAYER
  2
ECHELLE
 70
    64
 62
    7
  6
CONTINUOUS
  0
ENDTAB
  0
ENDSEC
  0
SECTION
  2
ENTITIES
  0
LINE
  8
CHEMINEMENTS
 10
    0.00
 20
    0.00
 30
    0.00
 11
    0.00
 21
    0.00
 31
    0.00
  0
LINE
  8
LARGEURS
 10
    0.00
 20
    0.00
 30
    0.00
 11
    0.00
 21
    0.00
 31
    0.00
  0
LINE
  8
CONTOURS_LARGEURS
 10
    0.00
 20
    0.00
 30
    0.00
 11
    0.00
 21
    0.00
 31
    0.00
  0
LINE
  8
CONTOURS_LARGEURS
 10
    0.00
 20
    0.00
 30
    0.00
 11
    0.00
 21
    0.00
 31
    0.00
  0
LINE
  8
CHEMINEMENTS
 10
    0.00
 20
    0.00
 30
    0.00
 11
    10.88
 21
    4.03
 31
    0.00
  0
LINE
  8
LARGEURS
 10
    10.88
 20
    4.03
 30
    0.00
 11
    12.40
 21
    1.45
 31
    0.00
  0
LINE
  8
CONTOURS_LARGEURS
 10
    0.00
 20
    0.00
 30
    0.00
 11
    10.88
 21
    4.03
 31
    0.00
  0
LINE
  8
CONTOURS_LARGEURS
 10
    0.00
 20
    0.00
 30
    0.00
 11
    12.40
 21
    1.45
 31
    0.00
  0
LINE
  8
CHEMINEMENTS
 10
    10.88
 20
    4.03
 30
    0.00
 11
    13.98
 21
    6.67
 31
    0.00
  0
LINE
  8
LARGEURS
 10
    12.82
 20
    8.30
 30
    0.00
 11
    16.87
 21
    2.59
 31
    0.00
  0
LINE
  8
CONTOURS_LARGEURS
 10
    10.88
 20
    4.03
 30
    0.00
 11
    12.82
 21
    8.30
 31
    0.00
  0
LINE
  8
CONTOURS_LARGEURS
 10
    12.40
 20
    1.45
 30
    0.00
 11
    16.87
 21
    2.59
 31
    0.00
  0
LINE
  8
CHEMINEMENTS
 10
    13.98
 20
    6.67
 30
    0.00
 11
    19.31
 21
    9.78
 31
    0.00
  0
LINE
  8
LARGEURS
 10
    17.79
 20
    12.37
 30
    0.00
 11
    21.83
 21
    5.47
 31
    0.00
  0
LINE
  8
CONTOURS_LARGEURS
 10
    12.82
 20
    8.30
 30
    0.00
 11
    17.79
 21
    12.37
 31
    0.00
  0
LINE
  8
CONTOURS_LARGEURS
 10
    16.87
 20
    2.59
 30
    0.00
 11
    21.83
 21
    5.47
 31
    0.00
  0
LINE
  8
CHEMINEMENTS
 10
    19.31
 20
    9.78
 30
    0.00
 11
    34.45
 21
    18.64
 31
    0.00
  0
LINE
  8
LARGEURS
 10
    32.11
 20
    23.07
 30
    0.00
 11
    35.85
 21
    15.99
 31
    0.00
  0
LINE
  8
CONTOURS_LARGEURS
 10
    17.79
 20
    12.37
 30
    0.00
 11
    32.11
 21
    23.07
 31
    0.00
  0
LINE
  8
CONTOURS_LARGEURS
 10
    21.83
 20
    5.47
 30
    0.00
 11
    35.85
 21
    15.99
 31
    0.00
  0
LINE
  8
CHEMINEMENTS
 10
    34.45
 20
    18.64
 30
    0.00
 11
    48.70
 21
    25.39
 31
    0.00
  0
LINE
  8
LARGEURS
 10
    47.90
 20
    26.00
 30
    0.00
 11
    51.09
 21
    23.58
 31
    0.00
  0
LINE
  8
CONTOURS_LARGEURS
 10
    32.11
 20
    23.07
 30
    0.00
 11
    47.90
 21
    26.00
 31
    0.00
  0
LINE
  8
CONTOURS_LARGEURS
 10
    35.85
 20
    15.99
 30
    0.00
 11
    51.09
 21
    23.58
 31
    0.00
  0
LINE
  8
CHEMINEMENTS
 10
    48.70
 20
    25.39
 30
    0.00
 11
    51.69
 21
    42.92
 31
    0.00
  0
LINE
  8
LARGEURS
 10
    50.92
 20
    43.56
 30
    0.00
 11
    53.22
 21
    41.64
 31
    0.00
  0
LINE
  8
CONTOURS_LARGEURS
 10
    47.90
 20
    26.00
 30
    0.00
 11
    50.92
 21
    43.56
 31
    0.00
  0
LINE
  8
CONTOURS_LARGEURS
 10
    51.09
 20
    23.58
 30
    0.00
 11
    53.22
 21
    41.64
 31
    0.00
  0
LINE
  8
CHEMINEMENTS
 10
    51.69
 20
    42.92
 30
    0.00
 11
    60.20
 21
    46.08
 31
    0.00
  0
LINE
  8
LARGEURS
 10
    59.35
 20
    47.89
 30
    0.00
 11
    61.06
 21
    44.27
 31
    0.00
  0
LINE
  8
CONTOURS_LARGEURS
 10
    50.92
 20
    43.56
 30
    0.00
 11
    59.35
 21
    47.89
 31
    0.00
  0
LINE
  8
CONTOURS_LARGEURS
 10
    53.22
 20
    41.64
 30
    0.00
 11
    61.06
 21
    44.27
 31
    0.00
  0
LINE
  8
CHEMINEMENTS
 10
    60.20
 20
    46.08
 30
    0.00
 11
    70.46
 21
    52.08
 31
    0.00
  0
LINE
  8
LARGEURS
 10
    69.22
 20
    52.93
 30
    0.00
 11
    73.75
 21
    49.80
 31
    0.00
  0
LINE
  8
CONTOURS_LARGEURS
 10
    59.35
 20
    47.89
 30
    0.00
 11
    69.22
 21
    52.93
 31
    0.00
  0
LINE
  8
CONTOURS_LARGEURS
 10
    61.06
 20
    44.27
 30
    0.00
 11
    73.75
 21
    49.80
 31
    0.00
  0
LINE
  8
CHEMINEMENTS
 10
    70.46
 20
    52.08
 30
    0.00
 11
    72.36
 21
    63.27
 31
    0.00
  0
LINE
  8
LARGEURS
 10
    69.75
 20
    64.75
 30
    0.00
 11
    74.97
 21
    61.78
 31
    0.00
  0
LINE
  8
CONTOURS_LARGEURS
 10
    69.22
 20
    52.93
 30
    0.00
 11
    69.75
 21
    64.75
 31
    0.00
  0
LINE
  8
CONTOURS_LARGEURS
 10
    73.75
 20
    49.80
 30
    0.00
 11
    74.97
 21
    61.78
 31
    0.00
  0
LINE
  8
CHEMINEMENTS
 10
    72.36
 20
    63.27
 30
    0.00
 11
    79.56
 21
    69.38
 31
    0.00
  0
LINE
  8
LARGEURS
 10
    78.69
 20
    69.88
 30
    0.00
 11
    82.17
 21
    67.90
 31
    0.00
  0
LINE
  8
CONTOURS_LARGEURS
 10
    69.75
 20
    64.75
 30
    0.00
 11
    78.69
 21
    69.88
 31
    0.00
  0
LINE
  8
CONTOURS_LARGEURS
 10
    74.97
 20
    61.78
 30
    0.00
 11
    82.17
 21
    67.90
 31
    0.00
  0
LINE
  8
CHEMINEMENTS
 10
    79.56
 20
    69.38
 30
    0.00
 11
    80.58
 21
    75.38
 31
    0.00
  0
LINE
  8
LARGEURS
 10
    79.81
 20
    76.01
 30
    0.00
 11
    81.35
 21
    74.74
 31
    0.00
  0
LINE
  8
CONTOURS_LARGEURS
 10
    78.69
 20
    69.88
 30
    0.00
 11
    79.81
 21
    76.01
 31
    0.00
  0
LINE
  8
CONTOURS_LARGEURS
 10
    82.17
 20
    67.90
 30
    0.00
 11
    81.35
 21
    74.74
 31
    0.00
  0
LINE
  8
CHEMINEMENTS
 10
    80.58
 20
    75.38
 30
    0.00
 11
    86.21
 21
    77.46
 31
    0.00
  0
LINE
  8
LARGEURS
 10
    85.50
 20
    78.17
 30
    0.00
 11
    86.92
 21
    76.76
 31
    0.00
  0
LINE
  8
CONTOURS_LARGEURS
 10
    79.81
 20
    76.01
 30
    0.00
 11
    85.50
 21
    78.17
 31
    0.00
  0
LINE
  8
CONTOURS_LARGEURS
 10
    81.35
 20
    74.74
 30
    0.00
 11
    86.92
 21
    76.76
 31
    0.00
  0
LINE
  8
CHEMINEMENTS
 10
    86.21
 20
    77.46
 30
    0.00
 11
    89.48
 21
    86.60
 31
    0.00
  0
LINE
  8
LARGEURS
 10
    87.59
 20
    87.28
 30
    0.00
 11
    91.36
 21
    85.93
 31
    0.00
  0
LINE
  8
CONTOURS_LARGEURS
 10
    85.50
 20
    78.17
 30
    0.00
 11
    87.59
 21
    87.28
 31
    0.00
  0
LINE
  8
CONTOURS_LARGEURS
 10
    86.92
 20
    76.76
 30
    0.00
 11
    91.36
 21
    85.93
 31
    0.00
  0
LINE
  8
CHEMINEMENTS
 10
    89.48
 20
    86.60
 30
    0.00
 11
    90.49
 21
    89.43
 31
    0.00
  0
LINE
  8
LARGEURS
 10
    88.75
 20
    90.42
 30
    0.00
 11
    92.22
 21
    88.44
 31
    0.00
  0
LINE
  8
CONTOURS_LARGEURS
 10
    87.59
 20
    87.28
 30
    0.00
 11
    88.75
 21
    90.42
 31
    0.00
  0
LINE
  8
CONTOURS_LARGEURS
 10
    91.36
 20
    85.93
 30
    0.00
 11
    92.22
 21
    88.44
 31
    0.00
  0
LINE
  8
CHEMINEMENTS
 10
    90.49
 20
    89.43
 30
    0.00
 11
    96.84
 21
    97.09
 31
    0.00
  0
LINE
  8
LARGEURS
 10
    95.31
 20
    98.38
 30
    0.00
 11
    98.36
 21
    95.79
 31
    0.00
  0
LINE
  8
CONTOURS_LARGEURS
 10
    88.75
 20
    90.42
 30
    0.00
 11
    95.31
 21
    98.38
 31
    0.00
  0
LINE
  8
CONTOURS_LARGEURS
 10
    92.22
 20
    88.44
 30
    0.00
 11
    98.36
 21
    95.79
 31
    0.00
  0
LINE
  8
CHEMINEMENTS
 10
    96.84
 20
    97.09
 30
    0.00
 11
    103.88
 21
    105.18
 31
    0.00
  0
LINE
  8
LARGEURS
 10
    101.31
 20
    106.14
 30
    0.00
 11
    108.38
 21
    103.49
 31
    0.00
  0
LINE
  8
CONTOURS_LARGEURS
 10
    95.31
 20
    98.38
 30
    0.00
 11
    101.31
 21
    106.14
 31
    0.00
  0
LINE
  8
CONTOURS_LARGEURS
 10
    98.36
 20
    95.79
 30
    0.00
 11
    108.38
 21
    103.49
 31
    0.00
  0
LINE
  8
CHEMINEMENTS
 10
    103.88
 20
    105.18
 30
    0.00
 11
    103.90
 21
    116.77
 31
    0.00
  0
LINE
  8
LARGEURS
 10
    102.02
 20
    116.26
 30
    0.00
 11
    103.90
 21
    116.77
 31
    0.00
  0
LINE
  8
CONTOURS_LARGEURS
 10
    101.31
 20
    106.14
 30
    0.00
 11
    102.02
 21
    116.26
 31
    0.00
  0
LINE
  8
CONTOURS_LARGEURS
 10
    108.38
 20
    103.49
 30
    0.00
 11
    103.90
 21
    116.77
 31
    0.00
  0
LINE
  8
CHEMINEMENTS
 10
    103.90
 20
    116.77
 30
    0.00
 11
    95.06
 21
    131.90
 31
    0.00
  0
LINE
  8
LARGEURS
 10
    93.15
 20
    130.62
 30
    0.00
 11
    96.88
 21
    133.13
 31
    0.00
  0
LINE
  8
CONTOURS_LARGEURS
 10
    102.02
 20
    116.26
 30
    0.00
 11
    93.15
 21
    130.62
 31
    0.00
  0
LINE
  8
CONTOURS_LARGEURS
 10
    103.90
 20
    116.77
 30
    0.00
 11
    96.88
 21
    133.13
 31
    0.00
  0
LINE
  8
CHEMINEMENTS
 10
    95.06
 20
    131.90
 30
    0.00
 11
    89.25
 21
    139.41
 31
    0.00
  0
LINE
  8
LARGEURS
 10
    89.25
 20
    139.41
 30
    0.00
 11
    91.15
 21
    139.88
 31
    0.00
  0
LINE
  8
CONTOURS_LARGEURS
 10
    93.15
 20
    130.62
 30
    0.00
 11
    89.25
 21
    139.41
 31
    0.00
  0
LINE
  8
CONTOURS_LARGEURS
 10
    96.88
 20
    133.13
 30
    0.00
 11
    91.15
 21
    139.88
 31
    0.00
  0
LINE
  8
CHEMINEMENTS
 10
    89.25
 20
    139.41
 30
    0.00
 11
    90.18
 21
    144.81
 31
    0.00
  0
LINE
  8
LARGEURS
 10
    87.48
 20
    144.88
 30
    0.00
 11
    91.38
 21
    144.78
 31
    0.00
  0
LINE
  8
CONTOURS_LARGEURS
 10
    89.25
 20
    139.41
 30
    0.00
 11
    87.48
 21
    144.88
 31
    0.00
  0
LINE
  8
CONTOURS_LARGEURS
 10
    91.15
 20
    139.88
 30
    0.00
 11
    91.38
 21
    144.78
 31
    0.00
  0
LINE
  8
CHEMINEMENTS
 10
    90.18
 20
    144.81
 30
    0.00
 11
    89.05
 21
    154.46
 31
    0.00
  0
LINE
  8
LARGEURS
 10
    85.59
 20
    153.17
 30
    0.00
 11
    90.18
 21
    154.88
 31
    0.00
  0
LINE
  8
CONTOURS_LARGEURS
 10
    87.48
 20
    144.88
 30
    0.00
 11
    85.59
 21
    153.17
 31
    0.00
  0
LINE
  8
CONTOURS_LARGEURS
 10
    91.38
 20
    144.78
 30
    0.00
 11
    90.18
 21
    154.88
 31
    0.00
  0
LINE
  8
CHEMINEMENTS
 10
    89.05
 20
    154.46
 30
    0.00
 11
    85.55
 21
    159.62
 31
    0.00
  0
LINE
  8
LARGEURS
 10
    81.86
 20
    155.02
 30
    0.00
 11
    85.93
 21
    160.08
 31
    0.00
  0
LINE
  8
CONTOURS_LARGEURS
 10
    85.59
 20
    153.17
 30
    0.00
 11
    81.86
 21
    155.02
 31
    0.00
  0
LINE
  8
CONTOURS_LARGEURS
 10
    90.18
 20
    154.88
 30
    0.00
 11
    85.93
 21
    160.08
 31
    0.00
  0
LINE
  8
CHEMINEMENTS
 10
    85.55
 20
    159.62
 30
    0.00
 11
    76.72
 21
    163.15
 31
    0.00
  0
LINE
  8
LARGEURS
 10
    76.72
 20
    163.15
 30
    0.00
 11
    77.82
 21
    163.19
 31
    0.00
  0
LINE
  8
CONTOURS_LARGEURS
 10
    81.86
 20
    155.02
 30
    0.00
 11
    76.72
 21
    163.15
 31
    0.00
  0
LINE
  8
CONTOURS_LARGEURS
 10
    85.93
 20
    160.08
 30
    0.00
 11
    77.82
 21
    163.19
 31
    0.00
  0
LINE
  8
CHEMINEMENTS
 10
    76.72
 20
    163.15
 30
    0.00
 11
    78.25
 21
    163.91
 31
    0.00
  0
LINE
  8
LARGEURS
 10
    77.58
 20
    165.26
 30
    0.00
 11
    78.34
 21
    163.74
 31
    0.00
  0
LINE
  8
CONTOURS_LARGEURS
 10
    76.72
 20
    163.15
 30
    0.00
 11
    77.58
 21
    165.26
 31
    0.00
  0
LINE
  8
CONTOURS_LARGEURS
 10
    77.82
 20
    163.19
 30
    0.00
 11
    78.34
 21
    163.74
 31
    0.00
  0
LINE
  8
CONTOURS_LARGEURS
 10
    77.58
 20
    165.26
 30
    0.00
 11
    78.34
 21
    163.74
 31
    0.00
  0
LINE
  8
CHEMINEMENTS
 10
    76.72
 20
    163.15
 30
    0.00
 11
    79.55
 21
    159.65
 31
    0.00
  0
LINE
  8
LARGEURS
 10
    79.55
 20
    159.65
 30
    0.00
 11
    78.57
 21
    159.43
 31
    0.00
  0
LINE
  8
CONTOURS_LARGEURS
 10
    77.82
 20
    163.19
 30
    0.00
 11
    79.55
 21
    159.65
 31
    0.00
  0
LINE
  8
CONTOURS_LARGEURS
 10
    76.72
 20
    163.15
 30
    0.00
 11
    78.57
 21
    159.43
 31
    0.00
  0
LINE
  8
CHEMINEMENTS
 10
    79.55
 20
    159.65
 30
    0.00
 11
    78.09
 21
    154.02
 31
    0.00
  0
LINE
  8
LARGEURS
 10
    78.21
 20
    153.02
 30
    0.00
 11
    78.09
 21
    154.02
 31
    0.00
  0
LINE
  8
CONTOURS_LARGEURS
 10
    79.55
 20
    159.65
 30
    0.00
 11
    78.21
 21
    153.02
 31
    0.00
  0
LINE
  8
CONTOURS_LARGEURS
 10
    78.57
 20
    159.43
 30
    0.00
 11
    78.09
 21
    154.02
 31
    0.00
  0
LINE
  8
CHEMINEMENTS
 10
    78.09
 20
    154.02
 30
    0.00
 11
    73.46
 21
    162.81
 31
    0.00
  0
LINE
  8
LARGEURS
 10
    72.48
 20
    162.63
 30
    0.00
 11
    76.41
 21
    163.35
 31
    0.00
  0
LINE
  8
CONTOURS_LARGEURS
 10
    78.21
 20
    153.02
 30
    0.00
 11
    72.48
 21
    162.63
 31
    0.00
  0
LINE
  8
CONTOURS_LARGEURS
 10
    78.09
 20
    154.02
 30
    0.00
 11
    76.41
 21
    163.35
 31
    0.00
  0
LINE
  8
CHEMINEMENTS
 10
    73.46
 20
    162.81
 30
    0.00
 11
    74.06
 21
    167.75
 31
    0.00
  0
LINE
  8
LARGEURS
 10
    73.20
 20
    168.00
 30
    0.00
 11
    74.06
 21
    167.75
 31
    0.00
  0
LINE
  8
CONTOURS_LARGEURS
 10
    72.48
 20
    162.63
 30
    0.00
 11
    73.20
 21
    168.00
 31
    0.00
  0
LINE
  8
CONTOURS_LARGEURS
 10
    76.41
 20
    163.35
 30
    0.00
 11
    74.06
 21
    167.75
 31
    0.00
  0
LINE
  8
CHEMINEMENTS
 10
    74.06
 20
    167.75
 30
    0.00
 11
    74.82
 21
    169.41
 31
    0.00
  0
LINE
  8
LARGEURS
 10
    74.03
 20
    169.52
 30
    0.00
 11
    74.82
 21
    169.41
 31
    0.00
  0
LINE
  8
CONTOURS_LARGEURS
 10
    73.20
 20
    168.00
 30
    0.00
 11
    74.03
 21
    169.52
 31
    0.00
  0
LINE
  8
CONTOURS_LARGEURS
 10
    74.06
 20
    167.75
 30
    0.00
 11
    74.82
 21
    169.41
 31
    0.00
  0
LINE
  8
CHEMINEMENTS
 10
    74.82
 20
    169.41
 30
    0.00
 11
    74.48
 21
    171.92
 31
    0.00
  0
LINE
  8
LARGEURS
 10
    73.49
 20
    171.78
 30
    0.00
 11
    74.48
 21
    171.92
 31
    0.00
  0
LINE
  8
CONTOURS_LARGEURS
 10
    74.03
 20
    169.52
 30
    0.00
 11
    73.49
 21
    171.78
 31
    0.00
  0
LINE
  8
CONTOURS_LARGEURS
 10
    74.82
 20
    169.41
 30
    0.00
 11
    74.48
 21
    171.92
 31
    0.00
  0
LINE
  8
CONTOURS_LARGEURS
 10
    73.49
 20
    171.78
 30
    0.00
 11
    74.48
 21
    171.92
 31
    0.00
  0
LINE
  8
CHEMINEMENTS
 10
    79.55
 20
    159.65
 30
    0.00
 11
    78.35
 21
    158.44
 31
    0.00
  0
LINE
  8
LARGEURS
 10
    79.07
 20
    158.10
 30
    0.00
 11
    78.35
 21
    158.44
 31
    0.00
  0
LINE
  8
CONTOURS_LARGEURS
 10
    79.55
 20
    159.65
 30
    0.00
 11
    79.07
 21
    158.10
 31
    0.00
  0
LINE
  8
CONTOURS_LARGEURS
 10
    78.57
 20
    159.43
 30
    0.00
 11
    78.35
 21
    158.44
 31
    0.00
  0
LINE
  8
CHEMINEMENTS
 10
    78.35
 20
    158.44
 30
    0.00
 11
    78.18
 21
    156.78
 31
    0.00
  0
LINE
  8
LARGEURS
 10
    79.10
 20
    155.35
 30
    0.00
 11
    77.26
 21
    158.21
 31
    0.00
  0
LINE
  8
CONTOURS_LARGEURS
 10
    79.07
 20
    158.10
 30
    0.00
 11
    79.10
 21
    155.35
 31
    0.00
  0
LINE
  8
CONTOURS_LARGEURS
 10
    78.35
 20
    158.44
 30
    0.00
 11
    77.26
 21
    158.21
 31
    0.00
  0
LINE
  8
CHEMINEMENTS
 10
    78.18
 20
    156.78
 30
    0.00
 11
    67.60
 21
    160.35
 31
    0.00
  0
LINE
  8
LARGEURS
 10
    68.04
 20
    158.19
 30
    0.00
 11
    67.60
 21
    160.35
 31
    0.00
  0
LINE
  8
CONTOURS_LARGEURS
 10
    79.10
 20
    155.35
 30
    0.00
 11
    68.04
 21
    158.19
 31
    0.00
  0
LINE
  8
CONTOURS_LARGEURS
 10
    77.26
 20
    158.21
 30
    0.00
 11
    67.60
 21
    160.35
 31
    0.00
  0
LINE
  8
CHEMINEMENTS
 10
    67.60
 20
    160.35
 30
    0.00
 11
    60.43
 21
    153.97
 31
    0.00
  0
LINE
  8
LARGEURS
 10
    62.43
 20
    151.73
 30
    0.00
 11
    57.11
 21
    157.71
 31
    0.00
  0
LINE
  8
CONTOURS_LARGEURS
 10
    68.04
 20
    158.19
 30
    0.00
 11
    62.43
 21
    151.73
 31
    0.00
  0
LINE
  8
CONTOURS_LARGEURS
 10
    67.60
 20
    160.35
 30
    0.00
 11
    57.11
 21
    157.71
 31
    0.00
  0
LINE
  8
CONTOURS_LARGEURS
 10
    62.43
 20
    151.73
 30
    0.00
 11
    57.11
 21
    157.71
 31
    0.00
  0
LINE
  8
CHEMINEMENTS
 10
    78.18
 20
    156.78
 30
    0.00
 11
    82.23
 21
    154.78
 31
    0.00
  0
LINE
  8
LARGEURS
 10
    81.78
 20
    156.52
 30
    0.00
 11
    82.23
 21
    154.78
 31
    0.00
  0
LINE
  8
CONTOURS_LARGEURS
 10
    77.26
 20
    158.21
 30
    0.00
 11
    81.78
 21
    156.52
 31
    0.00
  0
LINE
  8
CONTOURS_LARGEURS
 10
    79.10
 20
    155.35
 30
    0.00
 11
    82.23
 21
    154.78
 31
    0.00
  0
LINE
  8
CHEMINEMENTS
 10
    82.23
 20
    154.78
 30
    0.00
 11
    85.55
 21
    159.62
 31
    0.00
  0
LINE
  8
LARGEURS
 10
    85.55
 20
    159.62
 30
    0.00
 11
    85.55
 21
    159.62
 31
    0.00
  0
LINE
  8
CONTOURS_LARGEURS
 10
    81.78
 20
    156.52
 30
    0.00
 11
    85.55
 21
    159.62
 31
    0.00
  0
LINE
  8
CONTOURS_LARGEURS
 10
    82.23
 20
    154.78
 30
    0.00
 11
    85.55
 21
    159.62
 31
    0.00
  0
LINE
  8
CONTOURS_LARGEURS
 10
    85.55
 20
    159.62
 30
    0.00
 11
    85.55
 21
    159.62
 31
    0.00
  0
LINE
  8
CHEMINEMENTS
 10
    103.88
 20
    105.18
 30
    0.00
 11
    114.46
 21
    105.51
 31
    0.00
  0
LINE
  8
LARGEURS
 10
    112.57
 20
    107.57
 30
    0.00
 11
    114.66
 21
    105.28
 31
    0.00
  0
LINE
  8
CONTOURS_LARGEURS
 10
    101.31
 20
    106.14
 30
    0.00
 11
    112.57
 21
    107.57
 31
    0.00
  0
LINE
  8
CONTOURS_LARGEURS
 10
    108.38
 20
    103.49
 30
    0.00
 11
    114.66
 21
    105.28
 31
    0.00
  0
LINE
  8
CHEMINEMENTS
 10
    114.46
 20
    105.51
 30
    0.00
 11
    114.74
 21
    107.81
 31
    0.00
  0
LINE
  8
LARGEURS
 10
    113.63
 20
    108.10
 30
    0.00
 11
    114.74
 21
    107.81
 31
    0.00
  0
LINE
  8
CONTOURS_LARGEURS
 10
    112.57
 20
    107.57
 30
    0.00
 11
    113.63
 21
    108.10
 31
    0.00
  0
LINE
  8
CONTOURS_LARGEURS
 10
    114.66
 20
    105.28
 30
    0.00
 11
    114.74
 21
    107.81
 31
    0.00
  0
LINE
  8
CHEMINEMENTS
 10
    114.74
 20
    107.81
 30
    0.00
 11
    118.35
 21
    116.42
 31
    0.00
  0
LINE
  8
LARGEURS
 10
    117.76
 20
    116.57
 30
    0.00
 11
    119.02
 21
    116.25
 31
    0.00
  0
LINE
  8
CONTOURS_LARGEURS
 10
    113.63
 20
    108.10
 30
    0.00
 11
    117.76
 21
    116.57
 31
    0.00
  0
LINE
  8
CONTOURS_LARGEURS
 10
    114.74
 20
    107.81
 30
    0.00
 11
    119.02
 21
    116.25
 31
    0.00
  0
LINE
  8
CHEMINEMENTS
 10
    118.35
 20
    116.42
 30
    0.00
 11
    118.57
 21
    118.65
 31
    0.00
  0
LINE
  8
LARGEURS
 10
    117.92
 20
    118.91
 30
    0.00
 11
    119.13
 21
    118.43
 31
    0.00
  0
LINE
  8
CONTOURS_LARGEURS
 10
    117.76
 20
    116.57
 30
    0.00
 11
    117.92
 21
    118.91
 31
    0.00
  0
LINE
  8
CONTOURS_LARGEURS
 10
    119.02
 20
    116.25
 30
    0.00
 11
    119.13
 21
    118.43
 31
    0.00
  0
LINE
  8
CHEMINEMENTS
 10
    118.57
 20
    118.65
 30
    0.00
 11
    126.65
 21
    128.96
 31
    0.00
  0
LINE
  8
LARGEURS
 10
    125.83
 20
    129.53
 30
    0.00
 11
    127.31
 21
    128.50
 31
    0.00
  0
LINE
  8
CONTOURS_LARGEURS
 10
    117.92
 20
    118.91
 30
    0.00
 11
    125.83
 21
    129.53
 31
    0.00
  0
LINE
  8
CONTOURS_LARGEURS
 10
    119.13
 20
    118.43
 30
    0.00
 11
    127.31
 21
    128.50
 31
    0.00
  0
LINE
  8
CHEMINEMENTS
 10
    126.65
 20
    128.96
 30
    0.00
 11
    129.83
 21
    134.13
 31
    0.00
  0
LINE
  8
LARGEURS
 10
    125.00
 20
    135.41
 30
    0.00
 11
    130.80
 21
    133.88
 31
    0.00
  0
LINE
  8
CONTOURS_LARGEURS
 10
    125.83
 20
    129.53
 30
    0.00
 11
    125.00
 21
    135.41
 31
    0.00
  0
LINE
  8
CONTOURS_LARGEURS
 10
    127.31
 20
    128.50
 30
    0.00
 11
    130.80
 21
    133.88
 31
    0.00
  0
LINE
  8
CHEMINEMENTS
 10
    129.83
 20
    134.13
 30
    0.00
 11
    129.03
 21
    156.61
 31
    0.00
  0
LINE
  8
LARGEURS
 10
    125.03
 20
    156.47
 30
    0.00
 11
    131.83
 21
    156.71
 31
    0.00
  0
LINE
  8
CONTOURS_LARGEURS
 10
    125.00
 20
    135.41
 30
    0.00
 11
    125.03
 21
    156.47
 31
    0.00
  0
LINE
  8
CONTOURS_LARGEURS
 10
    130.80
 20
    133.88
 30
    0.00
 11
    131.83
 21
    156.71
 31
    0.00
  0
LINE
  8
CONTOURS_LARGEURS
 10
    125.03
 20
    156.47
 30
    0.00
 11
    131.83
 21
    156.71
 31
    0.00
  0
TEXT
  8
ECHELLE
 10
    0.00
 20
    -12.89
 30
    0.00
 40
    4.3
  1
0
  0
TEXT
  8
ECHELLE
 10
    56.45
 20
    -12.89
 30
    0.00
 40
    4.3
  1
50 m
  0
LINE
  8
ECHELLE
 10
    4.30
 20
    -8.60
 30
    0.00
 11
    54.30
 21
    -8.60
 31
    0.00
  0
LINE
  8
ECHELLE
 10
    54.30
 20
    -8.60
 30
    0.00
 11
    54.30
 21
    -12.89
 31
    0.00
  0
LINE
  8
ECHELLE
 10
    54.30
 20
    -12.89
 30
    0.00
 11
    4.30
 21
    -12.89
 31
    0.00
  0
LINE
  8
ECHELLE
 10
    4.30
 20
    -12.89
 30
    0.00
 11
    4.30
 21
    -8.60
 31
    0.00
  0
SOLID
  8
ECHELLE
 10
    4.30
 20
    -8.60
 30
    0.00
 11
    9.30
 21
    -8.60
 31
    0.00
 12
    4.30
 22
    -10.74
 32
    0.00
 13
    9.30
 23
    -10.74
 33
    0.00
  0
SOLID
  8
ECHELLE
 10
    9.30
 20
    -10.74
 30
    0.00
 11
    14.30
 21
    -10.74
 31
    0.00
 12
    9.30
 22
    -12.89
 32
    0.00
 13
    14.30
 23
    -12.89
 33
    0.00
  0
SOLID
  8
ECHELLE
 10
    14.30
 20
    -8.60
 30
    0.00
 11
    19.30
 21
    -8.60
 31
    0.00
 12
    14.30
 22
    -10.74
 32
    0.00
 13
    19.30
 23
    -10.74
 33
    0.00
  0
SOLID
  8
ECHELLE
 10
    19.30
 20
    -10.74
 30
    0.00
 11
    24.30
 21
    -10.74
 31
    0.00
 12
    19.30
 22
    -12.89
 32
    0.00
 13
    24.30
 23
    -12.89
 33
    0.00
  0
SOLID
  8
ECHELLE
 10
    24.30
 20
    -8.60
 30
    0.00
 11
    29.30
 21
    -8.60
 31
    0.00
 12
    24.30
 22
    -10.74
 32
    0.00
 13
    29.30
 23
    -10.74
 33
    0.00
  0
SOLID
  8
ECHELLE
 10
    29.30
 20
    -10.74
 30
    0.00
 11
    54.30
 21
    -10.74
 31
    0.00
 12
    29.30
 22
    -12.89
 32
    0.00
 13
    54.30
 23
    -12.89
 33
    0.00
  0
ENDSEC
  0
EOF
