  0
SECTION
  2
HEADER
  9
$ACADVER
  1
AC1006
  0
ENDSEC
  0
SECTION
  2
TABLES
  0
TABLE
  2
LAYER
  0
LAYER
  2
CHEMINEMENTS
 70
    64
 62
    1
  6
CONTINUOUS
  0
LAYER
  2
RADIALES
 70
    64
 62
    9
  6
CONTINUOUS
  0
LAYER
  2
HAUTEURS
 70
    64
 62
    4
  6
CONTINUOUS
  0
LAYER
  2
CONTOURS_HAUTEURS
 70
    64
 62
    3
  6
CONTINUOUS
  0
LAYER
  2
ECHELLE
 70
    64
 62
    7
  6
CONTINUOUS
  0
ENDTAB
  0
ENDSEC
  0
SECTION
  2
ENTITIES
  0
LINE
  8
CHEMINEMENTS
 10
    0.00
 20
    0.00
 30
    0.00
 11
    0.00
 21
    0.00
 31
    0.00
  0
LINE
  8
HAUTEURS
 10
    0.00
 20
    0.00
 30
    0.00
 11
    0.00
 21
    0.00
 31
    0.00
  0
LINE
  8
CONTOURS_HAUTEURS
 10
    0.00
 20
    0.00
 30
    0.00
 11
    0.00
 21
    0.00
 31
    0.00
  0
LINE
  8
CONTOURS_HAUTEURS
 10
    0.00
 20
    0.00
 30
    0.00
 11
    0.00
 21
    0.00
 31
    0.00
  0
LINE
  8
CHEMINEMENTS
 10
    0.00
 20
    0.00
 30
    0.00
 11
    11.61
 21
    -9.50
 31
    0.00
  0
LINE
  8
HAUTEURS
 10
    11.61
 20
    -10.50
 30
    0.00
 11
    11.61
 21
    -9.50
 31
    0.00
  0
LINE
  8
CONTOURS_HAUTEURS
 10
    0.00
 20
    0.00
 30
    0.00
 11
    11.61
 21
    -10.50
 31
    0.00
  0
LINE
  8
CONTOURS_HAUTEURS
 10
    0.00
 20
    0.00
 30
    0.00
 11
    11.61
 21
    -9.50
 31
    0.00
  0
LINE
  8
CHEMINEMENTS
 10
    11.61
 20
    -9.50
 30
    0.00
 11
    15.67
 21
    -15.20
 31
    0.00
  0
LINE
  8
HAUTEURS
 10
    15.67
 20
    -15.20
 30
    0.00
 11
    15.67
 21
    -13.20
 31
    0.00
  0
LINE
  8
CONTOURS_HAUTEURS
 10
    11.61
 20
    -10.50
 30
    0.00
 11
    15.67
 21
    -15.20
 31
    0.00
  0
LINE
  8
CONTOURS_HAUTEURS
 10
    11.61
 20
    -9.50
 30
    0.00
 11
    15.67
 21
    -13.20
 31
    0.00
  0
LINE
  8
CHEMINEMENTS
 10
    15.67
 20
    -15.20
 30
    0.00
 11
    21.84
 21
    -18.50
 31
    0.00
  0
LINE
  8
HAUTEURS
 10
    21.84
 20
    -18.50
 30
    0.00
 11
    21.84
 21
    -16.50
 31
    0.00
  0
LINE
  8
CONTOURS_HAUTEURS
 10
    15.67
 20
    -15.20
 30
    0.00
 11
    21.84
 21
    -18.50
 31
    0.00
  0
LINE
  8
CONTOURS_HAUTEURS
 10
    15.67
 20
    -13.20
 30
    0.00
 11
    21.84
 21
    -16.50
 31
    0.00
  0
LINE
  8
CHEMINEMENTS
 10
    21.84
 20
    -18.50
 30
    0.00
 11
    39.39
 21
    -25.80
 31
    0.00
  0
LINE
  8
HAUTEURS
 10
    39.39
 20
    -25.80
 30
    0.00
 11
    39.39
 21
    -23.80
 31
    0.00
  0
LINE
  8
CONTOURS_HAUTEURS
 10
    21.84
 20
    -18.50
 30
    0.00
 11
    39.39
 21
    -25.80
 31
    0.00
  0
LINE
  8
CONTOURS_HAUTEURS
 10
    21.84
 20
    -16.50
 30
    0.00
 11
    39.39
 21
    -23.80
 31
    0.00
  0
LINE
  8
CHEMINEMENTS
 10
    39.39
 20
    -25.80
 30
    0.00
 11
    55.16
 21
    -38.10
 31
    0.00
  0
LINE
  8
HAUTEURS
 10
    55.16
 20
    -39.10
 30
    0.00
 11
    55.16
 21
    -37.10
 31
    0.00
  0
LINE
  8
CONTOURS_HAUTEURS
 10
    39.39
 20
    -25.80
 30
    0.00
 11
    55.16
 21
    -39.10
 31
    0.00
  0
LINE
  8
CONTOURS_HAUTEURS
 10
    39.39
 20
    -23.80
 30
    0.00
 11
    55.16
 21
    -37.10
 31
    0.00
  0
LINE
  8
CHEMINEMENTS
 10
    55.16
 20
    -38.10
 30
    0.00
 11
    72.94
 21
    -31.40
 31
    0.00
  0
LINE
  8
HAUTEURS
 10
    72.94
 20
    -31.40
 30
    0.00
 11
    72.94
 21
    -29.40
 31
    0.00
  0
LINE
  8
CONTOURS_HAUTEURS
 10
    55.16
 20
    -39.10
 30
    0.00
 11
    72.94
 21
    -31.40
 31
    0.00
  0
LINE
  8
CONTOURS_HAUTEURS
 10
    55.16
 20
    -37.10
 30
    0.00
 11
    72.94
 21
    -29.40
 31
    0.00
  0
LINE
  8
CHEMINEMENTS
 10
    72.94
 20
    -31.40
 30
    0.00
 11
    82.02
 21
    -25.20
 31
    0.00
  0
LINE
  8
HAUTEURS
 10
    82.02
 20
    -25.20
 30
    0.00
 11
    82.02
 21
    -23.20
 31
    0.00
  0
LINE
  8
CONTOURS_HAUTEURS
 10
    72.94
 20
    -31.40
 30
    0.00
 11
    82.02
 21
    -25.20
 31
    0.00
  0
LINE
  8
CONTOURS_HAUTEURS
 10
    72.94
 20
    -29.40
 30
    0.00
 11
    82.02
 21
    -23.20
 31
    0.00
  0
LINE
  8
CHEMINEMENTS
 10
    82.02
 20
    -25.20
 30
    0.00
 11
    93.90
 21
    -23.50
 31
    0.00
  0
LINE
  8
HAUTEURS
 10
    93.90
 20
    -23.50
 30
    0.00
 11
    93.90
 21
    -21.50
 31
    0.00
  0
LINE
  8
CONTOURS_HAUTEURS
 10
    82.02
 20
    -25.20
 30
    0.00
 11
    93.90
 21
    -23.50
 31
    0.00
  0
LINE
  8
CONTOURS_HAUTEURS
 10
    82.02
 20
    -23.20
 30
    0.00
 11
    93.90
 21
    -21.50
 31
    0.00
  0
LINE
  8
CHEMINEMENTS
 10
    93.90
 20
    -23.50
 30
    0.00
 11
    105.25
 21
    -19.60
 31
    0.00
  0
LINE
  8
HAUTEURS
 10
    105.25
 20
    -19.60
 30
    0.00
 11
    105.25
 21
    -17.60
 31
    0.00
  0
LINE
  8
CONTOURS_HAUTEURS
 10
    93.90
 20
    -23.50
 30
    0.00
 11
    105.25
 21
    -19.60
 31
    0.00
  0
LINE
  8
CONTOURS_HAUTEURS
 10
    93.90
 20
    -21.50
 30
    0.00
 11
    105.25
 21
    -17.60
 31
    0.00
  0
LINE
  8
CHEMINEMENTS
 10
    105.25
 20
    -19.60
 30
    0.00
 11
    114.70
 21
    -12.20
 31
    0.00
  0
LINE
  8
HAUTEURS
 10
    114.70
 20
    -12.20
 30
    0.00
 11
    114.70
 21
    -10.20
 31
    0.00
  0
LINE
  8
CONTOURS_HAUTEURS
 10
    105.25
 20
    -19.60
 30
    0.00
 11
    114.70
 21
    -12.20
 31
    0.00
  0
LINE
  8
CONTOURS_HAUTEURS
 10
    105.25
 20
    -17.60
 30
    0.00
 11
    114.70
 21
    -10.20
 31
    0.00
  0
LINE
  8
CHEMINEMENTS
 10
    114.70
 20
    -12.20
 30
    0.00
 11
    120.78
 21
    -7.00
 31
    0.00
  0
LINE
  8
HAUTEURS
 10
    120.78
 20
    -7.00
 30
    0.00
 11
    120.78
 21
    -5.00
 31
    0.00
  0
LINE
  8
CONTOURS_HAUTEURS
 10
    114.70
 20
    -12.20
 30
    0.00
 11
    120.78
 21
    -7.00
 31
    0.00
  0
LINE
  8
CONTOURS_HAUTEURS
 10
    114.70
 20
    -10.20
 30
    0.00
 11
    120.78
 21
    -5.00
 31
    0.00
  0
LINE
  8
CHEMINEMENTS
 10
    120.78
 20
    -7.00
 30
    0.00
 11
    126.78
 21
    -3.40
 31
    0.00
  0
LINE
  8
HAUTEURS
 10
    126.78
 20
    -3.40
 30
    0.00
 11
    126.78
 21
    -2.40
 31
    0.00
  0
LINE
  8
CONTOURS_HAUTEURS
 10
    120.78
 20
    -7.00
 30
    0.00
 11
    126.78
 21
    -3.40
 31
    0.00
  0
LINE
  8
CONTOURS_HAUTEURS
 10
    120.78
 20
    -5.00
 30
    0.00
 11
    126.78
 21
    -2.40
 31
    0.00
  0
LINE
  8
CHEMINEMENTS
 10
    126.78
 20
    -3.40
 30
    0.00
 11
    136.49
 21
    -1.00
 31
    0.00
  0
LINE
  8
HAUTEURS
 10
    136.49
 20
    -1.00
 30
    0.00
 11
    136.49
 21
    0.00
 31
    0.00
  0
LINE
  8
CONTOURS_HAUTEURS
 10
    126.78
 20
    -3.40
 30
    0.00
 11
    136.49
 21
    -1.00
 31
    0.00
  0
LINE
  8
CONTOURS_HAUTEURS
 10
    126.78
 20
    -2.40
 30
    0.00
 11
    136.49
 21
    0.00
 31
    0.00
  0
LINE
  8
CHEMINEMENTS
 10
    136.49
 20
    -1.00
 30
    0.00
 11
    139.49
 21
    -1.00
 31
    0.00
  0
LINE
  8
HAUTEURS
 10
    139.49
 20
    -1.00
 30
    0.00
 11
    139.49
 21
    0.00
 31
    0.00
  0
LINE
  8
CONTOURS_HAUTEURS
 10
    136.49
 20
    -1.00
 30
    0.00
 11
    139.49
 21
    -1.00
 31
    0.00
  0
LINE
  8
CONTOURS_HAUTEURS
 10
    136.49
 20
    0.00
 30
    0.00
 11
    139.49
 21
    0.00
 31
    0.00
  0
LINE
  8
CHEMINEMENTS
 10
    139.49
 20
    -1.00
 30
    0.00
 11
    149.44
 21
    0.00
 31
    0.00
  0
LINE
  8
HAUTEURS
 10
    149.44
 20
    0.00
 30
    0.00
 11
    149.44
 21
    1.50
 31
    0.00
  0
LINE
  8
CONTOURS_HAUTEURS
 10
    139.49
 20
    -1.00
 30
    0.00
 11
    149.44
 21
    0.00
 31
    0.00
  0
LINE
  8
CONTOURS_HAUTEURS
 10
    139.49
 20
    0.00
 30
    0.00
 11
    149.44
 21
    1.50
 31
    0.00
  0
LINE
  8
CHEMINEMENTS
 10
    149.44
 20
    0.00
 30
    0.00
 11
    160.16
 21
    3.19
 31
    0.00
  0
LINE
  8
HAUTEURS
 10
    160.16
 20
    2.39
 30
    0.00
 11
    160.16
 21
    6.79
 31
    0.00
  0
LINE
  8
CONTOURS_HAUTEURS
 10
    149.44
 20
    0.00
 30
    0.00
 11
    160.16
 21
    2.39
 31
    0.00
  0
LINE
  8
CONTOURS_HAUTEURS
 10
    149.44
 20
    1.50
 30
    0.00
 11
    160.16
 21
    6.79
 31
    0.00
  0
LINE
  8
CHEMINEMENTS
 10
    160.16
 20
    3.19
 30
    0.00
 11
    171.75
 21
    5.34
 31
    0.00
  0
LINE
  8
HAUTEURS
 10
    171.75
 20
    4.44
 30
    0.00
 11
    171.75
 21
    6.24
 31
    0.00
  0
LINE
  8
CONTOURS_HAUTEURS
 10
    160.16
 20
    2.39
 30
    0.00
 11
    171.75
 21
    4.44
 31
    0.00
  0
LINE
  8
CONTOURS_HAUTEURS
 10
    160.16
 20
    6.79
 30
    0.00
 11
    171.75
 21
    6.24
 31
    0.00
  0
LINE
  8
CHEMINEMENTS
 10
    171.75
 20
    5.34
 30
    0.00
 11
    189.28
 21
    4.49
 31
    0.00
  0
LINE
  8
HAUTEURS
 10
    189.28
 20
    3.29
 30
    0.00
 11
    189.28
 21
    4.89
 31
    0.00
  0
LINE
  8
CONTOURS_HAUTEURS
 10
    171.75
 20
    4.44
 30
    0.00
 11
    189.28
 21
    3.29
 31
    0.00
  0
LINE
  8
CONTOURS_HAUTEURS
 10
    171.75
 20
    6.24
 30
    0.00
 11
    189.28
 21
    4.89
 31
    0.00
  0
LINE
  8
CHEMINEMENTS
 10
    189.28
 20
    4.49
 30
    0.00
 11
    198.78
 21
    6.05
 31
    0.00
  0
LINE
  8
HAUTEURS
 10
    198.78
 20
    5.35
 30
    0.00
 11
    198.78
 21
    6.65
 31
    0.00
  0
LINE
  8
CONTOURS_HAUTEURS
 10
    189.28
 20
    3.29
 30
    0.00
 11
    198.78
 21
    5.35
 31
    0.00
  0
LINE
  8
CONTOURS_HAUTEURS
 10
    189.28
 20
    4.89
 30
    0.00
 11
    198.78
 21
    6.65
 31
    0.00
  0
LINE
  8
CHEMINEMENTS
 10
    198.78
 20
    6.05
 30
    0.00
 11
    204.25
 21
    8.17
 31
    0.00
  0
LINE
  8
HAUTEURS
 10
    204.25
 20
    8.17
 30
    0.00
 11
    204.25
 21
    8.87
 31
    0.00
  0
LINE
  8
CONTOURS_HAUTEURS
 10
    198.78
 20
    5.35
 30
    0.00
 11
    204.25
 21
    8.17
 31
    0.00
  0
LINE
  8
CONTOURS_HAUTEURS
 10
    198.78
 20
    6.65
 30
    0.00
 11
    204.25
 21
    8.87
 31
    0.00
  0
LINE
  8
CHEMINEMENTS
 10
    204.25
 20
    8.17
 30
    0.00
 11
    213.97
 21
    14.76
 31
    0.00
  0
LINE
  8
HAUTEURS
 10
    213.97
 20
    14.16
 30
    0.00
 11
    213.97
 21
    14.76
 31
    0.00
  0
LINE
  8
CONTOURS_HAUTEURS
 10
    204.25
 20
    8.17
 30
    0.00
 11
    213.97
 21
    14.16
 31
    0.00
  0
LINE
  8
CONTOURS_HAUTEURS
 10
    204.25
 20
    8.87
 30
    0.00
 11
    213.97
 21
    14.76
 31
    0.00
  0
LINE
  8
CHEMINEMENTS
 10
    213.97
 20
    14.76
 30
    0.00
 11
    220.20
 21
    17.75
 31
    0.00
  0
LINE
  8
HAUTEURS
 10
    220.20
 20
    16.95
 30
    0.00
 11
    220.20
 21
    17.85
 31
    0.00
  0
LINE
  8
CONTOURS_HAUTEURS
 10
    213.97
 20
    14.16
 30
    0.00
 11
    220.20
 21
    16.95
 31
    0.00
  0
LINE
  8
CONTOURS_HAUTEURS
 10
    213.97
 20
    14.76
 30
    0.00
 11
    220.20
 21
    17.85
 31
    0.00
  0
LINE
  8
CHEMINEMENTS
 10
    220.20
 20
    17.75
 30
    0.00
 11
    229.61
 21
    19.03
 31
    0.00
  0
LINE
  8
HAUTEURS
 10
    229.61
 20
    17.73
 30
    0.00
 11
    229.61
 21
    20.33
 31
    0.00
  0
LINE
  8
CONTOURS_HAUTEURS
 10
    220.20
 20
    16.95
 30
    0.00
 11
    229.61
 21
    17.73
 31
    0.00
  0
LINE
  8
CONTOURS_HAUTEURS
 10
    220.20
 20
    17.85
 30
    0.00
 11
    229.61
 21
    20.33
 31
    0.00
  0
LINE
  8
CHEMINEMENTS
 10
    229.61
 20
    19.03
 30
    0.00
 11
    231.32
 21
    24.63
 31
    0.00
  0
LINE
  8
HAUTEURS
 10
    231.32
 20
    22.63
 30
    0.00
 11
    231.32
 21
    26.63
 31
    0.00
  0
LINE
  8
CONTOURS_HAUTEURS
 10
    229.61
 20
    17.73
 30
    0.00
 11
    231.32
 21
    22.63
 31
    0.00
  0
LINE
  8
CONTOURS_HAUTEURS
 10
    229.61
 20
    20.33
 30
    0.00
 11
    231.32
 21
    26.63
 31
    0.00
  0
LINE
  8
CONTOURS_HAUTEURS
 10
    231.32
 20
    22.63
 30
    0.00
 11
    231.32
 21
    26.63
 31
    0.00
  0
LINE
  8
CHEMINEMENTS
 10
    229.61
 20
    19.03
 30
    0.00
 11
    234.20
 21
    18.73
 31
    0.00
  0
LINE
  8
HAUTEURS
 10
    234.20
 20
    17.53
 30
    0.00
 11
    234.20
 21
    21.03
 31
    0.00
  0
LINE
  8
CONTOURS_HAUTEURS
 10
    229.61
 20
    17.73
 30
    0.00
 11
    234.20
 21
    17.53
 31
    0.00
  0
LINE
  8
CONTOURS_HAUTEURS
 10
    229.61
 20
    20.33
 30
    0.00
 11
    234.20
 21
    21.03
 31
    0.00
  0
LINE
  8
CHEMINEMENTS
 10
    234.20
 20
    18.73
 30
    0.00
 11
    240.02
 21
    22.44
 31
    0.00
  0
LINE
  8
HAUTEURS
 10
    240.02
 20
    20.44
 30
    0.00
 11
    240.02
 21
    23.94
 31
    0.00
  0
LINE
  8
CONTOURS_HAUTEURS
 10
    234.20
 20
    17.53
 30
    0.00
 11
    240.02
 21
    20.44
 31
    0.00
  0
LINE
  8
CONTOURS_HAUTEURS
 10
    234.20
 20
    21.03
 30
    0.00
 11
    240.02
 21
    23.94
 31
    0.00
  0
LINE
  8
CHEMINEMENTS
 10
    240.02
 20
    22.44
 30
    0.00
 11
    249.96
 21
    28.30
 31
    0.00
  0
LINE
  8
HAUTEURS
 10
    249.96
 20
    28.30
 30
    0.00
 11
    249.96
 21
    41.30
 31
    0.00
  0
LINE
  8
CONTOURS_HAUTEURS
 10
    240.02
 20
    20.44
 30
    0.00
 11
    249.96
 21
    28.30
 31
    0.00
  0
LINE
  8
CONTOURS_HAUTEURS
 10
    240.02
 20
    23.94
 30
    0.00
 11
    249.96
 21
    41.30
 31
    0.00
  0
LINE
  8
CHEMINEMENTS
 10
    249.96
 20
    28.30
 30
    0.00
 11
    254.94
 21
    32.29
 31
    0.00
  0
LINE
  8
HAUTEURS
 10
    254.94
 20
    30.89
 30
    0.00
 11
    254.94
 21
    34.29
 31
    0.00
  0
LINE
  8
CONTOURS_HAUTEURS
 10
    249.96
 20
    28.30
 30
    0.00
 11
    254.94
 21
    30.89
 31
    0.00
  0
LINE
  8
CONTOURS_HAUTEURS
 10
    249.96
 20
    41.30
 30
    0.00
 11
    254.94
 21
    34.29
 31
    0.00
  0
LINE
  8
CHEMINEMENTS
 10
    254.94
 20
    32.29
 30
    0.00
 11
    256.76
 21
    36.42
 31
    0.00
  0
LINE
  8
HAUTEURS
 10
    256.76
 20
    35.42
 30
    0.00
 11
    256.76
 21
    39.42
 31
    0.00
  0
LINE
  8
CONTOURS_HAUTEURS
 10
    254.94
 20
    30.89
 30
    0.00
 11
    256.76
 21
    35.42
 31
    0.00
  0
LINE
  8
CONTOURS_HAUTEURS
 10
    254.94
 20
    34.29
 30
    0.00
 11
    256.76
 21
    39.42
 31
    0.00
  0
LINE
  8
CHEMINEMENTS
 10
    256.76
 20
    36.42
 30
    0.00
 11
    259.29
 21
    39.96
 31
    0.00
  0
LINE
  8
HAUTEURS
 10
    259.29
 20
    38.46
 30
    0.00
 11
    259.29
 21
    40.96
 31
    0.00
  0
LINE
  8
CONTOURS_HAUTEURS
 10
    256.76
 20
    35.42
 30
    0.00
 11
    259.29
 21
    38.46
 31
    0.00
  0
LINE
  8
CONTOURS_HAUTEURS
 10
    256.76
 20
    39.42
 30
    0.00
 11
    259.29
 21
    40.96
 31
    0.00
  0
LINE
  8
CONTOURS_HAUTEURS
 10
    259.29
 20
    38.46
 30
    0.00
 11
    259.29
 21
    40.96
 31
    0.00
  0
LINE
  8
CHEMINEMENTS
 10
    234.20
 20
    18.73
 30
    0.00
 11
    235.94
 21
    14.96
 31
    0.00
  0
LINE
  8
HAUTEURS
 10
    235.94
 20
    13.86
 30
    0.00
 11
    235.94
 21
    15.56
 31
    0.00
  0
LINE
  8
CONTOURS_HAUTEURS
 10
    234.20
 20
    17.53
 30
    0.00
 11
    235.94
 21
    13.86
 31
    0.00
  0
LINE
  8
CONTOURS_HAUTEURS
 10
    234.20
 20
    21.03
 30
    0.00
 11
    235.94
 21
    15.56
 31
    0.00
  0
LINE
  8
CHEMINEMENTS
 10
    235.94
 20
    14.96
 30
    0.00
 11
    237.65
 21
    12.72
 31
    0.00
  0
LINE
  8
HAUTEURS
 10
    237.65
 20
    12.42
 30
    0.00
 11
    237.65
 21
    14.42
 31
    0.00
  0
LINE
  8
CONTOURS_HAUTEURS
 10
    235.94
 20
    13.86
 30
    0.00
 11
    237.65
 21
    12.42
 31
    0.00
  0
LINE
  8
CONTOURS_HAUTEURS
 10
    235.94
 20
    15.56
 30
    0.00
 11
    237.65
 21
    14.42
 31
    0.00
  0
LINE
  8
CHEMINEMENTS
 10
    237.65
 20
    12.72
 30
    0.00
 11
    248.81
 21
    13.08
 31
    0.00
  0
LINE
  8
HAUTEURS
 10
    248.81
 20
    11.38
 30
    0.00
 11
    248.81
 21
    13.98
 31
    0.00
  0
LINE
  8
CONTOURS_HAUTEURS
 10
    237.65
 20
    12.42
 30
    0.00
 11
    248.81
 21
    11.38
 31
    0.00
  0
LINE
  8
CONTOURS_HAUTEURS
 10
    237.65
 20
    14.42
 30
    0.00
 11
    248.81
 21
    13.98
 31
    0.00
  0
LINE
  8
CHEMINEMENTS
 10
    248.81
 20
    13.08
 30
    0.00
 11
    258.41
 21
    0.31
 31
    0.00
  0
LINE
  8
HAUTEURS
 10
    258.41
 20
    -0.69
 30
    0.00
 11
    258.41
 21
    1.31
 31
    0.00
  0
LINE
  8
CONTOURS_HAUTEURS
 10
    248.81
 20
    11.38
 30
    0.00
 11
    258.41
 21
    -0.69
 31
    0.00
  0
LINE
  8
CONTOURS_HAUTEURS
 10
    248.81
 20
    13.98
 30
    0.00
 11
    258.41
 21
    1.31
 31
    0.00
  0
LINE
  8
CONTOURS_HAUTEURS
 10
    258.41
 20
    -0.69
 30
    0.00
 11
    258.41
 21
    1.31
 31
    0.00
  0
LINE
  8
CHEMINEMENTS
 10
    237.65
 20
    12.72
 30
    0.00
 11
    242.23
 21
    16.40
 31
    0.00
  0
LINE
  8
HAUTEURS
 10
    242.23
 20
    15.90
 30
    0.00
 11
    242.23
 21
    17.30
 31
    0.00
  0
LINE
  8
CONTOURS_HAUTEURS
 10
    237.65
 20
    12.42
 30
    0.00
 11
    242.23
 21
    15.90
 31
    0.00
  0
LINE
  8
CONTOURS_HAUTEURS
 10
    237.65
 20
    14.42
 30
    0.00
 11
    242.23
 21
    17.30
 31
    0.00
  0
LINE
  8
CHEMINEMENTS
 10
    242.23
 20
    16.40
 30
    0.00
 11
    247.98
 21
    17.75
 31
    0.00
  0
LINE
  8
HAUTEURS
 10
    247.98
 20
    17.75
 30
    0.00
 11
    247.98
 21
    17.75
 31
    0.00
  0
LINE
  8
CONTOURS_HAUTEURS
 10
    242.23
 20
    15.90
 30
    0.00
 11
    247.98
 21
    17.75
 31
    0.00
  0
LINE
  8
CONTOURS_HAUTEURS
 10
    242.23
 20
    17.30
 30
    0.00
 11
    247.98
 21
    17.75
 31
    0.00
  0
LINE
  8
CONTOURS_HAUTEURS
 10
    247.98
 20
    17.75
 30
    0.00
 11
    247.98
 21
    17.75
 31
    0.00
  0
LINE
  8
CHEMINEMENTS
 10
    160.16
 20
    3.19
 30
    0.00
 11
    170.75
 21
    4.95
 31
    0.00
  0
LINE
  8
HAUTEURS
 10
    170.75
 20
    4.95
 30
    0.00
 11
    170.75
 21
    7.45
 31
    0.00
  0
LINE
  8
CONTOURS_HAUTEURS
 10
    160.16
 20
    2.39
 30
    0.00
 11
    170.75
 21
    4.95
 31
    0.00
  0
LINE
  8
CONTOURS_HAUTEURS
 10
    160.16
 20
    6.79
 30
    0.00
 11
    170.75
 21
    7.45
 31
    0.00
  0
LINE
  8
CHEMINEMENTS
 10
    170.75
 20
    4.95
 30
    0.00
 11
    173.07
 21
    8.70
 31
    0.00
  0
LINE
  8
HAUTEURS
 10
    173.07
 20
    7.20
 30
    0.00
 11
    173.07
 21
    9.50
 31
    0.00
  0
LINE
  8
CONTOURS_HAUTEURS
 10
    170.75
 20
    4.95
 30
    0.00
 11
    173.07
 21
    7.20
 31
    0.00
  0
LINE
  8
CONTOURS_HAUTEURS
 10
    170.75
 20
    7.45
 30
    0.00
 11
    173.07
 21
    9.50
 31
    0.00
  0
LINE
  8
CHEMINEMENTS
 10
    173.07
 20
    8.70
 30
    0.00
 11
    182.41
 21
    16.60
 31
    0.00
  0
LINE
  8
HAUTEURS
 10
    182.41
 20
    12.80
 30
    0.00
 11
    182.41
 21
    17.50
 31
    0.00
  0
LINE
  8
CONTOURS_HAUTEURS
 10
    173.07
 20
    7.20
 30
    0.00
 11
    182.41
 21
    12.80
 31
    0.00
  0
LINE
  8
CONTOURS_HAUTEURS
 10
    173.07
 20
    9.50
 30
    0.00
 11
    182.41
 21
    17.50
 31
    0.00
  0
LINE
  8
CHEMINEMENTS
 10
    182.41
 20
    16.60
 30
    0.00
 11
    184.64
 21
    18.70
 31
    0.00
  0
LINE
  8
HAUTEURS
 10
    184.64
 20
    16.70
 30
    0.00
 11
    184.64
 21
    20.70
 31
    0.00
  0
LINE
  8
CONTOURS_HAUTEURS
 10
    182.41
 20
    12.80
 30
    0.00
 11
    184.64
 21
    16.70
 31
    0.00
  0
LINE
  8
CONTOURS_HAUTEURS
 10
    182.41
 20
    17.50
 30
    0.00
 11
    184.64
 21
    20.70
 31
    0.00
  0
LINE
  8
CHEMINEMENTS
 10
    184.64
 20
    18.70
 30
    0.00
 11
    197.74
 21
    19.05
 31
    0.00
  0
LINE
  8
HAUTEURS
 10
    197.74
 20
    16.05
 30
    0.00
 11
    197.74
 21
    22.05
 31
    0.00
  0
LINE
  8
CONTOURS_HAUTEURS
 10
    184.64
 20
    16.70
 30
    0.00
 11
    197.74
 21
    16.05
 31
    0.00
  0
LINE
  8
CONTOURS_HAUTEURS
 10
    184.64
 20
    20.70
 30
    0.00
 11
    197.74
 21
    22.05
 31
    0.00
  0
LINE
  8
CHEMINEMENTS
 10
    197.74
 20
    19.05
 30
    0.00
 11
    203.82
 21
    15.30
 31
    0.00
  0
LINE
  8
HAUTEURS
 10
    203.82
 20
    14.80
 30
    0.00
 11
    203.82
 21
    17.30
 31
    0.00
  0
LINE
  8
CONTOURS_HAUTEURS
 10
    197.74
 20
    16.05
 30
    0.00
 11
    203.82
 21
    14.80
 31
    0.00
  0
LINE
  8
CONTOURS_HAUTEURS
 10
    197.74
 20
    22.05
 30
    0.00
 11
    203.82
 21
    17.30
 31
    0.00
  0
LINE
  8
CHEMINEMENTS
 10
    203.82
 20
    15.30
 30
    0.00
 11
    226.31
 21
    18.90
 31
    0.00
  0
LINE
  8
HAUTEURS
 10
    226.31
 20
    18.50
 30
    0.00
 11
    226.31
 21
    20.10
 31
    0.00
  0
LINE
  8
CONTOURS_HAUTEURS
 10
    203.82
 20
    14.80
 30
    0.00
 11
    226.31
 21
    18.50
 31
    0.00
  0
LINE
  8
CONTOURS_HAUTEURS
 10
    203.82
 20
    17.30
 30
    0.00
 11
    226.31
 21
    20.10
 31
    0.00
  0
LINE
  8
CONTOURS_HAUTEURS
 10
    226.31
 20
    18.50
 30
    0.00
 11
    226.31
 21
    20.10
 31
    0.00
  0
TEXT
  8
ECHELLE
 10
    0.00
 20
    -45.13
 30
    0.00
 40
    2.0
  1
0
  0
TEXT
  8
ECHELLE
 10
    103.02
 20
    -45.13
 30
    0.00
 40
    2.0
  1
100 m
  0
LINE
  8
ECHELLE
 10
    2.01
 20
    -43.12
 30
    0.00
 11
    102.01
 21
    -43.12
 31
    0.00
  0
LINE
  8
ECHELLE
 10
    102.01
 20
    -43.12
 30
    0.00
 11
    102.01
 21
    -45.13
 31
    0.00
  0
LINE
  8
ECHELLE
 10
    102.01
 20
    -45.13
 30
    0.00
 11
    2.01
 21
    -45.13
 31
    0.00
  0
LINE
  8
ECHELLE
 10
    2.01
 20
    -45.13
 30
    0.00
 11
    2.01
 21
    -43.12
 31
    0.00
  0
SOLID
  8
ECHELLE
 10
    2.01
 20
    -43.12
 30
    0.00
 11
    12.01
 21
    -43.12
 31
    0.00
 12
    2.01
 22
    -44.13
 32
    0.00
 13
    12.01
 23
    -44.13
 33
    0.00
  0
SOLID
  8
ECHELLE
 10
    12.01
 20
    -44.13
 30
    0.00
 11
    22.01
 21
    -44.13
 31
    0.00
 12
    12.01
 22
    -45.13
 32
    0.00
 13
    22.01
 23
    -45.13
 33
    0.00
  0
SOLID
  8
ECHELLE
 10
    22.01
 20
    -43.12
 30
    0.00
 11
    32.01
 21
    -43.12
 31
    0.00
 12
    22.01
 22
    -44.13
 32
    0.00
 13
    32.01
 23
    -44.13
 33
    0.00
  0
SOLID
  8
ECHELLE
 10
    32.01
 20
    -44.13
 30
    0.00
 11
    42.01
 21
    -44.13
 31
    0.00
 12
    32.01
 22
    -45.13
 32
    0.00
 13
    42.01
 23
    -45.13
 33
    0.00
  0
SOLID
  8
ECHELLE
 10
    42.01
 20
    -43.12
 30
    0.00
 11
    52.01
 21
    -43.12
 31
    0.00
 12
    42.01
 22
    -44.13
 32
    0.00
 13
    52.01
 23
    -44.13
 33
    0.00
  0
SOLID
  8
ECHELLE
 10
    52.01
 20
    -44.13
 30
    0.00
 11
    102.01
 21
    -44.13
 31
    0.00
 12
    52.01
 22
    -45.13
 32
    0.00
 13
    102.01
 23
    -45.13
 33
    0.00
  0
ENDSEC
  0
EOF
