  0
SECTION
  2
HEADER
  0
ENDSEC
  0
SECTION
  2
TABLES
  0
TABLE
  2
LAYER
  0
LAYER
  2
POLIGONALES
 70
    64
 62
    1
  6
CONTINUOUS
  0
LAYER
  2
PUNTOS
 70
    64
 62
    6
  6
CONTINUOUS
  0
LAYER
  2
ESTACIONES
 70
    64
 62
    7
  6
CONTINUOUS
  0
LAYER
  2
PROFUNDIDADES
 70
    64
 62
    2
  6
CONTINUOUS
  0
LAYER
  2
ANCHURAS
 70
    64
 62
    4
  6
CONTINUOUS
  0
LAYER
  2
CONTORNS_ANCHURAS
 70
    64
 62
    3
  6
CONTINUOUS
  0
LAYER
  2
ESCALA
 70
    64
 62
    7
  6
CONTINUOUS
  0
ENDTAB
  0
ENDSEC
  0
SECTION
  2
ENTITIES
  0
LINE
  8
POLIGONALES
 10
    0.00
 20
    0.00
 30
    0.00
 11
    0.00
 21
    0.00
 31
    0.00
  0
CIRCLE
  8
PUNTOS
 10
    0.00
 20
    0.00
 30
    0.00
 40
    0.2
  0
LINE
  8
ANCHURAS
 10
    -0.07
 20
    -1.00
 30
    0.00
 11
    0.07
 21
    1.00
 31
    0.00
  0
LINE
  8
CONTORNS_ANCHURAS
 10
    -0.07
 20
    -1.00
 30
    0.00
 11
    -0.07
 21
    -1.00
 31
    0.00
  0
LINE
  8
CONTORNS_ANCHURAS
 10
    0.07
 20
    1.00
 30
    0.00
 11
    0.07
 21
    1.00
 31
    0.00
  0
TEXT
  8
ESTACIONES
 10
    -0.20
 20
    0.00
 30
    0.00
 11
    -0.20
 21
    0.00
 31
    0.00
 40
    0.4
 72
    2
  1
RI01
  0
TEXT
  8
PROFUNDIDADES
 10
    0.20
 20
    0.00
 30
    0.00
 40
    0.6
  1
+0
  0
LINE
  8
POLIGONALES
 10
    0.00
 20
    0.00
 30
    0.00
 11
    -3.04
 21
    0.21
 31
    0.00
  0
CIRCLE
  8
PUNTOS
 10
    -3.04
 20
    0.21
 30
    0.00
 40
    0.2
  0
LINE
  8
ANCHURAS
 10
    -2.70
 20
    -1.76
 30
    0.00
 11
    -3.22
 21
    1.20
 31
    0.00
  0
LINE
  8
CONTORNS_ANCHURAS
 10
    -0.07
 20
    -1.00
 30
    0.00
 11
    -2.70
 21
    -1.76
 31
    0.00
  0
LINE
  8
CONTORNS_ANCHURAS
 10
    0.07
 20
    1.00
 30
    0.00
 11
    -3.22
 21
    1.20
 31
    0.00
  0
TEXT
  8
ESTACIONES
 10
    -3.24
 20
    0.21
 30
    0.00
 11
    -3.24
 21
    0.21
 31
    0.00
 40
    0.4
 72
    2
  1
RI02
  0
LINE
  8
POLIGONALES
 10
    -3.04
 20
    0.21
 30
    0.00
 11
    -4.82
 21
    -0.58
 31
    0.00
  0
CIRCLE
  8
PUNTOS
 10
    -4.82
 20
    -0.58
 30
    0.00
 40
    0.2
  0
LINE
  8
ANCHURAS
 10
    -4.82
 20
    -0.58
 30
    0.00
 11
    -4.94
 21
    0.21
 31
    0.00
  0
LINE
  8
CONTORNS_ANCHURAS
 10
    -2.70
 20
    -1.76
 30
    0.00
 11
    -4.82
 21
    -0.58
 31
    0.00
  0
LINE
  8
CONTORNS_ANCHURAS
 10
    -3.22
 20
    1.20
 30
    0.00
 11
    -4.94
 21
    0.21
 31
    0.00
  0
TEXT
  8
ESTACIONES
 10
    -5.02
 20
    -0.58
 30
    0.00
 11
    -5.02
 21
    -0.58
 31
    0.00
 40
    0.4
 72
    2
  1
RI03
  0
LINE
  8
POLIGONALES
 10
    -4.82
 20
    -0.58
 30
    0.00
 11
    -7.01
 21
    -0.31
 31
    0.00
  0
CIRCLE
  8
PUNTOS
 10
    -7.01
 20
    -0.31
 30
    0.00
 40
    0.2
  0
LINE
  8
ANCHURAS
 10
    -7.01
 20
    -0.31
 30
    0.00
 11
    -6.57
 21
    0.10
 31
    0.00
  0
LINE
  8
CONTORNS_ANCHURAS
 10
    -4.82
 20
    -0.58
 30
    0.00
 11
    -7.01
 21
    -0.31
 31
    0.00
  0
LINE
  8
CONTORNS_ANCHURAS
 10
    -4.94
 20
    0.21
 30
    0.00
 11
    -6.57
 21
    0.10
 31
    0.00
  0
TEXT
  8
ESTACIONES
 10
    -7.21
 20
    -0.31
 30
    0.00
 11
    -7.21
 21
    -0.31
 31
    0.00
 40
    0.4
 72
    2
  1
RI04
  0
LINE
  8
POLIGONALES
 10
    -7.01
 20
    -0.31
 30
    0.00
 11
    -7.25
 21
    3.18
 31
    0.00
  0
CIRCLE
  8
PUNTOS
 10
    -7.25
 20
    3.18
 30
    0.00
 40
    0.2
  0
LINE
  8
ANCHURAS
 10
    -7.25
 20
    3.18
 30
    0.00
 11
    -6.90
 21
    2.69
 31
    0.00
  0
LINE
  8
CONTORNS_ANCHURAS
 10
    -7.01
 20
    -0.31
 30
    0.00
 11
    -7.25
 21
    3.18
 31
    0.00
  0
LINE
  8
CONTORNS_ANCHURAS
 10
    -6.57
 20
    0.10
 30
    0.00
 11
    -6.90
 21
    2.69
 31
    0.00
  0
TEXT
  8
ESTACIONES
 10
    -7.45
 20
    3.18
 30
    0.00
 11
    -7.45
 21
    3.18
 31
    0.00
 40
    0.4
 72
    2
  1
RI05
  0
LINE
  8
POLIGONALES
 10
    -7.25
 20
    3.18
 30
    0.00
 11
    -5.95
 21
    2.66
 31
    0.00
  0
CIRCLE
  8
PUNTOS
 10
    -5.95
 20
    2.66
 30
    0.00
 40
    0.2
  0
LINE
  8
ANCHURAS
 10
    -5.95
 20
    2.66
 30
    0.00
 11
    -6.72
 21
    2.88
 31
    0.00
  0
LINE
  8
CONTORNS_ANCHURAS
 10
    -7.25
 20
    3.18
 30
    0.00
 11
    -5.95
 21
    2.66
 31
    0.00
  0
LINE
  8
CONTORNS_ANCHURAS
 10
    -6.90
 20
    2.69
 30
    0.00
 11
    -6.72
 21
    2.88
 31
    0.00
  0
TEXT
  8
ESTACIONES
 10
    -6.15
 20
    2.66
 30
    0.00
 11
    -6.15
 21
    2.66
 31
    0.00
 40
    0.4
 72
    2
  1
RI06
  0
LINE
  8
POLIGONALES
 10
    -5.95
 20
    2.66
 30
    0.00
 11
    -9.45
 21
    3.27
 31
    0.00
  0
CIRCLE
  8
PUNTOS
 10
    -9.45
 20
    3.27
 30
    0.00
 40
    0.2
  0
LINE
  8
ANCHURAS
 10
    -9.42
 20
    2.97
 30
    0.00
 11
    -9.50
 21
    4.07
 31
    0.00
  0
LINE
  8
CONTORNS_ANCHURAS
 10
    -5.95
 20
    2.66
 30
    0.00
 11
    -9.42
 21
    2.97
 31
    0.00
  0
LINE
  8
CONTORNS_ANCHURAS
 10
    -6.72
 20
    2.88
 30
    0.00
 11
    -9.50
 21
    4.07
 31
    0.00
  0
TEXT
  8
ESTACIONES
 10
    -9.65
 20
    3.27
 30
    0.00
 11
    -9.65
 21
    3.27
 31
    0.00
 40
    0.4
 72
    2
  1
RI07
  0
LINE
  8
POLIGONALES
 10
    -9.45
 20
    3.27
 30
    0.00
 11
    -13.14
 21
    2.07
 31
    0.00
  0
CIRCLE
  8
PUNTOS
 10
    -13.14
 20
    2.07
 30
    0.00
 40
    0.2
  0
LINE
  8
ANCHURAS
 10
    -13.32
 20
    1.84
 30
    0.00
 11
    -12.64
 21
    2.70
 31
    0.00
  0
LINE
  8
CONTORNS_ANCHURAS
 10
    -9.42
 20
    2.97
 30
    0.00
 11
    -13.32
 21
    1.84
 31
    0.00
  0
LINE
  8
CONTORNS_ANCHURAS
 10
    -9.50
 20
    4.07
 30
    0.00
 11
    -12.64
 21
    2.70
 31
    0.00
  0
TEXT
  8
ESTACIONES
 10
    -13.34
 20
    2.07
 30
    0.00
 11
    -13.34
 21
    2.07
 31
    0.00
 40
    0.4
 72
    2
  1
RI08
  0
LINE
  8
POLIGONALES
 10
    -13.14
 20
    2.07
 30
    0.00
 11
    -12.96
 21
    4.06
 31
    0.00
  0
CIRCLE
  8
PUNTOS
 10
    -12.96
 20
    4.06
 30
    0.00
 40
    0.2
  0
LINE
  8
ANCHURAS
 10
    -13.76
 20
    4.13
 30
    0.00
 11
    -9.97
 21
    3.80
 31
    0.00
  0
LINE
  8
CONTORNS_ANCHURAS
 10
    -13.32
 20
    1.84
 30
    0.00
 11
    -13.76
 21
    4.13
 31
    0.00
  0
LINE
  8
CONTORNS_ANCHURAS
 10
    -12.64
 20
    2.70
 30
    0.00
 11
    -9.97
 21
    3.80
 31
    0.00
  0
TEXT
  8
ESTACIONES
 10
    -13.16
 20
    4.06
 30
    0.00
 11
    -13.16
 21
    4.06
 31
    0.00
 40
    0.4
 72
    2
  1
RI08a
  0
LINE
  8
POLIGONALES
 10
    -12.96
 20
    4.06
 30
    0.00
 11
    -12.37
 21
    10.84
 31
    0.00
  0
CIRCLE
  8
PUNTOS
 10
    -12.37
 20
    10.84
 30
    0.00
 40
    0.2
  0
LINE
  8
ANCHURAS
 10
    -17.35
 20
    11.27
 30
    0.00
 11
    -8.39
 21
    10.49
 31
    0.00
  0
LINE
  8
CONTORNS_ANCHURAS
 10
    -13.76
 20
    4.13
 30
    0.00
 11
    -17.35
 21
    11.27
 31
    0.00
  0
LINE
  8
CONTORNS_ANCHURAS
 10
    -9.97
 20
    3.80
 30
    0.00
 11
    -8.39
 21
    10.49
 31
    0.00
  0
LINE
  8
CONTORNS_ANCHURAS
 10
    -17.35
 20
    11.27
 30
    0.00
 11
    -8.39
 21
    10.49
 31
    0.00
  0
TEXT
  8
ESTACIONES
 10
    -12.57
 20
    10.84
 30
    0.00
 11
    -12.57
 21
    10.84
 31
    0.00
 40
    0.4
 72
    2
  1
RI08b
  0
TEXT
  8
PROFUNDIDADES
 10
    -12.17
 20
    10.84
 30
    0.00
 40
    0.6
  1
-4
  0
LINE
  8
POLIGONALES
 10
    -13.14
 20
    2.07
 30
    0.00
 11
    -14.37
 21
    -12.07
 31
    0.00
  0
CIRCLE
  8
PUNTOS
 10
    -14.37
 20
    -12.07
 30
    0.00
 40
    0.2
  0
LINE
  8
ANCHURAS
 10
    -12.48
 20
    -12.71
 30
    0.00
 11
    -19.12
 21
    -10.49
 31
    0.00
  0
LINE
  8
CONTORNS_ANCHURAS
 10
    -12.64
 20
    2.70
 30
    0.00
 11
    -12.48
 21
    -12.71
 31
    0.00
  0
LINE
  8
CONTORNS_ANCHURAS
 10
    -13.32
 20
    1.84
 30
    0.00
 11
    -19.12
 21
    -10.49
 31
    0.00
  0
TEXT
  8
ESTACIONES
 10
    -14.57
 20
    -12.07
 30
    0.00
 11
    -14.57
 21
    -12.07
 31
    0.00
 40
    0.4
 72
    2
  1
RI09
  0
LINE
  8
POLIGONALES
 10
    -14.37
 20
    -12.07
 30
    0.00
 11
    -21.19
 21
    -22.97
 31
    0.00
  0
CIRCLE
  8
PUNTOS
 10
    -21.19
 20
    -22.97
 30
    0.00
 40
    0.2
  0
LINE
  8
ANCHURAS
 10
    -20.79
 20
    -23.28
 30
    0.00
 11
    -21.42
 21
    -22.79
 31
    0.00
  0
LINE
  8
CONTORNS_ANCHURAS
 10
    -12.48
 20
    -12.71
 30
    0.00
 11
    -20.79
 21
    -23.28
 31
    0.00
  0
LINE
  8
CONTORNS_ANCHURAS
 10
    -19.12
 20
    -10.49
 30
    0.00
 11
    -21.42
 21
    -22.79
 31
    0.00
  0
TEXT
  8
ESTACIONES
 10
    -21.39
 20
    -22.97
 30
    0.00
 11
    -21.39
 21
    -22.97
 31
    0.00
 40
    0.4
 72
    2
  1
RI10
  0
LINE
  8
POLIGONALES
 10
    -21.19
 20
    -22.97
 30
    0.00
 11
    -23.49
 21
    -25.36
 31
    0.00
  0
CIRCLE
  8
PUNTOS
 10
    -23.49
 20
    -25.36
 30
    0.00
 40
    0.2
  0
LINE
  8
ANCHURAS
 10
    -23.34
 20
    -25.84
 30
    0.00
 11
    -23.79
 21
    -24.41
 31
    0.00
  0
LINE
  8
CONTORNS_ANCHURAS
 10
    -20.79
 20
    -23.28
 30
    0.00
 11
    -23.34
 21
    -25.84
 31
    0.00
  0
LINE
  8
CONTORNS_ANCHURAS
 10
    -21.42
 20
    -22.79
 30
    0.00
 11
    -23.79
 21
    -24.41
 31
    0.00
  0
TEXT
  8
ESTACIONES
 10
    -23.69
 20
    -25.36
 30
    0.00
 11
    -23.69
 21
    -25.36
 31
    0.00
 40
    0.4
 72
    2
  1
RI11
  0
LINE
  8
POLIGONALES
 10
    -23.49
 20
    -25.36
 30
    0.00
 11
    -25.15
 21
    -25.05
 31
    0.00
  0
CIRCLE
  8
PUNTOS
 10
    -25.15
 20
    -25.05
 30
    0.00
 40
    0.2
  0
LINE
  8
ANCHURAS
 10
    -26.10
 20
    -26.81
 30
    0.00
 11
    -24.68
 21
    -24.16
 31
    0.00
  0
LINE
  8
CONTORNS_ANCHURAS
 10
    -23.34
 20
    -25.84
 30
    0.00
 11
    -26.10
 21
    -26.81
 31
    0.00
  0
LINE
  8
CONTORNS_ANCHURAS
 10
    -23.79
 20
    -24.41
 30
    0.00
 11
    -24.68
 21
    -24.16
 31
    0.00
  0
TEXT
  8
ESTACIONES
 10
    -25.35
 20
    -25.05
 30
    0.00
 11
    -25.35
 21
    -25.05
 31
    0.00
 40
    0.4
 72
    2
  1
RI12
  0
LINE
  8
POLIGONALES
 10
    -25.15
 20
    -25.05
 30
    0.00
 11
    -28.27
 21
    -21.89
 31
    0.00
  0
CIRCLE
  8
PUNTOS
 10
    -28.27
 20
    -21.89
 30
    0.00
 40
    0.2
  0
LINE
  8
ANCHURAS
 10
    -31.76
 20
    -23.84
 30
    0.00
 11
    -28.27
 21
    -21.89
 31
    0.00
  0
LINE
  8
CONTORNS_ANCHURAS
 10
    -26.10
 20
    -26.81
 30
    0.00
 11
    -31.76
 21
    -23.84
 31
    0.00
  0
LINE
  8
CONTORNS_ANCHURAS
 10
    -24.68
 20
    -24.16
 30
    0.00
 11
    -28.27
 21
    -21.89
 31
    0.00
  0
TEXT
  8
ESTACIONES
 10
    -28.47
 20
    -21.89
 30
    0.00
 11
    -28.47
 21
    -21.89
 31
    0.00
 40
    0.4
 72
    2
  1
RI13
  0
LINE
  8
POLIGONALES
 10
    -28.27
 20
    -21.89
 30
    0.00
 11
    -29.77
 21
    -15.69
 31
    0.00
  0
CIRCLE
  8
PUNTOS
 10
    -29.77
 20
    -15.69
 30
    0.00
 40
    0.2
  0
LINE
  8
ANCHURAS
 10
    -30.07
 20
    -15.74
 30
    0.00
 11
    -29.58
 21
    -15.67
 31
    0.00
  0
LINE
  8
CONTORNS_ANCHURAS
 10
    -31.76
 20
    -23.84
 30
    0.00
 11
    -30.07
 21
    -15.74
 31
    0.00
  0
LINE
  8
CONTORNS_ANCHURAS
 10
    -28.27
 20
    -21.89
 30
    0.00
 11
    -29.58
 21
    -15.67
 31
    0.00
  0
TEXT
  8
ESTACIONES
 10
    -29.97
 20
    -15.69
 30
    0.00
 11
    -29.97
 21
    -15.69
 31
    0.00
 40
    0.4
 72
    2
  1
RI14
  0
LINE
  8
POLIGONALES
 10
    -29.77
 20
    -15.69
 30
    0.00
 11
    -29.94
 21
    -11.56
 31
    0.00
  0
CIRCLE
  8
PUNTOS
 10
    -29.94
 20
    -11.56
 30
    0.00
 40
    0.2
  0
LINE
  8
ANCHURAS
 10
    -30.74
 20
    -11.54
 30
    0.00
 11
    -29.34
 21
    -11.58
 31
    0.00
  0
LINE
  8
CONTORNS_ANCHURAS
 10
    -30.07
 20
    -15.74
 30
    0.00
 11
    -30.74
 21
    -11.54
 31
    0.00
  0
LINE
  8
CONTORNS_ANCHURAS
 10
    -29.58
 20
    -15.67
 30
    0.00
 11
    -29.34
 21
    -11.58
 31
    0.00
  0
TEXT
  8
ESTACIONES
 10
    -30.14
 20
    -11.56
 30
    0.00
 11
    -30.14
 21
    -11.56
 31
    0.00
 40
    0.4
 72
    2
  1
RI15
  0
LINE
  8
POLIGONALES
 10
    -29.94
 20
    -11.56
 30
    0.00
 11
    -29.80
 21
    -10.06
 31
    0.00
  0
CIRCLE
  8
PUNTOS
 10
    -29.80
 20
    -10.06
 30
    0.00
 40
    0.2
  0
LINE
  8
ANCHURAS
 10
    -29.96
 20
    -10.17
 30
    0.00
 11
    -29.55
 21
    -9.89
 31
    0.00
  0
LINE
  8
CONTORNS_ANCHURAS
 10
    -30.74
 20
    -11.54
 30
    0.00
 11
    -29.96
 21
    -10.17
 31
    0.00
  0
LINE
  8
CONTORNS_ANCHURAS
 10
    -29.34
 20
    -11.58
 30
    0.00
 11
    -29.55
 21
    -9.89
 31
    0.00
  0
TEXT
  8
ESTACIONES
 10
    -30.00
 20
    -10.06
 30
    0.00
 11
    -30.00
 21
    -10.06
 31
    0.00
 40
    0.4
 72
    2
  1
RI16
  0
LINE
  8
POLIGONALES
 10
    -29.80
 20
    -10.06
 30
    0.00
 11
    -31.89
 21
    -9.46
 31
    0.00
  0
CIRCLE
  8
PUNTOS
 10
    -31.89
 20
    -9.46
 30
    0.00
 40
    0.2
  0
LINE
  8
ANCHURAS
 10
    -32.98
 20
    -12.25
 30
    0.00
 11
    -31.75
 21
    -9.08
 31
    0.00
  0
LINE
  8
CONTORNS_ANCHURAS
 10
    -29.96
 20
    -10.17
 30
    0.00
 11
    -32.98
 21
    -12.25
 31
    0.00
  0
LINE
  8
CONTORNS_ANCHURAS
 10
    -29.55
 20
    -9.89
 30
    0.00
 11
    -31.75
 21
    -9.08
 31
    0.00
  0
TEXT
  8
ESTACIONES
 10
    -32.09
 20
    -9.46
 30
    0.00
 11
    -32.09
 21
    -9.46
 31
    0.00
 40
    0.4
 72
    2
  1
RI17
  0
LINE
  8
POLIGONALES
 10
    -31.89
 20
    -9.46
 30
    0.00
 11
    -35.71
 21
    -7.56
 31
    0.00
  0
CIRCLE
  8
PUNTOS
 10
    -35.71
 20
    -7.56
 30
    0.00
 40
    0.2
  0
LINE
  8
ANCHURAS
 10
    -35.32
 20
    -7.87
 30
    0.00
 11
    -36.11
 21
    -7.25
 31
    0.00
  0
LINE
  8
CONTORNS_ANCHURAS
 10
    -32.98
 20
    -12.25
 30
    0.00
 11
    -35.32
 21
    -7.87
 31
    0.00
  0
LINE
  8
CONTORNS_ANCHURAS
 10
    -31.75
 20
    -9.08
 30
    0.00
 11
    -36.11
 21
    -7.25
 31
    0.00
  0
TEXT
  8
ESTACIONES
 10
    -35.91
 20
    -7.56
 30
    0.00
 11
    -35.91
 21
    -7.56
 31
    0.00
 40
    0.4
 72
    2
  1
RI17a
  0
LINE
  8
POLIGONALES
 10
    -35.71
 20
    -7.56
 30
    0.00
 11
    -33.64
 21
    -10.04
 31
    0.00
  0
CIRCLE
  8
PUNTOS
 10
    -33.64
 20
    -10.04
 30
    0.00
 40
    0.2
  0
LINE
  8
ANCHURAS
 10
    -33.14
 20
    -10.01
 30
    0.00
 11
    -35.64
 21
    -10.19
 31
    0.00
  0
LINE
  8
CONTORNS_ANCHURAS
 10
    -35.32
 20
    -7.87
 30
    0.00
 11
    -33.14
 21
    -10.01
 31
    0.00
  0
LINE
  8
CONTORNS_ANCHURAS
 10
    -36.11
 20
    -7.25
 30
    0.00
 11
    -35.64
 21
    -10.19
 31
    0.00
  0
TEXT
  8
ESTACIONES
 10
    -33.84
 20
    -10.04
 30
    0.00
 11
    -33.84
 21
    -10.04
 31
    0.00
 40
    0.4
 72
    2
  1
RI18
  0
LINE
  8
POLIGONALES
 10
    -33.64
 20
    -10.04
 30
    0.00
 11
    -36.72
 21
    -15.05
 31
    0.00
  0
CIRCLE
  8
PUNTOS
 10
    -36.72
 20
    -15.05
 30
    0.00
 40
    0.2
  0
LINE
  8
ANCHURAS
 10
    -36.59
 20
    -15.53
 30
    0.00
 11
    -36.86
 21
    -14.56
 31
    0.00
  0
LINE
  8
CONTORNS_ANCHURAS
 10
    -33.14
 20
    -10.01
 30
    0.00
 11
    -36.59
 21
    -15.53
 31
    0.00
  0
LINE
  8
CONTORNS_ANCHURAS
 10
    -35.64
 20
    -10.19
 30
    0.00
 11
    -36.86
 21
    -14.56
 31
    0.00
  0
TEXT
  8
ESTACIONES
 10
    -36.92
 20
    -15.05
 30
    0.00
 11
    -36.92
 21
    -15.05
 31
    0.00
 40
    0.4
 72
    2
  1
RI19
  0
LINE
  8
POLIGONALES
 10
    -36.72
 20
    -15.05
 30
    0.00
 11
    -40.69
 21
    -12.94
 31
    0.00
  0
CIRCLE
  8
PUNTOS
 10
    -40.69
 20
    -12.94
 30
    0.00
 40
    0.2
  0
LINE
  8
ANCHURAS
 10
    -41.16
 20
    -13.82
 30
    0.00
 11
    -40.22
 21
    -12.05
 31
    0.00
  0
LINE
  8
CONTORNS_ANCHURAS
 10
    -36.59
 20
    -15.53
 30
    0.00
 11
    -41.16
 21
    -13.82
 31
    0.00
  0
LINE
  8
CONTORNS_ANCHURAS
 10
    -36.86
 20
    -14.56
 30
    0.00
 11
    -40.22
 21
    -12.05
 31
    0.00
  0
TEXT
  8
ESTACIONES
 10
    -40.89
 20
    -12.94
 30
    0.00
 11
    -40.89
 21
    -12.94
 31
    0.00
 40
    0.4
 72
    2
  1
RI20
  0
LINE
  8
POLIGONALES
 10
    -40.69
 20
    -12.94
 30
    0.00
 11
    -40.69
 21
    -12.94
 31
    0.00
  0
CIRCLE
  8
PUNTOS
 10
    -40.69
 20
    -12.94
 30
    0.00
 40
    0.2
  0
LINE
  8
ANCHURAS
 10
    -40.69
 20
    -13.94
 30
    0.00
 11
    -40.69
 21
    -10.94
 31
    0.00
  0
LINE
  8
CONTORNS_ANCHURAS
 10
    -41.16
 20
    -13.82
 30
    0.00
 11
    -40.69
 21
    -13.94
 31
    0.00
  0
LINE
  8
CONTORNS_ANCHURAS
 10
    -40.22
 20
    -12.05
 30
    0.00
 11
    -40.69
 21
    -10.94
 31
    0.00
  0
LINE
  8
CONTORNS_ANCHURAS
 10
    -40.69
 20
    -13.94
 30
    0.00
 11
    -40.69
 21
    -10.94
 31
    0.00
  0
TEXT
  8
ESTACIONES
 10
    -40.89
 20
    -12.94
 30
    0.00
 11
    -40.89
 21
    -12.94
 31
    0.00
 40
    0.4
 72
    2
  1
RI21
  0
LINE
  8
POLIGONALES
 10
    -36.72
 20
    -15.05
 30
    0.00
 11
    -33.01
 21
    -19.50
 31
    0.00
  0
CIRCLE
  8
PUNTOS
 10
    -33.01
 20
    -19.50
 30
    0.00
 40
    0.2
  0
LINE
  8
ANCHURAS
 10
    -32.63
 20
    -19.36
 30
    0.00
 11
    -35.83
 21
    -20.52
 31
    0.00
  0
LINE
  8
CONTORNS_ANCHURAS
 10
    -36.59
 20
    -15.53
 30
    0.00
 11
    -32.63
 21
    -19.36
 31
    0.00
  0
LINE
  8
CONTORNS_ANCHURAS
 10
    -36.86
 20
    -14.56
 30
    0.00
 11
    -35.83
 21
    -20.52
 31
    0.00
  0
TEXT
  8
ESTACIONES
 10
    -33.21
 20
    -19.50
 30
    0.00
 11
    -33.21
 21
    -19.50
 31
    0.00
 40
    0.4
 72
    2
  1
RI22
  0
LINE
  8
POLIGONALES
 10
    -33.01
 20
    -19.50
 30
    0.00
 11
    -33.00
 21
    -24.89
 31
    0.00
  0
CIRCLE
  8
PUNTOS
 10
    -33.00
 20
    -24.89
 30
    0.00
 40
    0.2
  0
LINE
  8
ANCHURAS
 10
    -33.00
 20
    -24.89
 30
    0.00
 11
    -34.39
 21
    -25.46
 31
    0.00
  0
LINE
  8
CONTORNS_ANCHURAS
 10
    -32.63
 20
    -19.36
 30
    0.00
 11
    -33.00
 21
    -24.89
 31
    0.00
  0
LINE
  8
CONTORNS_ANCHURAS
 10
    -35.83
 20
    -20.52
 30
    0.00
 11
    -34.39
 21
    -25.46
 31
    0.00
  0
TEXT
  8
ESTACIONES
 10
    -33.20
 20
    -24.89
 30
    0.00
 11
    -33.20
 21
    -24.89
 31
    0.00
 40
    0.4
 72
    2
  1
RI23
  0
LINE
  8
POLIGONALES
 10
    -33.00
 20
    -24.89
 30
    0.00
 11
    -30.90
 21
    -27.04
 31
    0.00
  0
CIRCLE
  8
PUNTOS
 10
    -30.90
 20
    -27.04
 30
    0.00
 40
    0.2
  0
LINE
  8
ANCHURAS
 10
    -30.19
 20
    -26.34
 30
    0.00
 11
    -31.05
 21
    -27.18
 31
    0.00
  0
LINE
  8
CONTORNS_ANCHURAS
 10
    -33.00
 20
    -24.89
 30
    0.00
 11
    -30.19
 21
    -26.34
 31
    0.00
  0
LINE
  8
CONTORNS_ANCHURAS
 10
    -34.39
 20
    -25.46
 30
    0.00
 11
    -31.05
 21
    -27.18
 31
    0.00
  0
TEXT
  8
ESTACIONES
 10
    -31.10
 20
    -27.04
 30
    0.00
 11
    -31.10
 21
    -27.04
 31
    0.00
 40
    0.4
 72
    2
  1
RI24
  0
LINE
  8
POLIGONALES
 10
    -30.90
 20
    -27.04
 30
    0.00
 11
    -30.90
 21
    -27.04
 31
    0.00
  0
CIRCLE
  8
PUNTOS
 10
    -30.90
 20
    -27.04
 30
    0.00
 40
    0.2
  0
LINE
  8
ANCHURAS
 10
    -30.90
 20
    -29.04
 30
    0.00
 11
    -30.90
 21
    -27.04
 31
    0.00
  0
LINE
  8
CONTORNS_ANCHURAS
 10
    -30.19
 20
    -26.34
 30
    0.00
 11
    -30.90
 21
    -29.04
 31
    0.00
  0
LINE
  8
CONTORNS_ANCHURAS
 10
    -31.05
 20
    -27.18
 30
    0.00
 11
    -30.90
 21
    -27.04
 31
    0.00
  0
LINE
  8
CONTORNS_ANCHURAS
 10
    -30.90
 20
    -29.04
 30
    0.00
 11
    -30.90
 21
    -27.04
 31
    0.00
  0
TEXT
  8
ESTACIONES
 10
    -31.10
 20
    -27.04
 30
    0.00
 11
    -31.10
 21
    -27.04
 31
    0.00
 40
    0.4
 72
    2
  1
RI25
  0
LINE
  8
POLIGONALES
 10
    -30.90
 20
    -27.04
 30
    0.00
 11
    -23.49
 21
    -25.36
 31
    0.00
  0
CIRCLE
  8
PUNTOS
 10
    -23.49
 20
    -25.36
 30
    0.00
 40
    0.2
  0
LINE
  8
ANCHURAS
 10
    -23.29
 20
    -24.38
 30
    0.00
 11
    -23.69
 21
    -26.34
 31
    0.00
  0
LINE
  8
CONTORNS_ANCHURAS
 10
    -30.19
 20
    -26.34
 30
    0.00
 11
    -23.29
 21
    -24.38
 31
    0.00
  0
LINE
  8
CONTORNS_ANCHURAS
 10
    -31.05
 20
    -27.18
 30
    0.00
 11
    -23.69
 21
    -26.34
 31
    0.00
  0
TEXT
  8
ESTACIONES
 10
    -23.69
 20
    -25.36
 30
    0.00
 11
    -23.69
 21
    -25.36
 31
    0.00
 40
    0.4
 72
    2
  1
RI11
  0
LINE
  8
POLIGONALES
 10
    -40.69
 20
    -12.94
 30
    0.00
 11
    -39.61
 21
    -10.98
 31
    0.00
  0
CIRCLE
  8
PUNTOS
 10
    -39.61
 20
    -10.98
 30
    0.00
 40
    0.2
  0
LINE
  8
ANCHURAS
 10
    -40.05
 20
    -11.21
 30
    0.00
 11
    -38.72
 21
    -10.51
 31
    0.00
  0
LINE
  8
CONTORNS_ANCHURAS
 10
    -41.16
 20
    -13.82
 30
    0.00
 11
    -40.05
 21
    -11.21
 31
    0.00
  0
LINE
  8
CONTORNS_ANCHURAS
 10
    -40.22
 20
    -12.05
 30
    0.00
 11
    -38.72
 21
    -10.51
 31
    0.00
  0
TEXT
  8
ESTACIONES
 10
    -39.81
 20
    -10.98
 30
    0.00
 11
    -39.81
 21
    -10.98
 31
    0.00
 40
    0.4
 72
    2
  1
RI27
  0
LINE
  8
POLIGONALES
 10
    -39.61
 20
    -10.98
 30
    0.00
 11
    -41.49
 21
    -10.81
 31
    0.00
  0
CIRCLE
  8
PUNTOS
 10
    -41.49
 20
    -10.81
 30
    0.00
 40
    0.2
  0
LINE
  8
ANCHURAS
 10
    -42.43
 20
    -11.14
 30
    0.00
 11
    -41.01
 21
    -10.65
 31
    0.00
  0
LINE
  8
CONTORNS_ANCHURAS
 10
    -40.05
 20
    -11.21
 30
    0.00
 11
    -42.43
 21
    -11.14
 31
    0.00
  0
LINE
  8
CONTORNS_ANCHURAS
 10
    -38.72
 20
    -10.51
 30
    0.00
 11
    -41.01
 21
    -10.65
 31
    0.00
  0
TEXT
  8
ESTACIONES
 10
    -41.69
 20
    -10.81
 30
    0.00
 11
    -41.69
 21
    -10.81
 31
    0.00
 40
    0.4
 72
    2
  1
RI28
  0
LINE
  8
POLIGONALES
 10
    -41.49
 20
    -10.81
 30
    0.00
 11
    -39.08
 21
    -8.57
 31
    0.00
  0
CIRCLE
  8
PUNTOS
 10
    -39.08
 20
    -8.57
 30
    0.00
 40
    0.2
  0
LINE
  8
ANCHURAS
 10
    -39.18
 20
    -8.57
 30
    0.00
 11
    -33.10
 21
    -8.10
 31
    0.00
  0
LINE
  8
CONTORNS_ANCHURAS
 10
    -42.43
 20
    -11.14
 30
    0.00
 11
    -39.18
 21
    -8.57
 31
    0.00
  0
LINE
  8
CONTORNS_ANCHURAS
 10
    -41.01
 20
    -10.65
 30
    0.00
 11
    -33.10
 21
    -8.10
 31
    0.00
  0
TEXT
  8
ESTACIONES
 10
    -39.28
 20
    -8.57
 30
    0.00
 11
    -39.28
 21
    -8.57
 31
    0.00
 40
    0.4
 72
    2
  1
RI29
  0
LINE
  8
POLIGONALES
 10
    -39.08
 20
    -8.57
 30
    0.00
 11
    -43.37
 21
    -5.67
 31
    0.00
  0
CIRCLE
  8
PUNTOS
 10
    -43.37
 20
    -5.67
 30
    0.00
 40
    0.2
  0
LINE
  8
ANCHURAS
 10
    -43.93
 20
    -6.50
 30
    0.00
 11
    -43.37
 21
    -5.67
 31
    0.00
  0
LINE
  8
CONTORNS_ANCHURAS
 10
    -39.18
 20
    -8.57
 30
    0.00
 11
    -43.93
 21
    -6.50
 31
    0.00
  0
LINE
  8
CONTORNS_ANCHURAS
 10
    -33.10
 20
    -8.10
 30
    0.00
 11
    -43.37
 21
    -5.67
 31
    0.00
  0
TEXT
  8
ESTACIONES
 10
    -43.57
 20
    -5.67
 30
    0.00
 11
    -43.57
 21
    -5.67
 31
    0.00
 40
    0.4
 72
    2
  1
RI30
  0
LINE
  8
POLIGONALES
 10
    -43.37
 20
    -5.67
 30
    0.00
 11
    -43.37
 21
    -5.67
 31
    0.00
  0
CIRCLE
  8
PUNTOS
 10
    -43.37
 20
    -5.67
 30
    0.00
 40
    0.2
  0
LINE
  8
ANCHURAS
 10
    -43.37
 20
    -5.67
 30
    0.00
 11
    -43.37
 21
    -5.67
 31
    0.00
  0
LINE
  8
CONTORNS_ANCHURAS
 10
    -43.93
 20
    -6.50
 30
    0.00
 11
    -43.37
 21
    -5.67
 31
    0.00
  0
LINE
  8
CONTORNS_ANCHURAS
 10
    -43.37
 20
    -5.67
 30
    0.00
 11
    -43.37
 21
    -5.67
 31
    0.00
  0
LINE
  8
CONTORNS_ANCHURAS
 10
    -43.37
 20
    -5.67
 30
    0.00
 11
    -43.37
 21
    -5.67
 31
    0.00
  0
TEXT
  8
ESTACIONES
 10
    -43.57
 20
    -5.67
 30
    0.00
 11
    -43.57
 21
    -5.67
 31
    0.00
 40
    0.4
 72
    2
  1
RI31
  0
TEXT
  8
PROFUNDIDADES
 10
    -43.17
 20
    -5.67
 30
    0.00
 40
    0.6
  1
+82
  0
LINE
  8
POLIGONALES
 10
    -23.49
 20
    -25.36
 30
    0.00
 11
    -16.98
 21
    -30.10
 31
    0.00
  0
CIRCLE
  8
PUNTOS
 10
    -16.98
 20
    -30.10
 30
    0.00
 40
    0.2
  0
LINE
  8
ANCHURAS
 10
    -16.50
 20
    -29.22
 30
    0.00
 11
    -16.98
 21
    -30.10
 31
    0.00
  0
LINE
  8
CONTORNS_ANCHURAS
 10
    -23.29
 20
    -24.38
 30
    0.00
 11
    -16.50
 21
    -29.22
 31
    0.00
  0
LINE
  8
CONTORNS_ANCHURAS
 10
    -23.69
 20
    -26.34
 30
    0.00
 11
    -16.98
 21
    -30.10
 31
    0.00
  0
TEXT
  8
ESTACIONES
 10
    -17.18
 20
    -30.10
 30
    0.00
 11
    -17.18
 21
    -30.10
 31
    0.00
 40
    0.4
 72
    2
  1
MA0
  0
LINE
  8
POLIGONALES
 10
    -16.98
 20
    -30.10
 30
    0.00
 11
    -10.09
 21
    -32.74
 31
    0.00
  0
CIRCLE
  8
PUNTOS
 10
    -10.09
 20
    -32.74
 30
    0.00
 40
    0.2
  0
LINE
  8
ANCHURAS
 10
    -9.98
 20
    -31.75
 30
    0.00
 11
    -10.09
 21
    -32.74
 31
    0.00
  0
LINE
  8
CONTORNS_ANCHURAS
 10
    -16.50
 20
    -29.22
 30
    0.00
 11
    -9.98
 21
    -31.75
 31
    0.00
  0
LINE
  8
CONTORNS_ANCHURAS
 10
    -16.98
 20
    -30.10
 30
    0.00
 11
    -10.09
 21
    -32.74
 31
    0.00
  0
TEXT
  8
ESTACIONES
 10
    -10.29
 20
    -32.74
 30
    0.00
 11
    -10.29
 21
    -32.74
 31
    0.00
 40
    0.4
 72
    2
  1
MA1
  0
LINE
  8
POLIGONALES
 10
    -10.09
 20
    -32.74
 30
    0.00
 11
    -3.83
 21
    -31.75
 31
    0.00
  0
CIRCLE
  8
PUNTOS
 10
    -3.83
 20
    -31.75
 30
    0.00
 40
    0.2
  0
LINE
  8
ANCHURAS
 10
    -3.89
 20
    -31.25
 30
    0.00
 11
    -3.77
 21
    -32.25
 31
    0.00
  0
LINE
  8
CONTORNS_ANCHURAS
 10
    -9.98
 20
    -31.75
 30
    0.00
 11
    -3.89
 21
    -31.25
 31
    0.00
  0
LINE
  8
CONTORNS_ANCHURAS
 10
    -10.09
 20
    -32.74
 30
    0.00
 11
    -3.77
 21
    -32.25
 31
    0.00
  0
TEXT
  8
ESTACIONES
 10
    -4.03
 20
    -31.75
 30
    0.00
 11
    -4.03
 21
    -31.75
 31
    0.00
 40
    0.4
 72
    2
  1
MA2
  0
LINE
  8
POLIGONALES
 10
    -3.83
 20
    -31.75
 30
    0.00
 11
    0.11
 21
    -31.41
 31
    0.00
  0
CIRCLE
  8
PUNTOS
 10
    0.11
 20
    -31.41
 30
    0.00
 40
    0.2
  0
LINE
  8
ANCHURAS
 10
    0.11
 20
    -31.41
 30
    0.00
 11
    0.13
 21
    -31.90
 31
    0.00
  0
LINE
  8
CONTORNS_ANCHURAS
 10
    -3.89
 20
    -31.25
 30
    0.00
 11
    0.11
 21
    -31.41
 31
    0.00
  0
LINE
  8
CONTORNS_ANCHURAS
 10
    -3.77
 20
    -32.25
 30
    0.00
 11
    0.13
 21
    -31.90
 31
    0.00
  0
TEXT
  8
ESTACIONES
 10
    -0.09
 20
    -31.41
 30
    0.00
 11
    -0.09
 21
    -31.41
 31
    0.00
 40
    0.4
 72
    2
  1
MA3
  0
LINE
  8
POLIGONALES
 10
    0.11
 20
    -31.41
 30
    0.00
 11
    6.95
 21
    -31.52
 31
    0.00
  0
CIRCLE
  8
PUNTOS
 10
    6.95
 20
    -31.52
 30
    0.00
 40
    0.2
  0
LINE
  8
ANCHURAS
 10
    7.15
 20
    -30.54
 30
    0.00
 11
    5.95
 21
    -36.42
 31
    0.00
  0
LINE
  8
CONTORNS_ANCHURAS
 10
    0.11
 20
    -31.41
 30
    0.00
 11
    7.15
 21
    -30.54
 31
    0.00
  0
LINE
  8
CONTORNS_ANCHURAS
 10
    0.13
 20
    -31.90
 30
    0.00
 11
    5.95
 21
    -36.42
 31
    0.00
  0
TEXT
  8
ESTACIONES
 10
    6.75
 20
    -31.52
 30
    0.00
 11
    6.75
 21
    -31.52
 31
    0.00
 40
    0.4
 72
    2
  1
MA4
  0
LINE
  8
POLIGONALES
 10
    6.95
 20
    -31.52
 30
    0.00
 11
    11.84
 21
    -33.50
 31
    0.00
  0
CIRCLE
  8
PUNTOS
 10
    11.84
 20
    -33.50
 30
    0.00
 40
    0.2
  0
LINE
  8
ANCHURAS
 10
    11.77
 20
    -32.01
 30
    0.00
 11
    11.90
 21
    -34.50
 31
    0.00
  0
LINE
  8
CONTORNS_ANCHURAS
 10
    7.15
 20
    -30.54
 30
    0.00
 11
    11.77
 21
    -32.01
 31
    0.00
  0
LINE
  8
CONTORNS_ANCHURAS
 10
    5.95
 20
    -36.42
 30
    0.00
 11
    11.90
 21
    -34.50
 31
    0.00
  0
TEXT
  8
ESTACIONES
 10
    11.64
 20
    -33.50
 30
    0.00
 11
    11.64
 21
    -33.50
 31
    0.00
 40
    0.4
 72
    2
  1
MA5
  0
LINE
  8
POLIGONALES
 10
    11.84
 20
    -33.50
 30
    0.00
 11
    14.79
 21
    -31.93
 31
    0.00
  0
CIRCLE
  8
PUNTOS
 10
    14.79
 20
    -31.93
 30
    0.00
 40
    0.2
  0
LINE
  8
ANCHURAS
 10
    14.79
 20
    -31.93
 30
    0.00
 11
    18.79
 21
    -32.00
 31
    0.00
  0
LINE
  8
CONTORNS_ANCHURAS
 10
    11.77
 20
    -32.01
 30
    0.00
 11
    14.79
 21
    -31.93
 31
    0.00
  0
LINE
  8
CONTORNS_ANCHURAS
 10
    11.90
 20
    -34.50
 30
    0.00
 11
    18.79
 21
    -32.00
 31
    0.00
  0
TEXT
  8
ESTACIONES
 10
    14.59
 20
    -31.93
 30
    0.00
 11
    14.59
 21
    -31.93
 31
    0.00
 40
    0.4
 72
    2
  1
MA6
  0
LINE
  8
POLIGONALES
 10
    14.79
 20
    -31.93
 30
    0.00
 11
    10.87
 21
    -29.67
 31
    0.00
  0
CIRCLE
  8
PUNTOS
 10
    10.87
 20
    -29.67
 30
    0.00
 40
    0.2
  0
LINE
  8
ANCHURAS
 10
    10.74
 20
    -30.25
 30
    0.00
 11
    11.09
 21
    -28.69
 31
    0.00
  0
LINE
  8
CONTORNS_ANCHURAS
 10
    14.79
 20
    -31.93
 30
    0.00
 11
    10.74
 21
    -30.25
 31
    0.00
  0
LINE
  8
CONTORNS_ANCHURAS
 10
    18.79
 20
    -32.00
 30
    0.00
 11
    11.09
 21
    -28.69
 31
    0.00
  0
TEXT
  8
ESTACIONES
 10
    10.67
 20
    -29.67
 30
    0.00
 11
    10.67
 21
    -29.67
 31
    0.00
 40
    0.4
 72
    2
  1
MA7
  0
LINE
  8
POLIGONALES
 10
    10.87
 20
    -29.67
 30
    0.00
 11
    5.59
 21
    -30.13
 31
    0.00
  0
CIRCLE
  8
PUNTOS
 10
    5.59
 20
    -30.13
 30
    0.00
 40
    0.2
  0
LINE
  8
ANCHURAS
 10
    5.83
 20
    -31.10
 30
    0.00
 11
    5.59
 21
    -30.13
 31
    0.00
  0
LINE
  8
CONTORNS_ANCHURAS
 10
    10.74
 20
    -30.25
 30
    0.00
 11
    5.83
 21
    -31.10
 31
    0.00
  0
LINE
  8
CONTORNS_ANCHURAS
 10
    11.09
 20
    -28.69
 30
    0.00
 11
    5.59
 21
    -30.13
 31
    0.00
  0
TEXT
  8
ESTACIONES
 10
    5.39
 20
    -30.13
 30
    0.00
 11
    5.39
 21
    -30.13
 31
    0.00
 40
    0.4
 72
    2
  1
MA8
  0
LINE
  8
POLIGONALES
 10
    5.59
 20
    -30.13
 30
    0.00
 11
    2.85
 21
    -31.29
 31
    0.00
  0
CIRCLE
  8
PUNTOS
 10
    2.85
 20
    -31.29
 30
    0.00
 40
    0.2
  0
LINE
  8
ANCHURAS
 10
    2.70
 20
    -32.28
 30
    0.00
 11
    3.00
 21
    -30.31
 31
    0.00
  0
LINE
  8
CONTORNS_ANCHURAS
 10
    5.83
 20
    -31.10
 30
    0.00
 11
    2.70
 21
    -32.28
 31
    0.00
  0
LINE
  8
CONTORNS_ANCHURAS
 10
    5.59
 20
    -30.13
 30
    0.00
 11
    3.00
 21
    -30.31
 31
    0.00
  0
TEXT
  8
ESTACIONES
 10
    2.65
 20
    -31.29
 30
    0.00
 11
    2.65
 21
    -31.29
 31
    0.00
 40
    0.4
 72
    2
  1
MA9
  0
LINE
  8
POLIGONALES
 10
    2.85
 20
    -31.29
 30
    0.00
 11
    2.12
 21
    -30.68
 31
    0.00
  0
CIRCLE
  8
PUNTOS
 10
    2.12
 20
    -30.68
 30
    0.00
 40
    0.2
  0
LINE
  8
ANCHURAS
 10
    1.46
 20
    -32.03
 30
    0.00
 11
    2.20
 21
    -30.50
 31
    0.00
  0
LINE
  8
CONTORNS_ANCHURAS
 10
    2.70
 20
    -32.28
 30
    0.00
 11
    1.46
 21
    -32.03
 31
    0.00
  0
LINE
  8
CONTORNS_ANCHURAS
 10
    3.00
 20
    -30.31
 30
    0.00
 11
    2.20
 21
    -30.50
 31
    0.00
  0
TEXT
  8
ESTACIONES
 10
    1.92
 20
    -30.68
 30
    0.00
 11
    1.92
 21
    -30.68
 31
    0.00
 40
    0.4
 72
    2
  1
MA10
  0
LINE
  8
POLIGONALES
 10
    2.12
 20
    -30.68
 30
    0.00
 11
    0.13
 21
    -30.26
 31
    0.00
  0
CIRCLE
  8
PUNTOS
 10
    0.13
 20
    -30.26
 30
    0.00
 40
    0.2
  0
LINE
  8
ANCHURAS
 10
    0.13
 20
    -30.26
 30
    0.00
 11
    0.53
 21
    -29.81
 31
    0.00
  0
LINE
  8
CONTORNS_ANCHURAS
 10
    1.46
 20
    -32.03
 30
    0.00
 11
    0.13
 21
    -30.26
 31
    0.00
  0
LINE
  8
CONTORNS_ANCHURAS
 10
    2.20
 20
    -30.50
 30
    0.00
 11
    0.53
 21
    -29.81
 31
    0.00
  0
TEXT
  8
ESTACIONES
 10
    -0.07
 20
    -30.26
 30
    0.00
 11
    -0.07
 21
    -30.26
 31
    0.00
 40
    0.4
 72
    2
  1
MA11
  0
LINE
  8
POLIGONALES
 10
    0.13
 20
    -30.26
 30
    0.00
 11
    -0.30
 21
    -28.96
 31
    0.00
  0
CIRCLE
  8
PUNTOS
 10
    -0.30
 20
    -28.96
 30
    0.00
 40
    0.2
  0
LINE
  8
ANCHURAS
 10
    -1.19
 20
    -29.40
 30
    0.00
 11
    0.60
 21
    -28.51
 31
    0.00
  0
LINE
  8
CONTORNS_ANCHURAS
 10
    0.13
 20
    -30.26
 30
    0.00
 11
    -1.19
 21
    -29.40
 31
    0.00
  0
LINE
  8
CONTORNS_ANCHURAS
 10
    0.53
 20
    -29.81
 30
    0.00
 11
    0.60
 21
    -28.51
 31
    0.00
  0
TEXT
  8
ESTACIONES
 10
    -0.50
 20
    -28.96
 30
    0.00
 11
    -0.50
 21
    -28.96
 31
    0.00
 40
    0.4
 72
    2
  1
MA12
  0
LINE
  8
POLIGONALES
 10
    -0.30
 20
    -28.96
 30
    0.00
 11
    -1.38
 21
    -27.40
 31
    0.00
  0
CIRCLE
  8
PUNTOS
 10
    -1.38
 20
    -27.40
 30
    0.00
 40
    0.2
  0
LINE
  8
ANCHURAS
 10
    -1.67
 20
    -27.48
 30
    0.00
 11
    0.06
 21
    -27.02
 31
    0.00
  0
LINE
  8
CONTORNS_ANCHURAS
 10
    -1.19
 20
    -29.40
 30
    0.00
 11
    -1.67
 21
    -27.48
 31
    0.00
  0
LINE
  8
CONTORNS_ANCHURAS
 10
    0.60
 20
    -28.51
 30
    0.00
 11
    0.06
 21
    -27.02
 31
    0.00
  0
TEXT
  8
ESTACIONES
 10
    -1.58
 20
    -27.40
 30
    0.00
 11
    -1.58
 21
    -27.40
 31
    0.00
 40
    0.4
 72
    2
  1
MA13
  0
LINE
  8
POLIGONALES
 10
    -1.38
 20
    -27.40
 30
    0.00
 11
    -0.90
 21
    -21.85
 31
    0.00
  0
CIRCLE
  8
PUNTOS
 10
    -0.90
 20
    -21.85
 30
    0.00
 40
    0.2
  0
LINE
  8
ANCHURAS
 10
    -1.87
 20
    -22.06
 30
    0.00
 11
    -0.90
 21
    -21.85
 31
    0.00
  0
LINE
  8
CONTORNS_ANCHURAS
 10
    -1.67
 20
    -27.48
 30
    0.00
 11
    -1.87
 21
    -22.06
 31
    0.00
  0
LINE
  8
CONTORNS_ANCHURAS
 10
    0.06
 20
    -27.02
 30
    0.00
 11
    -0.90
 21
    -21.85
 31
    0.00
  0
TEXT
  8
ESTACIONES
 10
    -1.10
 20
    -21.85
 30
    0.00
 11
    -1.10
 21
    -21.85
 31
    0.00
 40
    0.4
 72
    2
  1
MA14
  0
LINE
  8
POLIGONALES
 10
    -0.90
 20
    -21.85
 30
    0.00
 11
    -3.25
 21
    -17.77
 31
    0.00
  0
CIRCLE
  8
PUNTOS
 10
    -3.25
 20
    -17.77
 30
    0.00
 40
    0.2
  0
LINE
  8
ANCHURAS
 10
    -4.60
 20
    -19.87
 30
    0.00
 11
    -2.18
 21
    -16.08
 31
    0.00
  0
LINE
  8
CONTORNS_ANCHURAS
 10
    -1.87
 20
    -22.06
 30
    0.00
 11
    -4.60
 21
    -19.87
 31
    0.00
  0
LINE
  8
CONTORNS_ANCHURAS
 10
    -0.90
 20
    -21.85
 30
    0.00
 11
    -2.18
 21
    -16.08
 31
    0.00
  0
TEXT
  8
ESTACIONES
 10
    -3.45
 20
    -17.77
 30
    0.00
 11
    -3.45
 21
    -17.77
 31
    0.00
 40
    0.4
 72
    2
  1
MA15
  0
LINE
  8
POLIGONALES
 10
    -3.25
 20
    -17.77
 30
    0.00
 11
    -13.99
 21
    -16.83
 31
    0.00
  0
CIRCLE
  8
PUNTOS
 10
    -13.99
 20
    -16.83
 30
    0.00
 40
    0.2
  0
LINE
  8
ANCHURAS
 10
    -14.17
 20
    -18.82
 30
    0.00
 11
    -13.64
 21
    -12.84
 31
    0.00
  0
LINE
  8
CONTORNS_ANCHURAS
 10
    -4.60
 20
    -19.87
 30
    0.00
 11
    -14.17
 21
    -18.82
 31
    0.00
  0
LINE
  8
CONTORNS_ANCHURAS
 10
    -2.18
 20
    -16.08
 30
    0.00
 11
    -13.64
 21
    -12.84
 31
    0.00
  0
LINE
  8
CONTORNS_ANCHURAS
 10
    -14.17
 20
    -18.82
 30
    0.00
 11
    -13.64
 21
    -12.84
 31
    0.00
  0
TEXT
  8
ESTACIONES
 10
    -14.19
 20
    -16.83
 30
    0.00
 11
    -14.19
 21
    -16.83
 31
    0.00
 40
    0.4
 72
    2
  1
MA16
  0
TEXT
  8
PROFUNDIDADES
 10
    -13.79
 20
    -16.83
 30
    0.00
 40
    0.6
  1
+80
  0
TEXT
  8
ESCALA
 10
    -43.93
 20
    -40.00
 30
    0.00
 40
    1.2
  1
0
  0
TEXT
  8
ESCALA
 10
    -22.14
 20
    -40.00
 30
    0.00
 40
    1.2
  1
20 m
  0
LINE
  8
ESCALA
 10
    -42.74
 20
    -38.81
 30
    0.00
 11
    -22.74
 21
    -38.81
 31
    0.00
  0
LINE
  8
ESCALA
 10
    -22.74
 20
    -38.81
 30
    0.00
 11
    -22.74
 21
    -40.00
 31
    0.00
  0
LINE
  8
ESCALA
 10
    -22.74
 20
    -40.00
 30
    0.00
 11
    -42.74
 21
    -40.00
 31
    0.00
  0
LINE
  8
ESCALA
 10
    -42.74
 20
    -40.00
 30
    0.00
 11
    -42.74
 21
    -38.81
 31
    0.00
  0
SOLID
  8
ESCALA
 10
    -42.74
 20
    -38.81
 30
    0.00
 11
    -40.74
 21
    -38.81
 31
    0.00
 12
    -42.74
 22
    -39.40
 32
    0.00
 13
    -40.74
 23
    -39.40
 33
    0.00
  0
SOLID
  8
ESCALA
 10
    -40.74
 20
    -39.40
 30
    0.00
 11
    -38.74
 21
    -39.40
 31
    0.00
 12
    -40.74
 22
    -40.00
 32
    0.00
 13
    -38.74
 23
    -40.00
 33
    0.00
  0
SOLID
  8
ESCALA
 10
    -38.74
 20
    -38.81
 30
    0.00
 11
    -36.74
 21
    -38.81
 31
    0.00
 12
    -38.74
 22
    -39.40
 32
    0.00
 13
    -36.74
 23
    -39.40
 33
    0.00
  0
SOLID
  8
ESCALA
 10
    -36.74
 20
    -39.40
 30
    0.00
 11
    -34.74
 21
    -39.40
 31
    0.00
 12
    -36.74
 22
    -40.00
 32
    0.00
 13
    -34.74
 23
    -40.00
 33
    0.00
  0
SOLID
  8
ESCALA
 10
    -34.74
 20
    -38.81
 30
    0.00
 11
    -32.74
 21
    -38.81
 31
    0.00
 12
    -34.74
 22
    -39.40
 32
    0.00
 13
    -32.74
 23
    -39.40
 33
    0.00
  0
SOLID
  8
ESCALA
 10
    -32.74
 20
    -39.40
 30
    0.00
 11
    -22.74
 21
    -39.40
 31
    0.00
 12
    -32.74
 22
    -40.00
 32
    0.00
 13
    -22.74
 23
    -40.00
 33
    0.00
  0
ENDSEC
  0
EOF
