<?xml version="1.0" encoding="utf-8" standalone="no"?>
<!-- Generated by Therion 6.0.6 (2022-03-12) -->
<!DOCTYPE svg PUBLIC "-//W3C//DTD SVG 1.1//EN" "http://www.w3.org/Graphics/SVG/1.1/DTD/svg11.dtd">
<svg width="6.868cm" height="11.313cm" viewBox="-126.614 -30.826 194.693 320.693" xmlns="http://www.w3.org/2000/svg" xmlns:xlink="http://www.w3.org/1999/xlink">
<defs>
<g id="F_aaaaaaa_data/211/Gouffre36/Gouffre36-e.svg">
<g>
<clipPath id="clip_1_data/211/Gouffre36/Gouffre36-e.svg">
  <path d="M-81.660 256.590C-36.553 257.370 8.553 258.150 53.660 258.930C53.660 258.930 34.460 260.340 33.060 258.000C31.650 255.650 26.970 235.990 26.970 227.090C26.970 218.200 24.630 184.950 24.630 181.210C24.630 177.460 28.840 152.650 28.840 144.220C28.840 135.790 25.100 111.440 25.100 95.990C25.100 80.540 26.030 51.980 26.030 36.990C26.030 22.010 28.370 11.240 28.370 11.240C28.683 7.183 28.997 3.127 29.310 -0.930C22.600 -0.307 15.890 0.317 9.180 0.940C9.180 0.940 -8.150 -2.340 -10.490 -0.460C-10.490 -0.460 -10.490 -0.460 -10.490 -0.460C-12.830 1.410 -14.230 5.620 -14.230 9.370C-14.230 13.120 -3.470 57.600 -2.530 71.170C-1.590 84.750 4.030 95.990 4.030 114.720C4.030 133.450 8.240 158.260 6.370 158.730C4.490 159.200 -3.930 164.350 -3.460 167.630C-3.000 170.910 7.770 186.360 5.900 192.440C4.030 198.530 -11.890 227.090 -11.890 227.090C-19.070 227.560 -26.250 228.030 -33.430 228.500C-33.430 228.500 -42.800 228.500 -47.010 228.970C-51.220 229.430 -56.370 254.720 -56.370 254.720C-56.370 254.720 -60.120 258.000 -65.270 258.000C-70.420 258.000 -81.660 256.590 -81.660 256.590" />
</clipPath>
<g clip-path="url(#clip_1_data/211/Gouffre36/Gouffre36-e.svg)">
<path fill="none" stroke="#cc0000" stroke-width="1.000" d="M24.040 191.250L18.000 174.870L16.060 161.290L10.890 151.370L7.440 143.400" />
<path fill="none" stroke="#cc0000" stroke-width="1.000" d="M16.060 161.290C16.060 161.290 16.490 149.220 16.490 144.690C16.490 144.690 17.140 136.070 18.650 132.620C20.160 129.170 18.440 116.230 18.440 115.370L18.440 98.340C18.440 96.830 17.140 88.640 17.570 80.450C18.000 72.250 21.670 58.890 21.670 57.160C21.670 55.440 20.380 43.580 20.380 43.580" />
<path fill="none" stroke="#cc0000" stroke-width="1.000" d="M9.380 104.590C9.380 104.590 9.600 89.290 9.600 85.840C9.600 82.390 9.810 74.190 10.240 68.370C10.670 62.550 11.110 56.520 11.110 52.850C11.110 49.190 11.110 34.740 11.110 34.740" />
<path fill="none" stroke="#cc0000" stroke-width="1.000" d="M2.910 61.690C2.910 61.690 1.400 43.150 1.400 37.980C1.400 32.800 6.580 11.460 6.580 11.460L9.180 0.940" />
<path fill="none" stroke="#cc0000" stroke-width="1.000" d="M22.530 186.940C22.530 186.940 23.820 160.210 23.820 155.040C23.820 149.860 23.820 139.730 23.820 134.560C23.820 129.380 25.330 111.710 25.330 111.710" />
<path fill="none" stroke="#cc0000" stroke-width="1.000" d="M7.660 167.760C7.660 167.760 9.380 185.430 9.380 189.530C9.380 193.630 5.070 213.030 5.070 213.030L5.720 214.970" />
<path fill="none" stroke="#cc0000" stroke-width="1.000" d="M19.300 253.770C19.300 253.770 19.940 247.520 19.940 241.700C19.940 241.700 17.790 229.630 17.790 225.320C17.790 221.000 16.930 202.250 16.930 202.250" />
<path fill="none" stroke="#b2b2b2" stroke-width="0.350" d="M15.270 2.400L15.270 257.520" />
<path fill="none" stroke="#b2b2b2" stroke-width="0.350" d="M15.270 257.520L15.270 2.400" />
</g>
</g>
</g>
<g id="G_aaaaaaa_data/211/Gouffre36/Gouffre36-e.svg">
</g>
<g id="B_aaaaaaa_data/211/Gouffre36/Gouffre36-e.svg">
<path fill="none" stroke="inherit" stroke-width="0.350" d="M0.340 258.590C0.340 258.590 11.580 260.000 16.730 260.000C21.880 260.000 25.630 256.720 25.630 256.720C25.630 256.720 30.780 231.430 34.990 230.970C39.200 230.500 48.570 230.500 48.570 230.500L70.110 229.090C70.110 229.090 86.030 200.530 87.900 194.440C89.770 188.360 79.000 172.910 78.540 169.630C78.070 166.350 86.490 161.200 88.370 160.730C90.240 160.260 86.030 135.450 86.030 116.720C86.030 97.990 80.410 86.750 79.470 73.170C78.530 59.600 67.770 15.120 67.770 11.370C67.770 7.620 69.170 3.410 71.510 1.540" />
<path fill="none" stroke="inherit" stroke-width="0.350" d="M71.510 1.540C73.850 -0.340 91.180 2.940 91.180 2.940L111.310 1.070" />
<path fill="none" stroke="inherit" stroke-width="0.350" d="M110.370 13.240C110.370 13.240 108.030 24.010 108.030 38.990C108.030 53.980 107.100 82.540 107.100 97.990C107.100 113.440 110.840 137.790 110.840 146.220C110.840 154.650 106.630 179.460 106.630 183.210C106.630 186.950 108.970 220.200 108.970 229.090C108.970 237.990 113.650 257.650 115.060 260.000C116.460 262.340 135.660 260.930 135.660 260.930" />
</g>
<g id="I_aaaaaaa_data/211/Gouffre36/Gouffre36-e.svg">
<path fill="inherit" stroke="none" d="M0.340 258.590C45.447 259.370 90.553 260.150 135.660 260.930C135.660 260.930 116.460 262.340 115.060 260.000C113.650 257.650 108.970 237.990 108.970 229.090C108.970 220.200 106.630 186.950 106.630 183.210C106.630 179.460 110.840 154.650 110.840 146.220C110.840 137.790 107.100 113.440 107.100 97.990C107.100 82.540 108.030 53.980 108.030 38.990C108.030 24.010 110.370 13.240 110.370 13.240C110.683 9.183 110.997 5.127 111.310 1.070C104.600 1.693 97.890 2.317 91.180 2.940C91.180 2.940 73.850 -0.340 71.510 1.540C71.510 1.540 71.510 1.540 71.510 1.540C69.170 3.410 67.770 7.620 67.770 11.370C67.770 15.120 78.530 59.600 79.470 73.170C80.410 86.750 86.030 97.990 86.030 116.720C86.030 135.450 90.240 160.260 88.370 160.730C86.490 161.200 78.070 166.350 78.540 169.630C79.000 172.910 89.770 188.360 87.900 194.440C86.030 200.530 70.110 229.090 70.110 229.090C62.930 229.560 55.750 230.030 48.570 230.500C48.570 230.500 39.200 230.500 34.990 230.970C30.780 231.430 25.630 256.720 25.630 256.720C25.630 256.720 21.880 260.000 16.730 260.000C11.580 260.000 0.340 258.590 0.340 258.590Z" />
</g>
<g id="E_aaaaaaa_data/211/Gouffre36/Gouffre36-e.svg">
<path fill="none" stroke="#000000" stroke-width="1.000" d="M111.370 15.240C111.370 15.240 109.030 26.010 109.030 40.990C109.030 55.980 108.100 84.540 108.100 99.990C108.100 115.440 111.840 139.790 111.840 148.220C111.840 156.650 107.630 181.460 107.630 185.210C107.630 188.950 109.970 222.200 109.970 231.090C109.970 239.990 114.650 259.650 116.060 262.000C117.460 264.340 136.660 262.930 136.660 262.930" />
<path fill="none" stroke="#000000" stroke-width="1.000" d="M1.340 260.590C1.340 260.590 12.580 262.000 17.730 262.000C22.880 262.000 26.630 258.720 26.630 258.720C26.630 258.720 31.780 233.430 35.990 232.970C40.200 232.500 49.570 232.500 49.570 232.500L71.110 231.090C71.110 231.090 87.030 202.530 88.900 196.440C90.770 190.360 80.000 174.910 79.540 171.630C79.070 168.350 87.490 163.200 89.370 162.730C91.240 162.260 87.030 137.450 87.030 118.720C87.030 99.990 81.410 88.750 80.470 75.170C79.530 61.600 68.770 17.120 68.770 13.370C68.770 9.620 70.170 5.410 72.510 3.540" />
<path fill="none" stroke="#4c4c4c" stroke-width="0.500" d="M71.592 1.896C71.584 2.685 72.724 2.879 73.345 3.168C74.124 2.820 74.828 2.707 76.709 2.816C76.953 2.592 77.472 1.674 77.659 0.730" />
<path fill="none" stroke="#4c4c4c" stroke-width="0.500" d="M76.964 0.947C77.569 1.852 77.275 2.592 78.019 3.287C79.500 2.760 80.846 3.548 82.209 2.966C82.368 2.743 82.502 1.836 82.841 1.491" />
<path fill="none" stroke="#4c4c4c" stroke-width="0.500" d="M82.029 1.717C82.133 2.367 82.372 3.039 83.104 3.826C84.127 3.910 86.003 4.087 86.921 4.104C87.486 3.619 87.067 2.545 87.386 1.858" />
<path fill="none" stroke="#4c4c4c" stroke-width="0.500" d="M87.269 2.185C87.492 2.622 87.278 3.358 88.050 4.471C90.110 4.789 91.040 4.350 92.075 5.018C92.312 4.227 92.454 3.996 92.747 2.702" />
<path fill="none" stroke="#4c4c4c" stroke-width="0.500" d="M91.298 3.747C92.061 4.110 92.575 4.480 93.205 4.623C94.505 4.710 95.648 4.958 97.044 4.825C96.748 3.798 96.653 2.851 97.034 2.466" />
<path fill="none" stroke="#4c4c4c" stroke-width="0.500" d="M96.557 3.214C96.918 3.812 97.335 4.113 97.865 4.529C99.073 4.059 100.867 4.290 101.490 3.870C102.187 3.564 101.949 3.010 101.910 1.754" />
<path fill="none" stroke="#4c4c4c" stroke-width="0.500" d="M101.501 2.189C101.723 3.185 102.084 3.718 102.783 3.782C104.041 3.549 105.258 4.032 106.542 3.719C107.151 2.854 106.674 2.545 106.959 1.686" />
<path fill="none" stroke="#4c4c4c" stroke-width="0.500" d="M106.635 2.182C106.986 2.152 107.339 2.986 108.135 3.077C109.553 3.164 110.249 3.654 111.854 2.714C111.815 2.273 111.889 1.740 112.328 0.852" />
<path fill="#ffffff" stroke="none" d="M97.770 261.020C97.494 261.296 97.494 261.744 97.770 262.020C98.046 262.296 98.494 262.296 98.770 262.020C99.046 261.744 99.046 261.296 98.770 261.020C98.494 260.744 98.046 260.744 97.770 261.020Z" />
<path fill="none" stroke="#999999" stroke-width="0.350" d="M97.770 261.020C97.494 261.296 97.494 261.744 97.770 262.020C98.046 262.296 98.494 262.296 98.770 262.020C99.046 261.744 99.046 261.296 98.770 261.020C98.494 260.744 98.046 260.744 97.770 261.020Z" />
<path fill="#ffffff" stroke="none" d="M97.770 5.900C97.494 6.176 97.494 6.624 97.770 6.900C98.046 7.176 98.494 7.176 98.770 6.900C99.046 6.624 99.046 6.176 98.770 5.900C98.494 5.624 98.046 5.624 97.770 5.900Z" />
<path fill="none" stroke="#999999" stroke-width="0.350" d="M97.770 5.900C97.494 6.176 97.494 6.624 97.770 6.900C98.046 7.176 98.494 7.176 98.770 6.900C99.046 6.624 99.046 6.176 98.770 5.900C98.494 5.624 98.046 5.624 97.770 5.900Z" />
</g>
<g id="X_aaaaaaa_data/211/Gouffre36/Gouffre36-e.svg">
</g>
<clipPath id="clip_viewBox">
<path d="M-126.614 -289.867L68.079 -289.867L68.079 30.826L-126.614 30.826z" />
</clipPath>
</defs>
<g transform="scale(1,-1)" fill="#000000" stroke="#000000" stroke-linecap="round" stroke-linejoin="round" stroke-miterlimit="10" fill-rule="evenodd" clip-rule="evenodd" clip-path="url(#clip_viewBox)">
<g fill="#ffffff">
<use x="-97.267" y="-259.520" xlink:href="#I_aaaaaaa_data/211/Gouffre36/Gouffre36-e.svg" />
</g>
<use x="-15.267" y="-257.520" xlink:href="#F_aaaaaaa_data/211/Gouffre36/Gouffre36-e.svg" />
<use x="-98.267" y="-261.520" xlink:href="#E_aaaaaaa_data/211/Gouffre36/Gouffre36-e.svg" />
</g>
</svg>
